{"asset":{"generator":"Khronos glTF Blender I/O v5.2.40","version":"2.0"},"scene":0,"scenes":[{"name":"Scene","nodes":[0]}],"nodes":[{"mesh":0,"name":"TF3_BLD_Well_Roofed_01"}],"materials":[{"doubleSided":true,"name":"TF3_BLD_MAT_metal_aged","normalTexture":{"index":0},"pbrMetallicRoughness":{"baseColorTexture":{"index":1},"metallicFactor":0,"metallicRoughnessTexture":{"index":2}}},{"doubleSided":true,"name":"TF3_BLD_MAT_iron","pbrMetallicRoughness":{"baseColorFactor":[0.04600000008940697,0.06499999761581421,0.0560000017285347,1],"metallicFactor":0.6000000238418579,"roughnessFactor":0.44999998807907104}},{"doubleSided":true,"name":"TF3_BLD_MAT_dark","pbrMetallicRoughness":{"baseColorFactor":[0.01600000075995922,0.027000000700354576,0.023000000044703484,1],"metallicFactor":0,"roughnessFactor":0.699999988079071}},{"doubleSided":true,"name":"TF3_BLD_MAT_wood_dark","normalTexture":{"index":3},"pbrMetallicRoughness":{"baseColorTexture":{"index":4},"metallicFactor":0,"metallicRoughnessTexture":{"index":5}}},{"doubleSided":true,"name":"TF3_BLD_MAT_concrete","normalTexture":{"index":6},"pbrMetallicRoughness":{"baseColorTexture":{"index":7},"metallicFactor":0,"metallicRoughnessTexture":{"index":8}}},{"doubleSided":true,"name":"TF3_BLD_MAT_laterite","normalTexture":{"index":9},"pbrMetallicRoughness":{"baseColorTexture":{"index":10},"metallicFactor":0,"metallicRoughnessTexture":{"index":11}}},{"doubleSided":true,"name":"TF3_BLD_MAT_roof_dark","normalTexture":{"index":12},"pbrMetallicRoughness":{"baseColorTexture":{"index":13},"metallicFactor":0,"metallicRoughnessTexture":{"index":14}}},{"doubleSided":true,"name":"TF3_BLD_MAT_plaster_old","normalTexture":{"index":15},"pbrMetallicRoughness":{"baseColorTexture":{"index":16},"metallicFactor":0,"metallicRoughnessTexture":{"index":17}}},{"doubleSided":true,"name":"TF3_BLD_MAT_steel","pbrMetallicRoughness":{"baseColorFactor":[0.5,0.5899999737739563,0.5899999737739563,1],"metallicFactor":0.8999999761581421,"roughnessFactor":0.23999999463558197}},{"doubleSided":true,"name":"TF3_BLD_MAT_roof_clay","normalTexture":{"index":18},"pbrMetallicRoughness":{"baseColorTexture":{"index":19},"metallicFactor":0,"metallicRoughnessTexture":{"index":20}}},{"doubleSided":true,"name":"TF3_BLD_MAT_roof_light","normalTexture":{"index":21},"pbrMetallicRoughness":{"baseColorTexture":{"index":22},"metallicFactor":0,"metallicRoughnessTexture":{"index":23}}},{"doubleSided":true,"name":"TF3_BLD_MAT_wood_faded","normalTexture":{"index":24},"pbrMetallicRoughness":{"baseColorTexture":{"index":25},"metallicFactor":0,"metallicRoughnessTexture":{"index":26}}},{"doubleSided":true,"name":"TF3_BLD_MAT_coir","normalTexture":{"index":27},"pbrMetallicRoughness":{"baseColorTexture":{"index":28},"metallicFactor":0,"metallicRoughnessTexture":{"index":29}}}],"meshes":[{"name":"BLD_Well_Roofed_01_Bucket_Mesh","primitives":[{"attributes":{"POSITION":0,"NORMAL":1,"TEXCOORD_0":2},"indices":3,"material":0},{"attributes":{"POSITION":4,"NORMAL":5,"TEXCOORD_0":6},"indices":7,"material":1},{"attributes":{"POSITION":8,"NORMAL":9,"TEXCOORD_0":10},"indices":11,"material":2},{"attributes":{"POSITION":12,"NORMAL":13,"TEXCOORD_0":14},"indices":15,"material":3},{"attributes":{"POSITION":16,"NORMAL":17,"TEXCOORD_0":18},"indices":19,"material":4},{"attributes":{"POSITION":20,"NORMAL":21,"TEXCOORD_0":22},"indices":23,"material":5},{"attributes":{"POSITION":24,"NORMAL":25,"TEXCOORD_0":26},"indices":27,"material":6},{"attributes":{"POSITION":28,"NORMAL":29,"TEXCOORD_0":30},"indices":31,"material":7},{"attributes":{"POSITION":32,"NORMAL":33,"TEXCOORD_0":34},"indices":35,"material":8},{"attributes":{"POSITION":36,"NORMAL":37,"TEXCOORD_0":38},"indices":39,"material":9},{"attributes":{"POSITION":40,"NORMAL":41,"TEXCOORD_0":42},"indices":43,"material":10},{"attributes":{"POSITION":44,"NORMAL":45,"TEXCOORD_0":46},"indices":47,"material":11},{"attributes":{"POSITION":48,"NORMAL":49,"TEXCOORD_0":50},"indices":51,"material":12}]}],"textures":[{"sampler":0,"source":0},{"sampler":0,"source":1},{"sampler":0,"source":2},{"sampler":0,"source":3},{"sampler":0,"source":4},{"sampler":0,"source":5},{"sampler":0,"source":6},{"sampler":0,"source":7},{"sampler":0,"source":8},{"sampler":0,"source":9},{"sampler":0,"source":10},{"sampler":0,"source":11},{"sampler":0,"source":12},{"sampler":0,"source":13},{"sampler":0,"source":14},{"sampler":0,"source":15},{"sampler":0,"source":16},{"sampler":0,"source":17},{"sampler":0,"source":18},{"sampler":0,"source":19},{"sampler":0,"source":20},{"sampler":0,"source":21},{"sampler":0,"source":22},{"sampler":0,"source":23},{"sampler":0,"source":24},{"sampler":0,"source":25},{"sampler":0,"source":26},{"sampler":0,"source":27},{"sampler":0,"source":28},{"sampler":0,"source":29}],"images":[{"name":"metal_aged_normal","uri":"textures/ac3bb8dbd362b722ab9339d6dba5fea9a108094d8a86a4093a89ab9811737f9c.png"},{"name":"metal_aged","uri":"textures/4bc0f4595b217fa2b3fbd0b9c4c968385b245f494d601e3f55ec62fe7b54986a.png"},{"name":"metal_aged_rough","uri":"textures/f934ad8b9af087684547d96a5048502288be6afb13a9b00811524dc5c214a6f2.png"},{"name":"wood_dark_normal","uri":"textures/7298861d9356585aba47cc47903b493b567b46ecc27dfaab9e1510a59d081093.png"},{"name":"wood_dark","uri":"textures/e30bc20ceb6832b672870995e672a53b088aa7c6c94315dcf684e765f8667e2e.png"},{"name":"wood_dark_rough","uri":"textures/c07076bdffa20198cecc831b4083d58b000c0df155d4fd4e64effa2d6f3f32b0.png"},{"name":"concrete_normal","uri":"textures/f877b70294b37b7d16a581bcff5e00affa28e36ccc656c85d099cc94519ef374.png"},{"name":"concrete","uri":"textures/065d46ec82b79f327f73b504b71672ce54806ed26283a82cedab238187186da1.png"},{"name":"concrete_rough","uri":"textures/f657e6602ccf8e985b9d81d0e8f0d85e491c1c3799ea0f5e6df9ab3dfa885f3e.png"},{"name":"laterite_normal","uri":"textures/3e5cb2c37df3bdef66fab4c9dd9b68c33bd0684f990273ba10a400b634a3955b.png"},{"name":"laterite","uri":"textures/7d8d5bbad01a8684c331f3f2a5922da596fe832240b9e7f5545dac96068ae450.png"},{"name":"laterite_rough","uri":"textures/55f17989b98db7f71d08e8cdb47dcbb99c7eed8e5ce43ed411677fad3599b3ca.png"},{"name":"roof_dark_normal","uri":"textures/c138914fbacba88a30a36abadc76a0d32dbf81aa1fdbf8573680f71842371e77.png"},{"name":"roof_dark","uri":"textures/e18c34af686eb31dc6db4ee84f9e9415c949ed9d9ec2dc7e90ebd021029dcdca.png"},{"name":"roof_dark_rough","uri":"textures/fb91dd4e2aaece09907bd40a2ae950eea12b24de695f17587a5cf6a11597c3f8.png"},{"name":"plaster_old_normal","uri":"textures/dcbd71fab833f19c06251a853da28b4864fd657a8819487e7a6bbd3b0e822f2a.png"},{"name":"plaster_old","uri":"textures/0c461abf3d92f5787cd5a13315d65276b546fe7172c9ccf2f0f2da05f097667d.png"},{"name":"plaster_old_rough","uri":"textures/a5f8b739535a330c31b9d963d438b08c078f9a56eaac999174bd576127522fcf.png"},{"name":"roof_clay_normal","uri":"textures/143a7223b384c31829cce283b5ee254a441744d2358ef3624b6bb033ddd8b1a0.png"},{"name":"roof_clay","uri":"textures/1fcd967f1cf6b8e0963f94b42e340542745862e70eea0f4bf27924afc312eb26.png"},{"name":"roof_clay_rough","uri":"textures/6787cc2f3afd50c72c4e9b102a31ffa7bb06213e4b290d28a4f5745d395cbaa8.png"},{"name":"roof_light_normal","uri":"textures/7f9178e1750557e99239a1876126ef7736444b49858585436d441d666f303dab.png"},{"name":"roof_light","uri":"textures/7cd2418b6ab2ee82d40f72f3ff9867060ca36effc656d7be93b39a6d97ef2ed4.png"},{"name":"roof_light_rough","uri":"textures/d6b2096352af38768acab3cbb954fb4ed1542ac8181080ccb467158dae9d9809.png"},{"name":"wood_faded_normal","uri":"textures/118ee8ea68dc212c360056b4c962436f80beaa1b801238847dde4965f1e9fbe3.png"},{"name":"wood_faded","uri":"textures/70d4e74265e03457fd7d7bfa03b233af49d3a3b0ada4edfd91bbd94038ef64e2.png"},{"name":"wood_faded_rough","uri":"textures/aead5d297cbdd01da9c83a7479733033393e22db2eaa95b67e15b24b4a88370d.png"},{"name":"coir_normal","uri":"textures/75a73ad923fbbcb4bd18d61afeb175fac48dc6f8490992a2f1133ec1ed0755d2.png"},{"name":"coir","uri":"textures/52ab3ed662f7cda6f836336ff0caa40ced6084720ed9b635bbd6935e5f042443.png"},{"name":"coir_rough","uri":"textures/f1d3a8c62c5caf495144753cb83533a90f12dd643f6bad0702717275eec3d69e.png"}],"accessors":[{"bufferView":0,"componentType":5126,"count":264,"max":[0.29899999499320984,0.5,0.18900001049041748],"min":[-0.07900000363588333,0.17000000178813934,-0.1889999806880951],"type":"VEC3"},{"bufferView":1,"componentType":5126,"count":264,"type":"VEC3"},{"bufferView":2,"componentType":5126,"count":264,"type":"VEC2"},{"bufferView":3,"componentType":5123,"count":852,"type":"SCALAR"},{"bufferView":4,"componentType":5126,"count":2489,"max":[0.2687695026397705,2.6599998474121094,0.14499999582767487],"min":[-0.13151340186595917,0.4479762613773346,-0.14499999582767487],"type":"VEC3"},{"bufferView":5,"componentType":5126,"count":2489,"type":"VEC3"},{"bufferView":6,"componentType":5126,"count":2489,"type":"VEC2"},{"bufferView":7,"componentType":5123,"count":4644,"type":"SCALAR"},{"bufferView":8,"componentType":5126,"count":168,"max":[0.6000000238418579,0.017999999225139618,0.6000000238418579],"min":[-0.6000000238418579,0.014000000432133675,-0.6000000238418579],"type":"VEC3"},{"bufferView":9,"componentType":5126,"count":168,"type":"VEC3"},{"bufferView":10,"componentType":5126,"count":168,"type":"VEC2"},{"bufferView":11,"componentType":5123,"count":468,"type":"SCALAR"},{"bufferView":12,"componentType":5126,"count":536,"max":[1.5100001096725464,3.178718090057373,1.0782599449157715],"min":[-1.5100001096725464,0.13999998569488525,-1.0782599449157715],"type":"VEC3"},{"bufferView":13,"componentType":5126,"count":536,"type":"VEC3"},{"bufferView":14,"componentType":5126,"count":536,"type":"VEC2"},{"bufferView":15,"componentType":5123,"count":804,"type":"SCALAR"},{"bufferView":16,"componentType":5126,"count":1080,"max":[0.9599999785423279,0.9800000190734863,0.9599999785423279],"min":[-0.9599999785423279,0,-1.5],"type":"VEC3"},{"bufferView":17,"componentType":5126,"count":1080,"type":"VEC3"},{"bufferView":18,"componentType":5126,"count":1080,"type":"VEC2"},{"bufferView":19,"componentType":5123,"count":2148,"type":"SCALAR"},{"bufferView":20,"componentType":5126,"count":1200,"max":[1.3049999475479126,0.828000009059906,0.8699647784233093],"min":[-1.3049999475479126,0,-0.8699647784233093],"type":"VEC3"},{"bufferView":21,"componentType":5126,"count":1200,"type":"VEC3"},{"bufferView":22,"componentType":5126,"count":1200,"type":"VEC2"},{"bufferView":23,"componentType":5123,"count":1800,"type":"SCALAR"},{"bufferView":24,"componentType":5126,"count":1838,"max":[1.465000033378601,3.309999942779541,1.0725339651107788],"min":[-1.4850000143051147,0.17000000178813934,-1.0725339651107788],"type":"VEC3"},{"bufferView":25,"componentType":5126,"count":1838,"type":"VEC3"},{"bufferView":26,"componentType":5126,"count":1838,"type":"VEC2"},{"bufferView":27,"componentType":5123,"count":3168,"type":"SCALAR"},{"bufferView":28,"componentType":5126,"count":480,"max":[0.8360000252723694,0.8600000143051147,0.8360000252723694],"min":[-0.8360000252723694,0.1599999964237213,-0.8360000252723694],"type":"VEC3"},{"bufferView":29,"componentType":5126,"count":480,"type":"VEC3"},{"bufferView":30,"componentType":5126,"count":480,"type":"VEC2"},{"bufferView":31,"componentType":5123,"count":960,"type":"SCALAR"},{"bufferView":32,"componentType":5126,"count":300,"max":[0.025000013411045074,2.4050002098083496,0.14000000059604645],"min":[-0.8999998569488525,0.07999999821186066,-1.4700000286102295],"type":"VEC3"},{"bufferView":33,"componentType":5126,"count":300,"type":"VEC3"},{"bufferView":34,"componentType":5126,"count":300,"type":"VEC2"},{"bufferView":35,"componentType":5123,"count":984,"type":"SCALAR"},{"bufferView":36,"componentType":5126,"count":2550,"max":[1.4650001525878906,3.2104763984680176,1.0725338459014893],"min":[-1.4649999141693115,2.5791282653808594,-1.0725339651107788],"type":"VEC3"},{"bufferView":37,"componentType":5126,"count":2550,"type":"VEC3"},{"bufferView":38,"componentType":5126,"count":2550,"type":"VEC2"},{"bufferView":39,"componentType":5123,"count":4608,"type":"SCALAR"},{"bufferView":40,"componentType":5126,"count":242,"max":[1.2396154403686523,3.2104763984680176,1.0725339651107788],"min":[-1.014230728149414,2.5791282653808594,-0.5475337505340576],"type":"VEC3"},{"bufferView":41,"componentType":5126,"count":242,"type":"VEC3"},{"bufferView":42,"componentType":5126,"count":242,"type":"VEC2"},{"bufferView":43,"componentType":5123,"count":432,"type":"SCALAR"},{"bufferView":44,"componentType":5126,"count":72,"max":[1.160153865814209,2.7077693939208984,0.03250010684132576],"min":[-1.160153865814209,1.040000081062317,-0.06000009551644325],"type":"VEC3"},{"bufferView":45,"componentType":5126,"count":72,"type":"VEC3"},{"bufferView":46,"componentType":5126,"count":72,"type":"VEC2"},{"bufferView":47,"componentType":5123,"count":108,"type":"SCALAR"},{"bufferView":48,"componentType":5126,"count":477,"max":[0.12952612340450287,2.5092406272888184,0.011000010184943676],"min":[-0.9880428314208984,0.6199458241462708,-0.011000087484717369],"type":"VEC3"},{"bufferView":49,"componentType":5126,"count":477,"type":"VEC3"},{"bufferView":50,"componentType":5126,"count":477,"type":"VEC2"},{"bufferView":51,"componentType":5123,"count":840,"type":"SCALAR"}],"bufferViews":[{"buffer":0,"byteLength":3168,"byteOffset":0,"target":34962},{"buffer":0,"byteLength":3168,"byteOffset":3168,"target":34962},{"buffer":0,"byteLength":2112,"byteOffset":6336,"target":34962},{"buffer":0,"byteLength":1704,"byteOffset":8448,"target":34963},{"buffer":0,"byteLength":29868,"byteOffset":10152,"target":34962},{"buffer":0,"byteLength":29868,"byteOffset":40020,"target":34962},{"buffer":0,"byteLength":19912,"byteOffset":69888,"target":34962},{"buffer":0,"byteLength":9288,"byteOffset":89800,"target":34963},{"buffer":0,"byteLength":2016,"byteOffset":99088,"target":34962},{"buffer":0,"byteLength":2016,"byteOffset":101104,"target":34962},{"buffer":0,"byteLength":1344,"byteOffset":103120,"target":34962},{"buffer":0,"byteLength":936,"byteOffset":104464,"target":34963},{"buffer":0,"byteLength":6432,"byteOffset":105400,"target":34962},{"buffer":0,"byteLength":6432,"byteOffset":111832,"target":34962},{"buffer":0,"byteLength":4288,"byteOffset":118264,"target":34962},{"buffer":0,"byteLength":1608,"byteOffset":122552,"target":34963},{"buffer":0,"byteLength":12960,"byteOffset":124160,"target":34962},{"buffer":0,"byteLength":12960,"byteOffset":137120,"target":34962},{"buffer":0,"byteLength":8640,"byteOffset":150080,"target":34962},{"buffer":0,"byteLength":4296,"byteOffset":158720,"target":34963},{"buffer":0,"byteLength":14400,"byteOffset":163016,"target":34962},{"buffer":0,"byteLength":14400,"byteOffset":177416,"target":34962},{"buffer":0,"byteLength":9600,"byteOffset":191816,"target":34962},{"buffer":0,"byteLength":3600,"byteOffset":201416,"target":34963},{"buffer":0,"byteLength":22056,"byteOffset":205016,"target":34962},{"buffer":0,"byteLength":22056,"byteOffset":227072,"target":34962},{"buffer":0,"byteLength":14704,"byteOffset":249128,"target":34962},{"buffer":0,"byteLength":6336,"byteOffset":263832,"target":34963},{"buffer":0,"byteLength":5760,"byteOffset":270168,"target":34962},{"buffer":0,"byteLength":5760,"byteOffset":275928,"target":34962},{"buffer":0,"byteLength":3840,"byteOffset":281688,"target":34962},{"buffer":0,"byteLength":1920,"byteOffset":285528,"target":34963},{"buffer":0,"byteLength":3600,"byteOffset":287448,"target":34962},{"buffer":0,"byteLength":3600,"byteOffset":291048,"target":34962},{"buffer":0,"byteLength":2400,"byteOffset":294648,"target":34962},{"buffer":0,"byteLength":1968,"byteOffset":297048,"target":34963},{"buffer":0,"byteLength":30600,"byteOffset":299016,"target":34962},{"buffer":0,"byteLength":30600,"byteOffset":329616,"target":34962},{"buffer":0,"byteLength":20400,"byteOffset":360216,"target":34962},{"buffer":0,"byteLength":9216,"byteOffset":380616,"target":34963},{"buffer":0,"byteLength":2904,"byteOffset":389832,"target":34962},{"buffer":0,"byteLength":2904,"byteOffset":392736,"target":34962},{"buffer":0,"byteLength":1936,"byteOffset":395640,"target":34962},{"buffer":0,"byteLength":864,"byteOffset":397576,"target":34963},{"buffer":0,"byteLength":864,"byteOffset":398440,"target":34962},{"buffer":0,"byteLength":864,"byteOffset":399304,"target":34962},{"buffer":0,"byteLength":576,"byteOffset":400168,"target":34962},{"buffer":0,"byteLength":216,"byteOffset":400744,"target":34963},{"buffer":0,"byteLength":5724,"byteOffset":400960,"target":34962},{"buffer":0,"byteLength":5724,"byteOffset":406684,"target":34962},{"buffer":0,"byteLength":3816,"byteOffset":412408,"target":34962},{"buffer":0,"byteLength":1680,"byteOffset":416224,"target":34963}],"samplers":[{"magFilter":9729,"minFilter":9987}],"buffers":[{"uri":"BLD_Well_Roofed_01.bin","byteLength":417904}]}