{"asset":{"generator":"Khronos glTF Blender I/O v5.2.40","version":"2.0"},"scene":0,"scenes":[{"name":"Scene","nodes":[0]}],"nodes":[{"mesh":0,"name":"TF3_BLD_Gate_Double_01"}],"materials":[{"doubleSided":true,"name":"TF3_BLD_MAT_iron","pbrMetallicRoughness":{"baseColorFactor":[0.04600000008940697,0.06499999761581421,0.0560000017285347,1],"metallicFactor":0.6000000238418579,"roughnessFactor":0.44999998807907104}},{"doubleSided":true,"name":"TF3_BLD_MAT_metal_blue","normalTexture":{"index":0},"pbrMetallicRoughness":{"baseColorTexture":{"index":1},"metallicFactor":0,"metallicRoughnessTexture":{"index":2}}},{"doubleSided":true,"name":"TF3_BLD_MAT_plaster_ochre","normalTexture":{"index":3},"pbrMetallicRoughness":{"baseColorTexture":{"index":4},"metallicFactor":0,"metallicRoughnessTexture":{"index":5}}},{"doubleSided":true,"name":"TF3_BLD_MAT_laterite","normalTexture":{"index":6},"pbrMetallicRoughness":{"baseColorTexture":{"index":7},"metallicFactor":0,"metallicRoughnessTexture":{"index":8}}},{"doubleSided":true,"name":"TF3_BLD_MAT_concrete","normalTexture":{"index":9},"pbrMetallicRoughness":{"baseColorTexture":{"index":10},"metallicFactor":0,"metallicRoughnessTexture":{"index":11}}},{"doubleSided":true,"name":"TF3_BLD_MAT_oxide_red","normalTexture":{"index":12},"pbrMetallicRoughness":{"baseColorTexture":{"index":13},"metallicFactor":0,"metallicRoughnessTexture":{"index":14}}},{"doubleSided":true,"name":"TF3_BLD_MAT_steel","pbrMetallicRoughness":{"baseColorFactor":[0.5,0.5899999737739563,0.5899999737739563,1],"metallicFactor":0.8999999761581421,"roughnessFactor":0.23999999463558197}},{"doubleSided":true,"name":"TF3_BLD_MAT_brass","pbrMetallicRoughness":{"baseColorFactor":[0.5299999713897705,0.33000001311302185,0.11999999731779099,1],"metallicFactor":0.7200000286102295,"roughnessFactor":0.3199999928474426}}],"meshes":[{"name":"BLD_Gate_Double_01_HingeMounts_Mesh","primitives":[{"attributes":{"POSITION":0,"NORMAL":1,"TEXCOORD_0":2},"indices":3,"material":0},{"attributes":{"POSITION":4,"NORMAL":5,"TEXCOORD_0":6},"indices":7,"material":1},{"attributes":{"POSITION":8,"NORMAL":9,"TEXCOORD_0":10},"indices":11,"material":2},{"attributes":{"POSITION":12,"NORMAL":13,"TEXCOORD_0":14},"indices":15,"material":3},{"attributes":{"POSITION":16,"NORMAL":17,"TEXCOORD_0":18},"indices":19,"material":4},{"attributes":{"POSITION":20,"NORMAL":21,"TEXCOORD_0":22},"indices":15,"material":5},{"attributes":{"POSITION":23,"NORMAL":24,"TEXCOORD_0":25},"indices":26,"material":6},{"attributes":{"POSITION":27,"NORMAL":28,"TEXCOORD_0":29},"indices":26,"material":7}]}],"textures":[{"sampler":0,"source":0},{"sampler":0,"source":1},{"sampler":0,"source":2},{"sampler":0,"source":3},{"sampler":0,"source":4},{"sampler":0,"source":5},{"sampler":0,"source":6},{"sampler":0,"source":7},{"sampler":0,"source":8},{"sampler":0,"source":9},{"sampler":0,"source":10},{"sampler":0,"source":11},{"sampler":0,"source":12},{"sampler":0,"source":13},{"sampler":0,"source":14}],"images":[{"name":"metal_blue_normal","uri":"textures/b9b535d712e5110f6ee2e0a2262a9ab0bd99aa0a462928b11ca7e5b44c56510d.png"},{"name":"metal_blue","uri":"textures/43634cddcd91abd21d6ad1101145ab4ed03f2b297211e353b96f38fa8962b38e.png"},{"name":"metal_blue_rough","uri":"textures/880546f51402ae2fdd2659927e0f48c109bdde897c24ac613a202f9820f19ab0.png"},{"name":"plaster_ochre_normal","uri":"textures/d33d0adcf8f5cbe5f5fe2872287670c56e6c776975b3dfc713fb60f6837f9f98.png"},{"name":"plaster_ochre","uri":"textures/a7256486d1ce11721aeb8119d5425991379dcf43c904bcd342256041e6aa4bd3.png"},{"name":"plaster_ochre_rough","uri":"textures/fdcdce59ec739c33b8d6ee2dd2514586f008960d953695bef3fd64fcef9af79c.png"},{"name":"laterite_normal","uri":"textures/3e5cb2c37df3bdef66fab4c9dd9b68c33bd0684f990273ba10a400b634a3955b.png"},{"name":"laterite","uri":"textures/7d8d5bbad01a8684c331f3f2a5922da596fe832240b9e7f5545dac96068ae450.png"},{"name":"laterite_rough","uri":"textures/55f17989b98db7f71d08e8cdb47dcbb99c7eed8e5ce43ed411677fad3599b3ca.png"},{"name":"concrete_normal","uri":"textures/f877b70294b37b7d16a581bcff5e00affa28e36ccc656c85d099cc94519ef374.png"},{"name":"concrete","uri":"textures/065d46ec82b79f327f73b504b71672ce54806ed26283a82cedab238187186da1.png"},{"name":"concrete_rough","uri":"textures/f657e6602ccf8e985b9d81d0e8f0d85e491c1c3799ea0f5e6df9ab3dfa885f3e.png"},{"name":"oxide_red_normal","uri":"textures/0c312639e501cb21e8e8f4627e7651b783f00e2fb9aca7e4930ed2d95949cee2.png"},{"name":"oxide_red","uri":"textures/e2dc0fb93c0bd286e93513c81571b554b9a9cdafc60103a61bc6c139084e2079.png"},{"name":"oxide_red_rough","uri":"textures/b8b2724b53709588407c84b798b7100dfeea3f7b4b669b5529123af6788f630d.png"}],"accessors":[{"bufferView":0,"componentType":5126,"count":2208,"max":[1.6299999952316284,1.625,0.07000013440847397],"min":[-1.6299999952316284,0.08749999850988388,-0.025000134482979774],"type":"VEC3"},{"bufferView":1,"componentType":5126,"count":2208,"type":"VEC3"},{"bufferView":2,"componentType":5126,"count":2208,"type":"VEC2"},{"bufferView":3,"componentType":5123,"count":4464,"type":"SCALAR"},{"bufferView":4,"componentType":5126,"count":432,"max":[1.5099999904632568,0.6499999761581421,0.016000131145119667],"min":[-1.5099999904632568,0.17000000178813934,-0.010000129230320454],"type":"VEC3"},{"bufferView":5,"componentType":5126,"count":432,"type":"VEC3"},{"bufferView":6,"componentType":5126,"count":432,"type":"VEC2"},{"bufferView":7,"componentType":5123,"count":648,"type":"SCALAR"},{"bufferView":8,"componentType":5126,"count":432,"max":[1.9700000286102295,1.8200000524520874,0.20000016689300537],"min":[-1.9700000286102295,0,-0.20000016689300537],"type":"VEC3"},{"bufferView":9,"componentType":5126,"count":432,"type":"VEC3"},{"bufferView":10,"componentType":5126,"count":432,"type":"VEC2"},{"bufferView":11,"componentType":5123,"count":648,"type":"SCALAR"},{"bufferView":12,"componentType":5126,"count":432,"max":[1.9850000143051147,0.41999998688697815,0.215000182390213],"min":[-1.9850000143051147,0,-0.215000182390213],"type":"VEC3"},{"bufferView":13,"componentType":5126,"count":432,"type":"VEC3"},{"bufferView":14,"componentType":5126,"count":432,"type":"VEC2"},{"bufferView":15,"componentType":5123,"count":648,"type":"SCALAR"},{"bufferView":16,"componentType":5126,"count":436,"max":[2.009999990463257,1.9399999380111694,0.2400001734495163],"min":[-2.009999990463257,1.8200000524520874,-0.2400001734495163],"type":"VEC3"},{"bufferView":17,"componentType":5126,"count":436,"type":"VEC3"},{"bufferView":18,"componentType":5126,"count":436,"type":"VEC2"},{"bufferView":19,"componentType":5123,"count":648,"type":"SCALAR"},{"bufferView":20,"componentType":5126,"count":432,"max":[1.9700000286102295,1.9825000762939453,0.20000016689300537],"min":[-1.9700000286102295,1.9375,-0.20000016689300537],"type":"VEC3"},{"bufferView":21,"componentType":5126,"count":432,"type":"VEC3"},{"bufferView":22,"componentType":5126,"count":432,"type":"VEC2"},{"bufferView":23,"componentType":5126,"count":24,"max":[0.12000001221895218,0.8014999628067017,-0.033999986946582794],"min":[-0.12000000476837158,0.7584999799728394,-0.05800000578165054],"type":"VEC3"},{"bufferView":24,"componentType":5126,"count":24,"type":"VEC3"},{"bufferView":25,"componentType":5126,"count":24,"type":"VEC2"},{"bufferView":26,"componentType":5123,"count":36,"type":"SCALAR"},{"bufferView":27,"componentType":5126,"count":24,"max":[-0.08749996870756149,0.7245000004768372,-0.02850000187754631],"min":[-0.15250003337860107,0.6355000138282776,-0.07350000739097595],"type":"VEC3"},{"bufferView":28,"componentType":5126,"count":24,"type":"VEC3"},{"bufferView":29,"componentType":5126,"count":24,"type":"VEC2"}],"bufferViews":[{"buffer":0,"byteLength":26496,"byteOffset":0,"target":34962},{"buffer":0,"byteLength":26496,"byteOffset":26496,"target":34962},{"buffer":0,"byteLength":17664,"byteOffset":52992,"target":34962},{"buffer":0,"byteLength":8928,"byteOffset":70656,"target":34963},{"buffer":0,"byteLength":5184,"byteOffset":79584,"target":34962},{"buffer":0,"byteLength":5184,"byteOffset":84768,"target":34962},{"buffer":0,"byteLength":3456,"byteOffset":89952,"target":34962},{"buffer":0,"byteLength":1296,"byteOffset":93408,"target":34963},{"buffer":0,"byteLength":5184,"byteOffset":94704,"target":34962},{"buffer":0,"byteLength":5184,"byteOffset":99888,"target":34962},{"buffer":0,"byteLength":3456,"byteOffset":105072,"target":34962},{"buffer":0,"byteLength":1296,"byteOffset":108528,"target":34963},{"buffer":0,"byteLength":5184,"byteOffset":109824,"target":34962},{"buffer":0,"byteLength":5184,"byteOffset":115008,"target":34962},{"buffer":0,"byteLength":3456,"byteOffset":120192,"target":34962},{"buffer":0,"byteLength":1296,"byteOffset":123648,"target":34963},{"buffer":0,"byteLength":5232,"byteOffset":124944,"target":34962},{"buffer":0,"byteLength":5232,"byteOffset":130176,"target":34962},{"buffer":0,"byteLength":3488,"byteOffset":135408,"target":34962},{"buffer":0,"byteLength":1296,"byteOffset":138896,"target":34963},{"buffer":0,"byteLength":5184,"byteOffset":140192,"target":34962},{"buffer":0,"byteLength":5184,"byteOffset":145376,"target":34962},{"buffer":0,"byteLength":3456,"byteOffset":150560,"target":34962},{"buffer":0,"byteLength":288,"byteOffset":154016,"target":34962},{"buffer":0,"byteLength":288,"byteOffset":154304,"target":34962},{"buffer":0,"byteLength":192,"byteOffset":154592,"target":34962},{"buffer":0,"byteLength":72,"byteOffset":154784,"target":34963},{"buffer":0,"byteLength":288,"byteOffset":154856,"target":34962},{"buffer":0,"byteLength":288,"byteOffset":155144,"target":34962},{"buffer":0,"byteLength":192,"byteOffset":155432,"target":34962}],"samplers":[{"magFilter":9729,"minFilter":9987}],"buffers":[{"uri":"BLD_Gate_Double_01.bin","byteLength":155624}]}