{"asset":{"generator":"Khronos glTF Blender I/O v5.2.40","version":"2.0"},"extensionsUsed":["KHR_materials_transmission"],"scene":0,"scenes":[{"name":"Scene","nodes":[0]}],"nodes":[{"mesh":0,"name":"TF3_BLD_Workshop_Corrugated_01"}],"materials":[{"doubleSided":true,"name":"TF3_BLD_MAT_iron","pbrMetallicRoughness":{"baseColorFactor":[0.04600000008940697,0.06499999761581421,0.0560000017285347,1],"metallicFactor":0.6000000238418579,"roughnessFactor":0.44999998807907104}},{"doubleSided":true,"name":"TF3_BLD_MAT_rubber","pbrMetallicRoughness":{"baseColorFactor":[0.017999999225139618,0.02199999988079071,0.017999999225139618,1],"metallicFactor":0,"roughnessFactor":0.8999999761581421}},{"doubleSided":true,"name":"TF3_BLD_MAT_steel","pbrMetallicRoughness":{"baseColorFactor":[0.5,0.5899999737739563,0.5899999737739563,1],"metallicFactor":0.8999999761581421,"roughnessFactor":0.23999999463558197}},{"doubleSided":true,"name":"TF3_BLD_MAT_metal_blue","normalTexture":{"index":0},"pbrMetallicRoughness":{"baseColorTexture":{"index":1},"metallicFactor":0,"metallicRoughnessTexture":{"index":2}}},{"doubleSided":true,"name":"TF3_BLD_MAT_concrete","normalTexture":{"index":3},"pbrMetallicRoughness":{"baseColorTexture":{"index":4},"metallicFactor":0,"metallicRoughnessTexture":{"index":5}}},{"doubleSided":true,"name":"TF3_BLD_MAT_metal_aged","normalTexture":{"index":6},"pbrMetallicRoughness":{"baseColorTexture":{"index":7},"metallicFactor":0,"metallicRoughnessTexture":{"index":8}}},{"doubleSided":true,"name":"TF3_BLD_MAT_wood_faded","normalTexture":{"index":9},"pbrMetallicRoughness":{"baseColorTexture":{"index":10},"metallicFactor":0,"metallicRoughnessTexture":{"index":11}}},{"doubleSided":true,"name":"TF3_BLD_MAT_wood_dark","normalTexture":{"index":12},"pbrMetallicRoughness":{"baseColorTexture":{"index":13},"metallicFactor":0,"metallicRoughnessTexture":{"index":14}}},{"doubleSided":true,"name":"TF3_BLD_MAT_sign_workshop","pbrMetallicRoughness":{"baseColorTexture":{"index":15},"metallicFactor":0,"roughnessFactor":0.699999988079071}},{"doubleSided":true,"name":"TF3_BLD_MAT_plaster_old","normalTexture":{"index":16},"pbrMetallicRoughness":{"baseColorTexture":{"index":17},"metallicFactor":0,"metallicRoughnessTexture":{"index":18}}},{"doubleSided":true,"name":"TF3_BLD_MAT_dark","pbrMetallicRoughness":{"baseColorFactor":[0.01600000075995922,0.027000000700354576,0.023000000044703484,1],"metallicFactor":0,"roughnessFactor":0.699999988079071}},{"alphaMode":"BLEND","doubleSided":true,"extensions":{"KHR_materials_transmission":{"transmissionFactor":0.15000000596046448}},"name":"TF3_BLD_MAT_glass","pbrMetallicRoughness":{"baseColorFactor":[0.3499999940395355,0.47999998927116394,0.4399999976158142,0.2199999988079071],"metallicFactor":0.05000000074505806,"roughnessFactor":0.11999999731779099}},{"doubleSided":true,"name":"TF3_BLD_MAT_plaster_ochre","normalTexture":{"index":19},"pbrMetallicRoughness":{"baseColorTexture":{"index":20},"metallicFactor":0,"metallicRoughnessTexture":{"index":21}}},{"doubleSided":true,"name":"TF3_BLD_MAT_laterite","normalTexture":{"index":22},"pbrMetallicRoughness":{"baseColorTexture":{"index":23},"metallicFactor":0,"metallicRoughnessTexture":{"index":24}}}],"meshes":[{"name":"BLD_Workshop_Corrugated_01_AwningPosts_Mesh","primitives":[{"attributes":{"POSITION":0,"NORMAL":1,"TEXCOORD_0":2},"indices":3,"material":0},{"attributes":{"POSITION":4,"NORMAL":5,"TEXCOORD_0":6},"indices":7,"material":1},{"attributes":{"POSITION":8,"NORMAL":9,"TEXCOORD_0":10},"indices":11,"material":2},{"attributes":{"POSITION":12,"NORMAL":13,"TEXCOORD_0":14},"indices":15,"material":3},{"attributes":{"POSITION":16,"NORMAL":17,"TEXCOORD_0":18},"indices":19,"material":4},{"attributes":{"POSITION":20,"NORMAL":21,"TEXCOORD_0":22},"indices":23,"material":5},{"attributes":{"POSITION":24,"NORMAL":25,"TEXCOORD_0":26},"indices":27,"material":6},{"attributes":{"POSITION":28,"NORMAL":29,"TEXCOORD_0":30},"indices":31,"material":7},{"attributes":{"POSITION":32,"NORMAL":33,"TEXCOORD_0":34},"indices":35,"material":8},{"attributes":{"POSITION":36,"NORMAL":37,"TEXCOORD_0":38},"indices":39,"material":9},{"attributes":{"POSITION":40,"NORMAL":41,"TEXCOORD_0":42},"indices":43,"material":10},{"attributes":{"POSITION":44,"NORMAL":45,"TEXCOORD_0":46},"indices":43,"material":11},{"attributes":{"POSITION":47,"NORMAL":48,"TEXCOORD_0":49},"indices":50,"material":12},{"attributes":{"POSITION":51,"NORMAL":52,"TEXCOORD_0":53},"indices":54,"material":13}]}],"textures":[{"sampler":0,"source":0},{"sampler":0,"source":1},{"sampler":0,"source":2},{"sampler":0,"source":3},{"sampler":0,"source":4},{"sampler":0,"source":5},{"sampler":0,"source":6},{"sampler":0,"source":7},{"sampler":0,"source":8},{"sampler":0,"source":9},{"sampler":0,"source":10},{"sampler":0,"source":11},{"sampler":0,"source":12},{"sampler":0,"source":13},{"sampler":0,"source":14},{"sampler":0,"source":15},{"sampler":0,"source":16},{"sampler":0,"source":17},{"sampler":0,"source":18},{"sampler":0,"source":19},{"sampler":0,"source":20},{"sampler":0,"source":21},{"sampler":0,"source":22},{"sampler":0,"source":23},{"sampler":0,"source":24}],"images":[{"name":"metal_blue_normal","uri":"textures/b9b535d712e5110f6ee2e0a2262a9ab0bd99aa0a462928b11ca7e5b44c56510d.png"},{"name":"metal_blue","uri":"textures/43634cddcd91abd21d6ad1101145ab4ed03f2b297211e353b96f38fa8962b38e.png"},{"name":"metal_blue_rough","uri":"textures/880546f51402ae2fdd2659927e0f48c109bdde897c24ac613a202f9820f19ab0.png"},{"name":"concrete_normal","uri":"textures/f877b70294b37b7d16a581bcff5e00affa28e36ccc656c85d099cc94519ef374.png"},{"name":"concrete","uri":"textures/065d46ec82b79f327f73b504b71672ce54806ed26283a82cedab238187186da1.png"},{"name":"concrete_rough","uri":"textures/f657e6602ccf8e985b9d81d0e8f0d85e491c1c3799ea0f5e6df9ab3dfa885f3e.png"},{"name":"metal_aged_normal","uri":"textures/ac3bb8dbd362b722ab9339d6dba5fea9a108094d8a86a4093a89ab9811737f9c.png"},{"name":"metal_aged","uri":"textures/4bc0f4595b217fa2b3fbd0b9c4c968385b245f494d601e3f55ec62fe7b54986a.png"},{"name":"metal_aged_rough","uri":"textures/f934ad8b9af087684547d96a5048502288be6afb13a9b00811524dc5c214a6f2.png"},{"name":"wood_faded_normal","uri":"textures/118ee8ea68dc212c360056b4c962436f80beaa1b801238847dde4965f1e9fbe3.png"},{"name":"wood_faded","uri":"textures/70d4e74265e03457fd7d7bfa03b233af49d3a3b0ada4edfd91bbd94038ef64e2.png"},{"name":"wood_faded_rough","uri":"textures/aead5d297cbdd01da9c83a7479733033393e22db2eaa95b67e15b24b4a88370d.png"},{"name":"wood_dark_normal","uri":"textures/7298861d9356585aba47cc47903b493b567b46ecc27dfaab9e1510a59d081093.png"},{"name":"wood_dark","uri":"textures/e30bc20ceb6832b672870995e672a53b088aa7c6c94315dcf684e765f8667e2e.png"},{"name":"wood_dark_rough","uri":"textures/c07076bdffa20198cecc831b4083d58b000c0df155d4fd4e64effa2d6f3f32b0.png"},{"name":"sign_workshop","uri":"textures/3fa91f154efb6f16cc4c31e2fd5dabf354483891df4892b17fd0e59f78958938.png"},{"name":"plaster_old_normal","uri":"textures/dcbd71fab833f19c06251a853da28b4864fd657a8819487e7a6bbd3b0e822f2a.png"},{"name":"plaster_old","uri":"textures/0c461abf3d92f5787cd5a13315d65276b546fe7172c9ccf2f0f2da05f097667d.png"},{"name":"plaster_old_rough","uri":"textures/a5f8b739535a330c31b9d963d438b08c078f9a56eaac999174bd576127522fcf.png"},{"name":"plaster_ochre_normal","uri":"textures/d33d0adcf8f5cbe5f5fe2872287670c56e6c776975b3dfc713fb60f6837f9f98.png"},{"name":"plaster_ochre","uri":"textures/a7256486d1ce11721aeb8119d5425991379dcf43c904bcd342256041e6aa4bd3.png"},{"name":"plaster_ochre_rough","uri":"textures/fdcdce59ec739c33b8d6ee2dd2514586f008960d953695bef3fd64fcef9af79c.png"},{"name":"laterite_normal","uri":"textures/3e5cb2c37df3bdef66fab4c9dd9b68c33bd0684f990273ba10a400b634a3955b.png"},{"name":"laterite","uri":"textures/7d8d5bbad01a8684c331f3f2a5922da596fe832240b9e7f5545dac96068ae450.png"},{"name":"laterite_rough","uri":"textures/55f17989b98db7f71d08e8cdb47dcbb99c7eed8e5ce43ed411677fad3599b3ca.png"}],"accessors":[{"bufferView":0,"componentType":5126,"count":3549,"max":[3.020000457763672,3.460588216781616,2.580000162124634],"min":[-3.020000457763672,0,-4.030000686645508],"type":"VEC3"},{"bufferView":1,"componentType":5126,"count":3549,"type":"VEC3"},{"bufferView":2,"componentType":5126,"count":3549,"type":"VEC2"},{"bufferView":3,"componentType":5123,"count":6780,"type":"SCALAR"},{"bufferView":4,"componentType":5126,"count":5525,"max":[0.9819530844688416,2.758660316467285,1.1899999380111694],"min":[-3.2699997425079346,0.007999999448657036,-2.809999942779541],"type":"VEC3"},{"bufferView":5,"componentType":5126,"count":5525,"type":"VEC3"},{"bufferView":6,"componentType":5126,"count":5525,"type":"VEC2"},{"bufferView":7,"componentType":5123,"count":12864,"type":"SCALAR"},{"bufferView":8,"componentType":5126,"count":4391,"max":[1.8149999380111694,2.237499952316284,1.8675001859664917],"min":[-0.9550001621246338,0.057222455739974976,-2.8644227981567383],"type":"VEC3"},{"bufferView":9,"componentType":5126,"count":4391,"type":"VEC3"},{"bufferView":10,"componentType":5126,"count":4391,"type":"VEC2"},{"bufferView":11,"componentType":5123,"count":7968,"type":"SCALAR"},{"bufferView":12,"componentType":5126,"count":1229,"max":[2.8000001907348633,2.9679999351501465,1.1200001239776611],"min":[-2.799999713897705,0.20000000298023224,-4.000000476837158],"type":"VEC3"},{"bufferView":13,"componentType":5126,"count":1229,"type":"VEC3"},{"bufferView":14,"componentType":5126,"count":1229,"type":"VEC2"},{"bufferView":15,"componentType":5123,"count":2664,"type":"SCALAR"},{"bufferView":16,"componentType":5126,"count":288,"max":[2.9000003337860107,2.9649999141693115,2.3000001907348633],"min":[-2.9000003337860107,0,-2.3000001907348633],"type":"VEC3"},{"bufferView":17,"componentType":5126,"count":288,"type":"VEC3"},{"bufferView":18,"componentType":5126,"count":288,"type":"VEC2"},{"bufferView":19,"componentType":5123,"count":432,"type":"SCALAR"},{"bufferView":20,"componentType":5126,"count":1112,"max":[2.9900002479553223,3.4579999446868896,2.5500001907348633],"min":[-2.9900002479553223,0.20000000298023224,-2.5500001907348633],"type":"VEC3"},{"bufferView":21,"componentType":5126,"count":1112,"type":"VEC3"},{"bufferView":22,"componentType":5126,"count":1112,"type":"VEC2"},{"bufferView":23,"componentType":5123,"count":2436,"type":"SCALAR"},{"bufferView":24,"componentType":5126,"count":682,"max":[2.6649999618530273,3.434999942779541,1.9405001401901245],"min":[-2.6650002002716064,0.29499998688697815,-4.075000286102295],"type":"VEC3"},{"bufferView":25,"componentType":5126,"count":682,"type":"VEC3"},{"bufferView":26,"componentType":5126,"count":682,"type":"VEC2"},{"bufferView":27,"componentType":5123,"count":1008,"type":"SCALAR"},{"bufferView":28,"componentType":5126,"count":144,"max":[2.7249996662139893,3.369999885559082,2.1100001335144043],"min":[-2.7250001430511475,2.7049999237060547,-1.975955843925476],"type":"VEC3"},{"bufferView":29,"componentType":5126,"count":144,"type":"VEC3"},{"bufferView":30,"componentType":5126,"count":144,"type":"VEC2"},{"bufferView":31,"componentType":5123,"count":216,"type":"SCALAR"},{"bufferView":32,"componentType":5126,"count":4,"max":[1.9300003051757812,3.380000114440918,-4.081999778747559],"min":[-1.929999589920044,2.680000066757202,-4.081999778747559],"type":"VEC3"},{"bufferView":33,"componentType":5126,"count":4,"type":"VEC3"},{"bufferView":34,"componentType":5126,"count":4,"type":"VEC2"},{"bufferView":35,"componentType":5123,"count":6,"type":"SCALAR"},{"bufferView":36,"componentType":5126,"count":240,"max":[-2.499999761581421,2.7800002098083496,2.1499998569488525],"min":[-2.739999532699585,0.10000002384185791,-2.137500047683716],"type":"VEC3"},{"bufferView":37,"componentType":5126,"count":240,"type":"VEC3"},{"bufferView":38,"componentType":5126,"count":240,"type":"VEC2"},{"bufferView":39,"componentType":5123,"count":360,"type":"SCALAR"},{"bufferView":40,"componentType":5126,"count":24,"max":[-2.559999704360962,1.975000023841858,-2.139500379562378],"min":[-2.679999589920044,1.834999918937683,-2.1545002460479736],"type":"VEC3"},{"bufferView":41,"componentType":5126,"count":24,"type":"VEC3"},{"bufferView":42,"componentType":5126,"count":24,"type":"VEC2"},{"bufferView":43,"componentType":5123,"count":36,"type":"SCALAR"},{"bufferView":44,"componentType":5126,"count":24,"max":[-2.5674996376037598,1.9449999332427979,-2.1550002098083496],"min":[-2.672499656677246,1.8650000095367432,-2.1630001068115234],"type":"VEC3"},{"bufferView":45,"componentType":5126,"count":24,"type":"VEC3"},{"bufferView":46,"componentType":5126,"count":24,"type":"VEC2"},{"bufferView":47,"componentType":5126,"count":224,"max":[2.499999761581421,2.7800002098083496,2.1500000953674316],"min":[-2.500000238418579,0.10000002384185791,1.9299997091293335],"type":"VEC3"},{"bufferView":48,"componentType":5126,"count":224,"type":"VEC3"},{"bufferView":49,"componentType":5126,"count":224,"type":"VEC2"},{"bufferView":50,"componentType":5123,"count":324,"type":"SCALAR"},{"bufferView":51,"componentType":5126,"count":216,"max":[2.700000047683716,2.7800002098083496,2.1500003337860107],"min":[2.499999761581421,0.10000002384185791,-1.8499997854232788],"type":"VEC3"},{"bufferView":52,"componentType":5126,"count":216,"type":"VEC3"},{"bufferView":53,"componentType":5126,"count":216,"type":"VEC2"},{"bufferView":54,"componentType":5123,"count":324,"type":"SCALAR"}],"bufferViews":[{"buffer":0,"byteLength":42588,"byteOffset":0,"target":34962},{"buffer":0,"byteLength":42588,"byteOffset":42588,"target":34962},{"buffer":0,"byteLength":28392,"byteOffset":85176,"target":34962},{"buffer":0,"byteLength":13560,"byteOffset":113568,"target":34963},{"buffer":0,"byteLength":66300,"byteOffset":127128,"target":34962},{"buffer":0,"byteLength":66300,"byteOffset":193428,"target":34962},{"buffer":0,"byteLength":44200,"byteOffset":259728,"target":34962},{"buffer":0,"byteLength":25728,"byteOffset":303928,"target":34963},{"buffer":0,"byteLength":52692,"byteOffset":329656,"target":34962},{"buffer":0,"byteLength":52692,"byteOffset":382348,"target":34962},{"buffer":0,"byteLength":35128,"byteOffset":435040,"target":34962},{"buffer":0,"byteLength":15936,"byteOffset":470168,"target":34963},{"buffer":0,"byteLength":14748,"byteOffset":486104,"target":34962},{"buffer":0,"byteLength":14748,"byteOffset":500852,"target":34962},{"buffer":0,"byteLength":9832,"byteOffset":515600,"target":34962},{"buffer":0,"byteLength":5328,"byteOffset":525432,"target":34963},{"buffer":0,"byteLength":3456,"byteOffset":530760,"target":34962},{"buffer":0,"byteLength":3456,"byteOffset":534216,"target":34962},{"buffer":0,"byteLength":2304,"byteOffset":537672,"target":34962},{"buffer":0,"byteLength":864,"byteOffset":539976,"target":34963},{"buffer":0,"byteLength":13344,"byteOffset":540840,"target":34962},{"buffer":0,"byteLength":13344,"byteOffset":554184,"target":34962},{"buffer":0,"byteLength":8896,"byteOffset":567528,"target":34962},{"buffer":0,"byteLength":4872,"byteOffset":576424,"target":34963},{"buffer":0,"byteLength":8184,"byteOffset":581296,"target":34962},{"buffer":0,"byteLength":8184,"byteOffset":589480,"target":34962},{"buffer":0,"byteLength":5456,"byteOffset":597664,"target":34962},{"buffer":0,"byteLength":2016,"byteOffset":603120,"target":34963},{"buffer":0,"byteLength":1728,"byteOffset":605136,"target":34962},{"buffer":0,"byteLength":1728,"byteOffset":606864,"target":34962},{"buffer":0,"byteLength":1152,"byteOffset":608592,"target":34962},{"buffer":0,"byteLength":432,"byteOffset":609744,"target":34963},{"buffer":0,"byteLength":48,"byteOffset":610176,"target":34962},{"buffer":0,"byteLength":48,"byteOffset":610224,"target":34962},{"buffer":0,"byteLength":32,"byteOffset":610272,"target":34962},{"buffer":0,"byteLength":12,"byteOffset":610304,"target":34963},{"buffer":0,"byteLength":2880,"byteOffset":610316,"target":34962},{"buffer":0,"byteLength":2880,"byteOffset":613196,"target":34962},{"buffer":0,"byteLength":1920,"byteOffset":616076,"target":34962},{"buffer":0,"byteLength":720,"byteOffset":617996,"target":34963},{"buffer":0,"byteLength":288,"byteOffset":618716,"target":34962},{"buffer":0,"byteLength":288,"byteOffset":619004,"target":34962},{"buffer":0,"byteLength":192,"byteOffset":619292,"target":34962},{"buffer":0,"byteLength":72,"byteOffset":619484,"target":34963},{"buffer":0,"byteLength":288,"byteOffset":619556,"target":34962},{"buffer":0,"byteLength":288,"byteOffset":619844,"target":34962},{"buffer":0,"byteLength":192,"byteOffset":620132,"target":34962},{"buffer":0,"byteLength":2688,"byteOffset":620324,"target":34962},{"buffer":0,"byteLength":2688,"byteOffset":623012,"target":34962},{"buffer":0,"byteLength":1792,"byteOffset":625700,"target":34962},{"buffer":0,"byteLength":648,"byteOffset":627492,"target":34963},{"buffer":0,"byteLength":2592,"byteOffset":628140,"target":34962},{"buffer":0,"byteLength":2592,"byteOffset":630732,"target":34962},{"buffer":0,"byteLength":1728,"byteOffset":633324,"target":34962},{"buffer":0,"byteLength":648,"byteOffset":635052,"target":34963}],"samplers":[{"magFilter":9729,"minFilter":9987}],"buffers":[{"uri":"BLD_Workshop_Corrugated_01.bin","byteLength":635700}]}