{"asset":{"generator":"Khronos glTF Blender I/O v5.2.40","version":"2.0"},"scene":0,"scenes":[{"name":"Scene","nodes":[0]}],"nodes":[{"mesh":0,"name":"TF3_BLD_Gateway_Tiled_01"}],"materials":[{"doubleSided":true,"name":"TF3_BLD_MAT_laterite","normalTexture":{"index":0},"pbrMetallicRoughness":{"baseColorTexture":{"index":1},"metallicFactor":0,"metallicRoughnessTexture":{"index":2}}},{"doubleSided":true,"name":"TF3_BLD_MAT_wood_faded","normalTexture":{"index":3},"pbrMetallicRoughness":{"baseColorTexture":{"index":4},"metallicFactor":0,"metallicRoughnessTexture":{"index":5}}},{"doubleSided":true,"name":"TF3_BLD_MAT_wood_dark","normalTexture":{"index":6},"pbrMetallicRoughness":{"baseColorTexture":{"index":7},"metallicFactor":0,"metallicRoughnessTexture":{"index":8}}},{"doubleSided":true,"name":"TF3_BLD_MAT_iron","pbrMetallicRoughness":{"baseColorFactor":[0.04600000008940697,0.06499999761581421,0.0560000017285347,1],"metallicFactor":0.6000000238418579,"roughnessFactor":0.44999998807907104}},{"doubleSided":true,"name":"TF3_BLD_MAT_brass","pbrMetallicRoughness":{"baseColorFactor":[0.5299999713897705,0.33000001311302185,0.11999999731779099,1],"metallicFactor":0.7200000286102295,"roughnessFactor":0.3199999928474426}},{"doubleSided":true,"name":"TF3_BLD_MAT_oxide_red","normalTexture":{"index":9},"pbrMetallicRoughness":{"baseColorTexture":{"index":10},"metallicFactor":0,"metallicRoughnessTexture":{"index":11}}},{"doubleSided":true,"name":"TF3_BLD_MAT_lime_cream","normalTexture":{"index":12},"pbrMetallicRoughness":{"baseColorTexture":{"index":13},"metallicFactor":0,"metallicRoughnessTexture":{"index":14}}},{"doubleSided":true,"name":"TF3_BLD_MAT_roof_dark","normalTexture":{"index":15},"pbrMetallicRoughness":{"baseColorTexture":{"index":16},"metallicFactor":0,"metallicRoughnessTexture":{"index":17}}},{"doubleSided":true,"name":"TF3_BLD_MAT_roof_light","normalTexture":{"index":18},"pbrMetallicRoughness":{"baseColorTexture":{"index":19},"metallicFactor":0,"metallicRoughnessTexture":{"index":20}}},{"doubleSided":true,"name":"TF3_BLD_MAT_roof_clay","normalTexture":{"index":21},"pbrMetallicRoughness":{"baseColorTexture":{"index":22},"metallicFactor":0,"metallicRoughnessTexture":{"index":23}}},{"doubleSided":true,"name":"TF3_BLD_MAT_concrete","normalTexture":{"index":24},"pbrMetallicRoughness":{"baseColorTexture":{"index":25},"metallicFactor":0,"metallicRoughnessTexture":{"index":26}}}],"meshes":[{"name":"BLD_Gateway_Tiled_01_Foundation_Mesh","primitives":[{"attributes":{"POSITION":0,"NORMAL":1,"TEXCOORD_0":2},"indices":3,"material":0},{"attributes":{"POSITION":4,"NORMAL":5,"TEXCOORD_0":6},"indices":7,"material":1},{"attributes":{"POSITION":8,"NORMAL":9,"TEXCOORD_0":10},"indices":11,"material":2},{"attributes":{"POSITION":12,"NORMAL":13,"TEXCOORD_0":14},"indices":15,"material":3},{"attributes":{"POSITION":16,"NORMAL":17,"TEXCOORD_0":18},"indices":19,"material":4},{"attributes":{"POSITION":20,"NORMAL":21,"TEXCOORD_0":22},"indices":23,"material":5},{"attributes":{"POSITION":24,"NORMAL":25,"TEXCOORD_0":26},"indices":27,"material":6},{"attributes":{"POSITION":28,"NORMAL":29,"TEXCOORD_0":30},"indices":31,"material":7},{"attributes":{"POSITION":32,"NORMAL":33,"TEXCOORD_0":34},"indices":35,"material":8},{"attributes":{"POSITION":36,"NORMAL":37,"TEXCOORD_0":38},"indices":39,"material":9},{"attributes":{"POSITION":40,"NORMAL":41,"TEXCOORD_0":42},"indices":15,"material":10}]}],"textures":[{"sampler":0,"source":0},{"sampler":0,"source":1},{"sampler":0,"source":2},{"sampler":0,"source":3},{"sampler":0,"source":4},{"sampler":0,"source":5},{"sampler":0,"source":6},{"sampler":0,"source":7},{"sampler":0,"source":8},{"sampler":0,"source":9},{"sampler":0,"source":10},{"sampler":0,"source":11},{"sampler":0,"source":12},{"sampler":0,"source":13},{"sampler":0,"source":14},{"sampler":0,"source":15},{"sampler":0,"source":16},{"sampler":0,"source":17},{"sampler":0,"source":18},{"sampler":0,"source":19},{"sampler":0,"source":20},{"sampler":0,"source":21},{"sampler":0,"source":22},{"sampler":0,"source":23},{"sampler":0,"source":24},{"sampler":0,"source":25},{"sampler":0,"source":26}],"images":[{"name":"laterite_normal","uri":"textures/3e5cb2c37df3bdef66fab4c9dd9b68c33bd0684f990273ba10a400b634a3955b.png"},{"name":"laterite","uri":"textures/7d8d5bbad01a8684c331f3f2a5922da596fe832240b9e7f5545dac96068ae450.png"},{"name":"laterite_rough","uri":"textures/55f17989b98db7f71d08e8cdb47dcbb99c7eed8e5ce43ed411677fad3599b3ca.png"},{"name":"wood_faded_normal","uri":"textures/118ee8ea68dc212c360056b4c962436f80beaa1b801238847dde4965f1e9fbe3.png"},{"name":"wood_faded","uri":"textures/70d4e74265e03457fd7d7bfa03b233af49d3a3b0ada4edfd91bbd94038ef64e2.png"},{"name":"wood_faded_rough","uri":"textures/aead5d297cbdd01da9c83a7479733033393e22db2eaa95b67e15b24b4a88370d.png"},{"name":"wood_dark_normal","uri":"textures/7298861d9356585aba47cc47903b493b567b46ecc27dfaab9e1510a59d081093.png"},{"name":"wood_dark","uri":"textures/e30bc20ceb6832b672870995e672a53b088aa7c6c94315dcf684e765f8667e2e.png"},{"name":"wood_dark_rough","uri":"textures/c07076bdffa20198cecc831b4083d58b000c0df155d4fd4e64effa2d6f3f32b0.png"},{"name":"oxide_red_normal","uri":"textures/0c312639e501cb21e8e8f4627e7651b783f00e2fb9aca7e4930ed2d95949cee2.png"},{"name":"oxide_red","uri":"textures/e2dc0fb93c0bd286e93513c81571b554b9a9cdafc60103a61bc6c139084e2079.png"},{"name":"oxide_red_rough","uri":"textures/b8b2724b53709588407c84b798b7100dfeea3f7b4b669b5529123af6788f630d.png"},{"name":"lime_cream_normal","uri":"textures/7b20194ee9239b461c7be7df8fabd113b537547d7d0b81fe1727f660d789db77.png"},{"name":"lime_cream","uri":"textures/f8edb9c2666488f5140d6e77657e67fd0ae629d1d50423f1f4b14522e111d651.png"},{"name":"lime_cream_rough","uri":"textures/980287d6bfb1c422e8327ee85397f6869dbf1b0caa972559d8b692d4dabf3ee5.png"},{"name":"roof_dark_normal","uri":"textures/c138914fbacba88a30a36abadc76a0d32dbf81aa1fdbf8573680f71842371e77.png"},{"name":"roof_dark","uri":"textures/e18c34af686eb31dc6db4ee84f9e9415c949ed9d9ec2dc7e90ebd021029dcdca.png"},{"name":"roof_dark_rough","uri":"textures/fb91dd4e2aaece09907bd40a2ae950eea12b24de695f17587a5cf6a11597c3f8.png"},{"name":"roof_light_normal","uri":"textures/7f9178e1750557e99239a1876126ef7736444b49858585436d441d666f303dab.png"},{"name":"roof_light","uri":"textures/7cd2418b6ab2ee82d40f72f3ff9867060ca36effc656d7be93b39a6d97ef2ed4.png"},{"name":"roof_light_rough","uri":"textures/d6b2096352af38768acab3cbb954fb4ed1542ac8181080ccb467158dae9d9809.png"},{"name":"roof_clay_normal","uri":"textures/143a7223b384c31829cce283b5ee254a441744d2358ef3624b6bb033ddd8b1a0.png"},{"name":"roof_clay","uri":"textures/1fcd967f1cf6b8e0963f94b42e340542745862e70eea0f4bf27924afc312eb26.png"},{"name":"roof_clay_rough","uri":"textures/6787cc2f3afd50c72c4e9b102a31ffa7bb06213e4b290d28a4f5745d395cbaa8.png"},{"name":"concrete_normal","uri":"textures/f877b70294b37b7d16a581bcff5e00affa28e36ccc656c85d099cc94519ef374.png"},{"name":"concrete","uri":"textures/065d46ec82b79f327f73b504b71672ce54806ed26283a82cedab238187186da1.png"},{"name":"concrete_rough","uri":"textures/f657e6602ccf8e985b9d81d0e8f0d85e491c1c3799ea0f5e6df9ab3dfa885f3e.png"}],"accessors":[{"bufferView":0,"componentType":5126,"count":816,"max":[2.1519999504089355,1.2050000429153442,0.830000102519989],"min":[-2.1519999504089355,0,-0.830000102519989],"type":"VEC3"},{"bufferView":1,"componentType":5126,"count":816,"type":"VEC3"},{"bufferView":2,"componentType":5126,"count":816,"type":"VEC2"},{"bufferView":3,"componentType":5123,"count":1224,"type":"SCALAR"},{"bufferView":4,"componentType":5126,"count":2496,"max":[1.4875001907348633,3.549999952316284,0.9300000667572021],"min":[-1.4875001907348633,0.12999999523162842,-0.9300000667572021],"type":"VEC3"},{"bufferView":5,"componentType":5126,"count":2496,"type":"VEC3"},{"bufferView":6,"componentType":5126,"count":2496,"type":"VEC2"},{"bufferView":7,"componentType":5123,"count":3744,"type":"SCALAR"},{"bufferView":8,"componentType":5126,"count":2012,"max":[1.8450000286102295,3.6585118770599365,1.2256335020065308],"min":[-1.8450000286102295,0,-1.2256335020065308],"type":"VEC3"},{"bufferView":9,"componentType":5126,"count":2012,"type":"VEC3"},{"bufferView":10,"componentType":5126,"count":2012,"type":"VEC2"},{"bufferView":11,"componentType":5123,"count":4596,"type":"SCALAR"},{"bufferView":12,"componentType":5126,"count":96,"max":[0.809999942779541,1.659000039100647,-0.24349993467330933],"min":[-0.809999942779541,0.25099998712539673,-0.26050007343292236],"type":"VEC3"},{"bufferView":13,"componentType":5126,"count":96,"type":"VEC3"},{"bufferView":14,"componentType":5126,"count":96,"type":"VEC2"},{"bufferView":15,"componentType":5123,"count":144,"type":"SCALAR"},{"bufferView":16,"componentType":5126,"count":24,"max":[0.14000003039836884,0.9380000233650208,-0.2615000009536743],"min":[-0.13999997079372406,0.8820000290870667,-0.28450000286102295],"type":"VEC3"},{"bufferView":17,"componentType":5126,"count":24,"type":"VEC3"},{"bufferView":18,"componentType":5126,"count":24,"type":"VEC2"},{"bufferView":19,"componentType":5123,"count":36,"type":"SCALAR"},{"bufferView":20,"componentType":5126,"count":48,"max":[1.3900001049041748,0.5400000214576721,0.7150000929832458],"min":[-1.3900001049041748,0.14000000059604645,-0.7150000929832458],"type":"VEC3"},{"bufferView":21,"componentType":5126,"count":48,"type":"VEC3"},{"bufferView":22,"componentType":5126,"count":48,"type":"VEC2"},{"bufferView":23,"componentType":5123,"count":72,"type":"SCALAR"},{"bufferView":24,"componentType":5126,"count":440,"max":[1.3650000095367432,2.690000057220459,0.6900001168251038],"min":[-1.3650000095367432,0,-0.6900001168251038],"type":"VEC3"},{"bufferView":25,"componentType":5126,"count":440,"type":"VEC3"},{"bufferView":26,"componentType":5126,"count":440,"type":"VEC2"},{"bufferView":27,"componentType":5123,"count":648,"type":"SCALAR"},{"bufferView":28,"componentType":5126,"count":1836,"max":[1.8000000715255737,3.7899999618530273,1.2241450548171997],"min":[-1.8200000524520874,2.909148931503296,-1.2241450548171997],"type":"VEC3"},{"bufferView":29,"componentType":5126,"count":1836,"type":"VEC3"},{"bufferView":30,"componentType":5126,"count":1836,"type":"VEC2"},{"bufferView":31,"componentType":5123,"count":3288,"type":"SCALAR"},{"bufferView":32,"componentType":5126,"count":702,"max":[1.7999999523162842,3.690217971801758,0.9841448068618774],"min":[-1.5750001668930054,2.909148931503296,-1.2241448163986206],"type":"VEC3"},{"bufferView":33,"componentType":5126,"count":702,"type":"VEC3"},{"bufferView":34,"componentType":5126,"count":702,"type":"VEC2"},{"bufferView":35,"componentType":5123,"count":1224,"type":"SCALAR"},{"bufferView":36,"componentType":5126,"count":4132,"max":[1.8000000715255737,3.690217971801758,1.2241450548171997],"min":[-1.8000001907348633,2.909148931503296,-1.2241450548171997],"type":"VEC3"},{"bufferView":37,"componentType":5126,"count":4132,"type":"VEC3"},{"bufferView":38,"componentType":5126,"count":4132,"type":"VEC2"},{"bufferView":39,"componentType":5123,"count":7488,"type":"SCALAR"},{"bufferView":40,"componentType":5126,"count":96,"max":[2.190000057220459,1.2699999809265137,0.2150001972913742],"min":[-2.190000057220459,0,-0.2150001972913742],"type":"VEC3"},{"bufferView":41,"componentType":5126,"count":96,"type":"VEC3"},{"bufferView":42,"componentType":5126,"count":96,"type":"VEC2"}],"bufferViews":[{"buffer":0,"byteLength":9792,"byteOffset":0,"target":34962},{"buffer":0,"byteLength":9792,"byteOffset":9792,"target":34962},{"buffer":0,"byteLength":6528,"byteOffset":19584,"target":34962},{"buffer":0,"byteLength":2448,"byteOffset":26112,"target":34963},{"buffer":0,"byteLength":29952,"byteOffset":28560,"target":34962},{"buffer":0,"byteLength":29952,"byteOffset":58512,"target":34962},{"buffer":0,"byteLength":19968,"byteOffset":88464,"target":34962},{"buffer":0,"byteLength":7488,"byteOffset":108432,"target":34963},{"buffer":0,"byteLength":24144,"byteOffset":115920,"target":34962},{"buffer":0,"byteLength":24144,"byteOffset":140064,"target":34962},{"buffer":0,"byteLength":16096,"byteOffset":164208,"target":34962},{"buffer":0,"byteLength":9192,"byteOffset":180304,"target":34963},{"buffer":0,"byteLength":1152,"byteOffset":189496,"target":34962},{"buffer":0,"byteLength":1152,"byteOffset":190648,"target":34962},{"buffer":0,"byteLength":768,"byteOffset":191800,"target":34962},{"buffer":0,"byteLength":288,"byteOffset":192568,"target":34963},{"buffer":0,"byteLength":288,"byteOffset":192856,"target":34962},{"buffer":0,"byteLength":288,"byteOffset":193144,"target":34962},{"buffer":0,"byteLength":192,"byteOffset":193432,"target":34962},{"buffer":0,"byteLength":72,"byteOffset":193624,"target":34963},{"buffer":0,"byteLength":576,"byteOffset":193696,"target":34962},{"buffer":0,"byteLength":576,"byteOffset":194272,"target":34962},{"buffer":0,"byteLength":384,"byteOffset":194848,"target":34962},{"buffer":0,"byteLength":144,"byteOffset":195232,"target":34963},{"buffer":0,"byteLength":5280,"byteOffset":195376,"target":34962},{"buffer":0,"byteLength":5280,"byteOffset":200656,"target":34962},{"buffer":0,"byteLength":3520,"byteOffset":205936,"target":34962},{"buffer":0,"byteLength":1296,"byteOffset":209456,"target":34963},{"buffer":0,"byteLength":22032,"byteOffset":210752,"target":34962},{"buffer":0,"byteLength":22032,"byteOffset":232784,"target":34962},{"buffer":0,"byteLength":14688,"byteOffset":254816,"target":34962},{"buffer":0,"byteLength":6576,"byteOffset":269504,"target":34963},{"buffer":0,"byteLength":8424,"byteOffset":276080,"target":34962},{"buffer":0,"byteLength":8424,"byteOffset":284504,"target":34962},{"buffer":0,"byteLength":5616,"byteOffset":292928,"target":34962},{"buffer":0,"byteLength":2448,"byteOffset":298544,"target":34963},{"buffer":0,"byteLength":49584,"byteOffset":300992,"target":34962},{"buffer":0,"byteLength":49584,"byteOffset":350576,"target":34962},{"buffer":0,"byteLength":33056,"byteOffset":400160,"target":34962},{"buffer":0,"byteLength":14976,"byteOffset":433216,"target":34963},{"buffer":0,"byteLength":1152,"byteOffset":448192,"target":34962},{"buffer":0,"byteLength":1152,"byteOffset":449344,"target":34962},{"buffer":0,"byteLength":768,"byteOffset":450496,"target":34962}],"samplers":[{"magFilter":9729,"minFilter":9987}],"buffers":[{"uri":"BLD_Gateway_Tiled_01.bin","byteLength":451264}]}