{"asset":{"generator":"Khronos glTF Blender I/O v5.2.40","version":"2.0"},"scene":0,"scenes":[{"name":"Scene","nodes":[0]}],"nodes":[{"mesh":0,"name":"TF3_BLD_Wall_Laterite_3m_01"}],"materials":[{"doubleSided":true,"name":"TF3_BLD_MAT_concrete","normalTexture":{"index":0},"pbrMetallicRoughness":{"baseColorTexture":{"index":1},"metallicFactor":0,"metallicRoughnessTexture":{"index":2}}},{"doubleSided":true,"name":"TF3_BLD_MAT_laterite","normalTexture":{"index":3},"pbrMetallicRoughness":{"baseColorTexture":{"index":4},"metallicFactor":0,"metallicRoughnessTexture":{"index":5}}},{"doubleSided":true,"name":"TF3_BLD_MAT_roof_dark","normalTexture":{"index":6},"pbrMetallicRoughness":{"baseColorTexture":{"index":7},"metallicFactor":0,"metallicRoughnessTexture":{"index":8}}},{"doubleSided":true,"name":"TF3_BLD_MAT_plaster_old","normalTexture":{"index":9},"pbrMetallicRoughness":{"baseColorTexture":{"index":10},"metallicFactor":0,"metallicRoughnessTexture":{"index":11}}}],"meshes":[{"name":"BLD_Wall_Laterite_3m_01_Foundation_Mesh","primitives":[{"attributes":{"POSITION":0,"NORMAL":1,"TEXCOORD_0":2},"indices":3,"material":0},{"attributes":{"POSITION":4,"NORMAL":5,"TEXCOORD_0":6},"indices":7,"material":1},{"attributes":{"POSITION":8,"NORMAL":9,"TEXCOORD_0":10},"indices":11,"material":2},{"attributes":{"POSITION":12,"NORMAL":13,"TEXCOORD_0":14},"indices":15,"material":3}]}],"textures":[{"sampler":0,"source":0},{"sampler":0,"source":1},{"sampler":0,"source":2},{"sampler":0,"source":3},{"sampler":0,"source":4},{"sampler":0,"source":5},{"sampler":0,"source":6},{"sampler":0,"source":7},{"sampler":0,"source":8},{"sampler":0,"source":9},{"sampler":0,"source":10},{"sampler":0,"source":11}],"images":[{"name":"concrete_normal","uri":"textures/f877b70294b37b7d16a581bcff5e00affa28e36ccc656c85d099cc94519ef374.png"},{"name":"concrete","uri":"textures/065d46ec82b79f327f73b504b71672ce54806ed26283a82cedab238187186da1.png"},{"name":"concrete_rough","uri":"textures/f657e6602ccf8e985b9d81d0e8f0d85e491c1c3799ea0f5e6df9ab3dfa885f3e.png"},{"name":"laterite_normal","uri":"textures/3e5cb2c37df3bdef66fab4c9dd9b68c33bd0684f990273ba10a400b634a3955b.png"},{"name":"laterite","uri":"textures/7d8d5bbad01a8684c331f3f2a5922da596fe832240b9e7f5545dac96068ae450.png"},{"name":"laterite_rough","uri":"textures/55f17989b98db7f71d08e8cdb47dcbb99c7eed8e5ce43ed411677fad3599b3ca.png"},{"name":"roof_dark_normal","uri":"textures/c138914fbacba88a30a36abadc76a0d32dbf81aa1fdbf8573680f71842371e77.png"},{"name":"roof_dark","uri":"textures/e18c34af686eb31dc6db4ee84f9e9415c949ed9d9ec2dc7e90ebd021029dcdca.png"},{"name":"roof_dark_rough","uri":"textures/fb91dd4e2aaece09907bd40a2ae950eea12b24de695f17587a5cf6a11597c3f8.png"},{"name":"plaster_old_normal","uri":"textures/dcbd71fab833f19c06251a853da28b4864fd657a8819487e7a6bbd3b0e822f2a.png"},{"name":"plaster_old","uri":"textures/0c461abf3d92f5787cd5a13315d65276b546fe7172c9ccf2f0f2da05f097667d.png"},{"name":"plaster_old_rough","uri":"textures/a5f8b739535a330c31b9d963d438b08c078f9a56eaac999174bd576127522fcf.png"}],"accessors":[{"bufferView":0,"componentType":5126,"count":432,"max":[1.5,1.534999966621399,0.22000013291835785],"min":[-1.5,0,-0.22000013291835785],"type":"VEC3"},{"bufferView":1,"componentType":5126,"count":432,"type":"VEC3"},{"bufferView":2,"componentType":5126,"count":432,"type":"VEC2"},{"bufferView":3,"componentType":5123,"count":648,"type":"SCALAR"},{"bufferView":4,"componentType":5126,"count":6048,"max":[1.4909999370574951,1.440000057220459,0.1649666279554367],"min":[-1.4909999370574951,0.22999998927116394,-0.1644931584596634],"type":"VEC3"},{"bufferView":5,"componentType":5126,"count":6048,"type":"VEC3"},{"bufferView":6,"componentType":5126,"count":6048,"type":"VEC2"},{"bufferView":7,"componentType":5123,"count":9072,"type":"SCALAR"},{"bufferView":8,"componentType":5126,"count":864,"max":[1.2409999370574951,1.440000057220459,0.16263818740844727],"min":[-0.9909999966621399,0.47499996423721313,-0.16486552357673645],"type":"VEC3"},{"bufferView":9,"componentType":5126,"count":864,"type":"VEC3"},{"bufferView":10,"componentType":5126,"count":864,"type":"VEC2"},{"bufferView":11,"componentType":5123,"count":1296,"type":"SCALAR"},{"bufferView":12,"componentType":5126,"count":48,"max":[1.5,1.4449999332427979,0.13750013709068298],"min":[-1.5,0.12000000476837158,-0.19800013303756714],"type":"VEC3"},{"bufferView":13,"componentType":5126,"count":48,"type":"VEC3"},{"bufferView":14,"componentType":5126,"count":48,"type":"VEC2"},{"bufferView":15,"componentType":5123,"count":72,"type":"SCALAR"}],"bufferViews":[{"buffer":0,"byteLength":5184,"byteOffset":0,"target":34962},{"buffer":0,"byteLength":5184,"byteOffset":5184,"target":34962},{"buffer":0,"byteLength":3456,"byteOffset":10368,"target":34962},{"buffer":0,"byteLength":1296,"byteOffset":13824,"target":34963},{"buffer":0,"byteLength":72576,"byteOffset":15120,"target":34962},{"buffer":0,"byteLength":72576,"byteOffset":87696,"target":34962},{"buffer":0,"byteLength":48384,"byteOffset":160272,"target":34962},{"buffer":0,"byteLength":18144,"byteOffset":208656,"target":34963},{"buffer":0,"byteLength":10368,"byteOffset":226800,"target":34962},{"buffer":0,"byteLength":10368,"byteOffset":237168,"target":34962},{"buffer":0,"byteLength":6912,"byteOffset":247536,"target":34962},{"buffer":0,"byteLength":2592,"byteOffset":254448,"target":34963},{"buffer":0,"byteLength":576,"byteOffset":257040,"target":34962},{"buffer":0,"byteLength":576,"byteOffset":257616,"target":34962},{"buffer":0,"byteLength":384,"byteOffset":258192,"target":34962},{"buffer":0,"byteLength":144,"byteOffset":258576,"target":34963}],"samplers":[{"magFilter":9729,"minFilter":9987}],"buffers":[{"uri":"BLD_Wall_Laterite_3m_01.bin","byteLength":258720}]}