{"asset":{"generator":"Khronos glTF Blender I/O v5.2.40","version":"2.0"},"extensionsUsed":["KHR_materials_transmission"],"scene":0,"scenes":[{"name":"Scene","nodes":[0]}],"nodes":[{"mesh":0,"name":"TF3_BLD_TeaShop_Open_01"}],"materials":[{"doubleSided":true,"name":"TF3_BLD_MAT_metal_aged","normalTexture":{"index":0},"pbrMetallicRoughness":{"baseColorTexture":{"index":1},"metallicFactor":0,"metallicRoughnessTexture":{"index":2}}},{"doubleSided":true,"name":"TF3_BLD_MAT_concrete","normalTexture":{"index":3},"pbrMetallicRoughness":{"baseColorTexture":{"index":4},"metallicFactor":0,"metallicRoughnessTexture":{"index":5}}},{"alphaMode":"BLEND","doubleSided":true,"extensions":{"KHR_materials_transmission":{"transmissionFactor":0.15000000596046448}},"name":"TF3_BLD_MAT_glass","pbrMetallicRoughness":{"baseColorFactor":[0.3499999940395355,0.47999998927116394,0.4399999976158142,0.2199999988079071],"metallicFactor":0.05000000074505806,"roughnessFactor":0.11999999731779099}},{"doubleSided":true,"name":"TF3_BLD_MAT_steel","pbrMetallicRoughness":{"baseColorFactor":[0.5,0.5899999737739563,0.5899999737739563,1],"metallicFactor":0.8999999761581421,"roughnessFactor":0.23999999463558197}},{"doubleSided":true,"name":"TF3_BLD_MAT_wood_dark","normalTexture":{"index":6},"pbrMetallicRoughness":{"baseColorTexture":{"index":7},"metallicFactor":0,"metallicRoughnessTexture":{"index":8}}},{"doubleSided":true,"name":"TF3_BLD_MAT_wood_faded","normalTexture":{"index":9},"pbrMetallicRoughness":{"baseColorTexture":{"index":10},"metallicFactor":0,"metallicRoughnessTexture":{"index":11}}},{"doubleSided":true,"name":"TF3_BLD_MAT_oxide_red","normalTexture":{"index":12},"pbrMetallicRoughness":{"baseColorTexture":{"index":13},"metallicFactor":0,"metallicRoughnessTexture":{"index":14}}},{"doubleSided":true,"name":"TF3_BLD_MAT_wood_teal","normalTexture":{"index":15},"pbrMetallicRoughness":{"baseColorTexture":{"index":16},"metallicFactor":0,"metallicRoughnessTexture":{"index":17}}},{"doubleSided":true,"name":"TF3_BLD_MAT_iron","pbrMetallicRoughness":{"baseColorFactor":[0.04600000008940697,0.06499999761581421,0.0560000017285347,1],"metallicFactor":0.6000000238418579,"roughnessFactor":0.44999998807907104}},{"doubleSided":true,"name":"TF3_BLD_MAT_cloth","pbrMetallicRoughness":{"baseColorFactor":[0.46000000834465027,0.41999998688697815,0.30000001192092896,1],"metallicFactor":0,"roughnessFactor":0.699999988079071}},{"doubleSided":true,"name":"TF3_BLD_MAT_banana","pbrMetallicRoughness":{"baseColorFactor":[0.5199999809265137,0.5199999809265137,0.08500000089406967,1],"metallicFactor":0,"roughnessFactor":0.699999988079071}},{"doubleSided":true,"name":"TF3_BLD_MAT_roof_clay","normalTexture":{"index":18},"pbrMetallicRoughness":{"baseColorTexture":{"index":19},"metallicFactor":0,"metallicRoughnessTexture":{"index":20}}},{"doubleSided":true,"name":"TF3_BLD_MAT_soil_dark","pbrMetallicRoughness":{"baseColorFactor":[0.0820000022649765,0.05999999865889549,0.03099999949336052,1],"metallicFactor":0,"roughnessFactor":0.699999988079071}},{"doubleSided":true,"name":"TF3_BLD_MAT_leaf_light","pbrMetallicRoughness":{"baseColorFactor":[0.3100000023841858,0.41999998688697815,0.12999999523162842,1],"metallicFactor":0,"roughnessFactor":0.699999988079071}},{"doubleSided":true,"name":"TF3_BLD_MAT_leaf","pbrMetallicRoughness":{"baseColorFactor":[0.15000000596046448,0.27000001072883606,0.06599999964237213,1],"metallicFactor":0,"roughnessFactor":0.699999988079071}},{"doubleSided":true,"name":"TF3_BLD_MAT_roof_dark","normalTexture":{"index":21},"pbrMetallicRoughness":{"baseColorTexture":{"index":22},"metallicFactor":0,"metallicRoughnessTexture":{"index":23}}},{"doubleSided":true,"name":"TF3_BLD_MAT_roof_light","normalTexture":{"index":24},"pbrMetallicRoughness":{"baseColorTexture":{"index":25},"metallicFactor":0,"metallicRoughnessTexture":{"index":26}}},{"doubleSided":true,"name":"TF3_BLD_MAT_sign_tea","pbrMetallicRoughness":{"baseColorTexture":{"index":27},"metallicFactor":0,"roughnessFactor":0.699999988079071}},{"doubleSided":true,"name":"TF3_BLD_MAT_menu","pbrMetallicRoughness":{"baseColorTexture":{"index":28},"metallicFactor":0,"roughnessFactor":0.699999988079071}},{"doubleSided":true,"name":"TF3_BLD_MAT_snack","pbrMetallicRoughness":{"baseColorFactor":[0.5799999833106995,0.27000001072883606,0.054999999701976776,1],"metallicFactor":0,"roughnessFactor":0.699999988079071}},{"doubleSided":true,"name":"TF3_BLD_MAT_brass","pbrMetallicRoughness":{"baseColorFactor":[0.5299999713897705,0.33000001311302185,0.11999999731779099,1],"metallicFactor":0.7200000286102295,"roughnessFactor":0.3199999928474426}},{"doubleSided":true,"name":"TF3_BLD_MAT_rubber","pbrMetallicRoughness":{"baseColorFactor":[0.017999999225139618,0.02199999988079071,0.017999999225139618,1],"metallicFactor":0,"roughnessFactor":0.8999999761581421}},{"doubleSided":true,"name":"TF3_BLD_MAT_dark","pbrMetallicRoughness":{"baseColorFactor":[0.01600000075995922,0.027000000700354576,0.023000000044703484,1],"metallicFactor":0,"roughnessFactor":0.699999988079071}},{"doubleSided":true,"name":"TF3_BLD_MAT_blue_paint","pbrMetallicRoughness":{"baseColorFactor":[0.04600000008940697,0.20000000298023224,0.2199999988079071,1],"metallicFactor":0,"roughnessFactor":0.6000000238418579}},{"doubleSided":true,"name":"TF3_BLD_MAT_ceramic","pbrMetallicRoughness":{"baseColorFactor":[0.7900000214576721,0.7900000214576721,0.6299999952316284,1],"metallicFactor":0,"roughnessFactor":0.25}},{"doubleSided":true,"name":"TF3_BLD_MAT_plaster_old","normalTexture":{"index":29},"pbrMetallicRoughness":{"baseColorTexture":{"index":30},"metallicFactor":0,"metallicRoughnessTexture":{"index":31}}},{"doubleSided":true,"name":"TF3_BLD_MAT_plaster_teal","normalTexture":{"index":32},"pbrMetallicRoughness":{"baseColorTexture":{"index":33},"metallicFactor":0,"metallicRoughnessTexture":{"index":34}}}],"meshes":[{"name":"BLD_TeaShop_Open_01_AwningPosts_Mesh","primitives":[{"attributes":{"POSITION":0,"NORMAL":1,"TEXCOORD_0":2},"indices":3,"material":0},{"attributes":{"POSITION":4,"NORMAL":5,"TEXCOORD_0":6},"indices":7,"material":1},{"attributes":{"POSITION":8,"NORMAL":9,"TEXCOORD_0":10},"indices":11,"material":2},{"attributes":{"POSITION":12,"NORMAL":13,"TEXCOORD_0":14},"indices":15,"material":3},{"attributes":{"POSITION":16,"NORMAL":17,"TEXCOORD_0":18},"indices":19,"material":4},{"attributes":{"POSITION":20,"NORMAL":21,"TEXCOORD_0":22},"indices":23,"material":5},{"attributes":{"POSITION":24,"NORMAL":25,"TEXCOORD_0":26},"indices":27,"material":6},{"attributes":{"POSITION":28,"NORMAL":29,"TEXCOORD_0":30},"indices":31,"material":7},{"attributes":{"POSITION":32,"NORMAL":33,"TEXCOORD_0":34},"indices":35,"material":8},{"attributes":{"POSITION":36,"NORMAL":37,"TEXCOORD_0":38},"indices":39,"material":9},{"attributes":{"POSITION":40,"NORMAL":41,"TEXCOORD_0":42},"indices":43,"material":10},{"attributes":{"POSITION":44,"NORMAL":45,"TEXCOORD_0":46},"indices":47,"material":11},{"attributes":{"POSITION":48,"NORMAL":49,"TEXCOORD_0":50},"indices":51,"material":12},{"attributes":{"POSITION":52,"NORMAL":53,"TEXCOORD_0":54},"indices":55,"material":13},{"attributes":{"POSITION":56,"NORMAL":57,"TEXCOORD_0":58},"indices":59,"material":14},{"attributes":{"POSITION":60,"NORMAL":61,"TEXCOORD_0":62},"indices":63,"material":15},{"attributes":{"POSITION":64,"NORMAL":65,"TEXCOORD_0":66},"indices":67,"material":16},{"attributes":{"POSITION":68,"NORMAL":69,"TEXCOORD_0":70},"indices":71,"material":17},{"attributes":{"POSITION":72,"NORMAL":73,"TEXCOORD_0":74},"indices":71,"material":18},{"attributes":{"POSITION":75,"NORMAL":76,"TEXCOORD_0":77},"indices":78,"material":19},{"attributes":{"POSITION":79,"NORMAL":80,"TEXCOORD_0":81},"indices":82,"material":20},{"attributes":{"POSITION":83,"NORMAL":84,"TEXCOORD_0":85},"indices":86,"material":21},{"attributes":{"POSITION":87,"NORMAL":88,"TEXCOORD_0":89},"indices":90,"material":22},{"attributes":{"POSITION":91,"NORMAL":92,"TEXCOORD_0":93},"indices":94,"material":23},{"attributes":{"POSITION":95,"NORMAL":96,"TEXCOORD_0":97},"indices":98,"material":24},{"attributes":{"POSITION":99,"NORMAL":100,"TEXCOORD_0":101},"indices":102,"material":25},{"attributes":{"POSITION":103,"NORMAL":104,"TEXCOORD_0":105},"indices":106,"material":26}]}],"textures":[{"sampler":0,"source":0},{"sampler":0,"source":1},{"sampler":0,"source":2},{"sampler":0,"source":3},{"sampler":0,"source":4},{"sampler":0,"source":5},{"sampler":0,"source":6},{"sampler":0,"source":7},{"sampler":0,"source":8},{"sampler":0,"source":9},{"sampler":0,"source":10},{"sampler":0,"source":11},{"sampler":0,"source":12},{"sampler":0,"source":13},{"sampler":0,"source":14},{"sampler":0,"source":15},{"sampler":0,"source":16},{"sampler":0,"source":17},{"sampler":0,"source":18},{"sampler":0,"source":19},{"sampler":0,"source":20},{"sampler":0,"source":21},{"sampler":0,"source":22},{"sampler":0,"source":23},{"sampler":0,"source":24},{"sampler":0,"source":25},{"sampler":0,"source":26},{"sampler":0,"source":27},{"sampler":0,"source":28},{"sampler":0,"source":29},{"sampler":0,"source":30},{"sampler":0,"source":31},{"sampler":0,"source":32},{"sampler":0,"source":33},{"sampler":0,"source":34}],"images":[{"name":"metal_aged_normal","uri":"textures/ac3bb8dbd362b722ab9339d6dba5fea9a108094d8a86a4093a89ab9811737f9c.png"},{"name":"metal_aged","uri":"textures/4bc0f4595b217fa2b3fbd0b9c4c968385b245f494d601e3f55ec62fe7b54986a.png"},{"name":"metal_aged_rough","uri":"textures/f934ad8b9af087684547d96a5048502288be6afb13a9b00811524dc5c214a6f2.png"},{"name":"concrete_normal","uri":"textures/f877b70294b37b7d16a581bcff5e00affa28e36ccc656c85d099cc94519ef374.png"},{"name":"concrete","uri":"textures/065d46ec82b79f327f73b504b71672ce54806ed26283a82cedab238187186da1.png"},{"name":"concrete_rough","uri":"textures/f657e6602ccf8e985b9d81d0e8f0d85e491c1c3799ea0f5e6df9ab3dfa885f3e.png"},{"name":"wood_dark_normal","uri":"textures/7298861d9356585aba47cc47903b493b567b46ecc27dfaab9e1510a59d081093.png"},{"name":"wood_dark","uri":"textures/e30bc20ceb6832b672870995e672a53b088aa7c6c94315dcf684e765f8667e2e.png"},{"name":"wood_dark_rough","uri":"textures/c07076bdffa20198cecc831b4083d58b000c0df155d4fd4e64effa2d6f3f32b0.png"},{"name":"wood_faded_normal","uri":"textures/118ee8ea68dc212c360056b4c962436f80beaa1b801238847dde4965f1e9fbe3.png"},{"name":"wood_faded","uri":"textures/70d4e74265e03457fd7d7bfa03b233af49d3a3b0ada4edfd91bbd94038ef64e2.png"},{"name":"wood_faded_rough","uri":"textures/aead5d297cbdd01da9c83a7479733033393e22db2eaa95b67e15b24b4a88370d.png"},{"name":"oxide_red_normal","uri":"textures/0c312639e501cb21e8e8f4627e7651b783f00e2fb9aca7e4930ed2d95949cee2.png"},{"name":"oxide_red","uri":"textures/e2dc0fb93c0bd286e93513c81571b554b9a9cdafc60103a61bc6c139084e2079.png"},{"name":"oxide_red_rough","uri":"textures/b8b2724b53709588407c84b798b7100dfeea3f7b4b669b5529123af6788f630d.png"},{"name":"wood_teal_normal","uri":"textures/dc1b81ea3a11484e39c51cbb7073ba241a5623e2f8cb37ecb54178afa1c43b79.png"},{"name":"wood_teal","uri":"textures/fb507bc82bf6752faece04215ff1757bb40e25ffc46e56866c7df1f571c4189f.png"},{"name":"wood_teal_rough","uri":"textures/83c2b7505c06c9bfb7c7977e1b4c8aec3259d6927255494e06d5ff878bad9eaa.png"},{"name":"roof_clay_normal","uri":"textures/143a7223b384c31829cce283b5ee254a441744d2358ef3624b6bb033ddd8b1a0.png"},{"name":"roof_clay","uri":"textures/1fcd967f1cf6b8e0963f94b42e340542745862e70eea0f4bf27924afc312eb26.png"},{"name":"roof_clay_rough","uri":"textures/6787cc2f3afd50c72c4e9b102a31ffa7bb06213e4b290d28a4f5745d395cbaa8.png"},{"name":"roof_dark_normal","uri":"textures/c138914fbacba88a30a36abadc76a0d32dbf81aa1fdbf8573680f71842371e77.png"},{"name":"roof_dark","uri":"textures/e18c34af686eb31dc6db4ee84f9e9415c949ed9d9ec2dc7e90ebd021029dcdca.png"},{"name":"roof_dark_rough","uri":"textures/fb91dd4e2aaece09907bd40a2ae950eea12b24de695f17587a5cf6a11597c3f8.png"},{"name":"roof_light_normal","uri":"textures/7f9178e1750557e99239a1876126ef7736444b49858585436d441d666f303dab.png"},{"name":"roof_light","uri":"textures/7cd2418b6ab2ee82d40f72f3ff9867060ca36effc656d7be93b39a6d97ef2ed4.png"},{"name":"roof_light_rough","uri":"textures/d6b2096352af38768acab3cbb954fb4ed1542ac8181080ccb467158dae9d9809.png"},{"name":"sign_teashop","uri":"textures/4f2a6b37c806d3d22f92ebc70c893277ace4f07bb3d4107ab56ecb52e1afef09.png"},{"name":"menu_board","uri":"textures/1e8771194ba144d5f87f48aaad1b6e8f8296f98c0cc0a2e462f801cea6926e5a.png"},{"name":"plaster_old_normal","uri":"textures/dcbd71fab833f19c06251a853da28b4864fd657a8819487e7a6bbd3b0e822f2a.png"},{"name":"plaster_old","uri":"textures/0c461abf3d92f5787cd5a13315d65276b546fe7172c9ccf2f0f2da05f097667d.png"},{"name":"plaster_old_rough","uri":"textures/a5f8b739535a330c31b9d963d438b08c078f9a56eaac999174bd576127522fcf.png"},{"name":"plaster_teal_normal","uri":"textures/b6489d1865f3eeebc2e57352a31a950de953bf465875573942c4fb7d1dd45d8b.png"},{"name":"plaster_teal","uri":"textures/e1d18dd5ee3f4b0f1fb6fd7fc48d40c37c7a360fa5b7749c2a3961cce83df97a.png"},{"name":"plaster_teal_rough","uri":"textures/cc78ac3aa7374a248de41470c309da6c28b0a86be02d8de9e985ce56c3b9503c.png"}],"accessors":[{"bufferView":0,"componentType":5126,"count":700,"max":[2.6700003147125244,2.7880001068115234,-1.4099997282028198],"min":[-2.669999837875366,0.029999999329447746,-3.3500001430511475],"type":"VEC3"},{"bufferView":1,"componentType":5126,"count":700,"type":"VEC3"},{"bufferView":2,"componentType":5126,"count":700,"type":"VEC2"},{"bufferView":3,"componentType":5123,"count":1440,"type":"SCALAR"},{"bufferView":4,"componentType":5126,"count":484,"max":[2.510000228881836,1.4900000095367432,1.9000002145767212],"min":[-2.5950000286102295,0,-3.190000057220459],"type":"VEC3"},{"bufferView":5,"componentType":5126,"count":484,"type":"VEC3"},{"bufferView":6,"componentType":5126,"count":484,"type":"VEC2"},{"bufferView":7,"componentType":5123,"count":720,"type":"SCALAR"},{"bufferView":8,"componentType":5126,"count":4360,"max":[1.8250001668930054,2.569000005722046,1.467000126838684],"min":[-2.2724997997283936,1.409999966621399,-1.8229999542236328],"type":"VEC3"},{"bufferView":9,"componentType":5126,"count":4360,"type":"VEC3"},{"bufferView":10,"componentType":5126,"count":4360,"type":"VEC2"},{"bufferView":11,"componentType":5123,"count":12696,"type":"SCALAR"},{"bufferView":12,"componentType":5126,"count":3179,"max":[1.8124001026153564,2.5910000801086426,1.4565601348876953],"min":[-2.049999952316284,1.024999976158142,-1.7300000190734863],"type":"VEC3"},{"bufferView":13,"componentType":5126,"count":3179,"type":"VEC3"},{"bufferView":14,"componentType":5126,"count":3179,"type":"VEC2"},{"bufferView":15,"componentType":5123,"count":8712,"type":"SCALAR"},{"bufferView":16,"componentType":5126,"count":3078,"max":[2.68500018119812,3.7288286685943604,2.0597736835479736],"min":[-2.685000419616699,0.28999996185302734,-3.4250004291534424],"type":"VEC3"},{"bufferView":17,"componentType":5126,"count":3078,"type":"VEC3"},{"bufferView":18,"componentType":5126,"count":3078,"type":"VEC2"},{"bufferView":19,"componentType":5123,"count":4584,"type":"SCALAR"},{"bufferView":20,"componentType":5126,"count":3833,"max":[2.320000171661377,2.297499895095825,1.5550001859664917],"min":[-2.9839999675750732,-0.010086596012115479,-3.0548155307769775],"type":"VEC3"},{"bufferView":21,"componentType":5126,"count":3833,"type":"VEC3"},{"bufferView":22,"componentType":5126,"count":3833,"type":"VEC2"},{"bufferView":23,"componentType":5123,"count":5844,"type":"SCALAR"},{"bufferView":24,"componentType":5126,"count":216,"max":[2.5250003337860107,0.3050000071525574,1.8950003385543823],"min":[-2.5250003337860107,0.23500001430511475,-2.1550004482269287],"type":"VEC3"},{"bufferView":25,"componentType":5126,"count":216,"type":"VEC3"},{"bufferView":26,"componentType":5126,"count":216,"type":"VEC2"},{"bufferView":27,"componentType":5123,"count":324,"type":"SCALAR"},{"bufferView":28,"componentType":5126,"count":2064,"max":[2.2200002670288086,2.2799999713897705,0.7964997887611389],"min":[-2.424999952316284,0.3100000023841858,-2.8939998149871826],"type":"VEC3"},{"bufferView":29,"componentType":5126,"count":2064,"type":"VEC3"},{"bufferView":30,"componentType":5126,"count":2064,"type":"VEC2"},{"bufferView":31,"componentType":5123,"count":2988,"type":"SCALAR"},{"bufferView":32,"componentType":5126,"count":6312,"max":[2.700000524520874,3,1.535000205039978],"min":[-3.0249998569488525,0.019999995827674866,-3.380000114440918],"type":"VEC3"},{"bufferView":33,"componentType":5126,"count":6312,"type":"VEC3"},{"bufferView":34,"componentType":5126,"count":6312,"type":"VEC2"},{"bufferView":35,"componentType":5123,"count":9744,"type":"SCALAR"},{"bufferView":36,"componentType":5126,"count":40,"max":[1.8710001707077026,2.5399999618530273,-1.33899986743927],"min":[1.849000096321106,2.2300000190734863,-1.3609999418258667],"type":"VEC3"},{"bufferView":37,"componentType":5126,"count":40,"type":"VEC3"},{"bufferView":38,"componentType":5126,"count":40,"type":"VEC2"},{"bufferView":39,"componentType":5123,"count":84,"type":"SCALAR"},{"bufferView":40,"componentType":5126,"count":1080,"max":[1.9661725759506226,2.2845044136047363,-1.241747260093689],"min":[1.5940507650375366,1.9219083786010742,-1.460693120956421],"type":"VEC3"},{"bufferView":41,"componentType":5126,"count":1080,"type":"VEC3"},{"bufferView":42,"componentType":5126,"count":1080,"type":"VEC2"},{"bufferView":43,"componentType":5123,"count":2268,"type":"SCALAR"},{"bufferView":44,"componentType":5126,"count":10312,"max":[3.0876002311706543,3.7605929374694824,2.051605701446533],"min":[-2.6399998664855957,0,-2.8075997829437256],"type":"VEC3"},{"bufferView":45,"componentType":5126,"count":10312,"type":"VEC3"},{"bufferView":46,"componentType":5126,"count":10312,"type":"VEC2"},{"bufferView":47,"componentType":5123,"count":19044,"type":"SCALAR"},{"bufferView":48,"componentType":5126,"count":72,"max":[3.043600082397461,0.3400000035762787,-2.3763997554779053],"min":[2.656400203704834,0.33000001311302185,-2.7635996341705322],"type":"VEC3"},{"bufferView":49,"componentType":5126,"count":72,"type":"VEC3"},{"bufferView":50,"componentType":5126,"count":72,"type":"VEC2"},{"bufferView":51,"componentType":5123,"count":180,"type":"SCALAR"},{"bufferView":52,"componentType":5126,"count":24,"max":[3.0602734088897705,0.8758987188339233,-2.236088514328003],"min":[2.5140581130981445,0.3499999940395355,-2.621999740600586],"type":"VEC3"},{"bufferView":53,"componentType":5126,"count":24,"type":"VEC3"},{"bufferView":54,"componentType":5126,"count":24,"type":"VEC2"},{"bufferView":55,"componentType":5123,"count":24,"type":"SCALAR"},{"bufferView":56,"componentType":5126,"count":48,"max":[3.234703540802002,0.892300009727478,-2.2153780460357666],"min":[2.44252872467041,0.3499999940395355,-2.9331159591674805],"type":"VEC3"},{"bufferView":57,"componentType":5126,"count":48,"type":"VEC3"},{"bufferView":58,"componentType":5126,"count":48,"type":"VEC2"},{"bufferView":59,"componentType":5123,"count":48,"type":"SCALAR"},{"bufferView":60,"componentType":5126,"count":3588,"max":[2.640000343322754,3.859999895095825,2.051605701446533],"min":[-2.6600000858306885,2.6391172409057617,-2.051605701446533],"type":"VEC3"},{"bufferView":61,"componentType":5126,"count":3588,"type":"VEC3"},{"bufferView":62,"componentType":5126,"count":3588,"type":"VEC2"},{"bufferView":63,"componentType":5123,"count":6336,"type":"SCALAR"},{"bufferView":64,"componentType":5126,"count":1480,"max":[2.640000104904175,3.7605929374694824,2.051605224609375],"min":[-2.6399996280670166,2.6391172409057617,-2.051605224609375],"type":"VEC3"},{"bufferView":65,"componentType":5126,"count":1480,"type":"VEC3"},{"bufferView":66,"componentType":5126,"count":1480,"type":"VEC2"},{"bufferView":67,"componentType":5123,"count":2664,"type":"SCALAR"},{"bufferView":68,"componentType":5126,"count":4,"max":[1.880000352859497,3.2899999618530273,-3.432999849319458],"min":[-1.8799996376037598,2.6700000762939453,-3.433000326156616],"type":"VEC3"},{"bufferView":69,"componentType":5126,"count":4,"type":"VEC3"},{"bufferView":70,"componentType":5126,"count":4,"type":"VEC2"},{"bufferView":71,"componentType":5123,"count":6,"type":"SCALAR"},{"bufferView":72,"componentType":5126,"count":4,"max":[-1.5999997854232788,1.2300000190734863,-3.000000238418579],"min":[-2.1399998664855957,0.4099999964237213,-3.000000238418579],"type":"VEC3"},{"bufferView":73,"componentType":5126,"count":4,"type":"VEC3"},{"bufferView":74,"componentType":5126,"count":4,"type":"VEC2"},{"bufferView":75,"componentType":5126,"count":13824,"max":[1.7826786041259766,2.4814000129699707,1.4480092525482178],"min":[-0.9274849891662598,1.434999942779541,-1.6432313919067383],"type":"VEC3"},{"bufferView":76,"componentType":5126,"count":13824,"type":"VEC3"},{"bufferView":77,"componentType":5126,"count":13824,"type":"VEC2"},{"bufferView":78,"componentType":5123,"count":35568,"type":"SCALAR"},{"bufferView":79,"componentType":5126,"count":106,"max":[-0.5029997825622559,1.6761679649353027,-1.6699999570846558],"min":[-0.5369998812675476,1.5948872566223145,-1.8253382444381714],"type":"VEC3"},{"bufferView":80,"componentType":5126,"count":106,"type":"VEC3"},{"bufferView":81,"componentType":5126,"count":106,"type":"VEC2"},{"bufferView":82,"componentType":5123,"count":216,"type":"SCALAR"},{"bufferView":83,"componentType":5126,"count":400,"max":[0.007999999448657036,2.758660316467285,1.4780000448226929],"min":[-2.869999647140503,1.399999976158142,-1.5900002717971802],"type":"VEC3"},{"bufferView":84,"componentType":5126,"count":400,"type":"VEC3"},{"bufferView":85,"componentType":5126,"count":400,"type":"VEC2"},{"bufferView":86,"componentType":5123,"count":804,"type":"SCALAR"},{"bufferView":87,"componentType":5126,"count":72,"max":[-1.5500000715255737,2.3450000286102295,1.1099998950958252],"min":[-2.3399999141693115,1.0749999284744263,-1.6445002555847168],"type":"VEC3"},{"bufferView":88,"componentType":5126,"count":72,"type":"VEC3"},{"bufferView":89,"componentType":5126,"count":72,"type":"VEC2"},{"bufferView":90,"componentType":5123,"count":108,"type":"SCALAR"},{"bufferView":91,"componentType":5126,"count":24,"max":[1.84499990940094,0.8650000095367432,1.5350000858306885],"min":[1.4349998235702515,0.2750000059604645,1.2450001239776611],"type":"VEC3"},{"bufferView":92,"componentType":5126,"count":24,"type":"VEC3"},{"bufferView":93,"componentType":5126,"count":24,"type":"VEC2"},{"bufferView":94,"componentType":5123,"count":36,"type":"SCALAR"},{"bufferView":95,"componentType":5126,"count":56,"max":[0.6499999761581421,2.5859999656677246,0.02600005455315113],"min":[-0.6499999761581421,2.5339999198913574,-0.02600005455315113],"type":"VEC3"},{"bufferView":96,"componentType":5126,"count":56,"type":"VEC3"},{"bufferView":97,"componentType":5126,"count":56,"type":"VEC2"},{"bufferView":98,"componentType":5123,"count":132,"type":"SCALAR"},{"bufferView":99,"componentType":5126,"count":242,"max":[2.0999996662139893,2.7699999809265137,1.6700003147125244],"min":[-2.3399996757507324,0.309999942779541,-1.627500295639038],"type":"VEC3"},{"bufferView":100,"componentType":5126,"count":242,"type":"VEC3"},{"bufferView":101,"componentType":5126,"count":242,"type":"VEC2"},{"bufferView":102,"componentType":5123,"count":360,"type":"SCALAR"},{"bufferView":103,"componentType":5126,"count":448,"max":[2.3000001907348633,2.7699999809265137,1.6700001955032349],"min":[-2.3000001907348633,0.309999942779541,-1.6500002145767212],"type":"VEC3"},{"bufferView":104,"componentType":5126,"count":448,"type":"VEC3"},{"bufferView":105,"componentType":5126,"count":448,"type":"VEC2"},{"bufferView":106,"componentType":5123,"count":648,"type":"SCALAR"}],"bufferViews":[{"buffer":0,"byteLength":8400,"byteOffset":0,"target":34962},{"buffer":0,"byteLength":8400,"byteOffset":8400,"target":34962},{"buffer":0,"byteLength":5600,"byteOffset":16800,"target":34962},{"buffer":0,"byteLength":2880,"byteOffset":22400,"target":34963},{"buffer":0,"byteLength":5808,"byteOffset":25280,"target":34962},{"buffer":0,"byteLength":5808,"byteOffset":31088,"target":34962},{"buffer":0,"byteLength":3872,"byteOffset":36896,"target":34962},{"buffer":0,"byteLength":1440,"byteOffset":40768,"target":34963},{"buffer":0,"byteLength":52320,"byteOffset":42208,"target":34962},{"buffer":0,"byteLength":52320,"byteOffset":94528,"target":34962},{"buffer":0,"byteLength":34880,"byteOffset":146848,"target":34962},{"buffer":0,"byteLength":25392,"byteOffset":181728,"target":34963},{"buffer":0,"byteLength":38148,"byteOffset":207120,"target":34962},{"buffer":0,"byteLength":38148,"byteOffset":245268,"target":34962},{"buffer":0,"byteLength":25432,"byteOffset":283416,"target":34962},{"buffer":0,"byteLength":17424,"byteOffset":308848,"target":34963},{"buffer":0,"byteLength":36936,"byteOffset":326272,"target":34962},{"buffer":0,"byteLength":36936,"byteOffset":363208,"target":34962},{"buffer":0,"byteLength":24624,"byteOffset":400144,"target":34962},{"buffer":0,"byteLength":9168,"byteOffset":424768,"target":34963},{"buffer":0,"byteLength":45996,"byteOffset":433936,"target":34962},{"buffer":0,"byteLength":45996,"byteOffset":479932,"target":34962},{"buffer":0,"byteLength":30664,"byteOffset":525928,"target":34962},{"buffer":0,"byteLength":11688,"byteOffset":556592,"target":34963},{"buffer":0,"byteLength":2592,"byteOffset":568280,"target":34962},{"buffer":0,"byteLength":2592,"byteOffset":570872,"target":34962},{"buffer":0,"byteLength":1728,"byteOffset":573464,"target":34962},{"buffer":0,"byteLength":648,"byteOffset":575192,"target":34963},{"buffer":0,"byteLength":24768,"byteOffset":575840,"target":34962},{"buffer":0,"byteLength":24768,"byteOffset":600608,"target":34962},{"buffer":0,"byteLength":16512,"byteOffset":625376,"target":34962},{"buffer":0,"byteLength":5976,"byteOffset":641888,"target":34963},{"buffer":0,"byteLength":75744,"byteOffset":647864,"target":34962},{"buffer":0,"byteLength":75744,"byteOffset":723608,"target":34962},{"buffer":0,"byteLength":50496,"byteOffset":799352,"target":34962},{"buffer":0,"byteLength":19488,"byteOffset":849848,"target":34963},{"buffer":0,"byteLength":480,"byteOffset":869336,"target":34962},{"buffer":0,"byteLength":480,"byteOffset":869816,"target":34962},{"buffer":0,"byteLength":320,"byteOffset":870296,"target":34962},{"buffer":0,"byteLength":168,"byteOffset":870616,"target":34963},{"buffer":0,"byteLength":12960,"byteOffset":870784,"target":34962},{"buffer":0,"byteLength":12960,"byteOffset":883744,"target":34962},{"buffer":0,"byteLength":8640,"byteOffset":896704,"target":34962},{"buffer":0,"byteLength":4536,"byteOffset":905344,"target":34963},{"buffer":0,"byteLength":123744,"byteOffset":909880,"target":34962},{"buffer":0,"byteLength":123744,"byteOffset":1033624,"target":34962},{"buffer":0,"byteLength":82496,"byteOffset":1157368,"target":34962},{"buffer":0,"byteLength":38088,"byteOffset":1239864,"target":34963},{"buffer":0,"byteLength":864,"byteOffset":1277952,"target":34962},{"buffer":0,"byteLength":864,"byteOffset":1278816,"target":34962},{"buffer":0,"byteLength":576,"byteOffset":1279680,"target":34962},{"buffer":0,"byteLength":360,"byteOffset":1280256,"target":34963},{"buffer":0,"byteLength":288,"byteOffset":1280616,"target":34962},{"buffer":0,"byteLength":288,"byteOffset":1280904,"target":34962},{"buffer":0,"byteLength":192,"byteOffset":1281192,"target":34962},{"buffer":0,"byteLength":48,"byteOffset":1281384,"target":34963},{"buffer":0,"byteLength":576,"byteOffset":1281432,"target":34962},{"buffer":0,"byteLength":576,"byteOffset":1282008,"target":34962},{"buffer":0,"byteLength":384,"byteOffset":1282584,"target":34962},{"buffer":0,"byteLength":96,"byteOffset":1282968,"target":34963},{"buffer":0,"byteLength":43056,"byteOffset":1283064,"target":34962},{"buffer":0,"byteLength":43056,"byteOffset":1326120,"target":34962},{"buffer":0,"byteLength":28704,"byteOffset":1369176,"target":34962},{"buffer":0,"byteLength":12672,"byteOffset":1397880,"target":34963},{"buffer":0,"byteLength":17760,"byteOffset":1410552,"target":34962},{"buffer":0,"byteLength":17760,"byteOffset":1428312,"target":34962},{"buffer":0,"byteLength":11840,"byteOffset":1446072,"target":34962},{"buffer":0,"byteLength":5328,"byteOffset":1457912,"target":34963},{"buffer":0,"byteLength":48,"byteOffset":1463240,"target":34962},{"buffer":0,"byteLength":48,"byteOffset":1463288,"target":34962},{"buffer":0,"byteLength":32,"byteOffset":1463336,"target":34962},{"buffer":0,"byteLength":12,"byteOffset":1463368,"target":34963},{"buffer":0,"byteLength":48,"byteOffset":1463380,"target":34962},{"buffer":0,"byteLength":48,"byteOffset":1463428,"target":34962},{"buffer":0,"byteLength":32,"byteOffset":1463476,"target":34962},{"buffer":0,"byteLength":165888,"byteOffset":1463508,"target":34962},{"buffer":0,"byteLength":165888,"byteOffset":1629396,"target":34962},{"buffer":0,"byteLength":110592,"byteOffset":1795284,"target":34962},{"buffer":0,"byteLength":71136,"byteOffset":1905876,"target":34963},{"buffer":0,"byteLength":1272,"byteOffset":1977012,"target":34962},{"buffer":0,"byteLength":1272,"byteOffset":1978284,"target":34962},{"buffer":0,"byteLength":848,"byteOffset":1979556,"target":34962},{"buffer":0,"byteLength":432,"byteOffset":1980404,"target":34963},{"buffer":0,"byteLength":4800,"byteOffset":1980836,"target":34962},{"buffer":0,"byteLength":4800,"byteOffset":1985636,"target":34962},{"buffer":0,"byteLength":3200,"byteOffset":1990436,"target":34962},{"buffer":0,"byteLength":1608,"byteOffset":1993636,"target":34963},{"buffer":0,"byteLength":864,"byteOffset":1995244,"target":34962},{"buffer":0,"byteLength":864,"byteOffset":1996108,"target":34962},{"buffer":0,"byteLength":576,"byteOffset":1996972,"target":34962},{"buffer":0,"byteLength":216,"byteOffset":1997548,"target":34963},{"buffer":0,"byteLength":288,"byteOffset":1997764,"target":34962},{"buffer":0,"byteLength":288,"byteOffset":1998052,"target":34962},{"buffer":0,"byteLength":192,"byteOffset":1998340,"target":34962},{"buffer":0,"byteLength":72,"byteOffset":1998532,"target":34963},{"buffer":0,"byteLength":672,"byteOffset":1998604,"target":34962},{"buffer":0,"byteLength":672,"byteOffset":1999276,"target":34962},{"buffer":0,"byteLength":448,"byteOffset":1999948,"target":34962},{"buffer":0,"byteLength":264,"byteOffset":2000396,"target":34963},{"buffer":0,"byteLength":2904,"byteOffset":2000660,"target":34962},{"buffer":0,"byteLength":2904,"byteOffset":2003564,"target":34962},{"buffer":0,"byteLength":1936,"byteOffset":2006468,"target":34962},{"buffer":0,"byteLength":720,"byteOffset":2008404,"target":34963},{"buffer":0,"byteLength":5376,"byteOffset":2009124,"target":34962},{"buffer":0,"byteLength":5376,"byteOffset":2014500,"target":34962},{"buffer":0,"byteLength":3584,"byteOffset":2019876,"target":34962},{"buffer":0,"byteLength":1296,"byteOffset":2023460,"target":34963}],"samplers":[{"magFilter":9729,"minFilter":9987}],"buffers":[{"uri":"BLD_TeaShop_Open_01.bin","byteLength":2024756}]}