{"asset":{"generator":"Khronos glTF Blender I/O v5.2.40","version":"2.0"},"scene":0,"scenes":[{"name":"Scene","nodes":[0]}],"nodes":[{"mesh":0,"name":"TF3_BLD_CoirYard_Shed_01"}],"materials":[{"doubleSided":true,"name":"TF3_BLD_MAT_coir_light","normalTexture":{"index":0},"pbrMetallicRoughness":{"baseColorTexture":{"index":1},"metallicFactor":0,"metallicRoughnessTexture":{"index":2}}},{"doubleSided":true,"name":"TF3_BLD_MAT_wood_faded","normalTexture":{"index":3},"pbrMetallicRoughness":{"baseColorTexture":{"index":4},"metallicFactor":0,"metallicRoughnessTexture":{"index":5}}},{"doubleSided":true,"name":"TF3_BLD_MAT_coir","normalTexture":{"index":6},"pbrMetallicRoughness":{"baseColorTexture":{"index":7},"metallicFactor":0,"metallicRoughnessTexture":{"index":8}}},{"doubleSided":true,"name":"TF3_BLD_MAT_coir_mat","normalTexture":{"index":9},"pbrMetallicRoughness":{"baseColorTexture":{"index":10},"metallicFactor":0,"metallicRoughnessTexture":{"index":11}}},{"doubleSided":true,"name":"TF3_BLD_MAT_rubber","pbrMetallicRoughness":{"baseColorFactor":[0.017999999225139618,0.02199999988079071,0.017999999225139618,1],"metallicFactor":0,"roughnessFactor":0.8999999761581421}},{"doubleSided":true,"name":"TF3_BLD_MAT_thatch_dark","normalTexture":{"index":12},"pbrMetallicRoughness":{"baseColorTexture":{"index":13},"metallicFactor":0,"metallicRoughnessTexture":{"index":14}}},{"doubleSided":true,"name":"TF3_BLD_MAT_concrete","normalTexture":{"index":15},"pbrMetallicRoughness":{"baseColorTexture":{"index":16},"metallicFactor":0,"metallicRoughnessTexture":{"index":17}}},{"doubleSided":true,"name":"TF3_BLD_MAT_wood_dark","normalTexture":{"index":18},"pbrMetallicRoughness":{"baseColorTexture":{"index":19},"metallicFactor":0,"metallicRoughnessTexture":{"index":20}}},{"doubleSided":true,"name":"TF3_BLD_MAT_iron","pbrMetallicRoughness":{"baseColorFactor":[0.04600000008940697,0.06499999761581421,0.0560000017285347,1],"metallicFactor":0.6000000238418579,"roughnessFactor":0.44999998807907104}},{"doubleSided":true,"name":"TF3_BLD_MAT_laterite","normalTexture":{"index":21},"pbrMetallicRoughness":{"baseColorTexture":{"index":22},"metallicFactor":0,"metallicRoughnessTexture":{"index":23}}},{"doubleSided":true,"name":"TF3_BLD_MAT_plaster_old","normalTexture":{"index":24},"pbrMetallicRoughness":{"baseColorTexture":{"index":25},"metallicFactor":0,"metallicRoughnessTexture":{"index":26}}},{"doubleSided":true,"name":"TF3_BLD_MAT_thatch","normalTexture":{"index":27},"pbrMetallicRoughness":{"baseColorTexture":{"index":28},"metallicFactor":0,"metallicRoughnessTexture":{"index":29}}},{"doubleSided":true,"name":"TF3_BLD_MAT_soil","normalTexture":{"index":30},"pbrMetallicRoughness":{"baseColorTexture":{"index":31},"metallicFactor":0,"metallicRoughnessTexture":{"index":32}}}],"meshes":[{"name":"BLD_CoirYard_Shed_01_BaleTies_Mesh","primitives":[{"attributes":{"POSITION":0,"NORMAL":1,"TEXCOORD_0":2},"indices":3,"material":0},{"attributes":{"POSITION":4,"NORMAL":5,"TEXCOORD_0":6},"indices":7,"material":1},{"attributes":{"POSITION":8,"NORMAL":9,"TEXCOORD_0":10},"indices":11,"material":2},{"attributes":{"POSITION":12,"NORMAL":13,"TEXCOORD_0":14},"indices":15,"material":3},{"attributes":{"POSITION":16,"NORMAL":17,"TEXCOORD_0":18},"indices":19,"material":4},{"attributes":{"POSITION":20,"NORMAL":21,"TEXCOORD_0":22},"indices":23,"material":5},{"attributes":{"POSITION":24,"NORMAL":25,"TEXCOORD_0":26},"indices":27,"material":6},{"attributes":{"POSITION":28,"NORMAL":29,"TEXCOORD_0":30},"indices":31,"material":7},{"attributes":{"POSITION":32,"NORMAL":33,"TEXCOORD_0":34},"indices":35,"material":8},{"attributes":{"POSITION":36,"NORMAL":37,"TEXCOORD_0":38},"indices":39,"material":9},{"attributes":{"POSITION":40,"NORMAL":41,"TEXCOORD_0":42},"indices":15,"material":10},{"attributes":{"POSITION":43,"NORMAL":44,"TEXCOORD_0":45},"indices":46,"material":11},{"attributes":{"POSITION":47,"NORMAL":48,"TEXCOORD_0":49},"indices":15,"material":12}]}],"textures":[{"sampler":0,"source":0},{"sampler":0,"source":1},{"sampler":0,"source":2},{"sampler":0,"source":3},{"sampler":0,"source":4},{"sampler":0,"source":5},{"sampler":0,"source":6},{"sampler":0,"source":7},{"sampler":0,"source":8},{"sampler":0,"source":9},{"sampler":0,"source":10},{"sampler":0,"source":11},{"sampler":0,"source":12},{"sampler":0,"source":13},{"sampler":0,"source":14},{"sampler":0,"source":15},{"sampler":0,"source":16},{"sampler":0,"source":17},{"sampler":0,"source":18},{"sampler":0,"source":19},{"sampler":0,"source":20},{"sampler":0,"source":21},{"sampler":0,"source":22},{"sampler":0,"source":23},{"sampler":0,"source":24},{"sampler":0,"source":25},{"sampler":0,"source":26},{"sampler":0,"source":27},{"sampler":0,"source":28},{"sampler":0,"source":29},{"sampler":0,"source":30},{"sampler":0,"source":31},{"sampler":0,"source":32}],"images":[{"name":"coir_light_normal","uri":"textures/33e7db35412af67e95706bde9acc53c6bfacbe0c5cd18101f0387804c082e494.png"},{"name":"coir_light","uri":"textures/262f00aaac03641ddb7a9c7fbc1f2edd3170f64159c5a61bd081ce5fad3dc6fd.png"},{"name":"coir_light_rough","uri":"textures/4ff240004fc652a672388f6d616ee6a77e51d662161065da9d5a19415497b2ae.png"},{"name":"wood_faded_normal","uri":"textures/118ee8ea68dc212c360056b4c962436f80beaa1b801238847dde4965f1e9fbe3.png"},{"name":"wood_faded","uri":"textures/70d4e74265e03457fd7d7bfa03b233af49d3a3b0ada4edfd91bbd94038ef64e2.png"},{"name":"wood_faded_rough","uri":"textures/aead5d297cbdd01da9c83a7479733033393e22db2eaa95b67e15b24b4a88370d.png"},{"name":"coir_normal","uri":"textures/75a73ad923fbbcb4bd18d61afeb175fac48dc6f8490992a2f1133ec1ed0755d2.png"},{"name":"coir","uri":"textures/52ab3ed662f7cda6f836336ff0caa40ced6084720ed9b635bbd6935e5f042443.png"},{"name":"coir_rough","uri":"textures/f1d3a8c62c5caf495144753cb83533a90f12dd643f6bad0702717275eec3d69e.png"},{"name":"coir_mat_normal","uri":"textures/f48e40966c7a054e353adf19212d908c4c1469fe4a8dd72e67007fdc4c66bd62.png"},{"name":"coir_mat","uri":"textures/28d371e927ee34e4355934ed7766729e7b6269506fcce63a8f42d047e4fed9fb.png"},{"name":"coir_mat_rough","uri":"textures/b53239f3b4baff883880c862084fbb700bbfc5ed2e37de42d7de8df3f79242e8.png"},{"name":"thatch_dark_normal","uri":"textures/1c09b055150bf734451d98f323bc97d0dcb5f00b39a6b882de73376926507c8d.png"},{"name":"thatch_dark","uri":"textures/220e03a27bd68be412bc3f056481f46a0d9a823eb3eae99fc8f32e2d1df49638.png"},{"name":"thatch_dark_rough","uri":"textures/cf1f12b683c4067ed0ab0786e1b00570675d759bb86cbd4954a3851e3fbea584.png"},{"name":"concrete_normal","uri":"textures/f877b70294b37b7d16a581bcff5e00affa28e36ccc656c85d099cc94519ef374.png"},{"name":"concrete","uri":"textures/065d46ec82b79f327f73b504b71672ce54806ed26283a82cedab238187186da1.png"},{"name":"concrete_rough","uri":"textures/f657e6602ccf8e985b9d81d0e8f0d85e491c1c3799ea0f5e6df9ab3dfa885f3e.png"},{"name":"wood_dark_normal","uri":"textures/7298861d9356585aba47cc47903b493b567b46ecc27dfaab9e1510a59d081093.png"},{"name":"wood_dark","uri":"textures/e30bc20ceb6832b672870995e672a53b088aa7c6c94315dcf684e765f8667e2e.png"},{"name":"wood_dark_rough","uri":"textures/c07076bdffa20198cecc831b4083d58b000c0df155d4fd4e64effa2d6f3f32b0.png"},{"name":"laterite_normal","uri":"textures/3e5cb2c37df3bdef66fab4c9dd9b68c33bd0684f990273ba10a400b634a3955b.png"},{"name":"laterite","uri":"textures/7d8d5bbad01a8684c331f3f2a5922da596fe832240b9e7f5545dac96068ae450.png"},{"name":"laterite_rough","uri":"textures/55f17989b98db7f71d08e8cdb47dcbb99c7eed8e5ce43ed411677fad3599b3ca.png"},{"name":"plaster_old_normal","uri":"textures/dcbd71fab833f19c06251a853da28b4864fd657a8819487e7a6bbd3b0e822f2a.png"},{"name":"plaster_old","uri":"textures/0c461abf3d92f5787cd5a13315d65276b546fe7172c9ccf2f0f2da05f097667d.png"},{"name":"plaster_old_rough","uri":"textures/a5f8b739535a330c31b9d963d438b08c078f9a56eaac999174bd576127522fcf.png"},{"name":"thatch_normal","uri":"textures/986a7d96bc034918df87315d810376debc8ffc781d29fa5df21ec93498eb6a23.png"},{"name":"thatch","uri":"textures/8e67d85a65acaf0fc1ec02a9e5b39e73f860b191aff1d9423e94e4af1b3947d4.png"},{"name":"thatch_rough","uri":"textures/08a664527ed033893b02bcb3619a516d3f5f0e4498b3fef867bf2e4e608f2c94.png"},{"name":"soil_normal","uri":"textures/1747012704c9eacfba64cfd9c439123624edae695811b11120526a08611ce917.png"},{"name":"soil","uri":"textures/31a9418016830f1a731b81e08b88e952ea63f5a4082ae8c49e114e5a7d8e8d7c.png"},{"name":"soil_rough","uri":"textures/89aebbb2f2a0347995dcee434707987d0b9b24caae136e26d9faf76dd262d95d.png"}],"accessors":[{"bufferView":0,"componentType":5126,"count":8511,"max":[2.809999942779541,3.5076096057891846,2.3806135654449463],"min":[-2.8200109004974365,0.15000000596046448,-2.3837215900421143],"type":"VEC3"},{"bufferView":1,"componentType":5126,"count":8511,"type":"VEC3"},{"bufferView":2,"componentType":5126,"count":8511,"type":"VEC2"},{"bufferView":3,"componentType":5123,"count":18624,"type":"SCALAR"},{"bufferView":4,"componentType":5126,"count":2100,"max":[2.8600001335144043,3.48974871635437,2.299546957015991],"min":[-2.8600001335144043,0.12938867509365082,-2.2995471954345703],"type":"VEC3"},{"bufferView":5,"componentType":5126,"count":2100,"type":"VEC3"},{"bufferView":6,"componentType":5126,"count":2100,"type":"VEC2"},{"bufferView":7,"componentType":5123,"count":3576,"type":"SCALAR"},{"bufferView":8,"componentType":5126,"count":12786,"max":[2.404937267303467,1.9330164194107056,1.4760000705718994],"min":[-1.8850001096725464,0.009999999776482582,-3.2800002098083496],"type":"VEC3"},{"bufferView":9,"componentType":5126,"count":12786,"type":"VEC3"},{"bufferView":10,"componentType":5126,"count":12786,"type":"VEC2"},{"bufferView":11,"componentType":5123,"count":22416,"type":"SCALAR"},{"bufferView":12,"componentType":5126,"count":24,"max":[-0.2649996876716614,0.035999998450279236,-2.010000228881836],"min":[-1.1349998712539673,0,-3.25],"type":"VEC3"},{"bufferView":13,"componentType":5126,"count":24,"type":"VEC3"},{"bufferView":14,"componentType":5126,"count":24,"type":"VEC2"},{"bufferView":15,"componentType":5123,"count":36,"type":"SCALAR"},{"bufferView":16,"componentType":5126,"count":235,"max":[1.246000051498413,1.534991979598999,0.27600014209747314],"min":[-0.12386228889226913,0.4650289714336395,0.2639999985694885],"type":"VEC3"},{"bufferView":17,"componentType":5126,"count":235,"type":"VEC3"},{"bufferView":18,"componentType":5126,"count":235,"type":"VEC2"},{"bufferView":19,"componentType":5123,"count":420,"type":"SCALAR"},{"bufferView":20,"componentType":5126,"count":1532,"max":[2.81000018119812,3.5076096057891846,2.370274305343628],"min":[-2.820753335952759,2.305000066757202,-2.3671822547912598],"type":"VEC3"},{"bufferView":21,"componentType":5126,"count":1532,"type":"VEC3"},{"bufferView":22,"componentType":5126,"count":1532,"type":"VEC2"},{"bufferView":23,"componentType":5123,"count":4512,"type":"SCALAR"},{"bufferView":24,"componentType":5126,"count":224,"max":[2.450000286102295,0.10999999940395355,1.950000286102295],"min":[-2.450000286102295,0,-1.950000286102295],"type":"VEC3"},{"bufferView":25,"componentType":5126,"count":224,"type":"VEC3"},{"bufferView":26,"componentType":5126,"count":224,"type":"VEC2"},{"bufferView":27,"componentType":5123,"count":324,"type":"SCALAR"},{"bufferView":28,"componentType":5126,"count":3342,"max":[2.809999942779541,3.461329221725464,2.296478748321533],"min":[-2.809999942779541,0.12000000476837158,-2.296478748321533],"type":"VEC3"},{"bufferView":29,"componentType":5126,"count":3342,"type":"VEC3"},{"bufferView":30,"componentType":5126,"count":3342,"type":"VEC2"},{"bufferView":31,"componentType":5123,"count":5916,"type":"SCALAR"},{"bufferView":32,"componentType":5126,"count":1696,"max":[1.1729999780654907,1.0329999923706055,0.6100001335144043],"min":[-1.6009000539779663,0.14000000059604645,-0.16999991238117218],"type":"VEC3"},{"bufferView":33,"componentType":5126,"count":1696,"type":"VEC3"},{"bufferView":34,"componentType":5126,"count":1696,"type":"VEC2"},{"bufferView":35,"componentType":5123,"count":2676,"type":"SCALAR"},{"bufferView":36,"componentType":5126,"count":6600,"max":[2.2950003147125244,0.8790000081062317,1.7950001955032349],"min":[-2.2950003147125244,0.11999998986721039,-1.7950001955032349],"type":"VEC3"},{"bufferView":37,"componentType":5126,"count":6600,"type":"VEC3"},{"bufferView":38,"componentType":5126,"count":6600,"type":"VEC2"},{"bufferView":39,"componentType":5123,"count":9900,"type":"SCALAR"},{"bufferView":40,"componentType":5126,"count":24,"max":[2.1999998092651367,0.9099999666213989,1.7450002431869507],"min":[-2.200000286102295,0.12999999523162842,1.5549997091293335],"type":"VEC3"},{"bufferView":41,"componentType":5126,"count":24,"type":"VEC3"},{"bufferView":42,"componentType":5126,"count":24,"type":"VEC2"},{"bufferView":43,"componentType":5126,"count":11768,"max":[2.81000018119812,3.630000114440918,2.3866848945617676],"min":[-2.8299999237060547,2.4389281272888184,-2.3882243633270264],"type":"VEC3"},{"bufferView":44,"componentType":5126,"count":11768,"type":"VEC3"},{"bufferView":45,"componentType":5126,"count":11768,"type":"VEC2"},{"bufferView":46,"componentType":5123,"count":34680,"type":"SCALAR"},{"bufferView":47,"componentType":5126,"count":24,"max":[2.4000003337860107,0.1290000081062317,1.9000002145767212],"min":[-2.4000003337860107,0.10900000482797623,-1.9000002145767212],"type":"VEC3"},{"bufferView":48,"componentType":5126,"count":24,"type":"VEC3"},{"bufferView":49,"componentType":5126,"count":24,"type":"VEC2"}],"bufferViews":[{"buffer":0,"byteLength":102132,"byteOffset":0,"target":34962},{"buffer":0,"byteLength":102132,"byteOffset":102132,"target":34962},{"buffer":0,"byteLength":68088,"byteOffset":204264,"target":34962},{"buffer":0,"byteLength":37248,"byteOffset":272352,"target":34963},{"buffer":0,"byteLength":25200,"byteOffset":309600,"target":34962},{"buffer":0,"byteLength":25200,"byteOffset":334800,"target":34962},{"buffer":0,"byteLength":16800,"byteOffset":360000,"target":34962},{"buffer":0,"byteLength":7152,"byteOffset":376800,"target":34963},{"buffer":0,"byteLength":153432,"byteOffset":383952,"target":34962},{"buffer":0,"byteLength":153432,"byteOffset":537384,"target":34962},{"buffer":0,"byteLength":102288,"byteOffset":690816,"target":34962},{"buffer":0,"byteLength":44832,"byteOffset":793104,"target":34963},{"buffer":0,"byteLength":288,"byteOffset":837936,"target":34962},{"buffer":0,"byteLength":288,"byteOffset":838224,"target":34962},{"buffer":0,"byteLength":192,"byteOffset":838512,"target":34962},{"buffer":0,"byteLength":72,"byteOffset":838704,"target":34963},{"buffer":0,"byteLength":2820,"byteOffset":838776,"target":34962},{"buffer":0,"byteLength":2820,"byteOffset":841596,"target":34962},{"buffer":0,"byteLength":1880,"byteOffset":844416,"target":34962},{"buffer":0,"byteLength":840,"byteOffset":846296,"target":34963},{"buffer":0,"byteLength":18384,"byteOffset":847136,"target":34962},{"buffer":0,"byteLength":18384,"byteOffset":865520,"target":34962},{"buffer":0,"byteLength":12256,"byteOffset":883904,"target":34962},{"buffer":0,"byteLength":9024,"byteOffset":896160,"target":34963},{"buffer":0,"byteLength":2688,"byteOffset":905184,"target":34962},{"buffer":0,"byteLength":2688,"byteOffset":907872,"target":34962},{"buffer":0,"byteLength":1792,"byteOffset":910560,"target":34962},{"buffer":0,"byteLength":648,"byteOffset":912352,"target":34963},{"buffer":0,"byteLength":40104,"byteOffset":913000,"target":34962},{"buffer":0,"byteLength":40104,"byteOffset":953104,"target":34962},{"buffer":0,"byteLength":26736,"byteOffset":993208,"target":34962},{"buffer":0,"byteLength":11832,"byteOffset":1019944,"target":34963},{"buffer":0,"byteLength":20352,"byteOffset":1031776,"target":34962},{"buffer":0,"byteLength":20352,"byteOffset":1052128,"target":34962},{"buffer":0,"byteLength":13568,"byteOffset":1072480,"target":34962},{"buffer":0,"byteLength":5352,"byteOffset":1086048,"target":34963},{"buffer":0,"byteLength":79200,"byteOffset":1091400,"target":34962},{"buffer":0,"byteLength":79200,"byteOffset":1170600,"target":34962},{"buffer":0,"byteLength":52800,"byteOffset":1249800,"target":34962},{"buffer":0,"byteLength":19800,"byteOffset":1302600,"target":34963},{"buffer":0,"byteLength":288,"byteOffset":1322400,"target":34962},{"buffer":0,"byteLength":288,"byteOffset":1322688,"target":34962},{"buffer":0,"byteLength":192,"byteOffset":1322976,"target":34962},{"buffer":0,"byteLength":141216,"byteOffset":1323168,"target":34962},{"buffer":0,"byteLength":141216,"byteOffset":1464384,"target":34962},{"buffer":0,"byteLength":94144,"byteOffset":1605600,"target":34962},{"buffer":0,"byteLength":69360,"byteOffset":1699744,"target":34963},{"buffer":0,"byteLength":288,"byteOffset":1769104,"target":34962},{"buffer":0,"byteLength":288,"byteOffset":1769392,"target":34962},{"buffer":0,"byteLength":192,"byteOffset":1769680,"target":34962}],"samplers":[{"magFilter":9729,"minFilter":9987}],"buffers":[{"uri":"BLD_CoirYard_Shed_01.bin","byteLength":1769872}]}