{"asset":{"generator":"Khronos glTF Blender I/O v5.2.40","version":"2.0"},"extensionsUsed":["KHR_materials_transmission"],"scene":0,"scenes":[{"name":"Scene","nodes":[0]}],"nodes":[{"mesh":0,"name":"TF3_BLD_Home_Concrete_01"}],"materials":[{"doubleSided":true,"name":"TF3_BLD_MAT_concrete","normalTexture":{"index":0},"pbrMetallicRoughness":{"baseColorTexture":{"index":1},"metallicFactor":0,"metallicRoughnessTexture":{"index":2}}},{"doubleSided":true,"name":"TF3_BLD_MAT_wood_faded","normalTexture":{"index":3},"pbrMetallicRoughness":{"baseColorTexture":{"index":4},"metallicFactor":0,"metallicRoughnessTexture":{"index":5}}},{"doubleSided":true,"name":"TF3_BLD_MAT_plaster_teal","normalTexture":{"index":6},"pbrMetallicRoughness":{"baseColorTexture":{"index":7},"metallicFactor":0,"metallicRoughnessTexture":{"index":8}}},{"doubleSided":true,"name":"TF3_BLD_MAT_oxide_red","normalTexture":{"index":9},"pbrMetallicRoughness":{"baseColorTexture":{"index":10},"metallicFactor":0,"metallicRoughnessTexture":{"index":11}}},{"doubleSided":true,"name":"TF3_BLD_MAT_wood_teal","normalTexture":{"index":12},"pbrMetallicRoughness":{"baseColorTexture":{"index":13},"metallicFactor":0,"metallicRoughnessTexture":{"index":14}}},{"doubleSided":true,"name":"TF3_BLD_MAT_iron","pbrMetallicRoughness":{"baseColorFactor":[0.04600000008940697,0.06499999761581421,0.0560000017285347,1],"metallicFactor":0.6000000238418579,"roughnessFactor":0.44999998807907104}},{"doubleSided":true,"name":"TF3_BLD_MAT_brass","pbrMetallicRoughness":{"baseColorFactor":[0.5299999713897705,0.33000001311302185,0.11999999731779099,1],"metallicFactor":0.7200000286102295,"roughnessFactor":0.3199999928474426}},{"doubleSided":true,"name":"TF3_BLD_MAT_wood_dark","normalTexture":{"index":15},"pbrMetallicRoughness":{"baseColorTexture":{"index":16},"metallicFactor":0,"metallicRoughnessTexture":{"index":17}}},{"doubleSided":true,"name":"TF3_BLD_MAT_lime_cream","normalTexture":{"index":18},"pbrMetallicRoughness":{"baseColorTexture":{"index":19},"metallicFactor":0,"metallicRoughnessTexture":{"index":20}}},{"doubleSided":true,"name":"TF3_BLD_MAT_roof_clay","normalTexture":{"index":21},"pbrMetallicRoughness":{"baseColorTexture":{"index":22},"metallicFactor":0,"metallicRoughnessTexture":{"index":23}}},{"doubleSided":true,"name":"TF3_BLD_MAT_soil_dark","pbrMetallicRoughness":{"baseColorFactor":[0.0820000022649765,0.05999999865889549,0.03099999949336052,1],"metallicFactor":0,"roughnessFactor":0.699999988079071}},{"doubleSided":true,"name":"TF3_BLD_MAT_leaf_light","pbrMetallicRoughness":{"baseColorFactor":[0.3100000023841858,0.41999998688697815,0.12999999523162842,1],"metallicFactor":0,"roughnessFactor":0.699999988079071}},{"doubleSided":true,"name":"TF3_BLD_MAT_leaf","pbrMetallicRoughness":{"baseColorFactor":[0.15000000596046448,0.27000001072883606,0.06599999964237213,1],"metallicFactor":0,"roughnessFactor":0.699999988079071}},{"doubleSided":true,"name":"TF3_BLD_MAT_metal_aged","normalTexture":{"index":24},"pbrMetallicRoughness":{"baseColorTexture":{"index":25},"metallicFactor":0,"metallicRoughnessTexture":{"index":26}}},{"doubleSided":true,"name":"TF3_BLD_MAT_plaster_old","normalTexture":{"index":27},"pbrMetallicRoughness":{"baseColorTexture":{"index":28},"metallicFactor":0,"metallicRoughnessTexture":{"index":29}}},{"doubleSided":true,"name":"TF3_BLD_MAT_dark","pbrMetallicRoughness":{"baseColorFactor":[0.01600000075995922,0.027000000700354576,0.023000000044703484,1],"metallicFactor":0,"roughnessFactor":0.699999988079071}},{"alphaMode":"BLEND","doubleSided":true,"extensions":{"KHR_materials_transmission":{"transmissionFactor":0.15000000596046448}},"name":"TF3_BLD_MAT_glass","pbrMetallicRoughness":{"baseColorFactor":[0.3499999940395355,0.47999998927116394,0.4399999976158142,0.2199999988079071],"metallicFactor":0.05000000074505806,"roughnessFactor":0.11999999731779099}},{"doubleSided":true,"name":"TF3_BLD_MAT_rubber","pbrMetallicRoughness":{"baseColorFactor":[0.017999999225139618,0.02199999988079071,0.017999999225139618,1],"metallicFactor":0,"roughnessFactor":0.8999999761581421}},{"doubleSided":true,"name":"TF3_BLD_MAT_plaster_aqua","normalTexture":{"index":30},"pbrMetallicRoughness":{"baseColorTexture":{"index":31},"metallicFactor":0,"metallicRoughnessTexture":{"index":32}}}],"meshes":[{"name":"BLD_Home_Concrete_01_Coping_Mesh","primitives":[{"attributes":{"POSITION":0,"NORMAL":1,"TEXCOORD_0":2},"indices":3,"material":0},{"attributes":{"POSITION":4,"NORMAL":5,"TEXCOORD_0":6},"indices":7,"material":1},{"attributes":{"POSITION":8,"NORMAL":9,"TEXCOORD_0":10},"indices":11,"material":2},{"attributes":{"POSITION":12,"NORMAL":13,"TEXCOORD_0":14},"indices":15,"material":3},{"attributes":{"POSITION":16,"NORMAL":17,"TEXCOORD_0":18},"indices":19,"material":4},{"attributes":{"POSITION":20,"NORMAL":21,"TEXCOORD_0":22},"indices":23,"material":5},{"attributes":{"POSITION":24,"NORMAL":25,"TEXCOORD_0":26},"indices":27,"material":6},{"attributes":{"POSITION":28,"NORMAL":29,"TEXCOORD_0":30},"indices":31,"material":7},{"attributes":{"POSITION":32,"NORMAL":33,"TEXCOORD_0":34},"indices":35,"material":8},{"attributes":{"POSITION":36,"NORMAL":37,"TEXCOORD_0":38},"indices":39,"material":9},{"attributes":{"POSITION":40,"NORMAL":41,"TEXCOORD_0":42},"indices":43,"material":10},{"attributes":{"POSITION":44,"NORMAL":45,"TEXCOORD_0":46},"indices":47,"material":11},{"attributes":{"POSITION":48,"NORMAL":49,"TEXCOORD_0":50},"indices":51,"material":12},{"attributes":{"POSITION":52,"NORMAL":53,"TEXCOORD_0":54},"indices":55,"material":13},{"attributes":{"POSITION":56,"NORMAL":57,"TEXCOORD_0":58},"indices":59,"material":14},{"attributes":{"POSITION":60,"NORMAL":61,"TEXCOORD_0":62},"indices":63,"material":15},{"attributes":{"POSITION":64,"NORMAL":65,"TEXCOORD_0":66},"indices":67,"material":16},{"attributes":{"POSITION":68,"NORMAL":69,"TEXCOORD_0":70},"indices":71,"material":17},{"attributes":{"POSITION":72,"NORMAL":73,"TEXCOORD_0":74},"indices":75,"material":18}]}],"textures":[{"sampler":0,"source":0},{"sampler":0,"source":1},{"sampler":0,"source":2},{"sampler":0,"source":3},{"sampler":0,"source":4},{"sampler":0,"source":5},{"sampler":0,"source":6},{"sampler":0,"source":7},{"sampler":0,"source":8},{"sampler":0,"source":9},{"sampler":0,"source":10},{"sampler":0,"source":11},{"sampler":0,"source":12},{"sampler":0,"source":13},{"sampler":0,"source":14},{"sampler":0,"source":15},{"sampler":0,"source":16},{"sampler":0,"source":17},{"sampler":0,"source":18},{"sampler":0,"source":19},{"sampler":0,"source":20},{"sampler":0,"source":21},{"sampler":0,"source":22},{"sampler":0,"source":23},{"sampler":0,"source":24},{"sampler":0,"source":25},{"sampler":0,"source":26},{"sampler":0,"source":27},{"sampler":0,"source":28},{"sampler":0,"source":29},{"sampler":0,"source":30},{"sampler":0,"source":31},{"sampler":0,"source":32}],"images":[{"name":"concrete_normal","uri":"textures/f877b70294b37b7d16a581bcff5e00affa28e36ccc656c85d099cc94519ef374.png"},{"name":"concrete","uri":"textures/065d46ec82b79f327f73b504b71672ce54806ed26283a82cedab238187186da1.png"},{"name":"concrete_rough","uri":"textures/f657e6602ccf8e985b9d81d0e8f0d85e491c1c3799ea0f5e6df9ab3dfa885f3e.png"},{"name":"wood_faded_normal","uri":"textures/118ee8ea68dc212c360056b4c962436f80beaa1b801238847dde4965f1e9fbe3.png"},{"name":"wood_faded","uri":"textures/70d4e74265e03457fd7d7bfa03b233af49d3a3b0ada4edfd91bbd94038ef64e2.png"},{"name":"wood_faded_rough","uri":"textures/aead5d297cbdd01da9c83a7479733033393e22db2eaa95b67e15b24b4a88370d.png"},{"name":"plaster_teal_normal","uri":"textures/b6489d1865f3eeebc2e57352a31a950de953bf465875573942c4fb7d1dd45d8b.png"},{"name":"plaster_teal","uri":"textures/e1d18dd5ee3f4b0f1fb6fd7fc48d40c37c7a360fa5b7749c2a3961cce83df97a.png"},{"name":"plaster_teal_rough","uri":"textures/cc78ac3aa7374a248de41470c309da6c28b0a86be02d8de9e985ce56c3b9503c.png"},{"name":"oxide_red_normal","uri":"textures/0c312639e501cb21e8e8f4627e7651b783f00e2fb9aca7e4930ed2d95949cee2.png"},{"name":"oxide_red","uri":"textures/e2dc0fb93c0bd286e93513c81571b554b9a9cdafc60103a61bc6c139084e2079.png"},{"name":"oxide_red_rough","uri":"textures/b8b2724b53709588407c84b798b7100dfeea3f7b4b669b5529123af6788f630d.png"},{"name":"wood_teal_normal","uri":"textures/dc1b81ea3a11484e39c51cbb7073ba241a5623e2f8cb37ecb54178afa1c43b79.png"},{"name":"wood_teal","uri":"textures/fb507bc82bf6752faece04215ff1757bb40e25ffc46e56866c7df1f571c4189f.png"},{"name":"wood_teal_rough","uri":"textures/83c2b7505c06c9bfb7c7977e1b4c8aec3259d6927255494e06d5ff878bad9eaa.png"},{"name":"wood_dark_normal","uri":"textures/7298861d9356585aba47cc47903b493b567b46ecc27dfaab9e1510a59d081093.png"},{"name":"wood_dark","uri":"textures/e30bc20ceb6832b672870995e672a53b088aa7c6c94315dcf684e765f8667e2e.png"},{"name":"wood_dark_rough","uri":"textures/c07076bdffa20198cecc831b4083d58b000c0df155d4fd4e64effa2d6f3f32b0.png"},{"name":"lime_cream_normal","uri":"textures/7b20194ee9239b461c7be7df8fabd113b537547d7d0b81fe1727f660d789db77.png"},{"name":"lime_cream","uri":"textures/f8edb9c2666488f5140d6e77657e67fd0ae629d1d50423f1f4b14522e111d651.png"},{"name":"lime_cream_rough","uri":"textures/980287d6bfb1c422e8327ee85397f6869dbf1b0caa972559d8b692d4dabf3ee5.png"},{"name":"roof_clay_normal","uri":"textures/143a7223b384c31829cce283b5ee254a441744d2358ef3624b6bb033ddd8b1a0.png"},{"name":"roof_clay","uri":"textures/1fcd967f1cf6b8e0963f94b42e340542745862e70eea0f4bf27924afc312eb26.png"},{"name":"roof_clay_rough","uri":"textures/6787cc2f3afd50c72c4e9b102a31ffa7bb06213e4b290d28a4f5745d395cbaa8.png"},{"name":"metal_aged_normal","uri":"textures/ac3bb8dbd362b722ab9339d6dba5fea9a108094d8a86a4093a89ab9811737f9c.png"},{"name":"metal_aged","uri":"textures/4bc0f4595b217fa2b3fbd0b9c4c968385b245f494d601e3f55ec62fe7b54986a.png"},{"name":"metal_aged_rough","uri":"textures/f934ad8b9af087684547d96a5048502288be6afb13a9b00811524dc5c214a6f2.png"},{"name":"plaster_old_normal","uri":"textures/dcbd71fab833f19c06251a853da28b4864fd657a8819487e7a6bbd3b0e822f2a.png"},{"name":"plaster_old","uri":"textures/0c461abf3d92f5787cd5a13315d65276b546fe7172c9ccf2f0f2da05f097667d.png"},{"name":"plaster_old_rough","uri":"textures/a5f8b739535a330c31b9d963d438b08c078f9a56eaac999174bd576127522fcf.png"},{"name":"plaster_aqua_normal","uri":"textures/bffda8cac479e372842a48c2a1e5b005c5384c8cb7e145907e92a63cc165476d.png"},{"name":"plaster_aqua","uri":"textures/0ade7a854adbea45c4e6c00868fe38bb8658f00112f2707d980b575c3177b8cc.png"},{"name":"plaster_aqua_rough","uri":"textures/6d849be09ada04c19f1fe6656bbd61e18386eac13cdcdcb19e4f066ed356ca1b.png"}],"accessors":[{"bufferView":0,"componentType":5126,"count":1576,"max":[3.6000001430511475,3.955000162124634,3.1650002002716064],"min":[-3.771590232849121,0,-4.320000171661377],"type":"VEC3"},{"bufferView":1,"componentType":5126,"count":1576,"type":"VEC3"},{"bufferView":2,"componentType":5126,"count":1576,"type":"VEC2"},{"bufferView":3,"componentType":5123,"count":2292,"type":"SCALAR"},{"bufferView":4,"componentType":5126,"count":576,"max":[1.9741002321243286,2.401899814605713,1.2440998554229736],"min":[-3.3339998722076416,0.5983999967575073,-2.4835000038146973],"type":"VEC3"},{"bufferView":5,"componentType":5126,"count":576,"type":"VEC3"},{"bufferView":6,"componentType":5126,"count":576,"type":"VEC2"},{"bufferView":7,"componentType":5123,"count":864,"type":"SCALAR"},{"bufferView":8,"componentType":5126,"count":1366,"max":[3.6000001430511475,3.3399999141693115,1.5049996376037598],"min":[-3.7875001430511475,0.45000001788139343,-3.750000238418579],"type":"VEC3"},{"bufferView":9,"componentType":5126,"count":1366,"type":"VEC3"},{"bufferView":10,"componentType":5126,"count":1366,"type":"VEC2"},{"bufferView":11,"componentType":5123,"count":2016,"type":"SCALAR"},{"bufferView":12,"componentType":5126,"count":458,"max":[3.6500003337860107,0.49000000953674316,2.950000286102295],"min":[-3.6500003337860107,0.3799999952316284,-3.7200000286102295],"type":"VEC3"},{"bufferView":13,"componentType":5126,"count":458,"type":"VEC3"},{"bufferView":14,"componentType":5126,"count":458,"type":"VEC2"},{"bufferView":15,"componentType":5123,"count":648,"type":"SCALAR"},{"bufferView":16,"componentType":5126,"count":712,"max":[-1.6349997520446777,2.384999990463257,1.2854998111724854],"min":[-3.315000057220459,0.9350000023841858,-2.624000072479248],"type":"VEC3"},{"bufferView":17,"componentType":5126,"count":712,"type":"VEC3"},{"bufferView":18,"componentType":5126,"count":712,"type":"VEC2"},{"bufferView":19,"componentType":5123,"count":1044,"type":"SCALAR"},{"bufferView":20,"componentType":5126,"count":2528,"max":[3.6319997310638428,4.050000190734863,2.372000217437744],"min":[-2.8097498416900635,0.20000000298023224,-2.6650002002716064],"type":"VEC3"},{"bufferView":21,"componentType":5126,"count":2528,"type":"VEC3"},{"bufferView":22,"componentType":5126,"count":2528,"type":"VEC2"},{"bufferView":23,"componentType":5123,"count":4308,"type":"SCALAR"},{"bufferView":24,"componentType":5126,"count":64,"max":[-1.7910999059677124,1.6200000047683716,-1.0890001058578491],"min":[-1.8560999631881714,1.4199999570846558,-1.1380001306533813],"type":"VEC3"},{"bufferView":25,"componentType":5126,"count":64,"type":"VEC3"},{"bufferView":26,"componentType":5126,"count":64,"type":"VEC2"},{"bufferView":27,"componentType":5123,"count":120,"type":"SCALAR"},{"bufferView":28,"componentType":5126,"count":2710,"max":[2.1825003623962402,2.6649999618530273,1.3624998331069946],"min":[-3.319999933242798,0.375,-2.4649999141693115],"type":"VEC3"},{"bufferView":29,"componentType":5126,"count":2710,"type":"VEC3"},{"bufferView":30,"componentType":5126,"count":2710,"type":"VEC2"},{"bufferView":31,"componentType":5123,"count":3960,"type":"SCALAR"},{"bufferView":32,"componentType":5126,"count":1034,"max":[3.445000171661377,3.890000104904175,3.005000352859497],"min":[-3.445000171661377,0.4450000524520874,-3.4800000190734863],"type":"VEC3"},{"bufferView":33,"componentType":5126,"count":1034,"type":"VEC3"},{"bufferView":34,"componentType":5126,"count":1034,"type":"VEC2"},{"bufferView":35,"componentType":5123,"count":1512,"type":"SCALAR"},{"bufferView":36,"componentType":5126,"count":530,"max":[-0.29559963941574097,0.38999998569488525,-3.8024003505706787],"min":[-3.277599811553955,0,-4.277600288391113],"type":"VEC3"},{"bufferView":37,"componentType":5126,"count":530,"type":"VEC3"},{"bufferView":38,"componentType":5126,"count":530,"type":"VEC2"},{"bufferView":39,"componentType":5123,"count":1656,"type":"SCALAR"},{"bufferView":40,"componentType":5126,"count":144,"max":[-0.3315996527671814,0.3400000035762787,-3.846400260925293],"min":[-3.2335996627807617,0.33000001311302185,-4.233600616455078],"type":"VEC3"},{"bufferView":41,"componentType":5126,"count":144,"type":"VEC3"},{"bufferView":42,"componentType":5126,"count":144,"type":"VEC2"},{"bufferView":43,"componentType":5123,"count":360,"type":"SCALAR"},{"bufferView":44,"componentType":5126,"count":48,"max":[-0.15309064090251923,0.9173741340637207,-3.6247079372406006],"min":[-3.3305704593658447,0.3499999940395355,-4.092000484466553],"type":"VEC3"},{"bufferView":45,"componentType":5126,"count":48,"type":"VEC3"},{"bufferView":46,"componentType":5126,"count":48,"type":"VEC2"},{"bufferView":47,"componentType":5123,"count":48,"type":"SCALAR"},{"bufferView":48,"componentType":5126,"count":96,"max":[-0.0338951013982296,0.9289963245391846,-3.7004647254943848],"min":[-3.3946573734283447,0.3499999940395355,-4.4773454666137695],"type":"VEC3"},{"bufferView":49,"componentType":5126,"count":96,"type":"VEC3"},{"bufferView":50,"componentType":5126,"count":96,"type":"VEC2"},{"bufferView":51,"componentType":5123,"count":96,"type":"SCALAR"},{"bufferView":52,"componentType":5126,"count":410,"max":[3.518000364303589,3.9156787395477295,1.5669996738433838],"min":[-3.8426353931427,0.13079354166984558,-2.519477128982544],"type":"VEC3"},{"bufferView":53,"componentType":5126,"count":410,"type":"VEC3"},{"bufferView":54,"componentType":5126,"count":410,"type":"VEC2"},{"bufferView":55,"componentType":5123,"count":864,"type":"SCALAR"},{"bufferView":56,"componentType":5126,"count":48,"max":[3.4150002002716064,3.4250001907348633,2.9750001430511475],"min":[-3.4150002002716064,1.4700000286102295,-2.375000238418579],"type":"VEC3"},{"bufferView":57,"componentType":5126,"count":48,"type":"VEC3"},{"bufferView":58,"componentType":5126,"count":48,"type":"VEC2"},{"bufferView":59,"componentType":5123,"count":72,"type":"SCALAR"},{"bufferView":60,"componentType":5126,"count":96,"max":[2.120000123977661,2.569999933242798,1.3199996948242188],"min":[-3.2300000190734863,0.4500000476837158,-2.359999895095825],"type":"VEC3"},{"bufferView":61,"componentType":5126,"count":96,"type":"VEC3"},{"bufferView":62,"componentType":5126,"count":96,"type":"VEC2"},{"bufferView":63,"componentType":5123,"count":144,"type":"SCALAR"},{"bufferView":64,"componentType":5126,"count":24,"max":[-0.7274998426437378,1.7450000047683716,-1.038000226020813],"min":[-0.8324998617172241,1.665000081062317,-1.0460001230239868],"type":"VEC3"},{"bufferView":65,"componentType":5126,"count":24,"type":"VEC3"},{"bufferView":66,"componentType":5126,"count":24,"type":"VEC2"},{"bufferView":67,"componentType":5123,"count":36,"type":"SCALAR"},{"bufferView":68,"componentType":5126,"count":1589,"max":[-0.7699999213218689,5.010000228881836,2.1559996604919434],"min":[-2.4160001277923584,1.850000023841858,-0.9830000996589661],"type":"VEC3"},{"bufferView":69,"componentType":5126,"count":1589,"type":"VEC3"},{"bufferView":70,"componentType":5126,"count":1589,"type":"VEC2"},{"bufferView":71,"componentType":5123,"count":4848,"type":"SCALAR"},{"bufferView":72,"componentType":5126,"count":216,"max":[3.450000047683716,3.2150001525878906,2.9250001907348633],"min":[-1.1500002145767212,0.4450000524520874,-2.325000047683716],"type":"VEC3"},{"bufferView":73,"componentType":5126,"count":216,"type":"VEC3"},{"bufferView":74,"componentType":5126,"count":216,"type":"VEC2"},{"bufferView":75,"componentType":5123,"count":324,"type":"SCALAR"}],"bufferViews":[{"buffer":0,"byteLength":18912,"byteOffset":0,"target":34962},{"buffer":0,"byteLength":18912,"byteOffset":18912,"target":34962},{"buffer":0,"byteLength":12608,"byteOffset":37824,"target":34962},{"buffer":0,"byteLength":4584,"byteOffset":50432,"target":34963},{"buffer":0,"byteLength":6912,"byteOffset":55016,"target":34962},{"buffer":0,"byteLength":6912,"byteOffset":61928,"target":34962},{"buffer":0,"byteLength":4608,"byteOffset":68840,"target":34962},{"buffer":0,"byteLength":1728,"byteOffset":73448,"target":34963},{"buffer":0,"byteLength":16392,"byteOffset":75176,"target":34962},{"buffer":0,"byteLength":16392,"byteOffset":91568,"target":34962},{"buffer":0,"byteLength":10928,"byteOffset":107960,"target":34962},{"buffer":0,"byteLength":4032,"byteOffset":118888,"target":34963},{"buffer":0,"byteLength":5496,"byteOffset":122920,"target":34962},{"buffer":0,"byteLength":5496,"byteOffset":128416,"target":34962},{"buffer":0,"byteLength":3664,"byteOffset":133912,"target":34962},{"buffer":0,"byteLength":1296,"byteOffset":137576,"target":34963},{"buffer":0,"byteLength":8544,"byteOffset":138872,"target":34962},{"buffer":0,"byteLength":8544,"byteOffset":147416,"target":34962},{"buffer":0,"byteLength":5696,"byteOffset":155960,"target":34962},{"buffer":0,"byteLength":2088,"byteOffset":161656,"target":34963},{"buffer":0,"byteLength":30336,"byteOffset":163744,"target":34962},{"buffer":0,"byteLength":30336,"byteOffset":194080,"target":34962},{"buffer":0,"byteLength":20224,"byteOffset":224416,"target":34962},{"buffer":0,"byteLength":8616,"byteOffset":244640,"target":34963},{"buffer":0,"byteLength":768,"byteOffset":253256,"target":34962},{"buffer":0,"byteLength":768,"byteOffset":254024,"target":34962},{"buffer":0,"byteLength":512,"byteOffset":254792,"target":34962},{"buffer":0,"byteLength":240,"byteOffset":255304,"target":34963},{"buffer":0,"byteLength":32520,"byteOffset":255544,"target":34962},{"buffer":0,"byteLength":32520,"byteOffset":288064,"target":34962},{"buffer":0,"byteLength":21680,"byteOffset":320584,"target":34962},{"buffer":0,"byteLength":7920,"byteOffset":342264,"target":34963},{"buffer":0,"byteLength":12408,"byteOffset":350184,"target":34962},{"buffer":0,"byteLength":12408,"byteOffset":362592,"target":34962},{"buffer":0,"byteLength":8272,"byteOffset":375000,"target":34962},{"buffer":0,"byteLength":3024,"byteOffset":383272,"target":34963},{"buffer":0,"byteLength":6360,"byteOffset":386296,"target":34962},{"buffer":0,"byteLength":6360,"byteOffset":392656,"target":34962},{"buffer":0,"byteLength":4240,"byteOffset":399016,"target":34962},{"buffer":0,"byteLength":3312,"byteOffset":403256,"target":34963},{"buffer":0,"byteLength":1728,"byteOffset":406568,"target":34962},{"buffer":0,"byteLength":1728,"byteOffset":408296,"target":34962},{"buffer":0,"byteLength":1152,"byteOffset":410024,"target":34962},{"buffer":0,"byteLength":720,"byteOffset":411176,"target":34963},{"buffer":0,"byteLength":576,"byteOffset":411896,"target":34962},{"buffer":0,"byteLength":576,"byteOffset":412472,"target":34962},{"buffer":0,"byteLength":384,"byteOffset":413048,"target":34962},{"buffer":0,"byteLength":96,"byteOffset":413432,"target":34963},{"buffer":0,"byteLength":1152,"byteOffset":413528,"target":34962},{"buffer":0,"byteLength":1152,"byteOffset":414680,"target":34962},{"buffer":0,"byteLength":768,"byteOffset":415832,"target":34962},{"buffer":0,"byteLength":192,"byteOffset":416600,"target":34963},{"buffer":0,"byteLength":4920,"byteOffset":416792,"target":34962},{"buffer":0,"byteLength":4920,"byteOffset":421712,"target":34962},{"buffer":0,"byteLength":3280,"byteOffset":426632,"target":34962},{"buffer":0,"byteLength":1728,"byteOffset":429912,"target":34963},{"buffer":0,"byteLength":576,"byteOffset":431640,"target":34962},{"buffer":0,"byteLength":576,"byteOffset":432216,"target":34962},{"buffer":0,"byteLength":384,"byteOffset":432792,"target":34962},{"buffer":0,"byteLength":144,"byteOffset":433176,"target":34963},{"buffer":0,"byteLength":1152,"byteOffset":433320,"target":34962},{"buffer":0,"byteLength":1152,"byteOffset":434472,"target":34962},{"buffer":0,"byteLength":768,"byteOffset":435624,"target":34962},{"buffer":0,"byteLength":288,"byteOffset":436392,"target":34963},{"buffer":0,"byteLength":288,"byteOffset":436680,"target":34962},{"buffer":0,"byteLength":288,"byteOffset":436968,"target":34962},{"buffer":0,"byteLength":192,"byteOffset":437256,"target":34962},{"buffer":0,"byteLength":72,"byteOffset":437448,"target":34963},{"buffer":0,"byteLength":19068,"byteOffset":437520,"target":34962},{"buffer":0,"byteLength":19068,"byteOffset":456588,"target":34962},{"buffer":0,"byteLength":12712,"byteOffset":475656,"target":34962},{"buffer":0,"byteLength":9696,"byteOffset":488368,"target":34963},{"buffer":0,"byteLength":2592,"byteOffset":498064,"target":34962},{"buffer":0,"byteLength":2592,"byteOffset":500656,"target":34962},{"buffer":0,"byteLength":1728,"byteOffset":503248,"target":34962},{"buffer":0,"byteLength":648,"byteOffset":504976,"target":34963}],"samplers":[{"magFilter":9729,"minFilter":9987}],"buffers":[{"uri":"BLD_Home_Concrete_01.bin","byteLength":505624}]}