{"asset":{"generator":"Khronos glTF Blender I/O v5.2.40","version":"2.0"},"scene":0,"scenes":[{"name":"Scene","nodes":[0]}],"nodes":[{"mesh":0,"name":"TF3_BLD_Cottage_Hipped_01"}],"materials":[{"doubleSided":true,"name":"TF3_BLD_MAT_wood_faded","normalTexture":{"index":0},"pbrMetallicRoughness":{"baseColorTexture":{"index":1},"metallicFactor":0,"metallicRoughnessTexture":{"index":2}}},{"doubleSided":true,"name":"TF3_BLD_MAT_laterite","normalTexture":{"index":3},"pbrMetallicRoughness":{"baseColorTexture":{"index":4},"metallicFactor":0,"metallicRoughnessTexture":{"index":5}}},{"doubleSided":true,"name":"TF3_BLD_MAT_oxide_red","normalTexture":{"index":6},"pbrMetallicRoughness":{"baseColorTexture":{"index":7},"metallicFactor":0,"metallicRoughnessTexture":{"index":8}}},{"doubleSided":true,"name":"TF3_BLD_MAT_wood_teal","normalTexture":{"index":9},"pbrMetallicRoughness":{"baseColorTexture":{"index":10},"metallicFactor":0,"metallicRoughnessTexture":{"index":11}}},{"doubleSided":true,"name":"TF3_BLD_MAT_iron","pbrMetallicRoughness":{"baseColorFactor":[0.04600000008940697,0.06499999761581421,0.0560000017285347,1],"metallicFactor":0.6000000238418579,"roughnessFactor":0.44999998807907104}},{"doubleSided":true,"name":"TF3_BLD_MAT_brass","pbrMetallicRoughness":{"baseColorFactor":[0.5299999713897705,0.33000001311302185,0.11999999731779099,1],"metallicFactor":0.7200000286102295,"roughnessFactor":0.3199999928474426}},{"doubleSided":true,"name":"TF3_BLD_MAT_wood_dark","normalTexture":{"index":12},"pbrMetallicRoughness":{"baseColorTexture":{"index":13},"metallicFactor":0,"metallicRoughnessTexture":{"index":14}}},{"doubleSided":true,"name":"TF3_BLD_MAT_roof_clay","normalTexture":{"index":15},"pbrMetallicRoughness":{"baseColorTexture":{"index":16},"metallicFactor":0,"metallicRoughnessTexture":{"index":17}}},{"doubleSided":true,"name":"TF3_BLD_MAT_soil_dark","pbrMetallicRoughness":{"baseColorFactor":[0.0820000022649765,0.05999999865889549,0.03099999949336052,1],"metallicFactor":0,"roughnessFactor":0.699999988079071}},{"doubleSided":true,"name":"TF3_BLD_MAT_leaf_light","pbrMetallicRoughness":{"baseColorFactor":[0.3100000023841858,0.41999998688697815,0.12999999523162842,1],"metallicFactor":0,"roughnessFactor":0.699999988079071}},{"doubleSided":true,"name":"TF3_BLD_MAT_leaf","pbrMetallicRoughness":{"baseColorFactor":[0.15000000596046448,0.27000001072883606,0.06599999964237213,1],"metallicFactor":0,"roughnessFactor":0.699999988079071}},{"doubleSided":true,"name":"TF3_BLD_MAT_plaster_teal","normalTexture":{"index":18},"pbrMetallicRoughness":{"baseColorTexture":{"index":19},"metallicFactor":0,"metallicRoughnessTexture":{"index":20}}},{"doubleSided":true,"name":"TF3_BLD_MAT_concrete","normalTexture":{"index":21},"pbrMetallicRoughness":{"baseColorTexture":{"index":22},"metallicFactor":0,"metallicRoughnessTexture":{"index":23}}},{"doubleSided":true,"name":"TF3_BLD_MAT_metal_aged","normalTexture":{"index":24},"pbrMetallicRoughness":{"baseColorTexture":{"index":25},"metallicFactor":0,"metallicRoughnessTexture":{"index":26}}},{"doubleSided":true,"name":"TF3_BLD_MAT_roof_dark","normalTexture":{"index":27},"pbrMetallicRoughness":{"baseColorTexture":{"index":28},"metallicFactor":0,"metallicRoughnessTexture":{"index":29}}},{"doubleSided":true,"name":"TF3_BLD_MAT_roof_light","normalTexture":{"index":30},"pbrMetallicRoughness":{"baseColorTexture":{"index":31},"metallicFactor":0,"metallicRoughnessTexture":{"index":32}}},{"doubleSided":true,"name":"TF3_BLD_MAT_plaster_aqua","normalTexture":{"index":33},"pbrMetallicRoughness":{"baseColorTexture":{"index":34},"metallicFactor":0,"metallicRoughnessTexture":{"index":35}}},{"doubleSided":true,"name":"TF3_BLD_MAT_dark","pbrMetallicRoughness":{"baseColorFactor":[0.01600000075995922,0.027000000700354576,0.023000000044703484,1],"metallicFactor":0,"roughnessFactor":0.699999988079071}}],"meshes":[{"name":"BLD_Cottage_Hipped_01_DoorPanels_Mesh","primitives":[{"attributes":{"POSITION":0,"NORMAL":1,"TEXCOORD_0":2},"indices":3,"material":0},{"attributes":{"POSITION":4,"NORMAL":5,"TEXCOORD_0":6},"indices":7,"material":1},{"attributes":{"POSITION":8,"NORMAL":9,"TEXCOORD_0":10},"indices":11,"material":2},{"attributes":{"POSITION":12,"NORMAL":13,"TEXCOORD_0":14},"indices":15,"material":3},{"attributes":{"POSITION":16,"NORMAL":17,"TEXCOORD_0":18},"indices":19,"material":4},{"attributes":{"POSITION":20,"NORMAL":21,"TEXCOORD_0":22},"indices":23,"material":5},{"attributes":{"POSITION":24,"NORMAL":25,"TEXCOORD_0":26},"indices":27,"material":6},{"attributes":{"POSITION":28,"NORMAL":29,"TEXCOORD_0":30},"indices":31,"material":7},{"attributes":{"POSITION":32,"NORMAL":33,"TEXCOORD_0":34},"indices":35,"material":8},{"attributes":{"POSITION":36,"NORMAL":37,"TEXCOORD_0":38},"indices":39,"material":9},{"attributes":{"POSITION":40,"NORMAL":41,"TEXCOORD_0":42},"indices":43,"material":10},{"attributes":{"POSITION":44,"NORMAL":45,"TEXCOORD_0":46},"indices":47,"material":11},{"attributes":{"POSITION":48,"NORMAL":49,"TEXCOORD_0":50},"indices":51,"material":12},{"attributes":{"POSITION":52,"NORMAL":53,"TEXCOORD_0":54},"indices":55,"material":13},{"attributes":{"POSITION":56,"NORMAL":57,"TEXCOORD_0":58},"indices":59,"material":14},{"attributes":{"POSITION":60,"NORMAL":61,"TEXCOORD_0":62},"indices":63,"material":15},{"attributes":{"POSITION":64,"NORMAL":65,"TEXCOORD_0":66},"indices":67,"material":16},{"attributes":{"POSITION":68,"NORMAL":69,"TEXCOORD_0":70},"indices":71,"material":17}]}],"textures":[{"sampler":0,"source":0},{"sampler":0,"source":1},{"sampler":0,"source":2},{"sampler":0,"source":3},{"sampler":0,"source":4},{"sampler":0,"source":5},{"sampler":0,"source":6},{"sampler":0,"source":7},{"sampler":0,"source":8},{"sampler":0,"source":9},{"sampler":0,"source":10},{"sampler":0,"source":11},{"sampler":0,"source":12},{"sampler":0,"source":13},{"sampler":0,"source":14},{"sampler":0,"source":15},{"sampler":0,"source":16},{"sampler":0,"source":17},{"sampler":0,"source":18},{"sampler":0,"source":19},{"sampler":0,"source":20},{"sampler":0,"source":21},{"sampler":0,"source":22},{"sampler":0,"source":23},{"sampler":0,"source":24},{"sampler":0,"source":25},{"sampler":0,"source":26},{"sampler":0,"source":27},{"sampler":0,"source":28},{"sampler":0,"source":29},{"sampler":0,"source":30},{"sampler":0,"source":31},{"sampler":0,"source":32},{"sampler":0,"source":33},{"sampler":0,"source":34},{"sampler":0,"source":35}],"images":[{"name":"wood_faded_normal","uri":"textures/118ee8ea68dc212c360056b4c962436f80beaa1b801238847dde4965f1e9fbe3.png"},{"name":"wood_faded","uri":"textures/70d4e74265e03457fd7d7bfa03b233af49d3a3b0ada4edfd91bbd94038ef64e2.png"},{"name":"wood_faded_rough","uri":"textures/aead5d297cbdd01da9c83a7479733033393e22db2eaa95b67e15b24b4a88370d.png"},{"name":"laterite_normal","uri":"textures/3e5cb2c37df3bdef66fab4c9dd9b68c33bd0684f990273ba10a400b634a3955b.png"},{"name":"laterite","uri":"textures/7d8d5bbad01a8684c331f3f2a5922da596fe832240b9e7f5545dac96068ae450.png"},{"name":"laterite_rough","uri":"textures/55f17989b98db7f71d08e8cdb47dcbb99c7eed8e5ce43ed411677fad3599b3ca.png"},{"name":"oxide_red_normal","uri":"textures/0c312639e501cb21e8e8f4627e7651b783f00e2fb9aca7e4930ed2d95949cee2.png"},{"name":"oxide_red","uri":"textures/e2dc0fb93c0bd286e93513c81571b554b9a9cdafc60103a61bc6c139084e2079.png"},{"name":"oxide_red_rough","uri":"textures/b8b2724b53709588407c84b798b7100dfeea3f7b4b669b5529123af6788f630d.png"},{"name":"wood_teal_normal","uri":"textures/dc1b81ea3a11484e39c51cbb7073ba241a5623e2f8cb37ecb54178afa1c43b79.png"},{"name":"wood_teal","uri":"textures/fb507bc82bf6752faece04215ff1757bb40e25ffc46e56866c7df1f571c4189f.png"},{"name":"wood_teal_rough","uri":"textures/83c2b7505c06c9bfb7c7977e1b4c8aec3259d6927255494e06d5ff878bad9eaa.png"},{"name":"wood_dark_normal","uri":"textures/7298861d9356585aba47cc47903b493b567b46ecc27dfaab9e1510a59d081093.png"},{"name":"wood_dark","uri":"textures/e30bc20ceb6832b672870995e672a53b088aa7c6c94315dcf684e765f8667e2e.png"},{"name":"wood_dark_rough","uri":"textures/c07076bdffa20198cecc831b4083d58b000c0df155d4fd4e64effa2d6f3f32b0.png"},{"name":"roof_clay_normal","uri":"textures/143a7223b384c31829cce283b5ee254a441744d2358ef3624b6bb033ddd8b1a0.png"},{"name":"roof_clay","uri":"textures/1fcd967f1cf6b8e0963f94b42e340542745862e70eea0f4bf27924afc312eb26.png"},{"name":"roof_clay_rough","uri":"textures/6787cc2f3afd50c72c4e9b102a31ffa7bb06213e4b290d28a4f5745d395cbaa8.png"},{"name":"plaster_teal_normal","uri":"textures/b6489d1865f3eeebc2e57352a31a950de953bf465875573942c4fb7d1dd45d8b.png"},{"name":"plaster_teal","uri":"textures/e1d18dd5ee3f4b0f1fb6fd7fc48d40c37c7a360fa5b7749c2a3961cce83df97a.png"},{"name":"plaster_teal_rough","uri":"textures/cc78ac3aa7374a248de41470c309da6c28b0a86be02d8de9e985ce56c3b9503c.png"},{"name":"concrete_normal","uri":"textures/f877b70294b37b7d16a581bcff5e00affa28e36ccc656c85d099cc94519ef374.png"},{"name":"concrete","uri":"textures/065d46ec82b79f327f73b504b71672ce54806ed26283a82cedab238187186da1.png"},{"name":"concrete_rough","uri":"textures/f657e6602ccf8e985b9d81d0e8f0d85e491c1c3799ea0f5e6df9ab3dfa885f3e.png"},{"name":"metal_aged_normal","uri":"textures/ac3bb8dbd362b722ab9339d6dba5fea9a108094d8a86a4093a89ab9811737f9c.png"},{"name":"metal_aged","uri":"textures/4bc0f4595b217fa2b3fbd0b9c4c968385b245f494d601e3f55ec62fe7b54986a.png"},{"name":"metal_aged_rough","uri":"textures/f934ad8b9af087684547d96a5048502288be6afb13a9b00811524dc5c214a6f2.png"},{"name":"roof_dark_normal","uri":"textures/c138914fbacba88a30a36abadc76a0d32dbf81aa1fdbf8573680f71842371e77.png"},{"name":"roof_dark","uri":"textures/e18c34af686eb31dc6db4ee84f9e9415c949ed9d9ec2dc7e90ebd021029dcdca.png"},{"name":"roof_dark_rough","uri":"textures/fb91dd4e2aaece09907bd40a2ae950eea12b24de695f17587a5cf6a11597c3f8.png"},{"name":"roof_light_normal","uri":"textures/7f9178e1750557e99239a1876126ef7736444b49858585436d441d666f303dab.png"},{"name":"roof_light","uri":"textures/7cd2418b6ab2ee82d40f72f3ff9867060ca36effc656d7be93b39a6d97ef2ed4.png"},{"name":"roof_light_rough","uri":"textures/d6b2096352af38768acab3cbb954fb4ed1542ac8181080ccb467158dae9d9809.png"},{"name":"plaster_aqua_normal","uri":"textures/bffda8cac479e372842a48c2a1e5b005c5384c8cb7e145907e92a63cc165476d.png"},{"name":"plaster_aqua","uri":"textures/0ade7a854adbea45c4e6c00868fe38bb8658f00112f2707d980b575c3177b8cc.png"},{"name":"plaster_aqua_rough","uri":"textures/6d849be09ada04c19f1fe6656bbd61e18386eac13cdcdcb19e4f066ed356ca1b.png"}],"accessors":[{"bufferView":0,"componentType":5126,"count":576,"max":[1.0322000980377197,2.3036000728607178,1.1473498344421387],"min":[-3.129999876022339,0.5356000065803528,-1.2335001230239868],"type":"VEC3"},{"bufferView":1,"componentType":5126,"count":576,"type":"VEC3"},{"bufferView":2,"componentType":5126,"count":576,"type":"VEC2"},{"bufferView":3,"componentType":5123,"count":864,"type":"SCALAR"},{"bufferView":4,"componentType":5126,"count":220,"max":[3.1750001907348633,0.3100000023841858,2.5900001525878906],"min":[-3.1750001907348633,0,-2.5900001525878906],"type":"VEC3"},{"bufferView":5,"componentType":5126,"count":220,"type":"VEC3"},{"bufferView":6,"componentType":5126,"count":220,"type":"VEC2"},{"bufferView":7,"componentType":5123,"count":324,"type":"SCALAR"},{"bufferView":8,"componentType":5126,"count":224,"max":[3.2250001430511475,0.38999998569488525,2.5900003910064697],"min":[-3.2250001430511475,0.3100000023841858,-2.690000295639038],"type":"VEC3"},{"bufferView":9,"componentType":5126,"count":224,"type":"VEC3"},{"bufferView":10,"componentType":5126,"count":224,"type":"VEC2"},{"bufferView":11,"componentType":5123,"count":324,"type":"SCALAR"},{"bufferView":12,"componentType":5126,"count":1622,"max":[-0.4749998450279236,2.4149999618530273,1.184249758720398],"min":[-3.1110000610351562,0.8350000381469727,-1.9540001153945923],"type":"VEC3"},{"bufferView":13,"componentType":5126,"count":1622,"type":"VEC3"},{"bufferView":14,"componentType":5126,"count":1622,"type":"VEC2"},{"bufferView":15,"componentType":5123,"count":2412,"type":"SCALAR"},{"bufferView":16,"componentType":5126,"count":1584,"max":[-0.5837498903274536,1.8650000095367432,-1.2225000858306885],"min":[-3.5949997901916504,0.4099999666213989,-2.7150003910064697],"type":"VEC3"},{"bufferView":17,"componentType":5126,"count":1584,"type":"VEC3"},{"bufferView":18,"componentType":5126,"count":1584,"type":"VEC2"},{"bufferView":19,"componentType":5123,"count":2376,"type":"SCALAR"},{"bufferView":20,"componentType":5126,"count":64,"max":[0.38220012187957764,1.5600000619888306,-1.2239999771118164],"min":[0.3172001242637634,1.3600000143051147,-1.2730000019073486],"type":"VEC3"},{"bufferView":21,"componentType":5126,"count":64,"type":"VEC3"},{"bufferView":22,"componentType":5126,"count":64,"type":"VEC2"},{"bufferView":23,"componentType":5123,"count":120,"type":"SCALAR"},{"bufferView":24,"componentType":5126,"count":2126,"max":[3.620000123977661,4.236044883728027,3.080000162124634],"min":[-3.620000123977661,0.31499993801116943,-3.080000162124634],"type":"VEC3"},{"bufferView":25,"componentType":5126,"count":2126,"type":"VEC3"},{"bufferView":26,"componentType":5126,"count":2126,"type":"VEC2"},{"bufferView":27,"componentType":5123,"count":3186,"type":"SCALAR"},{"bufferView":28,"componentType":5126,"count":11416,"max":[3.56000018119812,4.297999858856201,3.040907621383667],"min":[-3.56000018119812,0.38999998569488525,-3.040907621383667],"type":"VEC3"},{"bufferView":29,"componentType":5126,"count":11416,"type":"VEC3"},{"bufferView":30,"componentType":5126,"count":11416,"type":"VEC2"},{"bufferView":31,"componentType":5123,"count":17286,"type":"SCALAR"},{"bufferView":32,"componentType":5126,"count":144,"max":[2.8460004329681396,0.7300000190734863,-2.3339998722076416],"min":[-2.828399896621704,0.7200000286102295,-2.685999631881714],"type":"VEC3"},{"bufferView":33,"componentType":5126,"count":144,"type":"VEC3"},{"bufferView":34,"componentType":5126,"count":144,"type":"VEC2"},{"bufferView":35,"componentType":5123,"count":360,"type":"SCALAR"},{"bufferView":36,"componentType":5126,"count":48,"max":[3.050412654876709,1.3184314966201782,-2.0927317142486572],"min":[-2.9076311588287354,0.7400000095367432,-2.562000274658203],"type":"VEC3"},{"bufferView":37,"componentType":5126,"count":48,"type":"VEC3"},{"bufferView":38,"componentType":5126,"count":48,"type":"VEC2"},{"bufferView":39,"componentType":5123,"count":48,"type":"SCALAR"},{"bufferView":40,"componentType":5126,"count":96,"max":[3.0299463272094727,1.31388258934021,-2.2460787296295166],"min":[-2.9197375774383545,0.7400000095367432,-2.8800199031829834],"type":"VEC3"},{"bufferView":41,"componentType":5126,"count":96,"type":"VEC3"},{"bufferView":42,"componentType":5126,"count":96,"type":"VEC2"},{"bufferView":43,"componentType":5123,"count":96,"type":"SCALAR"},{"bufferView":44,"componentType":5126,"count":264,"max":[2.9549999237060547,3.0999999046325684,-1.0849997997283936],"min":[-2.9549999237060547,0.38999998569488525,-2.320000171661377],"type":"VEC3"},{"bufferView":45,"componentType":5126,"count":264,"type":"VEC3"},{"bufferView":46,"componentType":5126,"count":264,"type":"VEC2"},{"bufferView":47,"componentType":5123,"count":396,"type":"SCALAR"},{"bufferView":48,"componentType":5126,"count":542,"max":[2.8050003051757812,1.159999966621399,1.6299997568130493],"min":[-3.680000066757202,0,-3.309999942779541],"type":"VEC3"},{"bufferView":49,"componentType":5126,"count":542,"type":"VEC3"},{"bufferView":50,"componentType":5126,"count":542,"type":"VEC2"},{"bufferView":51,"componentType":5123,"count":816,"type":"SCALAR"},{"bufferView":52,"componentType":5126,"count":291,"max":[-3.361999750137329,2.740000009536743,1.2789998054504395],"min":[-3.6722240447998047,0.1307935267686844,-2.909477710723877],"type":"VEC3"},{"bufferView":53,"componentType":5126,"count":291,"type":"VEC3"},{"bufferView":54,"componentType":5126,"count":291,"type":"VEC2"},{"bufferView":55,"componentType":5123,"count":600,"type":"SCALAR"},{"bufferView":56,"componentType":5126,"count":4932,"max":[3.6275463104248047,4.40500020980835,3.0875463485717773],"min":[-3.6275463104248047,2.6948482990264893,-3.0875463485717773],"type":"VEC3"},{"bufferView":57,"componentType":5126,"count":4932,"type":"VEC3"},{"bufferView":58,"componentType":5126,"count":4932,"type":"VEC2"},{"bufferView":59,"componentType":5123,"count":8838,"type":"SCALAR"},{"bufferView":60,"componentType":5126,"count":2424,"max":[3.56000018119812,4.294928550720215,3.040907621383667],"min":[-3.56000018119812,2.7805991172790527,-3.040907621383667],"type":"VEC3"},{"bufferView":61,"componentType":5126,"count":2424,"type":"VEC3"},{"bufferView":62,"componentType":5126,"count":2424,"type":"VEC2"},{"bufferView":63,"componentType":5123,"count":3480,"type":"SCALAR"},{"bufferView":64,"componentType":5126,"count":224,"max":[2.950000047683716,2.8299999237060547,2.4750001430511475],"min":[-2.950000286102295,0.38999998569488525,-1.075000286102295],"type":"VEC3"},{"bufferView":65,"componentType":5126,"count":224,"type":"VEC3"},{"bufferView":66,"componentType":5126,"count":224,"type":"VEC2"},{"bufferView":67,"componentType":5123,"count":324,"type":"SCALAR"},{"bufferView":68,"componentType":5126,"count":72,"max":[1.1050001382827759,2.4699997901916504,1.214999794960022],"min":[-3.0260000228881836,0.38999998569488525,-1.125],"type":"VEC3"},{"bufferView":69,"componentType":5126,"count":72,"type":"VEC3"},{"bufferView":70,"componentType":5126,"count":72,"type":"VEC2"},{"bufferView":71,"componentType":5123,"count":108,"type":"SCALAR"}],"bufferViews":[{"buffer":0,"byteLength":6912,"byteOffset":0,"target":34962},{"buffer":0,"byteLength":6912,"byteOffset":6912,"target":34962},{"buffer":0,"byteLength":4608,"byteOffset":13824,"target":34962},{"buffer":0,"byteLength":1728,"byteOffset":18432,"target":34963},{"buffer":0,"byteLength":2640,"byteOffset":20160,"target":34962},{"buffer":0,"byteLength":2640,"byteOffset":22800,"target":34962},{"buffer":0,"byteLength":1760,"byteOffset":25440,"target":34962},{"buffer":0,"byteLength":648,"byteOffset":27200,"target":34963},{"buffer":0,"byteLength":2688,"byteOffset":27848,"target":34962},{"buffer":0,"byteLength":2688,"byteOffset":30536,"target":34962},{"buffer":0,"byteLength":1792,"byteOffset":33224,"target":34962},{"buffer":0,"byteLength":648,"byteOffset":35016,"target":34963},{"buffer":0,"byteLength":19464,"byteOffset":35664,"target":34962},{"buffer":0,"byteLength":19464,"byteOffset":55128,"target":34962},{"buffer":0,"byteLength":12976,"byteOffset":74592,"target":34962},{"buffer":0,"byteLength":4824,"byteOffset":87568,"target":34963},{"buffer":0,"byteLength":19008,"byteOffset":92392,"target":34962},{"buffer":0,"byteLength":19008,"byteOffset":111400,"target":34962},{"buffer":0,"byteLength":12672,"byteOffset":130408,"target":34962},{"buffer":0,"byteLength":4752,"byteOffset":143080,"target":34963},{"buffer":0,"byteLength":768,"byteOffset":147832,"target":34962},{"buffer":0,"byteLength":768,"byteOffset":148600,"target":34962},{"buffer":0,"byteLength":512,"byteOffset":149368,"target":34962},{"buffer":0,"byteLength":240,"byteOffset":149880,"target":34963},{"buffer":0,"byteLength":25512,"byteOffset":150120,"target":34962},{"buffer":0,"byteLength":25512,"byteOffset":175632,"target":34962},{"buffer":0,"byteLength":17008,"byteOffset":201144,"target":34962},{"buffer":0,"byteLength":6372,"byteOffset":218152,"target":34963},{"buffer":0,"byteLength":136992,"byteOffset":224524,"target":34962},{"buffer":0,"byteLength":136992,"byteOffset":361516,"target":34962},{"buffer":0,"byteLength":91328,"byteOffset":498508,"target":34962},{"buffer":0,"byteLength":34572,"byteOffset":589836,"target":34963},{"buffer":0,"byteLength":1728,"byteOffset":624408,"target":34962},{"buffer":0,"byteLength":1728,"byteOffset":626136,"target":34962},{"buffer":0,"byteLength":1152,"byteOffset":627864,"target":34962},{"buffer":0,"byteLength":720,"byteOffset":629016,"target":34963},{"buffer":0,"byteLength":576,"byteOffset":629736,"target":34962},{"buffer":0,"byteLength":576,"byteOffset":630312,"target":34962},{"buffer":0,"byteLength":384,"byteOffset":630888,"target":34962},{"buffer":0,"byteLength":96,"byteOffset":631272,"target":34963},{"buffer":0,"byteLength":1152,"byteOffset":631368,"target":34962},{"buffer":0,"byteLength":1152,"byteOffset":632520,"target":34962},{"buffer":0,"byteLength":768,"byteOffset":633672,"target":34962},{"buffer":0,"byteLength":192,"byteOffset":634440,"target":34963},{"buffer":0,"byteLength":3168,"byteOffset":634632,"target":34962},{"buffer":0,"byteLength":3168,"byteOffset":637800,"target":34962},{"buffer":0,"byteLength":2112,"byteOffset":640968,"target":34962},{"buffer":0,"byteLength":792,"byteOffset":643080,"target":34963},{"buffer":0,"byteLength":6504,"byteOffset":643872,"target":34962},{"buffer":0,"byteLength":6504,"byteOffset":650376,"target":34962},{"buffer":0,"byteLength":4336,"byteOffset":656880,"target":34962},{"buffer":0,"byteLength":1632,"byteOffset":661216,"target":34963},{"buffer":0,"byteLength":3492,"byteOffset":662848,"target":34962},{"buffer":0,"byteLength":3492,"byteOffset":666340,"target":34962},{"buffer":0,"byteLength":2328,"byteOffset":669832,"target":34962},{"buffer":0,"byteLength":1200,"byteOffset":672160,"target":34963},{"buffer":0,"byteLength":59184,"byteOffset":673360,"target":34962},{"buffer":0,"byteLength":59184,"byteOffset":732544,"target":34962},{"buffer":0,"byteLength":39456,"byteOffset":791728,"target":34962},{"buffer":0,"byteLength":17676,"byteOffset":831184,"target":34963},{"buffer":0,"byteLength":29088,"byteOffset":848860,"target":34962},{"buffer":0,"byteLength":29088,"byteOffset":877948,"target":34962},{"buffer":0,"byteLength":19392,"byteOffset":907036,"target":34962},{"buffer":0,"byteLength":6960,"byteOffset":926428,"target":34963},{"buffer":0,"byteLength":2688,"byteOffset":933388,"target":34962},{"buffer":0,"byteLength":2688,"byteOffset":936076,"target":34962},{"buffer":0,"byteLength":1792,"byteOffset":938764,"target":34962},{"buffer":0,"byteLength":648,"byteOffset":940556,"target":34963},{"buffer":0,"byteLength":864,"byteOffset":941204,"target":34962},{"buffer":0,"byteLength":864,"byteOffset":942068,"target":34962},{"buffer":0,"byteLength":576,"byteOffset":942932,"target":34962},{"buffer":0,"byteLength":216,"byteOffset":943508,"target":34963}],"samplers":[{"magFilter":9729,"minFilter":9987}],"buffers":[{"uri":"BLD_Cottage_Hipped_01.bin","byteLength":943724}]}