{"asset":{"generator":"Khronos glTF Blender I/O v5.2.40","version":"2.0"},"extensionsUsed":["KHR_materials_transmission"],"scene":0,"scenes":[{"name":"Scene","nodes":[0]}],"nodes":[{"mesh":0,"name":"TF3_BLD_Home_Verandah_01"}],"materials":[{"doubleSided":true,"name":"TF3_BLD_MAT_wood_faded","normalTexture":{"index":0},"pbrMetallicRoughness":{"baseColorTexture":{"index":1},"metallicFactor":0,"metallicRoughnessTexture":{"index":2}}},{"doubleSided":true,"name":"TF3_BLD_MAT_concrete","normalTexture":{"index":3},"pbrMetallicRoughness":{"baseColorTexture":{"index":4},"metallicFactor":0,"metallicRoughnessTexture":{"index":5}}},{"doubleSided":true,"name":"TF3_BLD_MAT_oxide_red","normalTexture":{"index":6},"pbrMetallicRoughness":{"baseColorTexture":{"index":7},"metallicFactor":0,"metallicRoughnessTexture":{"index":8}}},{"doubleSided":true,"name":"TF3_BLD_MAT_wood_dark","normalTexture":{"index":9},"pbrMetallicRoughness":{"baseColorTexture":{"index":10},"metallicFactor":0,"metallicRoughnessTexture":{"index":11}}},{"doubleSided":true,"name":"TF3_BLD_MAT_brass","pbrMetallicRoughness":{"baseColorFactor":[0.5299999713897705,0.33000001311302185,0.11999999731779099,1],"metallicFactor":0.7200000286102295,"roughnessFactor":0.3199999928474426}},{"doubleSided":true,"name":"TF3_BLD_MAT_iron","pbrMetallicRoughness":{"baseColorFactor":[0.04600000008940697,0.06499999761581421,0.0560000017285347,1],"metallicFactor":0.6000000238418579,"roughnessFactor":0.44999998807907104}},{"doubleSided":true,"name":"TF3_BLD_MAT_roof_clay","normalTexture":{"index":12},"pbrMetallicRoughness":{"baseColorTexture":{"index":13},"metallicFactor":0,"metallicRoughnessTexture":{"index":14}}},{"doubleSided":true,"name":"TF3_BLD_MAT_soil_dark","pbrMetallicRoughness":{"baseColorFactor":[0.0820000022649765,0.05999999865889549,0.03099999949336052,1],"metallicFactor":0,"roughnessFactor":0.699999988079071}},{"doubleSided":true,"name":"TF3_BLD_MAT_leaf_light","pbrMetallicRoughness":{"baseColorFactor":[0.3100000023841858,0.41999998688697815,0.12999999523162842,1],"metallicFactor":0,"roughnessFactor":0.699999988079071}},{"doubleSided":true,"name":"TF3_BLD_MAT_leaf","pbrMetallicRoughness":{"baseColorFactor":[0.15000000596046448,0.27000001072883606,0.06599999964237213,1],"metallicFactor":0,"roughnessFactor":0.699999988079071}},{"doubleSided":true,"name":"TF3_BLD_MAT_metal_aged","normalTexture":{"index":15},"pbrMetallicRoughness":{"baseColorTexture":{"index":16},"metallicFactor":0,"metallicRoughnessTexture":{"index":17}}},{"doubleSided":true,"name":"TF3_BLD_MAT_roof_dark","normalTexture":{"index":18},"pbrMetallicRoughness":{"baseColorTexture":{"index":19},"metallicFactor":0,"metallicRoughnessTexture":{"index":20}}},{"doubleSided":true,"name":"TF3_BLD_MAT_roof_light","normalTexture":{"index":21},"pbrMetallicRoughness":{"baseColorTexture":{"index":22},"metallicFactor":0,"metallicRoughnessTexture":{"index":23}}},{"doubleSided":true,"name":"TF3_BLD_MAT_wood_teal","normalTexture":{"index":24},"pbrMetallicRoughness":{"baseColorTexture":{"index":25},"metallicFactor":0,"metallicRoughnessTexture":{"index":26}}},{"doubleSided":true,"name":"TF3_BLD_MAT_plaster_old","normalTexture":{"index":27},"pbrMetallicRoughness":{"baseColorTexture":{"index":28},"metallicFactor":0,"metallicRoughnessTexture":{"index":29}}},{"doubleSided":true,"name":"TF3_BLD_MAT_dark","pbrMetallicRoughness":{"baseColorFactor":[0.01600000075995922,0.027000000700354576,0.023000000044703484,1],"metallicFactor":0,"roughnessFactor":0.699999988079071}},{"alphaMode":"BLEND","doubleSided":true,"extensions":{"KHR_materials_transmission":{"transmissionFactor":0.15000000596046448}},"name":"TF3_BLD_MAT_glass","pbrMetallicRoughness":{"baseColorFactor":[0.3499999940395355,0.47999998927116394,0.4399999976158142,0.2199999988079071],"metallicFactor":0.05000000074505806,"roughnessFactor":0.11999999731779099}},{"doubleSided":true,"name":"TF3_BLD_MAT_rubber","pbrMetallicRoughness":{"baseColorFactor":[0.017999999225139618,0.02199999988079071,0.017999999225139618,1],"metallicFactor":0,"roughnessFactor":0.8999999761581421}},{"doubleSided":true,"name":"TF3_BLD_MAT_lime_cream","normalTexture":{"index":30},"pbrMetallicRoughness":{"baseColorTexture":{"index":31},"metallicFactor":0,"metallicRoughnessTexture":{"index":32}}}],"meshes":[{"name":"BLD_Home_Verandah_01_Ceiling_Mesh","primitives":[{"attributes":{"POSITION":0,"NORMAL":1,"TEXCOORD_0":2},"indices":3,"material":0},{"attributes":{"POSITION":4,"NORMAL":5,"TEXCOORD_0":6},"indices":7,"material":1},{"attributes":{"POSITION":8,"NORMAL":9,"TEXCOORD_0":10},"indices":11,"material":2},{"attributes":{"POSITION":12,"NORMAL":13,"TEXCOORD_0":14},"indices":15,"material":3},{"attributes":{"POSITION":16,"NORMAL":17,"TEXCOORD_0":18},"indices":19,"material":4},{"attributes":{"POSITION":20,"NORMAL":21,"TEXCOORD_0":22},"indices":23,"material":5},{"attributes":{"POSITION":24,"NORMAL":25,"TEXCOORD_0":26},"indices":27,"material":6},{"attributes":{"POSITION":28,"NORMAL":29,"TEXCOORD_0":30},"indices":31,"material":7},{"attributes":{"POSITION":32,"NORMAL":33,"TEXCOORD_0":34},"indices":35,"material":8},{"attributes":{"POSITION":36,"NORMAL":37,"TEXCOORD_0":38},"indices":39,"material":9},{"attributes":{"POSITION":40,"NORMAL":41,"TEXCOORD_0":42},"indices":43,"material":10},{"attributes":{"POSITION":44,"NORMAL":45,"TEXCOORD_0":46},"indices":47,"material":11},{"attributes":{"POSITION":48,"NORMAL":49,"TEXCOORD_0":50},"indices":51,"material":12},{"attributes":{"POSITION":52,"NORMAL":53,"TEXCOORD_0":54},"indices":55,"material":13},{"attributes":{"POSITION":56,"NORMAL":57,"TEXCOORD_0":58},"indices":59,"material":14},{"attributes":{"POSITION":60,"NORMAL":61,"TEXCOORD_0":62},"indices":63,"material":15},{"attributes":{"POSITION":64,"NORMAL":65,"TEXCOORD_0":66},"indices":59,"material":16},{"attributes":{"POSITION":67,"NORMAL":68,"TEXCOORD_0":69},"indices":70,"material":17},{"attributes":{"POSITION":71,"NORMAL":72,"TEXCOORD_0":73},"indices":74,"material":18}]}],"textures":[{"sampler":0,"source":0},{"sampler":0,"source":1},{"sampler":0,"source":2},{"sampler":0,"source":3},{"sampler":0,"source":4},{"sampler":0,"source":5},{"sampler":0,"source":6},{"sampler":0,"source":7},{"sampler":0,"source":8},{"sampler":0,"source":9},{"sampler":0,"source":10},{"sampler":0,"source":11},{"sampler":0,"source":12},{"sampler":0,"source":13},{"sampler":0,"source":14},{"sampler":0,"source":15},{"sampler":0,"source":16},{"sampler":0,"source":17},{"sampler":0,"source":18},{"sampler":0,"source":19},{"sampler":0,"source":20},{"sampler":0,"source":21},{"sampler":0,"source":22},{"sampler":0,"source":23},{"sampler":0,"source":24},{"sampler":0,"source":25},{"sampler":0,"source":26},{"sampler":0,"source":27},{"sampler":0,"source":28},{"sampler":0,"source":29},{"sampler":0,"source":30},{"sampler":0,"source":31},{"sampler":0,"source":32}],"images":[{"name":"wood_faded_normal","uri":"textures/118ee8ea68dc212c360056b4c962436f80beaa1b801238847dde4965f1e9fbe3.png"},{"name":"wood_faded","uri":"textures/70d4e74265e03457fd7d7bfa03b233af49d3a3b0ada4edfd91bbd94038ef64e2.png"},{"name":"wood_faded_rough","uri":"textures/aead5d297cbdd01da9c83a7479733033393e22db2eaa95b67e15b24b4a88370d.png"},{"name":"concrete_normal","uri":"textures/f877b70294b37b7d16a581bcff5e00affa28e36ccc656c85d099cc94519ef374.png"},{"name":"concrete","uri":"textures/065d46ec82b79f327f73b504b71672ce54806ed26283a82cedab238187186da1.png"},{"name":"concrete_rough","uri":"textures/f657e6602ccf8e985b9d81d0e8f0d85e491c1c3799ea0f5e6df9ab3dfa885f3e.png"},{"name":"oxide_red_normal","uri":"textures/0c312639e501cb21e8e8f4627e7651b783f00e2fb9aca7e4930ed2d95949cee2.png"},{"name":"oxide_red","uri":"textures/e2dc0fb93c0bd286e93513c81571b554b9a9cdafc60103a61bc6c139084e2079.png"},{"name":"oxide_red_rough","uri":"textures/b8b2724b53709588407c84b798b7100dfeea3f7b4b669b5529123af6788f630d.png"},{"name":"wood_dark_normal","uri":"textures/7298861d9356585aba47cc47903b493b567b46ecc27dfaab9e1510a59d081093.png"},{"name":"wood_dark","uri":"textures/e30bc20ceb6832b672870995e672a53b088aa7c6c94315dcf684e765f8667e2e.png"},{"name":"wood_dark_rough","uri":"textures/c07076bdffa20198cecc831b4083d58b000c0df155d4fd4e64effa2d6f3f32b0.png"},{"name":"roof_clay_normal","uri":"textures/143a7223b384c31829cce283b5ee254a441744d2358ef3624b6bb033ddd8b1a0.png"},{"name":"roof_clay","uri":"textures/1fcd967f1cf6b8e0963f94b42e340542745862e70eea0f4bf27924afc312eb26.png"},{"name":"roof_clay_rough","uri":"textures/6787cc2f3afd50c72c4e9b102a31ffa7bb06213e4b290d28a4f5745d395cbaa8.png"},{"name":"metal_aged_normal","uri":"textures/ac3bb8dbd362b722ab9339d6dba5fea9a108094d8a86a4093a89ab9811737f9c.png"},{"name":"metal_aged","uri":"textures/4bc0f4595b217fa2b3fbd0b9c4c968385b245f494d601e3f55ec62fe7b54986a.png"},{"name":"metal_aged_rough","uri":"textures/f934ad8b9af087684547d96a5048502288be6afb13a9b00811524dc5c214a6f2.png"},{"name":"roof_dark_normal","uri":"textures/c138914fbacba88a30a36abadc76a0d32dbf81aa1fdbf8573680f71842371e77.png"},{"name":"roof_dark","uri":"textures/e18c34af686eb31dc6db4ee84f9e9415c949ed9d9ec2dc7e90ebd021029dcdca.png"},{"name":"roof_dark_rough","uri":"textures/fb91dd4e2aaece09907bd40a2ae950eea12b24de695f17587a5cf6a11597c3f8.png"},{"name":"roof_light_normal","uri":"textures/7f9178e1750557e99239a1876126ef7736444b49858585436d441d666f303dab.png"},{"name":"roof_light","uri":"textures/7cd2418b6ab2ee82d40f72f3ff9867060ca36effc656d7be93b39a6d97ef2ed4.png"},{"name":"roof_light_rough","uri":"textures/d6b2096352af38768acab3cbb954fb4ed1542ac8181080ccb467158dae9d9809.png"},{"name":"wood_teal_normal","uri":"textures/dc1b81ea3a11484e39c51cbb7073ba241a5623e2f8cb37ecb54178afa1c43b79.png"},{"name":"wood_teal","uri":"textures/fb507bc82bf6752faece04215ff1757bb40e25ffc46e56866c7df1f571c4189f.png"},{"name":"wood_teal_rough","uri":"textures/83c2b7505c06c9bfb7c7977e1b4c8aec3259d6927255494e06d5ff878bad9eaa.png"},{"name":"plaster_old_normal","uri":"textures/dcbd71fab833f19c06251a853da28b4864fd657a8819487e7a6bbd3b0e822f2a.png"},{"name":"plaster_old","uri":"textures/0c461abf3d92f5787cd5a13315d65276b546fe7172c9ccf2f0f2da05f097667d.png"},{"name":"plaster_old_rough","uri":"textures/a5f8b739535a330c31b9d963d438b08c078f9a56eaac999174bd576127522fcf.png"},{"name":"lime_cream_normal","uri":"textures/7b20194ee9239b461c7be7df8fabd113b537547d7d0b81fe1727f660d789db77.png"},{"name":"lime_cream","uri":"textures/f8edb9c2666488f5140d6e77657e67fd0ae629d1d50423f1f4b14522e111d651.png"},{"name":"lime_cream_rough","uri":"textures/980287d6bfb1c422e8327ee85397f6869dbf1b0caa972559d8b692d4dabf3ee5.png"}],"accessors":[{"bufferView":0,"componentType":5126,"count":2520,"max":[3.56000018119812,4.22760009765625,2.1750001907348633],"min":[-3.629000186920166,0.626800000667572,-2.515000343322754],"type":"VEC3"},{"bufferView":1,"componentType":5126,"count":2520,"type":"VEC3"},{"bufferView":2,"componentType":5126,"count":2520,"type":"VEC2"},{"bufferView":3,"componentType":5123,"count":3780,"type":"SCALAR"},{"bufferView":4,"componentType":5126,"count":1110,"max":[3.700000286102295,1.3049999475479126,2.750000238418579],"min":[-3.7800002098083496,0,-3.6500003337860107],"type":"VEC3"},{"bufferView":5,"componentType":5126,"count":1110,"type":"VEC3"},{"bufferView":6,"componentType":5126,"count":1110,"type":"VEC2"},{"bufferView":7,"componentType":5123,"count":1620,"type":"SCALAR"},{"bufferView":8,"componentType":5126,"count":1156,"max":[3.7400002479553223,0.7699999809265137,2.7700002193450928],"min":[-3.7400002479553223,0,-4.590000152587891],"type":"VEC3"},{"bufferView":9,"componentType":5126,"count":1156,"type":"VEC3"},{"bufferView":10,"componentType":5126,"count":1156,"type":"VEC2"},{"bufferView":11,"componentType":5123,"count":1704,"type":"SCALAR"},{"bufferView":12,"componentType":5126,"count":9708,"max":[4.02500057220459,4.438823223114014,2.729706048965454],"min":[-4.025000095367432,0.39499998092651367,-4.088929653167725],"type":"VEC3"},{"bufferView":13,"componentType":5126,"count":9708,"type":"VEC3"},{"bufferView":14,"componentType":5126,"count":9708,"type":"VEC2"},{"bufferView":15,"componentType":5123,"count":15564,"type":"SCALAR"},{"bufferView":16,"componentType":5126,"count":64,"max":[-0.29749980568885803,1.6399999856948853,-2.4089999198913574],"min":[-0.36249980330467224,1.4399999380111694,-2.4579999446868896],"type":"VEC3"},{"bufferView":17,"componentType":5126,"count":64,"type":"VEC3"},{"bufferView":18,"componentType":5126,"count":64,"type":"VEC2"},{"bufferView":19,"componentType":5123,"count":120,"type":"SCALAR"},{"bufferView":20,"componentType":5126,"count":454,"max":[2.7340002059936523,2.5190000534057617,-2.30299973487854],"min":[-4.024999618530273,0.6349999904632568,-3.935000419616699],"type":"VEC3"},{"bufferView":21,"componentType":5126,"count":454,"type":"VEC3"},{"bufferView":22,"componentType":5126,"count":454,"type":"VEC2"},{"bufferView":23,"componentType":5123,"count":912,"type":"SCALAR"},{"bufferView":24,"componentType":5126,"count":28526,"max":[3.9800002574920654,4.470588207244873,2.721647262573242],"min":[-3.9800000190734863,0,-4.246799945831299],"type":"VEC3"},{"bufferView":25,"componentType":5126,"count":28526,"type":"VEC3"},{"bufferView":26,"componentType":5126,"count":28526,"type":"VEC2"},{"bufferView":27,"componentType":5123,"count":48960,"type":"SCALAR"},{"bufferView":28,"componentType":5126,"count":144,"max":[1.3796004056930542,0.3400000035762787,-3.835200071334839],"min":[-1.4547996520996094,0.33000001311302185,-4.204800128936768],"type":"VEC3"},{"bufferView":29,"componentType":5126,"count":144,"type":"VEC3"},{"bufferView":30,"componentType":5126,"count":144,"type":"VEC2"},{"bufferView":31,"componentType":5123,"count":360,"type":"SCALAR"},{"bufferView":32,"componentType":5126,"count":48,"max":[1.6194299459457397,0.9212579727172852,-3.578688144683838],"min":[-1.6723151206970215,0.3499999940395355,-4.072000026702881],"type":"VEC3"},{"bufferView":33,"componentType":5126,"count":48,"type":"VEC3"},{"bufferView":34,"componentType":5126,"count":48,"type":"VEC2"},{"bufferView":35,"componentType":5123,"count":48,"type":"SCALAR"},{"bufferView":36,"componentType":5126,"count":96,"max":[1.4885799884796143,0.9202420711517334,-3.59031343460083],"min":[-1.6984659433364868,0.3499999940395355,-4.456413745880127],"type":"VEC3"},{"bufferView":37,"componentType":5126,"count":96,"type":"VEC3"},{"bufferView":38,"componentType":5126,"count":96,"type":"VEC2"},{"bufferView":39,"componentType":5123,"count":96,"type":"SCALAR"},{"bufferView":40,"componentType":5126,"count":211,"max":[-3.791999578475952,2.6700000762939453,-3.8831348419189453],"min":[-4.102223873138428,0.13079354166984558,-4.1294779777526855],"type":"VEC3"},{"bufferView":41,"componentType":5126,"count":211,"type":"VEC3"},{"bufferView":42,"componentType":5126,"count":211,"type":"VEC2"},{"bufferView":43,"componentType":5123,"count":432,"type":"SCALAR"},{"bufferView":44,"componentType":5126,"count":9687,"max":[3.9800002574920654,4.570000171661377,2.721647262573242],"min":[-3.994999885559082,2.6390624046325684,-4.065990924835205],"type":"VEC3"},{"bufferView":45,"componentType":5126,"count":9687,"type":"VEC3"},{"bufferView":46,"componentType":5126,"count":9687,"type":"VEC2"},{"bufferView":47,"componentType":5123,"count":15792,"type":"SCALAR"},{"bufferView":48,"componentType":5126,"count":3793,"max":[3.9800002574920654,4.470588207244873,2.721647262573242],"min":[-3.9800000190734863,2.734062433242798,-3.8097405433654785],"type":"VEC3"},{"bufferView":49,"componentType":5126,"count":3793,"type":"VEC3"},{"bufferView":50,"componentType":5126,"count":3793,"type":"VEC2"},{"bufferView":51,"componentType":5123,"count":6552,"type":"SCALAR"},{"bufferView":52,"componentType":5126,"count":96,"max":[-3.5299997329711914,2.505000114440918,1.4464997053146362],"min":[-3.6100001335144043,1.3949999809265137,-1.4465004205703735],"type":"VEC3"},{"bufferView":53,"componentType":5126,"count":96,"type":"VEC3"},{"bufferView":54,"componentType":5126,"count":96,"type":"VEC2"},{"bufferView":55,"componentType":5123,"count":144,"type":"SCALAR"},{"bufferView":56,"componentType":5126,"count":24,"max":[3.140000104904175,1.8199999332427979,-2.237499952316284],"min":[2.9000003337860107,1.4600000381469727,-2.3524997234344482],"type":"VEC3"},{"bufferView":57,"componentType":5126,"count":24,"type":"VEC3"},{"bufferView":58,"componentType":5126,"count":24,"type":"VEC2"},{"bufferView":59,"componentType":5123,"count":36,"type":"SCALAR"},{"bufferView":60,"componentType":5126,"count":144,"max":[3.080000162124634,2.7100000381469727,1.4699996709823608],"min":[-3.5250000953674316,0.4700000286102295,-2.369499683380127],"type":"VEC3"},{"bufferView":61,"componentType":5126,"count":144,"type":"VEC3"},{"bufferView":62,"componentType":5126,"count":144,"type":"VEC2"},{"bufferView":63,"componentType":5123,"count":216,"type":"SCALAR"},{"bufferView":64,"componentType":5126,"count":24,"max":[3.072500228881836,1.7350000143051147,-2.369999885559082],"min":[2.9675002098083496,1.65500009059906,-2.377999782562256],"type":"VEC3"},{"bufferView":65,"componentType":5126,"count":24,"type":"VEC3"},{"bufferView":66,"componentType":5126,"count":24,"type":"VEC2"},{"bufferView":67,"componentType":5126,"count":64,"max":[3.0300002098083496,2.758660316467285,-2.294999837875366],"min":[2.370000123977661,1.840000033378601,-2.31499981880188],"type":"VEC3"},{"bufferView":68,"componentType":5126,"count":64,"type":"VEC3"},{"bufferView":69,"componentType":5126,"count":64,"type":"VEC2"},{"bufferView":70,"componentType":5123,"count":120,"type":"SCALAR"},{"bufferView":71,"componentType":5126,"count":4024,"max":[3.500000238418579,3.070000171661377,2.260000228881836],"min":[-3.500000238418579,0.4699999690055847,-2.260000228881836],"type":"VEC3"},{"bufferView":72,"componentType":5126,"count":4024,"type":"VEC3"},{"bufferView":73,"componentType":5126,"count":4024,"type":"VEC2"},{"bufferView":74,"componentType":5123,"count":5832,"type":"SCALAR"}],"bufferViews":[{"buffer":0,"byteLength":30240,"byteOffset":0,"target":34962},{"buffer":0,"byteLength":30240,"byteOffset":30240,"target":34962},{"buffer":0,"byteLength":20160,"byteOffset":60480,"target":34962},{"buffer":0,"byteLength":7560,"byteOffset":80640,"target":34963},{"buffer":0,"byteLength":13320,"byteOffset":88200,"target":34962},{"buffer":0,"byteLength":13320,"byteOffset":101520,"target":34962},{"buffer":0,"byteLength":8880,"byteOffset":114840,"target":34962},{"buffer":0,"byteLength":3240,"byteOffset":123720,"target":34963},{"buffer":0,"byteLength":13872,"byteOffset":126960,"target":34962},{"buffer":0,"byteLength":13872,"byteOffset":140832,"target":34962},{"buffer":0,"byteLength":9248,"byteOffset":154704,"target":34962},{"buffer":0,"byteLength":3408,"byteOffset":163952,"target":34963},{"buffer":0,"byteLength":116496,"byteOffset":167360,"target":34962},{"buffer":0,"byteLength":116496,"byteOffset":283856,"target":34962},{"buffer":0,"byteLength":77664,"byteOffset":400352,"target":34962},{"buffer":0,"byteLength":31128,"byteOffset":478016,"target":34963},{"buffer":0,"byteLength":768,"byteOffset":509144,"target":34962},{"buffer":0,"byteLength":768,"byteOffset":509912,"target":34962},{"buffer":0,"byteLength":512,"byteOffset":510680,"target":34962},{"buffer":0,"byteLength":240,"byteOffset":511192,"target":34963},{"buffer":0,"byteLength":5448,"byteOffset":511432,"target":34962},{"buffer":0,"byteLength":5448,"byteOffset":516880,"target":34962},{"buffer":0,"byteLength":3632,"byteOffset":522328,"target":34962},{"buffer":0,"byteLength":1824,"byteOffset":525960,"target":34963},{"buffer":0,"byteLength":342312,"byteOffset":527784,"target":34962},{"buffer":0,"byteLength":342312,"byteOffset":870096,"target":34962},{"buffer":0,"byteLength":228208,"byteOffset":1212408,"target":34962},{"buffer":0,"byteLength":97920,"byteOffset":1440616,"target":34963},{"buffer":0,"byteLength":1728,"byteOffset":1538536,"target":34962},{"buffer":0,"byteLength":1728,"byteOffset":1540264,"target":34962},{"buffer":0,"byteLength":1152,"byteOffset":1541992,"target":34962},{"buffer":0,"byteLength":720,"byteOffset":1543144,"target":34963},{"buffer":0,"byteLength":576,"byteOffset":1543864,"target":34962},{"buffer":0,"byteLength":576,"byteOffset":1544440,"target":34962},{"buffer":0,"byteLength":384,"byteOffset":1545016,"target":34962},{"buffer":0,"byteLength":96,"byteOffset":1545400,"target":34963},{"buffer":0,"byteLength":1152,"byteOffset":1545496,"target":34962},{"buffer":0,"byteLength":1152,"byteOffset":1546648,"target":34962},{"buffer":0,"byteLength":768,"byteOffset":1547800,"target":34962},{"buffer":0,"byteLength":192,"byteOffset":1548568,"target":34963},{"buffer":0,"byteLength":2532,"byteOffset":1548760,"target":34962},{"buffer":0,"byteLength":2532,"byteOffset":1551292,"target":34962},{"buffer":0,"byteLength":1688,"byteOffset":1553824,"target":34962},{"buffer":0,"byteLength":864,"byteOffset":1555512,"target":34963},{"buffer":0,"byteLength":116244,"byteOffset":1556376,"target":34962},{"buffer":0,"byteLength":116244,"byteOffset":1672620,"target":34962},{"buffer":0,"byteLength":77496,"byteOffset":1788864,"target":34962},{"buffer":0,"byteLength":31584,"byteOffset":1866360,"target":34963},{"buffer":0,"byteLength":45516,"byteOffset":1897944,"target":34962},{"buffer":0,"byteLength":45516,"byteOffset":1943460,"target":34962},{"buffer":0,"byteLength":30344,"byteOffset":1988976,"target":34962},{"buffer":0,"byteLength":13104,"byteOffset":2019320,"target":34963},{"buffer":0,"byteLength":1152,"byteOffset":2032424,"target":34962},{"buffer":0,"byteLength":1152,"byteOffset":2033576,"target":34962},{"buffer":0,"byteLength":768,"byteOffset":2034728,"target":34962},{"buffer":0,"byteLength":288,"byteOffset":2035496,"target":34963},{"buffer":0,"byteLength":288,"byteOffset":2035784,"target":34962},{"buffer":0,"byteLength":288,"byteOffset":2036072,"target":34962},{"buffer":0,"byteLength":192,"byteOffset":2036360,"target":34962},{"buffer":0,"byteLength":72,"byteOffset":2036552,"target":34963},{"buffer":0,"byteLength":1728,"byteOffset":2036624,"target":34962},{"buffer":0,"byteLength":1728,"byteOffset":2038352,"target":34962},{"buffer":0,"byteLength":1152,"byteOffset":2040080,"target":34962},{"buffer":0,"byteLength":432,"byteOffset":2041232,"target":34963},{"buffer":0,"byteLength":288,"byteOffset":2041664,"target":34962},{"buffer":0,"byteLength":288,"byteOffset":2041952,"target":34962},{"buffer":0,"byteLength":192,"byteOffset":2042240,"target":34962},{"buffer":0,"byteLength":768,"byteOffset":2042432,"target":34962},{"buffer":0,"byteLength":768,"byteOffset":2043200,"target":34962},{"buffer":0,"byteLength":512,"byteOffset":2043968,"target":34962},{"buffer":0,"byteLength":240,"byteOffset":2044480,"target":34963},{"buffer":0,"byteLength":48288,"byteOffset":2044720,"target":34962},{"buffer":0,"byteLength":48288,"byteOffset":2093008,"target":34962},{"buffer":0,"byteLength":32192,"byteOffset":2141296,"target":34962},{"buffer":0,"byteLength":11664,"byteOffset":2173488,"target":34963}],"samplers":[{"magFilter":9729,"minFilter":9987}],"buffers":[{"uri":"BLD_Home_Verandah_01.bin","byteLength":2185152}]}