{"asset":{"generator":"Khronos glTF Blender I/O v5.2.40","version":"2.0"},"scene":0,"scenes":[{"name":"Scene","nodes":[0]}],"nodes":[{"mesh":0,"name":"TF3_KL_LS_Jackfruit_Tree_LOD2"}],"materials":[{"doubleSided":true,"name":"TF3_KL_Jackfruit_Scaly_Bark","normalTexture":{"index":0,"scale":0.8100000023841858},"pbrMetallicRoughness":{"baseColorTexture":{"index":1},"metallicFactor":0,"roughnessFactor":0.9399999976158142}},{"doubleSided":true,"name":"TF3_KL_Jackfruit_Green_Warted_Skin","pbrMetallicRoughness":{"baseColorFactor":[0.23000000417232513,0.3199999928474426,0.04600000008940697,1],"metallicFactor":0,"roughnessFactor":0.7300000190734863}},{"doubleSided":true,"name":"TF3_KL_Jackfruit_Ripening_Skin","pbrMetallicRoughness":{"baseColorFactor":[0.3700000047683716,0.3400000035762787,0.07800000160932541,1],"metallicFactor":0,"roughnessFactor":0.75}},{"doubleSided":true,"name":"TF3_KL_Jackfruit_Leathery_Elliptic_Leaf","normalTexture":{"index":2,"scale":0.30000001192092896},"pbrMetallicRoughness":{"baseColorTexture":{"index":3},"metallicFactor":0,"roughnessFactor":0.4099999964237213}},{"doubleSided":true,"name":"TF3_KL_Jackfruit_Young_Flush","pbrMetallicRoughness":{"baseColorFactor":[0.1599999964237213,0.28999999165534973,0.06499999761581421,1],"metallicFactor":0,"roughnessFactor":0.4699999988079071}},{"doubleSided":true,"name":"TF3_KL_Jackfruit_Deep_Green","pbrMetallicRoughness":{"baseColorFactor":[0.03500000014901161,0.10499999672174454,0.017000000923871994,1],"metallicFactor":0,"roughnessFactor":0.47999998927116394}},{"doubleSided":true,"name":"TF3_KL_Petioles_Olive","pbrMetallicRoughness":{"baseColorFactor":[0.14000000059604645,0.20000000298023224,0.024000000208616257,1],"metallicFactor":0,"roughnessFactor":0.5799999833106995}}],"meshes":[{"name":"Jackfruit_Branching_Twigs_Mesh","primitives":[{"attributes":{"POSITION":0,"NORMAL":1,"TEXCOORD_0":2},"indices":3,"material":0},{"attributes":{"POSITION":4,"NORMAL":5,"TEXCOORD_0":6},"indices":7,"material":1},{"attributes":{"POSITION":8,"NORMAL":9,"TEXCOORD_0":10},"indices":11,"material":2},{"attributes":{"POSITION":12,"NORMAL":13,"TEXCOORD_0":14},"indices":15,"material":3},{"attributes":{"POSITION":16,"NORMAL":17,"TEXCOORD_0":18},"indices":19,"material":4},{"attributes":{"POSITION":20,"NORMAL":21,"TEXCOORD_0":22},"indices":23,"material":5},{"attributes":{"POSITION":24,"NORMAL":25,"TEXCOORD_0":26},"indices":27,"material":6}]}],"textures":[{"sampler":0,"source":0},{"sampler":0,"source":1},{"sampler":0,"source":2},{"sampler":0,"source":3}],"images":[{"name":"jackfruit_bark_normal","uri":"textures/1f6141ee15328ab81f2eeb06a2ba69d517c36300b2a02276f1d2d40622b38882.png"},{"name":"jackfruit_bark_color","uri":"textures/5992cf9e8a4ca7b19179a0137f49305dd5bffc0c31da60b807917b86f0c0d061.png"},{"name":"jackfruit_leaf_normal","uri":"textures/f6653dfeafccb096f1ecda1791da849315b9092ed83a20b21e8169be6f36c74b.png"},{"name":"jackfruit_leaf_color","uri":"textures/4af395bea1b622ab4afd7598cbf39631a1dca1fc90d5773baf7e7a67ec27ee28.png"}],"accessors":[{"bufferView":0,"componentType":5126,"count":45870,"max":[4.637718677520752,8.392433166503906,4.275544166564941],"min":[-4.445990085601807,-0.0006359890103340149,-4.078317642211914],"type":"VEC3"},{"bufferView":1,"componentType":5126,"count":45870,"type":"VEC3"},{"bufferView":2,"componentType":5126,"count":45870,"type":"VEC2"},{"bufferView":3,"componentType":5123,"count":48420,"type":"SCALAR"},{"bufferView":4,"componentType":5126,"count":579,"max":[0.5128768682479858,4.095527172088623,0.2923561632633209],"min":[-0.1027892604470253,1.3455278873443604,-0.45118236541748047],"type":"VEC3"},{"bufferView":5,"componentType":5126,"count":579,"type":"VEC3"},{"bufferView":6,"componentType":5126,"count":579,"type":"VEC2"},{"bufferView":7,"componentType":5123,"count":3450,"type":"SCALAR"},{"bufferView":8,"componentType":5126,"count":564,"max":[1.2927838563919067,3.715526819229126,0.8322429060935974],"min":[-0.44335269927978516,2.5655269622802734,-0.11223872750997543],"type":"VEC3"},{"bufferView":9,"componentType":5126,"count":564,"type":"VEC3"},{"bufferView":10,"componentType":5126,"count":564,"type":"VEC2"},{"bufferView":11,"componentType":5123,"count":3360,"type":"SCALAR"},{"bufferView":12,"componentType":5126,"count":56715,"max":[4.740882873535156,8.410367012023926,4.4401140213012695],"min":[-4.622713088989258,2.5879905223846436,-4.16302490234375],"type":"VEC3"},{"bufferView":13,"componentType":5126,"count":56715,"type":"VEC3"},{"bufferView":14,"componentType":5126,"count":56715,"type":"VEC2"},{"bufferView":15,"componentType":5123,"count":108093,"type":"SCALAR"},{"bufferView":16,"componentType":5126,"count":4908,"max":[4.4171671867370605,8.348329544067383,4.035398006439209],"min":[-4.400147438049316,3.2442286014556885,-4.043169975280762],"type":"VEC3"},{"bufferView":17,"componentType":5126,"count":4908,"type":"VEC3"},{"bufferView":18,"componentType":5126,"count":4908,"type":"VEC2"},{"bufferView":19,"componentType":5123,"count":9270,"type":"SCALAR"},{"bufferView":20,"componentType":5126,"count":9266,"max":[4.520000457763672,8.015238761901855,4.302490711212158],"min":[-4.475286960601807,2.4951348304748535,-3.9683573246002197],"type":"VEC3"},{"bufferView":21,"componentType":5126,"count":9266,"type":"VEC3"},{"bufferView":22,"componentType":5126,"count":9266,"type":"VEC2"},{"bufferView":23,"componentType":5123,"count":17688,"type":"SCALAR"},{"bufferView":24,"componentType":5126,"count":118,"max":[1.0846498012542725,4.328617572784424,0.6713665127754211],"min":[-0.25118881464004517,2.0905728340148926,-0.26038312911987305],"type":"VEC3"},{"bufferView":25,"componentType":5126,"count":118,"type":"VEC3"},{"bufferView":26,"componentType":5126,"count":118,"type":"VEC2"},{"bufferView":27,"componentType":5123,"count":288,"type":"SCALAR"}],"bufferViews":[{"buffer":0,"byteLength":550440,"byteOffset":0,"target":34962},{"buffer":0,"byteLength":550440,"byteOffset":550440,"target":34962},{"buffer":0,"byteLength":366960,"byteOffset":1100880,"target":34962},{"buffer":0,"byteLength":96840,"byteOffset":1467840,"target":34963},{"buffer":0,"byteLength":6948,"byteOffset":1564680,"target":34962},{"buffer":0,"byteLength":6948,"byteOffset":1571628,"target":34962},{"buffer":0,"byteLength":4632,"byteOffset":1578576,"target":34962},{"buffer":0,"byteLength":6900,"byteOffset":1583208,"target":34963},{"buffer":0,"byteLength":6768,"byteOffset":1590108,"target":34962},{"buffer":0,"byteLength":6768,"byteOffset":1596876,"target":34962},{"buffer":0,"byteLength":4512,"byteOffset":1603644,"target":34962},{"buffer":0,"byteLength":6720,"byteOffset":1608156,"target":34963},{"buffer":0,"byteLength":680580,"byteOffset":1614876,"target":34962},{"buffer":0,"byteLength":680580,"byteOffset":2295456,"target":34962},{"buffer":0,"byteLength":453720,"byteOffset":2976036,"target":34962},{"buffer":0,"byteLength":216186,"byteOffset":3429756,"target":34963},{"buffer":0,"byteLength":58896,"byteOffset":3645944,"target":34962},{"buffer":0,"byteLength":58896,"byteOffset":3704840,"target":34962},{"buffer":0,"byteLength":39264,"byteOffset":3763736,"target":34962},{"buffer":0,"byteLength":18540,"byteOffset":3803000,"target":34963},{"buffer":0,"byteLength":111192,"byteOffset":3821540,"target":34962},{"buffer":0,"byteLength":111192,"byteOffset":3932732,"target":34962},{"buffer":0,"byteLength":74128,"byteOffset":4043924,"target":34962},{"buffer":0,"byteLength":35376,"byteOffset":4118052,"target":34963},{"buffer":0,"byteLength":1416,"byteOffset":4153428,"target":34962},{"buffer":0,"byteLength":1416,"byteOffset":4154844,"target":34962},{"buffer":0,"byteLength":944,"byteOffset":4156260,"target":34962},{"buffer":0,"byteLength":576,"byteOffset":4157204,"target":34963}],"samplers":[{"magFilter":9729,"minFilter":9987}],"buffers":[{"uri":"KL_LS_Jackfruit_Tree_LOD2.bin","byteLength":4157780}]}