{"asset":{"generator":"Khronos glTF Blender I/O v5.2.40","version":"2.0"},"scene":0,"scenes":[{"name":"Scene","nodes":[0]}],"nodes":[{"mesh":0,"name":"TF3_KL_LS_Jackfruit_Tree"}],"materials":[{"doubleSided":true,"name":"TF3_KL_Jackfruit_Scaly_Bark","normalTexture":{"index":0,"scale":0.8100000023841858},"pbrMetallicRoughness":{"baseColorTexture":{"index":1},"metallicFactor":0,"roughnessFactor":0.9399999976158142}},{"doubleSided":true,"name":"TF3_KL_Jackfruit_Green_Warted_Skin","pbrMetallicRoughness":{"baseColorFactor":[0.23000000417232513,0.3199999928474426,0.04600000008940697,1],"metallicFactor":0,"roughnessFactor":0.7300000190734863}},{"doubleSided":true,"name":"TF3_KL_Jackfruit_Ripening_Skin","pbrMetallicRoughness":{"baseColorFactor":[0.3700000047683716,0.3400000035762787,0.07800000160932541,1],"metallicFactor":0,"roughnessFactor":0.75}},{"doubleSided":true,"name":"TF3_KL_Jackfruit_Leathery_Elliptic_Leaf","normalTexture":{"index":2,"scale":0.30000001192092896},"pbrMetallicRoughness":{"baseColorTexture":{"index":3},"metallicFactor":0,"roughnessFactor":0.4099999964237213}},{"doubleSided":true,"name":"TF3_KL_Jackfruit_Young_Flush","pbrMetallicRoughness":{"baseColorFactor":[0.1599999964237213,0.28999999165534973,0.06499999761581421,1],"metallicFactor":0,"roughnessFactor":0.4699999988079071}},{"doubleSided":true,"name":"TF3_KL_Jackfruit_Deep_Green","pbrMetallicRoughness":{"baseColorFactor":[0.03500000014901161,0.10499999672174454,0.017000000923871994,1],"metallicFactor":0,"roughnessFactor":0.47999998927116394}},{"doubleSided":true,"name":"TF3_KL_Petioles_Olive","pbrMetallicRoughness":{"baseColorFactor":[0.14000000059604645,0.20000000298023224,0.024000000208616257,1],"metallicFactor":0,"roughnessFactor":0.5799999833106995}}],"meshes":[{"name":"Jackfruit_Branching_Twigs_Mesh","primitives":[{"attributes":{"POSITION":0,"NORMAL":1,"TEXCOORD_0":2},"indices":3,"material":0},{"attributes":{"POSITION":4,"NORMAL":5,"TEXCOORD_0":6},"indices":7,"material":1},{"attributes":{"POSITION":8,"NORMAL":9,"TEXCOORD_0":10},"indices":7,"material":2},{"attributes":{"POSITION":11,"NORMAL":12,"TEXCOORD_0":13},"indices":14,"material":3},{"attributes":{"POSITION":15,"NORMAL":16,"TEXCOORD_0":17},"indices":18,"material":4},{"attributes":{"POSITION":19,"NORMAL":20,"TEXCOORD_0":21},"indices":22,"material":5},{"attributes":{"POSITION":23,"NORMAL":24,"TEXCOORD_0":25},"indices":26,"material":6}]}],"textures":[{"sampler":0,"source":0},{"sampler":0,"source":1},{"sampler":0,"source":2},{"sampler":0,"source":3}],"images":[{"name":"jackfruit_bark_normal","uri":"textures/1f6141ee15328ab81f2eeb06a2ba69d517c36300b2a02276f1d2d40622b38882.png"},{"name":"jackfruit_bark_color","uri":"textures/5992cf9e8a4ca7b19179a0137f49305dd5bffc0c31da60b807917b86f0c0d061.png"},{"name":"jackfruit_leaf_normal","uri":"textures/f6653dfeafccb096f1ecda1791da849315b9092ed83a20b21e8169be6f36c74b.png"},{"name":"jackfruit_leaf_color","uri":"textures/4af395bea1b622ab4afd7598cbf39631a1dca1fc90d5773baf7e7a67ec27ee28.png"}],"accessors":[{"bufferView":0,"componentType":5126,"count":249590,"max":[4.637144565582275,8.3831787109375,4.279578685760498],"min":[-4.449935436248779,0,-4.078772068023682],"type":"VEC3"},{"bufferView":1,"componentType":5126,"count":249590,"type":"VEC3"},{"bufferView":2,"componentType":5126,"count":249590,"type":"VEC2"},{"bufferView":3,"componentType":5125,"count":538308,"type":"SCALAR"},{"bufferView":4,"componentType":5126,"count":2584,"max":[0.5181772112846375,4.105332374572754,0.29967013001441956],"min":[-0.10787283629179001,1.3356223106384277,-0.459658682346344],"type":"VEC3"},{"bufferView":5,"componentType":5126,"count":2584,"type":"VEC3"},{"bufferView":6,"componentType":5126,"count":2584,"type":"VEC2"},{"bufferView":7,"componentType":5123,"count":15480,"type":"SCALAR"},{"bufferView":8,"componentType":5126,"count":2584,"max":[1.2983756065368652,3.725839138031006,0.8399999141693115],"min":[-0.4484996199607849,2.5554189682006836,-0.1198815256357193],"type":"VEC3"},{"bufferView":9,"componentType":5126,"count":2584,"type":"VEC3"},{"bufferView":10,"componentType":5126,"count":2584,"type":"VEC2"},{"bufferView":11,"componentType":5126,"count":124104,"max":[4.740882873535156,8.41169261932373,4.441279888153076],"min":[-4.623896598815918,2.58969783782959,-4.16455078125],"type":"VEC3"},{"bufferView":12,"componentType":5126,"count":124104,"type":"VEC3"},{"bufferView":13,"componentType":5126,"count":124104,"type":"VEC2"},{"bufferView":14,"componentType":5125,"count":372312,"type":"SCALAR"},{"bufferView":15,"componentType":5126,"count":10908,"max":[4.418067455291748,8.350062370300293,4.03624963760376],"min":[-4.400147438049316,3.260913848876953,-4.043979167938232],"type":"VEC3"},{"bufferView":16,"componentType":5126,"count":10908,"type":"VEC3"},{"bufferView":17,"componentType":5126,"count":10908,"type":"VEC2"},{"bufferView":18,"componentType":5123,"count":32724,"type":"SCALAR"},{"bufferView":19,"componentType":5126,"count":20220,"max":[4.521404266357422,8.016077041625977,4.302490711212158],"min":[-4.477108955383301,2.496870756149292,-3.9700045585632324],"type":"VEC3"},{"bufferView":20,"componentType":5126,"count":20220,"type":"VEC3"},{"bufferView":21,"componentType":5126,"count":20220,"type":"VEC2"},{"bufferView":22,"componentType":5123,"count":60660,"type":"SCALAR"},{"bufferView":23,"componentType":5126,"count":118,"max":[1.0846498012542725,4.328617572784424,0.6713665127754211],"min":[-0.25118881464004517,2.0905728340148926,-0.26038312911987305],"type":"VEC3"},{"bufferView":24,"componentType":5126,"count":118,"type":"VEC3"},{"bufferView":25,"componentType":5126,"count":118,"type":"VEC2"},{"bufferView":26,"componentType":5123,"count":288,"type":"SCALAR"}],"bufferViews":[{"buffer":0,"byteLength":2995080,"byteOffset":0,"target":34962},{"buffer":0,"byteLength":2995080,"byteOffset":2995080,"target":34962},{"buffer":0,"byteLength":1996720,"byteOffset":5990160,"target":34962},{"buffer":0,"byteLength":2153232,"byteOffset":7986880,"target":34963},{"buffer":0,"byteLength":31008,"byteOffset":10140112,"target":34962},{"buffer":0,"byteLength":31008,"byteOffset":10171120,"target":34962},{"buffer":0,"byteLength":20672,"byteOffset":10202128,"target":34962},{"buffer":0,"byteLength":30960,"byteOffset":10222800,"target":34963},{"buffer":0,"byteLength":31008,"byteOffset":10253760,"target":34962},{"buffer":0,"byteLength":31008,"byteOffset":10284768,"target":34962},{"buffer":0,"byteLength":20672,"byteOffset":10315776,"target":34962},{"buffer":0,"byteLength":1489248,"byteOffset":10336448,"target":34962},{"buffer":0,"byteLength":1489248,"byteOffset":11825696,"target":34962},{"buffer":0,"byteLength":992832,"byteOffset":13314944,"target":34962},{"buffer":0,"byteLength":1489248,"byteOffset":14307776,"target":34963},{"buffer":0,"byteLength":130896,"byteOffset":15797024,"target":34962},{"buffer":0,"byteLength":130896,"byteOffset":15927920,"target":34962},{"buffer":0,"byteLength":87264,"byteOffset":16058816,"target":34962},{"buffer":0,"byteLength":65448,"byteOffset":16146080,"target":34963},{"buffer":0,"byteLength":242640,"byteOffset":16211528,"target":34962},{"buffer":0,"byteLength":242640,"byteOffset":16454168,"target":34962},{"buffer":0,"byteLength":161760,"byteOffset":16696808,"target":34962},{"buffer":0,"byteLength":121320,"byteOffset":16858568,"target":34963},{"buffer":0,"byteLength":1416,"byteOffset":16979888,"target":34962},{"buffer":0,"byteLength":1416,"byteOffset":16981304,"target":34962},{"buffer":0,"byteLength":944,"byteOffset":16982720,"target":34962},{"buffer":0,"byteLength":576,"byteOffset":16983664,"target":34963}],"samplers":[{"magFilter":9729,"minFilter":9987}],"buffers":[{"uri":"KL_LS_Jackfruit_Tree.bin","byteLength":16984240}]}