{"asset":{"generator":"Khronos glTF Blender I/O v5.2.40","version":"2.0"},"scene":0,"scenes":[{"name":"Scene","nodes":[0]}],"nodes":[{"mesh":0,"name":"TF3_KL_LS_Coconut_Juvenile_C_LOD2"}],"materials":[{"doubleSided":true,"name":"TF3_KL_Tender_Coconut_Green","pbrMetallicRoughness":{"baseColorFactor":[0.23499999940395355,0.36000001430511475,0.054999999701976776,1],"metallicFactor":0,"roughnessFactor":0.6200000047683716}},{"doubleSided":true,"name":"TF3_KL_Maturing_Coconut","pbrMetallicRoughness":{"baseColorFactor":[0.41999998688697815,0.3199999928474426,0.07000000029802322,1],"metallicFactor":0,"roughnessFactor":0.699999988079071}},{"doubleSided":true,"name":"TF3_KL_Petioles_Olive","pbrMetallicRoughness":{"baseColorFactor":[0.14000000059604645,0.20000000298023224,0.024000000208616257,1],"metallicFactor":0,"roughnessFactor":0.5799999833106995}},{"doubleSided":true,"name":"TF3_KL_Coconut_Scar_Rings","pbrMetallicRoughness":{"baseColorFactor":[0.18000000715255737,0.13500000536441803,0.07500000298023224,1],"metallicFactor":0,"roughnessFactor":0.949999988079071}},{"doubleSided":true,"name":"TF3_KL_Coconut_Frond","normalTexture":{"index":0,"scale":0.33000001311302185},"pbrMetallicRoughness":{"baseColorTexture":{"index":1},"metallicFactor":0,"roughnessFactor":0.47999998927116394}},{"doubleSided":true,"name":"TF3_KL_Coconut_Young_Lime","pbrMetallicRoughness":{"baseColorFactor":[0.12999999523162842,0.27000001072883606,0.029999999329447746,1],"metallicFactor":0,"roughnessFactor":0.47999998927116394}},{"doubleSided":true,"name":"TF3_KL_Coconut_Mature_Deep","pbrMetallicRoughness":{"baseColorFactor":[0.054999999701976776,0.1550000011920929,0.024000000208616257,1],"metallicFactor":0,"roughnessFactor":0.5400000214576721}},{"doubleSided":true,"name":"TF3_KL_Coconut_Leafscar_Bark","normalTexture":{"index":2,"scale":0.7200000286102295},"pbrMetallicRoughness":{"baseColorTexture":{"index":3},"metallicFactor":0,"roughnessFactor":0.9100000262260437}}],"meshes":[{"name":"Coconut_Fruit_Clusters_Mesh","primitives":[{"attributes":{"POSITION":0,"NORMAL":1,"TEXCOORD_0":2},"indices":3,"material":0},{"attributes":{"POSITION":4,"NORMAL":5,"TEXCOORD_0":6},"indices":7,"material":1},{"attributes":{"POSITION":8,"NORMAL":9,"TEXCOORD_0":10},"indices":11,"material":2},{"attributes":{"POSITION":12,"NORMAL":13,"TEXCOORD_0":14},"indices":15,"material":3},{"attributes":{"POSITION":16,"NORMAL":17,"TEXCOORD_0":18},"indices":19,"material":4},{"attributes":{"POSITION":20,"NORMAL":21,"TEXCOORD_0":22},"indices":23,"material":5},{"attributes":{"POSITION":24,"NORMAL":25,"TEXCOORD_0":26},"indices":27,"material":6},{"attributes":{"POSITION":28,"NORMAL":29,"TEXCOORD_0":30},"indices":31,"material":7}]}],"textures":[{"sampler":0,"source":0},{"sampler":0,"source":1},{"sampler":0,"source":2},{"sampler":0,"source":3}],"images":[{"name":"palm_leaf_normal","uri":"textures/19a21337d4e9b08d842f77f3f08f4c609ee2a2ffe1e7f058d48ba838dbd66f2f.png"},{"name":"palm_leaf_color","uri":"textures/172f2d5c2651cda7c39a84a1c43ee4c5aa89113488497e782b536732fca1655f.png"},{"name":"palm_bark_normal","uri":"textures/953b3804972092f96ef1980b3c8eff36a098957b202defe0887f9e1bfc0acf68.png"},{"name":"palm_bark_color","uri":"textures/9726c7d20d4ca71f66a288d74af174f949a3f94624d523c0f73d300eb1aebbc2.png"}],"accessors":[{"bufferView":0,"componentType":5126,"count":231,"max":[0.49110332131385803,2.1529452800750732,0.3904081881046295],"min":[-0.3253494203090668,1.6939400434494019,-0.46759361028671265],"type":"VEC3"},{"bufferView":1,"componentType":5126,"count":231,"type":"VEC3"},{"bufferView":2,"componentType":5126,"count":231,"type":"VEC2"},{"bufferView":3,"componentType":5123,"count":840,"type":"SCALAR"},{"bufferView":4,"componentType":5126,"count":157,"max":[0.5609395503997803,2.1476449966430664,0.41781726479530334],"min":[-0.17170682549476624,1.692266583442688,-0.30101659893989563],"type":"VEC3"},{"bufferView":5,"componentType":5126,"count":157,"type":"VEC3"},{"bufferView":6,"componentType":5126,"count":157,"type":"VEC2"},{"bufferView":7,"componentType":5123,"count":570,"type":"SCALAR"},{"bufferView":8,"componentType":5126,"count":730,"max":[2.6656196117401123,4.230413913726807,2.6846396923065186],"min":[-2.6293153762817383,0.12667912244796753,-2.586576223373413],"type":"VEC3"},{"bufferView":9,"componentType":5126,"count":730,"type":"VEC3"},{"bufferView":10,"componentType":5126,"count":730,"type":"VEC2"},{"bufferView":11,"componentType":5123,"count":2706,"type":"SCALAR"},{"bufferView":12,"componentType":5126,"count":453,"max":[0.24952851235866547,2.285804271697998,0.16611117124557495],"min":[-0.17192819714546204,0.08479481935501099,-0.17296737432479858],"type":"VEC3"},{"bufferView":13,"componentType":5126,"count":453,"type":"VEC3"},{"bufferView":14,"componentType":5126,"count":453,"type":"VEC2"},{"bufferView":15,"componentType":5123,"count":1710,"type":"SCALAR"},{"bufferView":16,"componentType":5126,"count":9612,"max":[2.708486318588257,4.259119987487793,2.7185590267181396],"min":[-2.6192944049835205,0.1313953995704651,-2.61071515083313],"type":"VEC3"},{"bufferView":17,"componentType":5126,"count":9612,"type":"VEC3"},{"bufferView":18,"componentType":5126,"count":9612,"type":"VEC2"},{"bufferView":19,"componentType":5123,"count":17094,"type":"SCALAR"},{"bufferView":20,"componentType":5126,"count":641,"max":[2.483045816421509,4.234321117401123,2.458463668823242],"min":[-2.5005884170532227,1.615538239479065,-2.4163472652435303],"type":"VEC3"},{"bufferView":21,"componentType":5126,"count":641,"type":"VEC3"},{"bufferView":22,"componentType":5126,"count":641,"type":"VEC2"},{"bufferView":23,"componentType":5123,"count":1257,"type":"SCALAR"},{"bufferView":24,"componentType":5126,"count":681,"max":[2.574096202850342,3.0120131969451904,2.462404489517212],"min":[-2.596339464187622,0.20928384363651276,-2.2270991802215576],"type":"VEC3"},{"bufferView":25,"componentType":5126,"count":681,"type":"VEC3"},{"bufferView":26,"componentType":5126,"count":681,"type":"VEC2"},{"bufferView":27,"componentType":5123,"count":1227,"type":"SCALAR"},{"bufferView":28,"componentType":5126,"count":558,"max":[0.5380092263221741,2.4162063598632812,0.5496925711631775],"min":[-0.541285514831543,0.0019355425611138344,-0.546801745891571],"type":"VEC3"},{"bufferView":29,"componentType":5126,"count":558,"type":"VEC3"},{"bufferView":30,"componentType":5126,"count":558,"type":"VEC2"},{"bufferView":31,"componentType":5123,"count":2490,"type":"SCALAR"}],"bufferViews":[{"buffer":0,"byteLength":2772,"byteOffset":0,"target":34962},{"buffer":0,"byteLength":2772,"byteOffset":2772,"target":34962},{"buffer":0,"byteLength":1848,"byteOffset":5544,"target":34962},{"buffer":0,"byteLength":1680,"byteOffset":7392,"target":34963},{"buffer":0,"byteLength":1884,"byteOffset":9072,"target":34962},{"buffer":0,"byteLength":1884,"byteOffset":10956,"target":34962},{"buffer":0,"byteLength":1256,"byteOffset":12840,"target":34962},{"buffer":0,"byteLength":1140,"byteOffset":14096,"target":34963},{"buffer":0,"byteLength":8760,"byteOffset":15236,"target":34962},{"buffer":0,"byteLength":8760,"byteOffset":23996,"target":34962},{"buffer":0,"byteLength":5840,"byteOffset":32756,"target":34962},{"buffer":0,"byteLength":5412,"byteOffset":38596,"target":34963},{"buffer":0,"byteLength":5436,"byteOffset":44008,"target":34962},{"buffer":0,"byteLength":5436,"byteOffset":49444,"target":34962},{"buffer":0,"byteLength":3624,"byteOffset":54880,"target":34962},{"buffer":0,"byteLength":3420,"byteOffset":58504,"target":34963},{"buffer":0,"byteLength":115344,"byteOffset":61924,"target":34962},{"buffer":0,"byteLength":115344,"byteOffset":177268,"target":34962},{"buffer":0,"byteLength":76896,"byteOffset":292612,"target":34962},{"buffer":0,"byteLength":34188,"byteOffset":369508,"target":34963},{"buffer":0,"byteLength":7692,"byteOffset":403696,"target":34962},{"buffer":0,"byteLength":7692,"byteOffset":411388,"target":34962},{"buffer":0,"byteLength":5128,"byteOffset":419080,"target":34962},{"buffer":0,"byteLength":2514,"byteOffset":424208,"target":34963},{"buffer":0,"byteLength":8172,"byteOffset":426724,"target":34962},{"buffer":0,"byteLength":8172,"byteOffset":434896,"target":34962},{"buffer":0,"byteLength":5448,"byteOffset":443068,"target":34962},{"buffer":0,"byteLength":2454,"byteOffset":448516,"target":34963},{"buffer":0,"byteLength":6696,"byteOffset":450972,"target":34962},{"buffer":0,"byteLength":6696,"byteOffset":457668,"target":34962},{"buffer":0,"byteLength":4464,"byteOffset":464364,"target":34962},{"buffer":0,"byteLength":4980,"byteOffset":468828,"target":34963}],"samplers":[{"magFilter":9729,"minFilter":9987}],"buffers":[{"uri":"KL_LS_Coconut_Juvenile_C_LOD2.bin","byteLength":473808}]}