{"asset":{"generator":"Khronos glTF Blender I/O v5.2.40","version":"2.0"},"scene":0,"scenes":[{"name":"Scene","nodes":[0]}],"nodes":[{"mesh":0,"name":"TF3_KL_LS_Coconut_Tall_A_LOD2"}],"materials":[{"doubleSided":true,"name":"TF3_KL_Tender_Coconut_Green","pbrMetallicRoughness":{"baseColorFactor":[0.23499999940395355,0.36000001430511475,0.054999999701976776,1],"metallicFactor":0,"roughnessFactor":0.6200000047683716}},{"doubleSided":true,"name":"TF3_KL_Maturing_Coconut","pbrMetallicRoughness":{"baseColorFactor":[0.41999998688697815,0.3199999928474426,0.07000000029802322,1],"metallicFactor":0,"roughnessFactor":0.699999988079071}},{"doubleSided":true,"name":"TF3_KL_Petioles_Olive","pbrMetallicRoughness":{"baseColorFactor":[0.14000000059604645,0.20000000298023224,0.024000000208616257,1],"metallicFactor":0,"roughnessFactor":0.5799999833106995}},{"doubleSided":true,"name":"TF3_KL_Coconut_Scar_Rings","pbrMetallicRoughness":{"baseColorFactor":[0.18000000715255737,0.13500000536441803,0.07500000298023224,1],"metallicFactor":0,"roughnessFactor":0.949999988079071}},{"doubleSided":true,"name":"TF3_KL_Coconut_Frond","normalTexture":{"index":0,"scale":0.33000001311302185},"pbrMetallicRoughness":{"baseColorTexture":{"index":1},"metallicFactor":0,"roughnessFactor":0.47999998927116394}},{"doubleSided":true,"name":"TF3_KL_Coconut_Young_Lime","pbrMetallicRoughness":{"baseColorFactor":[0.12999999523162842,0.27000001072883606,0.029999999329447746,1],"metallicFactor":0,"roughnessFactor":0.47999998927116394}},{"doubleSided":true,"name":"TF3_KL_Coconut_Mature_Deep","pbrMetallicRoughness":{"baseColorFactor":[0.054999999701976776,0.1550000011920929,0.024000000208616257,1],"metallicFactor":0,"roughnessFactor":0.5400000214576721}},{"doubleSided":true,"name":"TF3_KL_Coconut_Old_Fawn","normalTexture":{"index":2,"scale":0.44999998807907104},"pbrMetallicRoughness":{"baseColorTexture":{"index":3},"metallicFactor":0,"roughnessFactor":0.8600000143051147}},{"doubleSided":true,"name":"TF3_KL_Coconut_Leafscar_Bark","normalTexture":{"index":4,"scale":0.7200000286102295},"pbrMetallicRoughness":{"baseColorTexture":{"index":5},"metallicFactor":0,"roughnessFactor":0.9100000262260437}}],"meshes":[{"name":"Coconut_Fruit_Clusters_Mesh","primitives":[{"attributes":{"POSITION":0,"NORMAL":1,"TEXCOORD_0":2},"indices":3,"material":0},{"attributes":{"POSITION":4,"NORMAL":5,"TEXCOORD_0":6},"indices":7,"material":1},{"attributes":{"POSITION":8,"NORMAL":9,"TEXCOORD_0":10},"indices":11,"material":2},{"attributes":{"POSITION":12,"NORMAL":13,"TEXCOORD_0":14},"indices":15,"material":3},{"attributes":{"POSITION":16,"NORMAL":17,"TEXCOORD_0":18},"indices":19,"material":4},{"attributes":{"POSITION":20,"NORMAL":21,"TEXCOORD_0":22},"indices":23,"material":5},{"attributes":{"POSITION":24,"NORMAL":25,"TEXCOORD_0":26},"indices":27,"material":6},{"attributes":{"POSITION":28,"NORMAL":29,"TEXCOORD_0":30},"indices":31,"material":7},{"attributes":{"POSITION":32,"NORMAL":33,"TEXCOORD_0":34},"indices":35,"material":8}]}],"textures":[{"sampler":0,"source":0},{"sampler":0,"source":1},{"sampler":0,"source":2},{"sampler":0,"source":3},{"sampler":0,"source":4},{"sampler":0,"source":5}],"images":[{"name":"palm_leaf_normal","uri":"textures/19a21337d4e9b08d842f77f3f08f4c609ee2a2ffe1e7f058d48ba838dbd66f2f.png"},{"name":"palm_leaf_color","uri":"textures/172f2d5c2651cda7c39a84a1c43ee4c5aa89113488497e782b536732fca1655f.png"},{"name":"dry_leaf_normal","uri":"textures/acc8763384432f4b145681dcbe939d8e99a371861f79270c8a650350e9128cdd.png"},{"name":"dry_leaf_color","uri":"textures/ae3af5890a00003c9094d5f6f171157e7ccedbac4a1b5d22f08ec9f6b5b9ad98.png"},{"name":"palm_bark_normal","uri":"textures/953b3804972092f96ef1980b3c8eff36a098957b202defe0887f9e1bfc0acf68.png"},{"name":"palm_bark_color","uri":"textures/9726c7d20d4ca71f66a288d74af174f949a3f94624d523c0f73d300eb1aebbc2.png"}],"accessors":[{"bufferView":0,"componentType":5126,"count":189,"max":[1.5764451026916504,11.58661937713623,0.5631977915763855],"min":[0.3458603620529175,10.96564769744873,-0.677635908126831],"type":"VEC3"},{"bufferView":1,"componentType":5126,"count":189,"type":"VEC3"},{"bufferView":2,"componentType":5126,"count":189,"type":"VEC2"},{"bufferView":3,"componentType":5123,"count":708,"type":"SCALAR"},{"bufferView":4,"componentType":5126,"count":133,"max":[1.632431983947754,11.579933166503906,0.6320405602455139],"min":[0.563534677028656,10.971651077270508,-0.5150697827339172],"type":"VEC3"},{"bufferView":5,"componentType":5126,"count":133,"type":"VEC3"},{"bufferView":6,"componentType":5126,"count":133,"type":"VEC2"},{"bufferView":7,"componentType":5123,"count":486,"type":"SCALAR"},{"bufferView":8,"componentType":5126,"count":1077,"max":[5.305596351623535,14.677319526672363,4.511295318603516],"min":[-3.149759531021118,8.46056842803955,-4.5291428565979],"type":"VEC3"},{"bufferView":9,"componentType":5126,"count":1077,"type":"VEC3"},{"bufferView":10,"componentType":5126,"count":1077,"type":"VEC2"},{"bufferView":11,"componentType":5123,"count":4077,"type":"SCALAR"},{"bufferView":12,"componentType":5126,"count":2018,"max":[1.1939290761947632,11.70980453491211,0.317425012588501],"min":[-0.3021978437900543,0.09101684391498566,-0.4169778823852539],"type":"VEC3"},{"bufferView":13,"componentType":5126,"count":2018,"type":"VEC3"},{"bufferView":14,"componentType":5126,"count":2018,"type":"VEC2"},{"bufferView":15,"componentType":5123,"count":7230,"type":"SCALAR"},{"bufferView":16,"componentType":5126,"count":13859,"max":[5.254435062408447,14.707940101623535,4.482514381408691],"min":[-3.0757782459259033,8.592373847961426,-4.454117298126221],"type":"VEC3"},{"bufferView":17,"componentType":5126,"count":13859,"type":"VEC3"},{"bufferView":18,"componentType":5126,"count":13859,"type":"VEC2"},{"bufferView":19,"componentType":5123,"count":24639,"type":"SCALAR"},{"bufferView":20,"componentType":5126,"count":671,"max":[4.498276710510254,14.70548152923584,3.605039596557617],"min":[-3.1128947734832764,11.260734558105469,-3.7077431678771973],"type":"VEC3"},{"bufferView":21,"componentType":5126,"count":671,"type":"VEC3"},{"bufferView":22,"componentType":5126,"count":671,"type":"VEC2"},{"bufferView":23,"componentType":5123,"count":1335,"type":"SCALAR"},{"bufferView":24,"componentType":5126,"count":1211,"max":[5.244825839996338,13.58752155303955,4.376576900482178],"min":[-2.791086435317993,8.863877296447754,-4.492731094360352],"type":"VEC3"},{"bufferView":25,"componentType":5126,"count":1211,"type":"VEC3"},{"bufferView":26,"componentType":5126,"count":1211,"type":"VEC2"},{"bufferView":27,"componentType":5123,"count":2175,"type":"SCALAR"},{"bufferView":28,"componentType":5126,"count":1210,"max":[4.990265369415283,11.583596229553223,1.7093579769134521],"min":[-1.0435943603515625,8.491854667663574,-3.9085023403167725],"type":"VEC3"},{"bufferView":29,"componentType":5126,"count":1210,"type":"VEC3"},{"bufferView":30,"componentType":5126,"count":1210,"type":"VEC2"},{"bufferView":31,"componentType":5123,"count":2148,"type":"SCALAR"},{"bufferView":32,"componentType":5126,"count":565,"max":[1.1645021438598633,11.83706283569336,0.5500754714012146],"min":[-0.5425600409507751,0.0008418429642915726,-0.5504522919654846],"type":"VEC3"},{"bufferView":33,"componentType":5126,"count":565,"type":"VEC3"},{"bufferView":34,"componentType":5126,"count":565,"type":"VEC2"},{"bufferView":35,"componentType":5123,"count":2490,"type":"SCALAR"}],"bufferViews":[{"buffer":0,"byteLength":2268,"byteOffset":0,"target":34962},{"buffer":0,"byteLength":2268,"byteOffset":2268,"target":34962},{"buffer":0,"byteLength":1512,"byteOffset":4536,"target":34962},{"buffer":0,"byteLength":1416,"byteOffset":6048,"target":34963},{"buffer":0,"byteLength":1596,"byteOffset":7464,"target":34962},{"buffer":0,"byteLength":1596,"byteOffset":9060,"target":34962},{"buffer":0,"byteLength":1064,"byteOffset":10656,"target":34962},{"buffer":0,"byteLength":972,"byteOffset":11720,"target":34963},{"buffer":0,"byteLength":12924,"byteOffset":12692,"target":34962},{"buffer":0,"byteLength":12924,"byteOffset":25616,"target":34962},{"buffer":0,"byteLength":8616,"byteOffset":38540,"target":34962},{"buffer":0,"byteLength":8154,"byteOffset":47156,"target":34963},{"buffer":0,"byteLength":24216,"byteOffset":55312,"target":34962},{"buffer":0,"byteLength":24216,"byteOffset":79528,"target":34962},{"buffer":0,"byteLength":16144,"byteOffset":103744,"target":34962},{"buffer":0,"byteLength":14460,"byteOffset":119888,"target":34963},{"buffer":0,"byteLength":166308,"byteOffset":134348,"target":34962},{"buffer":0,"byteLength":166308,"byteOffset":300656,"target":34962},{"buffer":0,"byteLength":110872,"byteOffset":466964,"target":34962},{"buffer":0,"byteLength":49278,"byteOffset":577836,"target":34963},{"buffer":0,"byteLength":8052,"byteOffset":627116,"target":34962},{"buffer":0,"byteLength":8052,"byteOffset":635168,"target":34962},{"buffer":0,"byteLength":5368,"byteOffset":643220,"target":34962},{"buffer":0,"byteLength":2670,"byteOffset":648588,"target":34963},{"buffer":0,"byteLength":14532,"byteOffset":651260,"target":34962},{"buffer":0,"byteLength":14532,"byteOffset":665792,"target":34962},{"buffer":0,"byteLength":9688,"byteOffset":680324,"target":34962},{"buffer":0,"byteLength":4350,"byteOffset":690012,"target":34963},{"buffer":0,"byteLength":14520,"byteOffset":694364,"target":34962},{"buffer":0,"byteLength":14520,"byteOffset":708884,"target":34962},{"buffer":0,"byteLength":9680,"byteOffset":723404,"target":34962},{"buffer":0,"byteLength":4296,"byteOffset":733084,"target":34963},{"buffer":0,"byteLength":6780,"byteOffset":737380,"target":34962},{"buffer":0,"byteLength":6780,"byteOffset":744160,"target":34962},{"buffer":0,"byteLength":4520,"byteOffset":750940,"target":34962},{"buffer":0,"byteLength":4980,"byteOffset":755460,"target":34963}],"samplers":[{"magFilter":9729,"minFilter":9987}],"buffers":[{"uri":"KL_LS_Coconut_Tall_A_LOD2.bin","byteLength":760440}]}