{"asset":{"generator":"Khronos glTF Blender I/O v5.2.40","version":"2.0"},"scene":0,"scenes":[{"name":"Scene","nodes":[0]}],"nodes":[{"mesh":0,"name":"TF3_KL_LS_Irrigation_Bund_8m"}],"materials":[{"doubleSided":true,"name":"TF3_KL_Boat_Worn_Gunwale","pbrMetallicRoughness":{"baseColorFactor":[0.2800000011920929,0.1599999964237213,0.07199999690055847,1],"metallicFactor":0,"roughnessFactor":0.7400000095367432}},{"doubleSided":true,"name":"TF3_KL_Wet_Kuttanad_Soil","normalTexture":{"index":0,"scale":0.8999999761581421},"pbrMetallicRoughness":{"baseColorTexture":{"index":1},"metallicFactor":0,"roughnessFactor":0.949999988079071}},{"doubleSided":true,"name":"TF3_KL_Verge_Grass","pbrMetallicRoughness":{"baseColorFactor":[0.11999999731779099,0.25,0.03400000184774399,1],"metallicFactor":0,"roughnessFactor":0.8100000023841858}},{"doubleSided":true,"name":"TF3_KL_Bund_Rubble","normalTexture":{"index":2,"scale":0.8999999761581421},"pbrMetallicRoughness":{"baseColorTexture":{"index":3},"metallicFactor":0,"roughnessFactor":0.9399999976158142}},{"doubleSided":true,"name":"TF3_KL_Backwater_Olive","pbrMetallicRoughness":{"baseColorFactor":[0.03500000014901161,0.0949999988079071,0.0729999989271164,1],"metallicFactor":0,"roughnessFactor":0.17000000178813934}}],"meshes":[{"name":"Cube.001","primitives":[{"attributes":{"POSITION":0,"NORMAL":1,"TEXCOORD_0":2},"indices":3,"material":0},{"attributes":{"POSITION":4,"NORMAL":5,"TEXCOORD_0":6},"indices":7,"material":1},{"attributes":{"POSITION":8,"NORMAL":9,"TEXCOORD_0":10},"indices":11,"material":2},{"attributes":{"POSITION":12,"NORMAL":13,"TEXCOORD_0":14},"indices":15,"material":3},{"attributes":{"POSITION":16,"NORMAL":17,"TEXCOORD_0":18},"indices":19,"material":4}]}],"textures":[{"sampler":0,"source":0},{"sampler":0,"source":1},{"sampler":0,"source":2},{"sampler":0,"source":3}],"images":[{"name":"soil_normal","uri":"textures/0b922d28f65dc4ded68fc168d35866a7c1f643b95301ab3186acc35cf346c102.png"},{"name":"soil_color","uri":"textures/32378aa580762ab4a435dcc1ecb20ed1416f4e798055df4f878936a5008d4300.png"},{"name":"stone_normal","uri":"textures/79bc00ceedccbb11d90065106912729750092299d2849dba825ec93da75171dc.png"},{"name":"stone_color","uri":"textures/091907dce3c9a5094c8a29ce2ba628d891e0477fe03e3fe215aa1d19541495d0.png"}],"accessors":[{"bufferView":0,"componentType":5126,"count":648,"max":[0.35750001668930054,0.5374999642372131,1.090000033378601],"min":[-0.41750001907348633,0.48249998688697815,-1.090000033378601],"type":"VEC3"},{"bufferView":1,"componentType":5126,"count":648,"type":"VEC3"},{"bufferView":2,"componentType":5126,"count":648,"type":"VEC2"},{"bufferView":3,"componentType":5123,"count":972,"type":"SCALAR"},{"bufferView":4,"componentType":5126,"count":769,"max":[4,0.4935680031776428,2],"min":[-4,0,-2],"type":"VEC3"},{"bufferView":5,"componentType":5126,"count":769,"type":"VEC3"},{"bufferView":6,"componentType":5126,"count":769,"type":"VEC2"},{"bufferView":7,"componentType":5123,"count":3198,"type":"SCALAR"},{"bufferView":8,"componentType":5126,"count":23759,"max":[3.955883264541626,0.7934846878051758,2.044461488723755],"min":[-3.9825217723846436,0.3790555000305176,-2.0602915287017822],"type":"VEC3"},{"bufferView":9,"componentType":5126,"count":23759,"type":"VEC3"},{"bufferView":10,"componentType":5126,"count":23759,"type":"VEC2"},{"bufferView":11,"componentType":5123,"count":79200,"type":"SCALAR"},{"bufferView":12,"componentType":5126,"count":1624,"max":[3.940453290939331,0.3984684646129608,0.9988058805465698],"min":[-3.542898178100586,0.11931213736534119,-1.010441541671753],"type":"VEC3"},{"bufferView":13,"componentType":5126,"count":1624,"type":"VEC3"},{"bufferView":14,"componentType":5126,"count":1624,"type":"VEC2"},{"bufferView":15,"componentType":5123,"count":6048,"type":"SCALAR"},{"bufferView":16,"componentType":5126,"count":24,"max":[4,0.14800000190734863,0.6000000238418579],"min":[-4,0.07599997520446777,-0.6000000238418579],"type":"VEC3"},{"bufferView":17,"componentType":5126,"count":24,"type":"VEC3"},{"bufferView":18,"componentType":5126,"count":24,"type":"VEC2"},{"bufferView":19,"componentType":5123,"count":36,"type":"SCALAR"}],"bufferViews":[{"buffer":0,"byteLength":7776,"byteOffset":0,"target":34962},{"buffer":0,"byteLength":7776,"byteOffset":7776,"target":34962},{"buffer":0,"byteLength":5184,"byteOffset":15552,"target":34962},{"buffer":0,"byteLength":1944,"byteOffset":20736,"target":34963},{"buffer":0,"byteLength":9228,"byteOffset":22680,"target":34962},{"buffer":0,"byteLength":9228,"byteOffset":31908,"target":34962},{"buffer":0,"byteLength":6152,"byteOffset":41136,"target":34962},{"buffer":0,"byteLength":6396,"byteOffset":47288,"target":34963},{"buffer":0,"byteLength":285108,"byteOffset":53684,"target":34962},{"buffer":0,"byteLength":285108,"byteOffset":338792,"target":34962},{"buffer":0,"byteLength":190072,"byteOffset":623900,"target":34962},{"buffer":0,"byteLength":158400,"byteOffset":813972,"target":34963},{"buffer":0,"byteLength":19488,"byteOffset":972372,"target":34962},{"buffer":0,"byteLength":19488,"byteOffset":991860,"target":34962},{"buffer":0,"byteLength":12992,"byteOffset":1011348,"target":34962},{"buffer":0,"byteLength":12096,"byteOffset":1024340,"target":34963},{"buffer":0,"byteLength":288,"byteOffset":1036436,"target":34962},{"buffer":0,"byteLength":288,"byteOffset":1036724,"target":34962},{"buffer":0,"byteLength":192,"byteOffset":1037012,"target":34962},{"buffer":0,"byteLength":72,"byteOffset":1037204,"target":34963}],"samplers":[{"magFilter":9729,"minFilter":9987}],"buffers":[{"uri":"KL_LS_Irrigation_Bund_8m.bin","byteLength":1037276}]}