{"asset":{"generator":"Khronos glTF Blender I/O v5.2.40","version":"2.0"},"scene":0,"scenes":[{"name":"Scene","nodes":[0]}],"nodes":[{"mesh":0,"name":"TF3_KL_LS_Colocasia_Clump"}],"materials":[{"doubleSided":true,"name":"TF3_KL_Colocasia_Pale_Veins","pbrMetallicRoughness":{"baseColorFactor":[0.27000001072883606,0.4099999964237213,0.10499999672174454,1],"metallicFactor":0,"roughnessFactor":0.6100000143051147}},{"doubleSided":true,"name":"TF3_KL_Colocasia_Cordate_Blade","normalTexture":{"index":0,"scale":0.30000001192092896},"pbrMetallicRoughness":{"baseColorTexture":{"index":1},"metallicFactor":0,"roughnessFactor":0.5}}],"meshes":[{"name":"Colocasia_Fleshy_Petioles_Mesh","primitives":[{"attributes":{"POSITION":0,"NORMAL":1,"TEXCOORD_0":2},"indices":3,"material":0},{"attributes":{"POSITION":4,"NORMAL":5,"TEXCOORD_0":6},"indices":7,"material":1}]}],"textures":[{"sampler":0,"source":0},{"sampler":0,"source":1}],"images":[{"name":"taro_leaf_normal","uri":"textures/d8f0fe4002d2178a21360717658137fc47358a6de0f0ae9513fbe67fd4dd5da7.png"},{"name":"taro_leaf_color","uri":"textures/2782f19ef6fe153b3b73c52f8fcd0e93885c32d5071fc45edc077253ffe4e156.png"}],"accessors":[{"bufferView":0,"componentType":5126,"count":2843,"max":[1.1372787952423096,1.3899403810501099,1.1844247579574585],"min":[-1.2040842771530151,0,-1.1651620864868164],"type":"VEC3"},{"bufferView":1,"componentType":5126,"count":2843,"type":"VEC3"},{"bufferView":2,"componentType":5126,"count":2843,"type":"VEC2"},{"bufferView":3,"componentType":5123,"count":7722,"type":"SCALAR"},{"bufferView":4,"componentType":5126,"count":3133,"max":[1.1708875894546509,1.3775818347930908,1.2216123342514038],"min":[-1.2403645515441895,0.30495211482048035,-1.201107144355774],"type":"VEC3"},{"bufferView":5,"componentType":5126,"count":3133,"type":"VEC3"},{"bufferView":6,"componentType":5126,"count":3133,"type":"VEC2"},{"bufferView":7,"componentType":5123,"count":16848,"type":"SCALAR"}],"bufferViews":[{"buffer":0,"byteLength":34116,"byteOffset":0,"target":34962},{"buffer":0,"byteLength":34116,"byteOffset":34116,"target":34962},{"buffer":0,"byteLength":22744,"byteOffset":68232,"target":34962},{"buffer":0,"byteLength":15444,"byteOffset":90976,"target":34963},{"buffer":0,"byteLength":37596,"byteOffset":106420,"target":34962},{"buffer":0,"byteLength":37596,"byteOffset":144016,"target":34962},{"buffer":0,"byteLength":25064,"byteOffset":181612,"target":34962},{"buffer":0,"byteLength":33696,"byteOffset":206676,"target":34963}],"samplers":[{"magFilter":9729,"minFilter":9987}],"buffers":[{"uri":"KL_LS_Colocasia_Clump.bin","byteLength":240372}]}