{"asset":{"generator":"Khronos glTF Blender I/O v5.2.40","version":"2.0"},"scene":0,"scenes":[{"name":"Scene","nodes":[0]}],"nodes":[{"mesh":0,"name":"TF3_KL_LS_Coconut_Leaning_B_LOD1"}],"materials":[{"doubleSided":true,"name":"TF3_KL_Tender_Coconut_Green","pbrMetallicRoughness":{"baseColorFactor":[0.23499999940395355,0.36000001430511475,0.054999999701976776,1],"metallicFactor":0,"roughnessFactor":0.6200000047683716}},{"doubleSided":true,"name":"TF3_KL_Maturing_Coconut","pbrMetallicRoughness":{"baseColorFactor":[0.41999998688697815,0.3199999928474426,0.07000000029802322,1],"metallicFactor":0,"roughnessFactor":0.699999988079071}},{"doubleSided":true,"name":"TF3_KL_Petioles_Olive","pbrMetallicRoughness":{"baseColorFactor":[0.14000000059604645,0.20000000298023224,0.024000000208616257,1],"metallicFactor":0,"roughnessFactor":0.5799999833106995}},{"doubleSided":true,"name":"TF3_KL_Coconut_Scar_Rings","pbrMetallicRoughness":{"baseColorFactor":[0.18000000715255737,0.13500000536441803,0.07500000298023224,1],"metallicFactor":0,"roughnessFactor":0.949999988079071}},{"doubleSided":true,"name":"TF3_KL_Coconut_Frond","normalTexture":{"index":0,"scale":0.33000001311302185},"pbrMetallicRoughness":{"baseColorTexture":{"index":1},"metallicFactor":0,"roughnessFactor":0.47999998927116394}},{"doubleSided":true,"name":"TF3_KL_Coconut_Young_Lime","pbrMetallicRoughness":{"baseColorFactor":[0.12999999523162842,0.27000001072883606,0.029999999329447746,1],"metallicFactor":0,"roughnessFactor":0.47999998927116394}},{"doubleSided":true,"name":"TF3_KL_Coconut_Mature_Deep","pbrMetallicRoughness":{"baseColorFactor":[0.054999999701976776,0.1550000011920929,0.024000000208616257,1],"metallicFactor":0,"roughnessFactor":0.5400000214576721}},{"doubleSided":true,"name":"TF3_KL_Coconut_Old_Fawn","normalTexture":{"index":2,"scale":0.44999998807907104},"pbrMetallicRoughness":{"baseColorTexture":{"index":3},"metallicFactor":0,"roughnessFactor":0.8600000143051147}},{"doubleSided":true,"name":"TF3_KL_Coconut_Leafscar_Bark","normalTexture":{"index":4,"scale":0.7200000286102295},"pbrMetallicRoughness":{"baseColorTexture":{"index":5},"metallicFactor":0,"roughnessFactor":0.9100000262260437}}],"meshes":[{"name":"Coconut_Fruit_Clusters_Mesh","primitives":[{"attributes":{"POSITION":0,"NORMAL":1,"TEXCOORD_0":2},"indices":3,"material":0},{"attributes":{"POSITION":4,"NORMAL":5,"TEXCOORD_0":6},"indices":7,"material":1},{"attributes":{"POSITION":8,"NORMAL":9,"TEXCOORD_0":10},"indices":11,"material":2},{"attributes":{"POSITION":12,"NORMAL":13,"TEXCOORD_0":14},"indices":15,"material":3},{"attributes":{"POSITION":16,"NORMAL":17,"TEXCOORD_0":18},"indices":19,"material":4},{"attributes":{"POSITION":20,"NORMAL":21,"TEXCOORD_0":22},"indices":23,"material":5},{"attributes":{"POSITION":24,"NORMAL":25,"TEXCOORD_0":26},"indices":27,"material":6},{"attributes":{"POSITION":28,"NORMAL":29,"TEXCOORD_0":30},"indices":31,"material":7},{"attributes":{"POSITION":32,"NORMAL":33,"TEXCOORD_0":34},"indices":35,"material":8}]}],"textures":[{"sampler":0,"source":0},{"sampler":0,"source":1},{"sampler":0,"source":2},{"sampler":0,"source":3},{"sampler":0,"source":4},{"sampler":0,"source":5}],"images":[{"name":"palm_leaf_normal","uri":"textures/19a21337d4e9b08d842f77f3f08f4c609ee2a2ffe1e7f058d48ba838dbd66f2f.png"},{"name":"palm_leaf_color","uri":"textures/172f2d5c2651cda7c39a84a1c43ee4c5aa89113488497e782b536732fca1655f.png"},{"name":"dry_leaf_normal","uri":"textures/acc8763384432f4b145681dcbe939d8e99a371861f79270c8a650350e9128cdd.png"},{"name":"dry_leaf_color","uri":"textures/ae3af5890a00003c9094d5f6f171157e7ccedbac4a1b5d22f08ec9f6b5b9ad98.png"},{"name":"palm_bark_normal","uri":"textures/953b3804972092f96ef1980b3c8eff36a098957b202defe0887f9e1bfc0acf68.png"},{"name":"palm_bark_color","uri":"textures/9726c7d20d4ca71f66a288d74af174f949a3f94624d523c0f73d300eb1aebbc2.png"}],"accessors":[{"bufferView":0,"componentType":5126,"count":457,"max":[3.6571645736694336,8.52727222442627,0.5474575757980347],"min":[2.4739930629730225,7.875221252441406,-0.6579636931419373],"type":"VEC3"},{"bufferView":1,"componentType":5126,"count":457,"type":"VEC3"},{"bufferView":2,"componentType":5126,"count":457,"type":"VEC2"},{"bufferView":3,"componentType":5123,"count":2094,"type":"SCALAR"},{"bufferView":4,"componentType":5126,"count":292,"max":[3.714586019515991,8.52727222442627,0.6084540486335754],"min":[2.681870698928833,7.942420482635498,-0.4865267276763916],"type":"VEC3"},{"bufferView":5,"componentType":5126,"count":292,"type":"VEC3"},{"bufferView":6,"componentType":5126,"count":292,"type":"VEC2"},{"bufferView":7,"componentType":5123,"count":1350,"type":"SCALAR"},{"bufferView":8,"componentType":5126,"count":2458,"max":[7.178664684295654,11.600390434265137,4.221841335296631],"min":[-0.7915709018707275,5.2557806968688965,-3.996858835220337],"type":"VEC3"},{"bufferView":9,"componentType":5126,"count":2458,"type":"VEC3"},{"bufferView":10,"componentType":5126,"count":2458,"type":"VEC2"},{"bufferView":11,"componentType":5123,"count":10926,"type":"SCALAR"},{"bufferView":12,"componentType":5126,"count":2352,"max":[3.1991729736328125,8.65894889831543,0.26395729184150696],"min":[-0.2835044860839844,0.14242930710315704,-0.8596990704536438],"type":"VEC3"},{"bufferView":13,"componentType":5126,"count":2352,"type":"VEC3"},{"bufferView":14,"componentType":5126,"count":2352,"type":"VEC2"},{"bufferView":15,"componentType":5123,"count":9408,"type":"SCALAR"},{"bufferView":16,"componentType":5126,"count":25520,"max":[7.1114277839660645,11.66614818572998,4.192026138305664],"min":[-0.7605618834495544,5.746862411499023,-3.959977388381958],"type":"VEC3"},{"bufferView":17,"componentType":5126,"count":25520,"type":"VEC3"},{"bufferView":18,"componentType":5126,"count":25520,"type":"VEC2"},{"bufferView":19,"componentType":5123,"count":67350,"type":"SCALAR"},{"bufferView":20,"componentType":5126,"count":992,"max":[6.77056360244751,11.640238761901855,3.831394672393799],"min":[-0.6316697001457214,8.147858619689941,-3.639075756072998],"type":"VEC3"},{"bufferView":21,"componentType":5126,"count":992,"type":"VEC3"},{"bufferView":22,"componentType":5126,"count":992,"type":"VEC2"},{"bufferView":23,"componentType":5123,"count":2703,"type":"SCALAR"},{"bufferView":24,"componentType":5126,"count":2276,"max":[7.0617146492004395,10.27116584777832,4.044877529144287],"min":[-0.6492594480514526,5.816483020782471,-3.8932430744171143],"type":"VEC3"},{"bufferView":25,"componentType":5126,"count":2276,"type":"VEC3"},{"bufferView":26,"componentType":5126,"count":2276,"type":"VEC2"},{"bufferView":27,"componentType":5123,"count":6015,"type":"SCALAR"},{"bufferView":28,"componentType":5126,"count":1102,"max":[7.235164165496826,8.519083976745605,1.814079761505127],"min":[3.81023907661438,5.302492141723633,-0.2408735305070877],"type":"VEC3"},{"bufferView":29,"componentType":5126,"count":1102,"type":"VEC3"},{"bufferView":30,"componentType":5126,"count":1102,"type":"VEC2"},{"bufferView":31,"componentType":5123,"count":2916,"type":"SCALAR"},{"bufferView":32,"componentType":5126,"count":1350,"max":[3.239875316619873,8.85075569152832,0.5493392944335938],"min":[-0.5492750406265259,0.000927850604057312,-0.8558404445648193],"type":"VEC3"},{"bufferView":33,"componentType":5126,"count":1350,"type":"VEC3"},{"bufferView":34,"componentType":5126,"count":1350,"type":"VEC2"},{"bufferView":35,"componentType":5123,"count":6768,"type":"SCALAR"}],"bufferViews":[{"buffer":0,"byteLength":5484,"byteOffset":0,"target":34962},{"buffer":0,"byteLength":5484,"byteOffset":5484,"target":34962},{"buffer":0,"byteLength":3656,"byteOffset":10968,"target":34962},{"buffer":0,"byteLength":4188,"byteOffset":14624,"target":34963},{"buffer":0,"byteLength":3504,"byteOffset":18812,"target":34962},{"buffer":0,"byteLength":3504,"byteOffset":22316,"target":34962},{"buffer":0,"byteLength":2336,"byteOffset":25820,"target":34962},{"buffer":0,"byteLength":2700,"byteOffset":28156,"target":34963},{"buffer":0,"byteLength":29496,"byteOffset":30856,"target":34962},{"buffer":0,"byteLength":29496,"byteOffset":60352,"target":34962},{"buffer":0,"byteLength":19664,"byteOffset":89848,"target":34962},{"buffer":0,"byteLength":21852,"byteOffset":109512,"target":34963},{"buffer":0,"byteLength":28224,"byteOffset":131364,"target":34962},{"buffer":0,"byteLength":28224,"byteOffset":159588,"target":34962},{"buffer":0,"byteLength":18816,"byteOffset":187812,"target":34962},{"buffer":0,"byteLength":18816,"byteOffset":206628,"target":34963},{"buffer":0,"byteLength":306240,"byteOffset":225444,"target":34962},{"buffer":0,"byteLength":306240,"byteOffset":531684,"target":34962},{"buffer":0,"byteLength":204160,"byteOffset":837924,"target":34962},{"buffer":0,"byteLength":134700,"byteOffset":1042084,"target":34963},{"buffer":0,"byteLength":11904,"byteOffset":1176784,"target":34962},{"buffer":0,"byteLength":11904,"byteOffset":1188688,"target":34962},{"buffer":0,"byteLength":7936,"byteOffset":1200592,"target":34962},{"buffer":0,"byteLength":5406,"byteOffset":1208528,"target":34963},{"buffer":0,"byteLength":27312,"byteOffset":1213936,"target":34962},{"buffer":0,"byteLength":27312,"byteOffset":1241248,"target":34962},{"buffer":0,"byteLength":18208,"byteOffset":1268560,"target":34962},{"buffer":0,"byteLength":12030,"byteOffset":1286768,"target":34963},{"buffer":0,"byteLength":13224,"byteOffset":1298800,"target":34962},{"buffer":0,"byteLength":13224,"byteOffset":1312024,"target":34962},{"buffer":0,"byteLength":8816,"byteOffset":1325248,"target":34962},{"buffer":0,"byteLength":5832,"byteOffset":1334064,"target":34963},{"buffer":0,"byteLength":16200,"byteOffset":1339896,"target":34962},{"buffer":0,"byteLength":16200,"byteOffset":1356096,"target":34962},{"buffer":0,"byteLength":10800,"byteOffset":1372296,"target":34962},{"buffer":0,"byteLength":13536,"byteOffset":1383096,"target":34963}],"samplers":[{"magFilter":9729,"minFilter":9987}],"buffers":[{"uri":"KL_LS_Coconut_Leaning_B_LOD1.bin","byteLength":1396632}]}