{"asset":{"generator":"Khronos glTF Blender I/O v5.2.40","version":"2.0"},"scene":0,"scenes":[{"name":"Scene","nodes":[0]}],"nodes":[{"mesh":0,"name":"TF3_KL_LS_Coir_Coil_Husks"}],"materials":[{"doubleSided":true,"name":"TF3_KL_Coir_Fibre","normalTexture":{"index":0,"scale":0.7799999713897705},"pbrMetallicRoughness":{"baseColorTexture":{"index":1},"metallicFactor":0,"roughnessFactor":0.9399999976158142}},{"doubleSided":true,"name":"TF3_KL_Coconut_Old_Fawn","normalTexture":{"index":2,"scale":0.44999998807907104},"pbrMetallicRoughness":{"baseColorTexture":{"index":3},"metallicFactor":0,"roughnessFactor":0.8600000143051147}}],"meshes":[{"name":"Coir_Coconut_Husks_Mesh","primitives":[{"attributes":{"POSITION":0,"NORMAL":1,"TEXCOORD_0":2},"indices":3,"material":0},{"attributes":{"POSITION":4,"NORMAL":5,"TEXCOORD_0":6},"indices":7,"material":1}]}],"textures":[{"sampler":0,"source":0},{"sampler":0,"source":1},{"sampler":0,"source":2},{"sampler":0,"source":3}],"images":[{"name":"coir_normal","uri":"textures/177ae93a2169204f4053c3385d3a67181127b602931f0079e43bfaa1c2b5f52a.png"},{"name":"coir_color","uri":"textures/4502b7608c886b4a95c039717823383bb39d8726518502d6c143cebd33e8d557.png"},{"name":"dry_leaf_normal","uri":"textures/acc8763384432f4b145681dcbe939d8e99a371861f79270c8a650350e9128cdd.png"},{"name":"dry_leaf_color","uri":"textures/ae3af5890a00003c9094d5f6f171157e7ccedbac4a1b5d22f08ec9f6b5b9ad98.png"}],"accessors":[{"bufferView":0,"componentType":5126,"count":25720,"max":[1.0705060958862305,0.3009985387325287,0.4650000333786011],"min":[-0.8400000333786011,0,-0.7199999690055847],"type":"VEC3"},{"bufferView":1,"componentType":5126,"count":25720,"type":"VEC3"},{"bufferView":2,"componentType":5126,"count":25720,"type":"VEC2"},{"bufferView":3,"componentType":5123,"count":131280,"type":"SCALAR"},{"bufferView":4,"componentType":5126,"count":1588,"max":[0.36688581109046936,0.2977055013179779,0.4744114279747009],"min":[-0.8392439484596252,0.00929343607276678,-0.746059775352478],"type":"VEC3"},{"bufferView":5,"componentType":5126,"count":1588,"type":"VEC3"},{"bufferView":6,"componentType":5126,"count":1588,"type":"VEC2"},{"bufferView":7,"componentType":5123,"count":3780,"type":"SCALAR"}],"bufferViews":[{"buffer":0,"byteLength":308640,"byteOffset":0,"target":34962},{"buffer":0,"byteLength":308640,"byteOffset":308640,"target":34962},{"buffer":0,"byteLength":205760,"byteOffset":617280,"target":34962},{"buffer":0,"byteLength":262560,"byteOffset":823040,"target":34963},{"buffer":0,"byteLength":19056,"byteOffset":1085600,"target":34962},{"buffer":0,"byteLength":19056,"byteOffset":1104656,"target":34962},{"buffer":0,"byteLength":12704,"byteOffset":1123712,"target":34962},{"buffer":0,"byteLength":7560,"byteOffset":1136416,"target":34963}],"samplers":[{"magFilter":9729,"minFilter":9987}],"buffers":[{"uri":"KL_LS_Coir_Coil_Husks.bin","byteLength":1143976}]}