{"asset":{"generator":"Khronos glTF Blender I/O v5.2.40","version":"2.0"},"scene":0,"scenes":[{"name":"Scene","nodes":[0]}],"nodes":[{"mesh":0,"name":"TF3_KL_LS_Rice_Tuft_Green"}],"materials":[{"doubleSided":true,"name":"TF3_KL_Rice_Vegetative_Green","pbrMetallicRoughness":{"baseColorFactor":[0.20000000298023224,0.3700000047683716,0.03099999949336052,1],"metallicFactor":0,"roughnessFactor":0.6499999761581421}}],"meshes":[{"name":"Rice_Tufts_Modelled_Blades_Mesh","primitives":[{"attributes":{"POSITION":0,"NORMAL":1,"TEXCOORD_0":2},"indices":3,"material":0}]}],"accessors":[{"bufferView":0,"componentType":5126,"count":126,"max":[0.309413880109787,0.757600724697113,0.3018021285533905],"min":[-0.45812323689460754,0,-0.25744545459747314],"type":"VEC3"},{"bufferView":1,"componentType":5126,"count":126,"type":"VEC3"},{"bufferView":2,"componentType":5126,"count":126,"type":"VEC2"},{"bufferView":3,"componentType":5123,"count":420,"type":"SCALAR"}],"bufferViews":[{"buffer":0,"byteLength":1512,"byteOffset":0,"target":34962},{"buffer":0,"byteLength":1512,"byteOffset":1512,"target":34962},{"buffer":0,"byteLength":1008,"byteOffset":3024,"target":34962},{"buffer":0,"byteLength":840,"byteOffset":4032,"target":34963}],"buffers":[{"uri":"KL_LS_Rice_Tuft_Green.bin","byteLength":4872}]}