{"asset":{"generator":"Khronos glTF Blender I/O v5.2.40","version":"2.0"},"scene":0,"scenes":[{"name":"Scene","nodes":[0]}],"nodes":[{"mesh":0,"name":"TF3_KL_LS_Jackfruit_Tree_LOD1"}],"materials":[{"doubleSided":true,"name":"TF3_KL_Jackfruit_Scaly_Bark","normalTexture":{"index":0,"scale":0.8100000023841858},"pbrMetallicRoughness":{"baseColorTexture":{"index":1},"metallicFactor":0,"roughnessFactor":0.9399999976158142}},{"doubleSided":true,"name":"TF3_KL_Jackfruit_Green_Warted_Skin","pbrMetallicRoughness":{"baseColorFactor":[0.23000000417232513,0.3199999928474426,0.04600000008940697,1],"metallicFactor":0,"roughnessFactor":0.7300000190734863}},{"doubleSided":true,"name":"TF3_KL_Jackfruit_Ripening_Skin","pbrMetallicRoughness":{"baseColorFactor":[0.3700000047683716,0.3400000035762787,0.07800000160932541,1],"metallicFactor":0,"roughnessFactor":0.75}},{"doubleSided":true,"name":"TF3_KL_Jackfruit_Leathery_Elliptic_Leaf","normalTexture":{"index":2,"scale":0.30000001192092896},"pbrMetallicRoughness":{"baseColorTexture":{"index":3},"metallicFactor":0,"roughnessFactor":0.4099999964237213}},{"doubleSided":true,"name":"TF3_KL_Jackfruit_Young_Flush","pbrMetallicRoughness":{"baseColorFactor":[0.1599999964237213,0.28999999165534973,0.06499999761581421,1],"metallicFactor":0,"roughnessFactor":0.4699999988079071}},{"doubleSided":true,"name":"TF3_KL_Jackfruit_Deep_Green","pbrMetallicRoughness":{"baseColorFactor":[0.03500000014901161,0.10499999672174454,0.017000000923871994,1],"metallicFactor":0,"roughnessFactor":0.47999998927116394}},{"doubleSided":true,"name":"TF3_KL_Petioles_Olive","pbrMetallicRoughness":{"baseColorFactor":[0.14000000059604645,0.20000000298023224,0.024000000208616257,1],"metallicFactor":0,"roughnessFactor":0.5799999833106995}}],"meshes":[{"name":"Jackfruit_Branching_Twigs_Mesh","primitives":[{"attributes":{"POSITION":0,"NORMAL":1,"TEXCOORD_0":2},"indices":3,"material":0},{"attributes":{"POSITION":4,"NORMAL":5,"TEXCOORD_0":6},"indices":7,"material":1},{"attributes":{"POSITION":8,"NORMAL":9,"TEXCOORD_0":10},"indices":11,"material":2},{"attributes":{"POSITION":12,"NORMAL":13,"TEXCOORD_0":14},"indices":15,"material":3},{"attributes":{"POSITION":16,"NORMAL":17,"TEXCOORD_0":18},"indices":19,"material":4},{"attributes":{"POSITION":20,"NORMAL":21,"TEXCOORD_0":22},"indices":23,"material":5},{"attributes":{"POSITION":24,"NORMAL":25,"TEXCOORD_0":26},"indices":27,"material":6}]}],"textures":[{"sampler":0,"source":0},{"sampler":0,"source":1},{"sampler":0,"source":2},{"sampler":0,"source":3}],"images":[{"name":"jackfruit_bark_normal","uri":"textures/1f6141ee15328ab81f2eeb06a2ba69d517c36300b2a02276f1d2d40622b38882.png"},{"name":"jackfruit_bark_color","uri":"textures/5992cf9e8a4ca7b19179a0137f49305dd5bffc0c31da60b807917b86f0c0d061.png"},{"name":"jackfruit_leaf_normal","uri":"textures/f6653dfeafccb096f1ecda1791da849315b9092ed83a20b21e8169be6f36c74b.png"},{"name":"jackfruit_leaf_color","uri":"textures/4af395bea1b622ab4afd7598cbf39631a1dca1fc90d5773baf7e7a67ec27ee28.png"}],"accessors":[{"bufferView":0,"componentType":5126,"count":46317,"max":[4.637718677520752,8.392433166503906,4.275544166564941],"min":[-4.445990085601807,-0.0006359890103340149,-4.078317642211914],"type":"VEC3"},{"bufferView":1,"componentType":5126,"count":46317,"type":"VEC3"},{"bufferView":2,"componentType":5126,"count":46317,"type":"VEC2"},{"bufferView":3,"componentType":5123,"count":50364,"type":"SCALAR"},{"bufferView":4,"componentType":5126,"count":1054,"max":[0.5131649374961853,4.095527172088623,0.2921368479728699],"min":[-0.10309664160013199,1.3455278873443604,-0.45218905806541443],"type":"VEC3"},{"bufferView":5,"componentType":5126,"count":1054,"type":"VEC3"},{"bufferView":6,"componentType":5126,"count":1054,"type":"VEC2"},{"bufferView":7,"componentType":5123,"count":6300,"type":"SCALAR"},{"bufferView":8,"componentType":5126,"count":1018,"max":[1.2931342124938965,3.715526819229126,0.8323131799697876],"min":[-0.44320201873779297,2.5655269622802734,-0.11223872750997543],"type":"VEC3"},{"bufferView":9,"componentType":5126,"count":1018,"type":"VEC3"},{"bufferView":10,"componentType":5126,"count":1018,"type":"VEC2"},{"bufferView":11,"componentType":5123,"count":6084,"type":"SCALAR"},{"bufferView":12,"componentType":5126,"count":75559,"max":[4.740882873535156,8.418181419372559,4.4401140213012695],"min":[-4.622713088989258,2.5879905223846436,-4.16302490234375],"type":"VEC3"},{"bufferView":13,"componentType":5126,"count":75559,"type":"VEC3"},{"bufferView":14,"componentType":5126,"count":75559,"type":"VEC2"},{"bufferView":15,"componentType":5125,"count":205146,"type":"SCALAR"},{"bufferView":16,"componentType":5126,"count":6770,"max":[4.4171671867370605,8.356490135192871,4.035398006439209],"min":[-4.400147438049316,3.255449056625366,-4.043169975280762],"type":"VEC3"},{"bufferView":17,"componentType":5126,"count":6770,"type":"VEC3"},{"bufferView":18,"componentType":5126,"count":6770,"type":"VEC2"},{"bufferView":19,"componentType":5123,"count":18804,"type":"SCALAR"},{"bufferView":20,"componentType":5126,"count":12103,"max":[4.520000457763672,8.020465850830078,4.302490711212158],"min":[-4.475286960601807,2.4951348304748535,-3.9683573246002197],"type":"VEC3"},{"bufferView":21,"componentType":5126,"count":12103,"type":"VEC3"},{"bufferView":22,"componentType":5126,"count":12103,"type":"VEC2"},{"bufferView":23,"componentType":5123,"count":32178,"type":"SCALAR"},{"bufferView":24,"componentType":5126,"count":118,"max":[1.0846498012542725,4.328617572784424,0.6713665127754211],"min":[-0.25118881464004517,2.0905728340148926,-0.26038312911987305],"type":"VEC3"},{"bufferView":25,"componentType":5126,"count":118,"type":"VEC3"},{"bufferView":26,"componentType":5126,"count":118,"type":"VEC2"},{"bufferView":27,"componentType":5123,"count":288,"type":"SCALAR"}],"bufferViews":[{"buffer":0,"byteLength":555804,"byteOffset":0,"target":34962},{"buffer":0,"byteLength":555804,"byteOffset":555804,"target":34962},{"buffer":0,"byteLength":370536,"byteOffset":1111608,"target":34962},{"buffer":0,"byteLength":100728,"byteOffset":1482144,"target":34963},{"buffer":0,"byteLength":12648,"byteOffset":1582872,"target":34962},{"buffer":0,"byteLength":12648,"byteOffset":1595520,"target":34962},{"buffer":0,"byteLength":8432,"byteOffset":1608168,"target":34962},{"buffer":0,"byteLength":12600,"byteOffset":1616600,"target":34963},{"buffer":0,"byteLength":12216,"byteOffset":1629200,"target":34962},{"buffer":0,"byteLength":12216,"byteOffset":1641416,"target":34962},{"buffer":0,"byteLength":8144,"byteOffset":1653632,"target":34962},{"buffer":0,"byteLength":12168,"byteOffset":1661776,"target":34963},{"buffer":0,"byteLength":906708,"byteOffset":1673944,"target":34962},{"buffer":0,"byteLength":906708,"byteOffset":2580652,"target":34962},{"buffer":0,"byteLength":604472,"byteOffset":3487360,"target":34962},{"buffer":0,"byteLength":820584,"byteOffset":4091832,"target":34963},{"buffer":0,"byteLength":81240,"byteOffset":4912416,"target":34962},{"buffer":0,"byteLength":81240,"byteOffset":4993656,"target":34962},{"buffer":0,"byteLength":54160,"byteOffset":5074896,"target":34962},{"buffer":0,"byteLength":37608,"byteOffset":5129056,"target":34963},{"buffer":0,"byteLength":145236,"byteOffset":5166664,"target":34962},{"buffer":0,"byteLength":145236,"byteOffset":5311900,"target":34962},{"buffer":0,"byteLength":96824,"byteOffset":5457136,"target":34962},{"buffer":0,"byteLength":64356,"byteOffset":5553960,"target":34963},{"buffer":0,"byteLength":1416,"byteOffset":5618316,"target":34962},{"buffer":0,"byteLength":1416,"byteOffset":5619732,"target":34962},{"buffer":0,"byteLength":944,"byteOffset":5621148,"target":34962},{"buffer":0,"byteLength":576,"byteOffset":5622092,"target":34963}],"samplers":[{"magFilter":9729,"minFilter":9987}],"buffers":[{"uri":"KL_LS_Jackfruit_Tree_LOD1.bin","byteLength":5622668}]}