{"asset":{"generator":"Khronos glTF Blender I/O v5.2.40","version":"2.0"},"scene":0,"scenes":[{"name":"Scene","nodes":[0]}],"nodes":[{"mesh":0,"name":"TF3_KL_LS_Backwater_Bank_8m"}],"materials":[{"doubleSided":true,"name":"TF3_KL_Verge_Grass","pbrMetallicRoughness":{"baseColorFactor":[0.11999999731779099,0.25,0.03400000184774399,1],"metallicFactor":0,"roughnessFactor":0.8100000023841858}},{"doubleSided":true,"name":"TF3_KL_Bund_Rubble","normalTexture":{"index":0,"scale":0.8999999761581421},"pbrMetallicRoughness":{"baseColorTexture":{"index":1},"metallicFactor":0,"roughnessFactor":0.9399999976158142}},{"doubleSided":true,"name":"TF3_KL_Coir_Fibre","normalTexture":{"index":2,"scale":0.7799999713897705},"pbrMetallicRoughness":{"baseColorTexture":{"index":3},"metallicFactor":0,"roughnessFactor":0.9399999976158142}},{"doubleSided":true,"name":"TF3_KL_Wet_Kuttanad_Soil","normalTexture":{"index":4,"scale":0.8999999761581421},"pbrMetallicRoughness":{"baseColorTexture":{"index":5},"metallicFactor":0,"roughnessFactor":0.949999988079071}},{"doubleSided":true,"name":"TF3_KL_Weathered_Countryboat_Timber","normalTexture":{"index":6,"scale":0.7200000286102295},"pbrMetallicRoughness":{"baseColorTexture":{"index":7},"metallicFactor":0,"roughnessFactor":0.7099999785423279}},{"doubleSided":true,"name":"TF3_KL_Backwater_Olive","pbrMetallicRoughness":{"baseColorFactor":[0.03500000014901161,0.0949999988079071,0.0729999989271164,1],"metallicFactor":0,"roughnessFactor":0.17000000178813934}}],"meshes":[{"name":"Backwater_Bank_Grasses_Mesh","primitives":[{"attributes":{"POSITION":0,"NORMAL":1,"TEXCOORD_0":2},"indices":3,"material":0},{"attributes":{"POSITION":4,"NORMAL":5,"TEXCOORD_0":6},"indices":7,"material":1},{"attributes":{"POSITION":8,"NORMAL":9,"TEXCOORD_0":10},"indices":11,"material":2},{"attributes":{"POSITION":12,"NORMAL":13,"TEXCOORD_0":14},"indices":15,"material":3},{"attributes":{"POSITION":16,"NORMAL":17,"TEXCOORD_0":18},"indices":19,"material":4},{"attributes":{"POSITION":20,"NORMAL":21,"TEXCOORD_0":22},"indices":23,"material":5}]}],"textures":[{"sampler":0,"source":0},{"sampler":0,"source":1},{"sampler":0,"source":2},{"sampler":0,"source":3},{"sampler":0,"source":4},{"sampler":0,"source":5},{"sampler":0,"source":6},{"sampler":0,"source":7}],"images":[{"name":"stone_normal","uri":"textures/79bc00ceedccbb11d90065106912729750092299d2849dba825ec93da75171dc.png"},{"name":"stone_color","uri":"textures/091907dce3c9a5094c8a29ce2ba628d891e0477fe03e3fe215aa1d19541495d0.png"},{"name":"coir_normal","uri":"textures/177ae93a2169204f4053c3385d3a67181127b602931f0079e43bfaa1c2b5f52a.png"},{"name":"coir_color","uri":"textures/4502b7608c886b4a95c039717823383bb39d8726518502d6c143cebd33e8d557.png"},{"name":"soil_normal","uri":"textures/0b922d28f65dc4ded68fc168d35866a7c1f643b95301ab3186acc35cf346c102.png"},{"name":"soil_color","uri":"textures/32378aa580762ab4a435dcc1ecb20ed1416f4e798055df4f878936a5008d4300.png"},{"name":"canoe_wood_normal","uri":"textures/b6215d0c685a20eeb47065db987a93bbfe925b3b48a2c99e2f23b7106679dfc0.png"},{"name":"canoe_wood_color","uri":"textures/ab2299cd45bfee66c5fa255b967b883a96e97947e55ff3b854270402d5f416c7.png"}],"accessors":[{"bufferView":0,"componentType":5126,"count":26459,"max":[4.071948528289795,1.1150543689727783,-0.07372819632291794],"min":[-4.115118503570557,0.7189034223556519,-2.2338247299194336],"type":"VEC3"},{"bufferView":1,"componentType":5126,"count":26459,"type":"VEC3"},{"bufferView":2,"componentType":5126,"count":26459,"type":"VEC2"},{"bufferView":3,"componentType":5123,"count":88200,"type":"SCALAR"},{"bufferView":4,"componentType":5126,"count":1796,"max":[3.9756622314453125,0.6339783072471619,0.5732111930847168],"min":[-3.7090413570404053,0.33042198419570923,0.0737113207578659],"type":"VEC3"},{"bufferView":5,"componentType":5126,"count":1796,"type":"VEC3"},{"bufferView":6,"componentType":5126,"count":1796,"type":"VEC2"},{"bufferView":7,"componentType":5123,"count":6552,"type":"SCALAR"},{"bufferView":8,"componentType":5126,"count":1677,"max":[4,0.6076084971427917,0.5199999809265137],"min":[-4,0.3123915493488312,0.32999998331069946],"type":"VEC3"},{"bufferView":9,"componentType":5126,"count":1677,"type":"VEC3"},{"bufferView":10,"componentType":5126,"count":1677,"type":"VEC2"},{"bufferView":11,"componentType":5123,"count":7596,"type":"SCALAR"},{"bufferView":12,"componentType":5126,"count":686,"max":[4,0.7627354860305786,2],"min":[-4,0,-2],"type":"VEC3"},{"bufferView":13,"componentType":5126,"count":686,"type":"VEC3"},{"bufferView":14,"componentType":5126,"count":686,"type":"VEC2"},{"bufferView":15,"componentType":5123,"count":2706,"type":"SCALAR"},{"bufferView":16,"componentType":5126,"count":509,"max":[3.81899094581604,0.6817571520805359,0.5629299879074097],"min":[-3.812988758087158,0.217852383852005,0.47305724024772644],"type":"VEC3"},{"bufferView":17,"componentType":5126,"count":509,"type":"VEC3"},{"bufferView":18,"componentType":5126,"count":509,"type":"VEC2"},{"bufferView":19,"componentType":5123,"count":1260,"type":"SCALAR"},{"bufferView":20,"componentType":5126,"count":24,"max":[4,0.34299999475479126,1.9950000047683716],"min":[-4,0,0.6850000619888306],"type":"VEC3"},{"bufferView":21,"componentType":5126,"count":24,"type":"VEC3"},{"bufferView":22,"componentType":5126,"count":24,"type":"VEC2"},{"bufferView":23,"componentType":5123,"count":36,"type":"SCALAR"}],"bufferViews":[{"buffer":0,"byteLength":317508,"byteOffset":0,"target":34962},{"buffer":0,"byteLength":317508,"byteOffset":317508,"target":34962},{"buffer":0,"byteLength":211672,"byteOffset":635016,"target":34962},{"buffer":0,"byteLength":176400,"byteOffset":846688,"target":34963},{"buffer":0,"byteLength":21552,"byteOffset":1023088,"target":34962},{"buffer":0,"byteLength":21552,"byteOffset":1044640,"target":34962},{"buffer":0,"byteLength":14368,"byteOffset":1066192,"target":34962},{"buffer":0,"byteLength":13104,"byteOffset":1080560,"target":34963},{"buffer":0,"byteLength":20124,"byteOffset":1093664,"target":34962},{"buffer":0,"byteLength":20124,"byteOffset":1113788,"target":34962},{"buffer":0,"byteLength":13416,"byteOffset":1133912,"target":34962},{"buffer":0,"byteLength":15192,"byteOffset":1147328,"target":34963},{"buffer":0,"byteLength":8232,"byteOffset":1162520,"target":34962},{"buffer":0,"byteLength":8232,"byteOffset":1170752,"target":34962},{"buffer":0,"byteLength":5488,"byteOffset":1178984,"target":34962},{"buffer":0,"byteLength":5412,"byteOffset":1184472,"target":34963},{"buffer":0,"byteLength":6108,"byteOffset":1189884,"target":34962},{"buffer":0,"byteLength":6108,"byteOffset":1195992,"target":34962},{"buffer":0,"byteLength":4072,"byteOffset":1202100,"target":34962},{"buffer":0,"byteLength":2520,"byteOffset":1206172,"target":34963},{"buffer":0,"byteLength":288,"byteOffset":1208692,"target":34962},{"buffer":0,"byteLength":288,"byteOffset":1208980,"target":34962},{"buffer":0,"byteLength":192,"byteOffset":1209268,"target":34962},{"buffer":0,"byteLength":72,"byteOffset":1209460,"target":34963}],"samplers":[{"magFilter":9729,"minFilter":9987}],"buffers":[{"uri":"KL_LS_Backwater_Bank_8m.bin","byteLength":1209532}]}