{"asset":{"generator":"Khronos glTF Blender I/O v5.2.40","version":"2.0"},"scene":0,"scenes":[{"name":"Scene","nodes":[0]}],"nodes":[{"mesh":0,"name":"TF3_KL_LS_Fern_Clump"}],"materials":[{"doubleSided":true,"name":"TF3_KL_Petioles_Olive","pbrMetallicRoughness":{"baseColorFactor":[0.14000000059604645,0.20000000298023224,0.024000000208616257,1],"metallicFactor":0,"roughnessFactor":0.5799999833106995}},{"doubleSided":true,"name":"TF3_KL_Fern_Pinnea","normalTexture":{"index":0,"scale":0.23999999463558197},"pbrMetallicRoughness":{"baseColorTexture":{"index":1},"metallicFactor":0,"roughnessFactor":0.5699999928474426}}],"meshes":[{"name":"Fern_Arching_Rachides_Mesh","primitives":[{"attributes":{"POSITION":0,"NORMAL":1,"TEXCOORD_0":2},"indices":3,"material":0},{"attributes":{"POSITION":4,"NORMAL":5,"TEXCOORD_0":6},"indices":7,"material":1}]}],"textures":[{"sampler":0,"source":0},{"sampler":0,"source":1}],"images":[{"name":"fern_leaf_normal","uri":"textures/35c4fbf454151791a46365bd9df9251136c0ea5e2f214452fc9c098e9df0d1cf.png"},{"name":"fern_leaf_color","uri":"textures/7f8f255913b699bd7ec7b4f6386ddef42fed9431f7efe3993896df03e6049ebf.png"}],"accessors":[{"bufferView":0,"componentType":5126,"count":2216,"max":[0.8544780015945435,0.7740206718444824,0.8829985857009888],"min":[-0.5727764964103699,0,-0.7327285408973694],"type":"VEC3"},{"bufferView":1,"componentType":5126,"count":2216,"type":"VEC3"},{"bufferView":2,"componentType":5126,"count":2216,"type":"VEC2"},{"bufferView":3,"componentType":5123,"count":9828,"type":"SCALAR"},{"bufferView":4,"componentType":5126,"count":15094,"max":[0.8293154835700989,0.7841541767120361,0.8361483216285706],"min":[-0.548725962638855,0.09771058708429337,-0.7015191316604614],"type":"VEC3"},{"bufferView":5,"componentType":5126,"count":15094,"type":"VEC3"},{"bufferView":6,"componentType":5126,"count":15094,"type":"VEC2"},{"bufferView":7,"componentType":5123,"count":50400,"type":"SCALAR"}],"bufferViews":[{"buffer":0,"byteLength":26592,"byteOffset":0,"target":34962},{"buffer":0,"byteLength":26592,"byteOffset":26592,"target":34962},{"buffer":0,"byteLength":17728,"byteOffset":53184,"target":34962},{"buffer":0,"byteLength":19656,"byteOffset":70912,"target":34963},{"buffer":0,"byteLength":181128,"byteOffset":90568,"target":34962},{"buffer":0,"byteLength":181128,"byteOffset":271696,"target":34962},{"buffer":0,"byteLength":120752,"byteOffset":452824,"target":34962},{"buffer":0,"byteLength":100800,"byteOffset":573576,"target":34963}],"samplers":[{"magFilter":9729,"minFilter":9987}],"buffers":[{"uri":"KL_LS_Fern_Clump.bin","byteLength":674376}]}