{"asset":{"generator":"Khronos glTF Blender I/O v5.2.40","version":"2.0"},"scene":0,"scenes":[{"name":"Scene","nodes":[0]}],"nodes":[{"mesh":0,"name":"TF3_KL_LS_Coconut_Juvenile_C_LOD1"}],"materials":[{"doubleSided":true,"name":"TF3_KL_Tender_Coconut_Green","pbrMetallicRoughness":{"baseColorFactor":[0.23499999940395355,0.36000001430511475,0.054999999701976776,1],"metallicFactor":0,"roughnessFactor":0.6200000047683716}},{"doubleSided":true,"name":"TF3_KL_Maturing_Coconut","pbrMetallicRoughness":{"baseColorFactor":[0.41999998688697815,0.3199999928474426,0.07000000029802322,1],"metallicFactor":0,"roughnessFactor":0.699999988079071}},{"doubleSided":true,"name":"TF3_KL_Petioles_Olive","pbrMetallicRoughness":{"baseColorFactor":[0.14000000059604645,0.20000000298023224,0.024000000208616257,1],"metallicFactor":0,"roughnessFactor":0.5799999833106995}},{"doubleSided":true,"name":"TF3_KL_Coconut_Scar_Rings","pbrMetallicRoughness":{"baseColorFactor":[0.18000000715255737,0.13500000536441803,0.07500000298023224,1],"metallicFactor":0,"roughnessFactor":0.949999988079071}},{"doubleSided":true,"name":"TF3_KL_Coconut_Frond","normalTexture":{"index":0,"scale":0.33000001311302185},"pbrMetallicRoughness":{"baseColorTexture":{"index":1},"metallicFactor":0,"roughnessFactor":0.47999998927116394}},{"doubleSided":true,"name":"TF3_KL_Coconut_Young_Lime","pbrMetallicRoughness":{"baseColorFactor":[0.12999999523162842,0.27000001072883606,0.029999999329447746,1],"metallicFactor":0,"roughnessFactor":0.47999998927116394}},{"doubleSided":true,"name":"TF3_KL_Coconut_Mature_Deep","pbrMetallicRoughness":{"baseColorFactor":[0.054999999701976776,0.1550000011920929,0.024000000208616257,1],"metallicFactor":0,"roughnessFactor":0.5400000214576721}},{"doubleSided":true,"name":"TF3_KL_Coconut_Leafscar_Bark","normalTexture":{"index":2,"scale":0.7200000286102295},"pbrMetallicRoughness":{"baseColorTexture":{"index":3},"metallicFactor":0,"roughnessFactor":0.9100000262260437}}],"meshes":[{"name":"Coconut_Fruit_Clusters_Mesh","primitives":[{"attributes":{"POSITION":0,"NORMAL":1,"TEXCOORD_0":2},"indices":3,"material":0},{"attributes":{"POSITION":4,"NORMAL":5,"TEXCOORD_0":6},"indices":7,"material":1},{"attributes":{"POSITION":8,"NORMAL":9,"TEXCOORD_0":10},"indices":11,"material":2},{"attributes":{"POSITION":12,"NORMAL":13,"TEXCOORD_0":14},"indices":15,"material":3},{"attributes":{"POSITION":16,"NORMAL":17,"TEXCOORD_0":18},"indices":19,"material":4},{"attributes":{"POSITION":20,"NORMAL":21,"TEXCOORD_0":22},"indices":23,"material":5},{"attributes":{"POSITION":24,"NORMAL":25,"TEXCOORD_0":26},"indices":27,"material":6},{"attributes":{"POSITION":28,"NORMAL":29,"TEXCOORD_0":30},"indices":31,"material":7}]}],"textures":[{"sampler":0,"source":0},{"sampler":0,"source":1},{"sampler":0,"source":2},{"sampler":0,"source":3}],"images":[{"name":"palm_leaf_normal","uri":"textures/19a21337d4e9b08d842f77f3f08f4c609ee2a2ffe1e7f058d48ba838dbd66f2f.png"},{"name":"palm_leaf_color","uri":"textures/172f2d5c2651cda7c39a84a1c43ee4c5aa89113488497e782b536732fca1655f.png"},{"name":"palm_bark_normal","uri":"textures/953b3804972092f96ef1980b3c8eff36a098957b202defe0887f9e1bfc0acf68.png"},{"name":"palm_bark_color","uri":"textures/9726c7d20d4ca71f66a288d74af174f949a3f94624d523c0f73d300eb1aebbc2.png"}],"accessors":[{"bufferView":0,"componentType":5126,"count":507,"max":[0.49154481291770935,2.147007465362549,0.39021095633506775],"min":[-0.3257908821105957,1.691928744316101,-0.4684440791606903],"type":"VEC3"},{"bufferView":1,"componentType":5126,"count":507,"type":"VEC3"},{"bufferView":2,"componentType":5126,"count":507,"type":"VEC2"},{"bufferView":3,"componentType":5123,"count":2304,"type":"SCALAR"},{"bufferView":4,"componentType":5126,"count":341,"max":[0.5576155185699463,2.147007703781128,0.42489099502563477],"min":[-0.17698270082473755,1.692312240600586,-0.30809032917022705],"type":"VEC3"},{"bufferView":5,"componentType":5126,"count":341,"type":"VEC3"},{"bufferView":6,"componentType":5126,"count":341,"type":"VEC2"},{"bufferView":7,"componentType":5123,"count":1524,"type":"SCALAR"},{"bufferView":8,"componentType":5126,"count":1753,"max":[2.6639745235443115,4.233173847198486,2.6836867332458496],"min":[-2.626387357711792,0.1231883242726326,-2.5847177505493164],"type":"VEC3"},{"bufferView":9,"componentType":5126,"count":1753,"type":"VEC3"},{"bufferView":10,"componentType":5126,"count":1753,"type":"VEC2"},{"bufferView":11,"componentType":5123,"count":7560,"type":"SCALAR"},{"bufferView":12,"componentType":5126,"count":600,"max":[0.224424347281456,2.2852680683135986,0.16927269101142883],"min":[-0.17192819714546204,0.08641833811998367,-0.17439749836921692],"type":"VEC3"},{"bufferView":13,"componentType":5126,"count":600,"type":"VEC3"},{"bufferView":14,"componentType":5126,"count":600,"type":"VEC2"},{"bufferView":15,"componentType":5123,"count":2406,"type":"SCALAR"},{"bufferView":16,"componentType":5126,"count":17588,"max":[2.708486318588257,4.280285358428955,2.7185590267181396],"min":[-2.6192944049835205,0.1313953995704651,-2.61071515083313],"type":"VEC3"},{"bufferView":17,"componentType":5126,"count":17588,"type":"VEC3"},{"bufferView":18,"componentType":5126,"count":17588,"type":"VEC2"},{"bufferView":19,"componentType":5123,"count":46404,"type":"SCALAR"},{"bufferView":20,"componentType":5126,"count":1103,"max":[2.483045816421509,4.258266448974609,2.458463668823242],"min":[-2.5005884170532227,1.615538239479065,-2.4163472652435303],"type":"VEC3"},{"bufferView":21,"componentType":5126,"count":1103,"type":"VEC3"},{"bufferView":22,"componentType":5126,"count":1103,"type":"VEC2"},{"bufferView":23,"componentType":5123,"count":2964,"type":"SCALAR"},{"bufferView":24,"componentType":5126,"count":1264,"max":[2.574096202850342,3.034860372543335,2.462404489517212],"min":[-2.596339464187622,0.20928384363651276,-2.2270991802215576],"type":"VEC3"},{"bufferView":25,"componentType":5126,"count":1264,"type":"VEC3"},{"bufferView":26,"componentType":5126,"count":1264,"type":"VEC2"},{"bufferView":27,"componentType":5123,"count":3354,"type":"SCALAR"},{"bufferView":28,"componentType":5126,"count":1350,"max":[0.5380092263221741,2.416248321533203,0.5496925711631775],"min":[-0.5413576364517212,0.00012023560702800751,-0.546801745891571],"type":"VEC3"},{"bufferView":29,"componentType":5126,"count":1350,"type":"VEC3"},{"bufferView":30,"componentType":5126,"count":1350,"type":"VEC2"},{"bufferView":31,"componentType":5123,"count":6768,"type":"SCALAR"}],"bufferViews":[{"buffer":0,"byteLength":6084,"byteOffset":0,"target":34962},{"buffer":0,"byteLength":6084,"byteOffset":6084,"target":34962},{"buffer":0,"byteLength":4056,"byteOffset":12168,"target":34962},{"buffer":0,"byteLength":4608,"byteOffset":16224,"target":34963},{"buffer":0,"byteLength":4092,"byteOffset":20832,"target":34962},{"buffer":0,"byteLength":4092,"byteOffset":24924,"target":34962},{"buffer":0,"byteLength":2728,"byteOffset":29016,"target":34962},{"buffer":0,"byteLength":3048,"byteOffset":31744,"target":34963},{"buffer":0,"byteLength":21036,"byteOffset":34792,"target":34962},{"buffer":0,"byteLength":21036,"byteOffset":55828,"target":34962},{"buffer":0,"byteLength":14024,"byteOffset":76864,"target":34962},{"buffer":0,"byteLength":15120,"byteOffset":90888,"target":34963},{"buffer":0,"byteLength":7200,"byteOffset":106008,"target":34962},{"buffer":0,"byteLength":7200,"byteOffset":113208,"target":34962},{"buffer":0,"byteLength":4800,"byteOffset":120408,"target":34962},{"buffer":0,"byteLength":4812,"byteOffset":125208,"target":34963},{"buffer":0,"byteLength":211056,"byteOffset":130020,"target":34962},{"buffer":0,"byteLength":211056,"byteOffset":341076,"target":34962},{"buffer":0,"byteLength":140704,"byteOffset":552132,"target":34962},{"buffer":0,"byteLength":92808,"byteOffset":692836,"target":34963},{"buffer":0,"byteLength":13236,"byteOffset":785644,"target":34962},{"buffer":0,"byteLength":13236,"byteOffset":798880,"target":34962},{"buffer":0,"byteLength":8824,"byteOffset":812116,"target":34962},{"buffer":0,"byteLength":5928,"byteOffset":820940,"target":34963},{"buffer":0,"byteLength":15168,"byteOffset":826868,"target":34962},{"buffer":0,"byteLength":15168,"byteOffset":842036,"target":34962},{"buffer":0,"byteLength":10112,"byteOffset":857204,"target":34962},{"buffer":0,"byteLength":6708,"byteOffset":867316,"target":34963},{"buffer":0,"byteLength":16200,"byteOffset":874024,"target":34962},{"buffer":0,"byteLength":16200,"byteOffset":890224,"target":34962},{"buffer":0,"byteLength":10800,"byteOffset":906424,"target":34962},{"buffer":0,"byteLength":13536,"byteOffset":917224,"target":34963}],"samplers":[{"magFilter":9729,"minFilter":9987}],"buffers":[{"uri":"KL_LS_Coconut_Juvenile_C_LOD1.bin","byteLength":930760}]}