{"asset":{"generator":"Khronos glTF Blender I/O v5.2.40","version":"2.0"},"scene":0,"scenes":[{"name":"Scene","nodes":[0]}],"nodes":[{"mesh":0,"name":"TF3_KL_LS_Paddy_Ripe_4m"}],"materials":[{"doubleSided":true,"name":"TF3_KL_Wet_Kuttanad_Soil","normalTexture":{"index":0,"scale":0.8999999761581421},"pbrMetallicRoughness":{"baseColorTexture":{"index":1},"metallicFactor":0,"roughnessFactor":0.949999988079071}},{"doubleSided":true,"name":"TF3_KL_Backwater_Olive","pbrMetallicRoughness":{"baseColorFactor":[0.03500000014901161,0.0949999988079071,0.0729999989271164,1],"metallicFactor":0,"roughnessFactor":0.17000000178813934}},{"doubleSided":true,"name":"TF3_KL_Rice_Ripe_Straw","pbrMetallicRoughness":{"baseColorFactor":[0.5299999713897705,0.41999998688697815,0.0949999988079071,1],"metallicFactor":0,"roughnessFactor":0.7799999713897705}},{"doubleSided":true,"name":"TF3_KL_Rice_Grain_Husk","pbrMetallicRoughness":{"baseColorFactor":[0.6499999761581421,0.49000000953674316,0.17000000178813934,1],"metallicFactor":0,"roughnessFactor":0.8399999737739563}},{"doubleSided":true,"name":"TF3_KL_Rice_Leaf_Lime","pbrMetallicRoughness":{"baseColorFactor":[0.33000001311302185,0.44999998807907104,0.04600000008940697,1],"metallicFactor":0,"roughnessFactor":0.6200000047683716}}],"meshes":[{"name":"Cube","primitives":[{"attributes":{"POSITION":0,"NORMAL":1,"TEXCOORD_0":2},"indices":3,"material":0},{"attributes":{"POSITION":4,"NORMAL":5,"TEXCOORD_0":6},"indices":3,"material":1},{"attributes":{"POSITION":7,"NORMAL":8,"TEXCOORD_0":9},"indices":10,"material":2},{"attributes":{"POSITION":11,"NORMAL":12,"TEXCOORD_0":13},"indices":14,"material":3},{"attributes":{"POSITION":15,"NORMAL":16,"TEXCOORD_0":17},"indices":18,"material":4}]}],"textures":[{"sampler":0,"source":0},{"sampler":0,"source":1}],"images":[{"name":"soil_normal","uri":"textures/0b922d28f65dc4ded68fc168d35866a7c1f643b95301ab3186acc35cf346c102.png"},{"name":"soil_color","uri":"textures/32378aa580762ab4a435dcc1ecb20ed1416f4e798055df4f878936a5008d4300.png"}],"accessors":[{"bufferView":0,"componentType":5126,"count":24,"max":[2,0.05000000074505806,2],"min":[-2,0,-2],"type":"VEC3"},{"bufferView":1,"componentType":5126,"count":24,"type":"VEC3"},{"bufferView":2,"componentType":5126,"count":24,"type":"VEC2"},{"bufferView":3,"componentType":5123,"count":36,"type":"SCALAR"},{"bufferView":4,"componentType":5126,"count":24,"max":[1.997499942779541,0.05950000137090683,1.997499942779541],"min":[-1.997499942779541,0.054499998688697815,-1.997499942779541],"type":"VEC3"},{"bufferView":5,"componentType":5126,"count":24,"type":"VEC3"},{"bufferView":6,"componentType":5126,"count":24,"type":"VEC2"},{"bufferView":7,"componentType":5126,"count":40712,"max":[2.5149803161621094,1.0149763822555542,2.5330471992492676],"min":[-2.4829611778259277,0.059384576976299286,-2.6264376640319824],"type":"VEC3"},{"bufferView":8,"componentType":5126,"count":40712,"type":"VEC3"},{"bufferView":9,"componentType":5126,"count":40712,"type":"VEC2"},{"bufferView":10,"componentType":5123,"count":136494,"type":"SCALAR"},{"bufferView":11,"componentType":5126,"count":120994,"max":[2.089296579360962,1.005766749382019,2.0920588970184326],"min":[-2.105942487716675,0.6273201704025269,-2.1123547554016113],"type":"VEC3"},{"bufferView":12,"componentType":5126,"count":120994,"type":"VEC3"},{"bufferView":13,"componentType":5126,"count":120994,"type":"VEC2"},{"bufferView":14,"componentType":5125,"count":194208,"type":"SCALAR"},{"bufferView":15,"componentType":5126,"count":11592,"max":[2.586528778076172,0.9984771013259888,2.520169258117676],"min":[-2.404362678527832,0.059400513768196106,-2.5528953075408936],"type":"VEC3"},{"bufferView":16,"componentType":5126,"count":11592,"type":"VEC3"},{"bufferView":17,"componentType":5126,"count":11592,"type":"VEC2"},{"bufferView":18,"componentType":5123,"count":38640,"type":"SCALAR"}],"bufferViews":[{"buffer":0,"byteLength":288,"byteOffset":0,"target":34962},{"buffer":0,"byteLength":288,"byteOffset":288,"target":34962},{"buffer":0,"byteLength":192,"byteOffset":576,"target":34962},{"buffer":0,"byteLength":72,"byteOffset":768,"target":34963},{"buffer":0,"byteLength":288,"byteOffset":840,"target":34962},{"buffer":0,"byteLength":288,"byteOffset":1128,"target":34962},{"buffer":0,"byteLength":192,"byteOffset":1416,"target":34962},{"buffer":0,"byteLength":488544,"byteOffset":1608,"target":34962},{"buffer":0,"byteLength":488544,"byteOffset":490152,"target":34962},{"buffer":0,"byteLength":325696,"byteOffset":978696,"target":34962},{"buffer":0,"byteLength":272988,"byteOffset":1304392,"target":34963},{"buffer":0,"byteLength":1451928,"byteOffset":1577380,"target":34962},{"buffer":0,"byteLength":1451928,"byteOffset":3029308,"target":34962},{"buffer":0,"byteLength":967952,"byteOffset":4481236,"target":34962},{"buffer":0,"byteLength":776832,"byteOffset":5449188,"target":34963},{"buffer":0,"byteLength":139104,"byteOffset":6226020,"target":34962},{"buffer":0,"byteLength":139104,"byteOffset":6365124,"target":34962},{"buffer":0,"byteLength":92736,"byteOffset":6504228,"target":34962},{"buffer":0,"byteLength":77280,"byteOffset":6596964,"target":34963}],"samplers":[{"magFilter":9729,"minFilter":9987}],"buffers":[{"uri":"KL_LS_Paddy_Ripe_4m.bin","byteLength":6674244}]}