{"asset":{"generator":"Khronos glTF Blender I/O v5.2.40","version":"2.0"},"scene":0,"scenes":[{"name":"Scene","nodes":[0]}],"nodes":[{"mesh":0,"name":"TF3_KL_LS_Rice_Tuft_Ripe"}],"materials":[{"doubleSided":true,"name":"TF3_KL_Rice_Ripe_Straw","pbrMetallicRoughness":{"baseColorFactor":[0.5299999713897705,0.41999998688697815,0.0949999988079071,1],"metallicFactor":0,"roughnessFactor":0.7799999713897705}},{"doubleSided":true,"name":"TF3_KL_Rice_Grain_Husk","pbrMetallicRoughness":{"baseColorFactor":[0.6499999761581421,0.49000000953674316,0.17000000178813934,1],"metallicFactor":0,"roughnessFactor":0.8399999737739563}}],"meshes":[{"name":"Rice_Bending_Panicles_Mesh","primitives":[{"attributes":{"POSITION":0,"NORMAL":1,"TEXCOORD_0":2},"indices":3,"material":0},{"attributes":{"POSITION":4,"NORMAL":5,"TEXCOORD_0":6},"indices":7,"material":1}]}],"accessors":[{"bufferView":0,"componentType":5126,"count":185,"max":[0.36618733406066895,0.7901527881622314,0.196293443441391],"min":[-0.3300028145313263,0,-0.49810177087783813],"type":"VEC3"},{"bufferView":1,"componentType":5126,"count":185,"type":"VEC3"},{"bufferView":2,"componentType":5126,"count":185,"type":"VEC2"},{"bufferView":3,"componentType":5123,"count":606,"type":"SCALAR"},{"bufferView":4,"componentType":5126,"count":417,"max":[0.02704920619726181,0.7809430360794067,0.18487349152565002],"min":[-0.19687174260616302,0.6761425733566284,-0.04338379204273224],"type":"VEC3"},{"bufferView":5,"componentType":5126,"count":417,"type":"VEC3"},{"bufferView":6,"componentType":5126,"count":417,"type":"VEC2"},{"bufferView":7,"componentType":5123,"count":672,"type":"SCALAR"}],"bufferViews":[{"buffer":0,"byteLength":2220,"byteOffset":0,"target":34962},{"buffer":0,"byteLength":2220,"byteOffset":2220,"target":34962},{"buffer":0,"byteLength":1480,"byteOffset":4440,"target":34962},{"buffer":0,"byteLength":1212,"byteOffset":5920,"target":34963},{"buffer":0,"byteLength":5004,"byteOffset":7132,"target":34962},{"buffer":0,"byteLength":5004,"byteOffset":12136,"target":34962},{"buffer":0,"byteLength":3336,"byteOffset":17140,"target":34962},{"buffer":0,"byteLength":1344,"byteOffset":20476,"target":34963}],"buffers":[{"uri":"KL_LS_Rice_Tuft_Ripe.bin","byteLength":21820}]}