{"asset":{"generator":"Khronos glTF Blender I/O v5.2.40","version":"2.0"},"scene":0,"scenes":[{"name":"Scene","nodes":[0]}],"nodes":[{"mesh":0,"name":"TF3_KL_LS_Coconut_Leaning_B_LOD2"}],"materials":[{"doubleSided":true,"name":"TF3_KL_Tender_Coconut_Green","pbrMetallicRoughness":{"baseColorFactor":[0.23499999940395355,0.36000001430511475,0.054999999701976776,1],"metallicFactor":0,"roughnessFactor":0.6200000047683716}},{"doubleSided":true,"name":"TF3_KL_Maturing_Coconut","pbrMetallicRoughness":{"baseColorFactor":[0.41999998688697815,0.3199999928474426,0.07000000029802322,1],"metallicFactor":0,"roughnessFactor":0.699999988079071}},{"doubleSided":true,"name":"TF3_KL_Petioles_Olive","pbrMetallicRoughness":{"baseColorFactor":[0.14000000059604645,0.20000000298023224,0.024000000208616257,1],"metallicFactor":0,"roughnessFactor":0.5799999833106995}},{"doubleSided":true,"name":"TF3_KL_Coconut_Scar_Rings","pbrMetallicRoughness":{"baseColorFactor":[0.18000000715255737,0.13500000536441803,0.07500000298023224,1],"metallicFactor":0,"roughnessFactor":0.949999988079071}},{"doubleSided":true,"name":"TF3_KL_Coconut_Frond","normalTexture":{"index":0,"scale":0.33000001311302185},"pbrMetallicRoughness":{"baseColorTexture":{"index":1},"metallicFactor":0,"roughnessFactor":0.47999998927116394}},{"doubleSided":true,"name":"TF3_KL_Coconut_Young_Lime","pbrMetallicRoughness":{"baseColorFactor":[0.12999999523162842,0.27000001072883606,0.029999999329447746,1],"metallicFactor":0,"roughnessFactor":0.47999998927116394}},{"doubleSided":true,"name":"TF3_KL_Coconut_Mature_Deep","pbrMetallicRoughness":{"baseColorFactor":[0.054999999701976776,0.1550000011920929,0.024000000208616257,1],"metallicFactor":0,"roughnessFactor":0.5400000214576721}},{"doubleSided":true,"name":"TF3_KL_Coconut_Old_Fawn","normalTexture":{"index":2,"scale":0.44999998807907104},"pbrMetallicRoughness":{"baseColorTexture":{"index":3},"metallicFactor":0,"roughnessFactor":0.8600000143051147}},{"doubleSided":true,"name":"TF3_KL_Coconut_Leafscar_Bark","normalTexture":{"index":4,"scale":0.7200000286102295},"pbrMetallicRoughness":{"baseColorTexture":{"index":5},"metallicFactor":0,"roughnessFactor":0.9100000262260437}}],"meshes":[{"name":"Coconut_Fruit_Clusters_Mesh","primitives":[{"attributes":{"POSITION":0,"NORMAL":1,"TEXCOORD_0":2},"indices":3,"material":0},{"attributes":{"POSITION":4,"NORMAL":5,"TEXCOORD_0":6},"indices":7,"material":1},{"attributes":{"POSITION":8,"NORMAL":9,"TEXCOORD_0":10},"indices":11,"material":2},{"attributes":{"POSITION":12,"NORMAL":13,"TEXCOORD_0":14},"indices":15,"material":3},{"attributes":{"POSITION":16,"NORMAL":17,"TEXCOORD_0":18},"indices":19,"material":4},{"attributes":{"POSITION":20,"NORMAL":21,"TEXCOORD_0":22},"indices":23,"material":5},{"attributes":{"POSITION":24,"NORMAL":25,"TEXCOORD_0":26},"indices":27,"material":6},{"attributes":{"POSITION":28,"NORMAL":29,"TEXCOORD_0":30},"indices":31,"material":7},{"attributes":{"POSITION":32,"NORMAL":33,"TEXCOORD_0":34},"indices":35,"material":8}]}],"textures":[{"sampler":0,"source":0},{"sampler":0,"source":1},{"sampler":0,"source":2},{"sampler":0,"source":3},{"sampler":0,"source":4},{"sampler":0,"source":5}],"images":[{"name":"palm_leaf_normal","uri":"textures/19a21337d4e9b08d842f77f3f08f4c609ee2a2ffe1e7f058d48ba838dbd66f2f.png"},{"name":"palm_leaf_color","uri":"textures/172f2d5c2651cda7c39a84a1c43ee4c5aa89113488497e782b536732fca1655f.png"},{"name":"dry_leaf_normal","uri":"textures/acc8763384432f4b145681dcbe939d8e99a371861f79270c8a650350e9128cdd.png"},{"name":"dry_leaf_color","uri":"textures/ae3af5890a00003c9094d5f6f171157e7ccedbac4a1b5d22f08ec9f6b5b9ad98.png"},{"name":"palm_bark_normal","uri":"textures/953b3804972092f96ef1980b3c8eff36a098957b202defe0887f9e1bfc0acf68.png"},{"name":"palm_bark_color","uri":"textures/9726c7d20d4ca71f66a288d74af174f949a3f94624d523c0f73d300eb1aebbc2.png"}],"accessors":[{"bufferView":0,"componentType":5126,"count":204,"max":[3.656531810760498,8.526947975158691,0.5474575757980347],"min":[2.474625825881958,7.866138935089111,-0.6413297653198242],"type":"VEC3"},{"bufferView":1,"componentType":5126,"count":204,"type":"VEC3"},{"bufferView":2,"componentType":5126,"count":204,"type":"VEC2"},{"bufferView":3,"componentType":5123,"count":786,"type":"SCALAR"},{"bufferView":4,"componentType":5126,"count":127,"max":[3.7139534950256348,8.526947975158691,0.6164987087249756],"min":[2.6825034618377686,7.943172454833984,-0.4973019063472748],"type":"VEC3"},{"bufferView":5,"componentType":5126,"count":127,"type":"VEC3"},{"bufferView":6,"componentType":5126,"count":127,"type":"VEC2"},{"bufferView":7,"componentType":5123,"count":480,"type":"SCALAR"},{"bufferView":8,"componentType":5126,"count":1041,"max":[7.180702209472656,11.600390434265137,4.228679180145264],"min":[-0.7910232543945312,5.260149002075195,-3.997199058532715],"type":"VEC3"},{"bufferView":9,"componentType":5126,"count":1041,"type":"VEC3"},{"bufferView":10,"componentType":5126,"count":1041,"type":"VEC2"},{"bufferView":11,"componentType":5123,"count":3942,"type":"SCALAR"},{"bufferView":12,"componentType":5126,"count":1411,"max":[3.214564085006714,8.658947944641113,0.2813540995121002],"min":[-0.2698323428630829,0.14065030217170715,-0.868901789188385],"type":"VEC3"},{"bufferView":13,"componentType":5126,"count":1411,"type":"VEC3"},{"bufferView":14,"componentType":5126,"count":1411,"type":"VEC2"},{"bufferView":15,"componentType":5123,"count":5016,"type":"SCALAR"},{"bufferView":16,"componentType":5126,"count":13914,"max":[7.1114277839660645,11.627473831176758,4.192026138305664],"min":[-0.7605618834495544,5.746862411499023,-3.959977388381958],"type":"VEC3"},{"bufferView":17,"componentType":5126,"count":13914,"type":"VEC3"},{"bufferView":18,"componentType":5126,"count":13914,"type":"VEC2"},{"bufferView":19,"componentType":5123,"count":24756,"type":"SCALAR"},{"bufferView":20,"componentType":5126,"count":571,"max":[6.750644683837891,11.602251052856445,3.833019971847534],"min":[-0.6316697001457214,8.147858619689941,-3.639075756072998],"type":"VEC3"},{"bufferView":21,"componentType":5126,"count":571,"type":"VEC3"},{"bufferView":22,"componentType":5126,"count":571,"type":"VEC2"},{"bufferView":23,"componentType":5123,"count":1137,"type":"SCALAR"},{"bufferView":24,"componentType":5126,"count":1262,"max":[7.0617146492004395,10.234122276306152,4.044877529144287],"min":[-0.6492594480514526,5.816483020782471,-3.8932430744171143],"type":"VEC3"},{"bufferView":25,"componentType":5126,"count":1262,"type":"VEC3"},{"bufferView":26,"componentType":5126,"count":1262,"type":"VEC2"},{"bufferView":27,"componentType":5123,"count":2262,"type":"SCALAR"},{"bufferView":28,"componentType":5126,"count":605,"max":[7.235164165496826,8.481133460998535,1.814079761505127],"min":[3.8161427974700928,5.302492141723633,-0.2408735305070877],"type":"VEC3"},{"bufferView":29,"componentType":5126,"count":605,"type":"VEC3"},{"bufferView":30,"componentType":5126,"count":605,"type":"VEC2"},{"bufferView":31,"componentType":5123,"count":1071,"type":"SCALAR"},{"bufferView":32,"componentType":5126,"count":548,"max":[3.231494665145874,8.849626541137695,0.5493392944335938],"min":[-0.5492750406265259,-0.0006342828273773193,-0.8615756034851074],"type":"VEC3"},{"bufferView":33,"componentType":5126,"count":548,"type":"VEC3"},{"bufferView":34,"componentType":5126,"count":548,"type":"VEC2"},{"bufferView":35,"componentType":5123,"count":2490,"type":"SCALAR"}],"bufferViews":[{"buffer":0,"byteLength":2448,"byteOffset":0,"target":34962},{"buffer":0,"byteLength":2448,"byteOffset":2448,"target":34962},{"buffer":0,"byteLength":1632,"byteOffset":4896,"target":34962},{"buffer":0,"byteLength":1572,"byteOffset":6528,"target":34963},{"buffer":0,"byteLength":1524,"byteOffset":8100,"target":34962},{"buffer":0,"byteLength":1524,"byteOffset":9624,"target":34962},{"buffer":0,"byteLength":1016,"byteOffset":11148,"target":34962},{"buffer":0,"byteLength":960,"byteOffset":12164,"target":34963},{"buffer":0,"byteLength":12492,"byteOffset":13124,"target":34962},{"buffer":0,"byteLength":12492,"byteOffset":25616,"target":34962},{"buffer":0,"byteLength":8328,"byteOffset":38108,"target":34962},{"buffer":0,"byteLength":7884,"byteOffset":46436,"target":34963},{"buffer":0,"byteLength":16932,"byteOffset":54320,"target":34962},{"buffer":0,"byteLength":16932,"byteOffset":71252,"target":34962},{"buffer":0,"byteLength":11288,"byteOffset":88184,"target":34962},{"buffer":0,"byteLength":10032,"byteOffset":99472,"target":34963},{"buffer":0,"byteLength":166968,"byteOffset":109504,"target":34962},{"buffer":0,"byteLength":166968,"byteOffset":276472,"target":34962},{"buffer":0,"byteLength":111312,"byteOffset":443440,"target":34962},{"buffer":0,"byteLength":49512,"byteOffset":554752,"target":34963},{"buffer":0,"byteLength":6852,"byteOffset":604264,"target":34962},{"buffer":0,"byteLength":6852,"byteOffset":611116,"target":34962},{"buffer":0,"byteLength":4568,"byteOffset":617968,"target":34962},{"buffer":0,"byteLength":2274,"byteOffset":622536,"target":34963},{"buffer":0,"byteLength":15144,"byteOffset":624812,"target":34962},{"buffer":0,"byteLength":15144,"byteOffset":639956,"target":34962},{"buffer":0,"byteLength":10096,"byteOffset":655100,"target":34962},{"buffer":0,"byteLength":4524,"byteOffset":665196,"target":34963},{"buffer":0,"byteLength":7260,"byteOffset":669720,"target":34962},{"buffer":0,"byteLength":7260,"byteOffset":676980,"target":34962},{"buffer":0,"byteLength":4840,"byteOffset":684240,"target":34962},{"buffer":0,"byteLength":2142,"byteOffset":689080,"target":34963},{"buffer":0,"byteLength":6576,"byteOffset":691224,"target":34962},{"buffer":0,"byteLength":6576,"byteOffset":697800,"target":34962},{"buffer":0,"byteLength":4384,"byteOffset":704376,"target":34962},{"buffer":0,"byteLength":4980,"byteOffset":708760,"target":34963}],"samplers":[{"magFilter":9729,"minFilter":9987}],"buffers":[{"uri":"KL_LS_Coconut_Leaning_B_LOD2.bin","byteLength":713740}]}