{"asset":{"generator":"Khronos glTF Blender I/O v5.2.40","version":"2.0"},"scene":0,"scenes":[{"name":"Scene","nodes":[0]}],"nodes":[{"mesh":0,"name":"TF3_KL_LS_Water_Hyacinth_Raft"}],"materials":[{"doubleSided":true,"name":"TF3_KL_Boat_Caulking","pbrMetallicRoughness":{"baseColorFactor":[0.04399999976158142,0.02800000086426735,0.017999999225139618,1],"metallicFactor":0,"roughnessFactor":0.8999999761581421}},{"doubleSided":true,"name":"TF3_KL_Water_Hyacinth_Flower_Eye","pbrMetallicRoughness":{"baseColorFactor":[0.6800000071525574,0.44999998807907104,0.07999999821186066,1],"metallicFactor":0,"roughnessFactor":0.550000011920929}},{"doubleSided":true,"name":"TF3_KL_Water_Hyacinth_Waxy_Green","pbrMetallicRoughness":{"baseColorFactor":[0.054999999701976776,0.2199999988079071,0.03799999877810478,1],"metallicFactor":0,"roughnessFactor":0.36000001430511475}},{"doubleSided":true,"name":"TF3_KL_Water_Hyacinth_Lilac","pbrMetallicRoughness":{"baseColorFactor":[0.33000001311302185,0.12999999523162842,0.47999998927116394,1],"metallicFactor":0,"roughnessFactor":0.5799999833106995}}],"meshes":[{"name":"Hyacinth_Dangling_Rootlets_Mesh","primitives":[{"attributes":{"POSITION":0,"NORMAL":1,"TEXCOORD_0":2},"indices":3,"material":0},{"attributes":{"POSITION":4,"NORMAL":5,"TEXCOORD_0":6},"indices":7,"material":1},{"attributes":{"POSITION":8,"NORMAL":9,"TEXCOORD_0":10},"indices":11,"material":2},{"attributes":{"POSITION":12,"NORMAL":13,"TEXCOORD_0":14},"indices":15,"material":3}]}],"accessors":[{"bufferView":0,"componentType":5126,"count":1901,"max":[0.3915911912918091,0.11074483394622803,0.41860491037368774],"min":[-0.4017243981361389,0,-0.45447129011154175],"type":"VEC3"},{"bufferView":1,"componentType":5126,"count":1901,"type":"VEC3"},{"bufferView":2,"componentType":5126,"count":1901,"type":"VEC2"},{"bufferView":3,"componentType":5123,"count":4536,"type":"SCALAR"},{"bufferView":4,"componentType":5126,"count":684,"max":[0.3921607732772827,0.6084073185920715,0.15784704685211182],"min":[-0.08042839169502258,0.38640734553337097,-0.14313070476055145],"type":"VEC3"},{"bufferView":5,"componentType":5126,"count":684,"type":"VEC3"},{"bufferView":6,"componentType":5126,"count":684,"type":"VEC2"},{"bufferView":7,"componentType":5123,"count":2268,"type":"SCALAR"},{"bufferView":8,"componentType":5126,"count":11230,"max":[0.6200159788131714,0.5703665018081665,0.6534779071807861],"min":[-0.616368293762207,0.09324406087398529,-0.6865738034248352],"type":"VEC3"},{"bufferView":9,"componentType":5126,"count":11230,"type":"VEC3"},{"bufferView":10,"componentType":5126,"count":11230,"type":"VEC2"},{"bufferView":11,"componentType":5123,"count":40500,"type":"SCALAR"},{"bufferView":12,"componentType":5126,"count":1569,"max":[0.4361492395401001,0.6204662322998047,0.207200288772583],"min":[-0.12557663023471832,0.3194291293621063,-0.1934685856103897],"type":"VEC3"},{"bufferView":13,"componentType":5126,"count":1569,"type":"VEC3"},{"bufferView":14,"componentType":5126,"count":1569,"type":"VEC2"},{"bufferView":15,"componentType":5123,"count":5184,"type":"SCALAR"}],"bufferViews":[{"buffer":0,"byteLength":22812,"byteOffset":0,"target":34962},{"buffer":0,"byteLength":22812,"byteOffset":22812,"target":34962},{"buffer":0,"byteLength":15208,"byteOffset":45624,"target":34962},{"buffer":0,"byteLength":9072,"byteOffset":60832,"target":34963},{"buffer":0,"byteLength":8208,"byteOffset":69904,"target":34962},{"buffer":0,"byteLength":8208,"byteOffset":78112,"target":34962},{"buffer":0,"byteLength":5472,"byteOffset":86320,"target":34962},{"buffer":0,"byteLength":4536,"byteOffset":91792,"target":34963},{"buffer":0,"byteLength":134760,"byteOffset":96328,"target":34962},{"buffer":0,"byteLength":134760,"byteOffset":231088,"target":34962},{"buffer":0,"byteLength":89840,"byteOffset":365848,"target":34962},{"buffer":0,"byteLength":81000,"byteOffset":455688,"target":34963},{"buffer":0,"byteLength":18828,"byteOffset":536688,"target":34962},{"buffer":0,"byteLength":18828,"byteOffset":555516,"target":34962},{"buffer":0,"byteLength":12552,"byteOffset":574344,"target":34962},{"buffer":0,"byteLength":10368,"byteOffset":586896,"target":34963}],"buffers":[{"uri":"KL_LS_Water_Hyacinth_Raft.bin","byteLength":597264}]}