{"asset":{"generator":"Khronos glTF Blender I/O v5.2.40","version":"2.0"},"scene":0,"scenes":[{"name":"Scene","nodes":[0]}],"nodes":[{"mesh":0,"name":"TF3_KL_LS_Banana_Clump"}],"materials":[{"doubleSided":true,"name":"TF3_KL_Banana_Dried_Floral_Tips","pbrMetallicRoughness":{"baseColorFactor":[0.04699999839067459,0.03400000184774399,0.017999999225139618,1],"metallicFactor":0,"roughnessFactor":0.8799999952316284}},{"doubleSided":true,"name":"TF3_KL_Coconut_Old_Fawn","normalTexture":{"index":0,"scale":0.44999998807907104},"pbrMetallicRoughness":{"baseColorTexture":{"index":1},"metallicFactor":0,"roughnessFactor":0.8600000143051147}},{"doubleSided":true,"name":"TF3_KL_Petioles_Olive","pbrMetallicRoughness":{"baseColorFactor":[0.14000000059604645,0.20000000298023224,0.024000000208616257,1],"metallicFactor":0,"roughnessFactor":0.5799999833106995}},{"doubleSided":true,"name":"TF3_KL_Colocasia_Pale_Veins","pbrMetallicRoughness":{"baseColorFactor":[0.27000001072883606,0.4099999964237213,0.10499999672174454,1],"metallicFactor":0,"roughnessFactor":0.6100000143051147}},{"doubleSided":true,"name":"TF3_KL_Banana_Heart_Burgundy","pbrMetallicRoughness":{"baseColorFactor":[0.2199999988079071,0.02800000086426735,0.0689999982714653,1],"metallicFactor":0,"roughnessFactor":0.49000000953674316}},{"doubleSided":true,"name":"TF3_KL_Banana_Overlapping_Bracts","pbrMetallicRoughness":{"baseColorFactor":[0.2800000011920929,0.03500000014901161,0.07800000160932541,1],"metallicFactor":0,"roughnessFactor":0.5}},{"doubleSided":true,"name":"TF3_KL_Banana_Waxy_Sheaths","pbrMetallicRoughness":{"baseColorFactor":[0.1899999976158142,0.30000001192092896,0.06700000166893005,1],"metallicFactor":0,"roughnessFactor":0.5799999833106995}},{"doubleSided":true,"name":"TF3_KL_Banana_Older_Sheath","pbrMetallicRoughness":{"baseColorFactor":[0.27000001072883606,0.1599999964237213,0.09000000357627869,1],"metallicFactor":0,"roughnessFactor":0.8299999833106995}},{"doubleSided":true,"name":"TF3_KL_Banana_Veined_Blade","normalTexture":{"index":2,"scale":0.30000001192092896},"pbrMetallicRoughness":{"baseColorTexture":{"index":3},"metallicFactor":0,"roughnessFactor":0.5099999904632568}},{"doubleSided":true,"name":"TF3_KL_Coconut_Young_Lime","pbrMetallicRoughness":{"baseColorFactor":[0.12999999523162842,0.27000001072883606,0.029999999329447746,1],"metallicFactor":0,"roughnessFactor":0.47999998927116394}},{"doubleSided":true,"name":"TF3_KL_Banana_Unripe_Fruit","pbrMetallicRoughness":{"baseColorFactor":[0.36000001430511475,0.4699999988079071,0.06300000101327896,1],"metallicFactor":0,"roughnessFactor":0.4699999988079071}}],"meshes":[{"name":"Banana_Dried_Floral_Remnants_Mesh","primitives":[{"attributes":{"POSITION":0,"NORMAL":1,"TEXCOORD_0":2},"indices":3,"material":0},{"attributes":{"POSITION":4,"NORMAL":5,"TEXCOORD_0":6},"indices":7,"material":1},{"attributes":{"POSITION":8,"NORMAL":9,"TEXCOORD_0":10},"indices":11,"material":2},{"attributes":{"POSITION":12,"NORMAL":13,"TEXCOORD_0":14},"indices":15,"material":3},{"attributes":{"POSITION":16,"NORMAL":17,"TEXCOORD_0":18},"indices":19,"material":4},{"attributes":{"POSITION":20,"NORMAL":21,"TEXCOORD_0":22},"indices":23,"material":5},{"attributes":{"POSITION":24,"NORMAL":25,"TEXCOORD_0":26},"indices":27,"material":6},{"attributes":{"POSITION":28,"NORMAL":29,"TEXCOORD_0":30},"indices":31,"material":7},{"attributes":{"POSITION":32,"NORMAL":33,"TEXCOORD_0":34},"indices":35,"material":8},{"attributes":{"POSITION":36,"NORMAL":37,"TEXCOORD_0":38},"indices":39,"material":9},{"attributes":{"POSITION":40,"NORMAL":41,"TEXCOORD_0":42},"indices":43,"material":10}]}],"textures":[{"sampler":0,"source":0},{"sampler":0,"source":1},{"sampler":0,"source":2},{"sampler":0,"source":3}],"images":[{"name":"dry_leaf_normal","uri":"textures/acc8763384432f4b145681dcbe939d8e99a371861f79270c8a650350e9128cdd.png"},{"name":"dry_leaf_color","uri":"textures/ae3af5890a00003c9094d5f6f171157e7ccedbac4a1b5d22f08ec9f6b5b9ad98.png"},{"name":"banana_leaf_normal","uri":"textures/d215c6740bc4068ca130a321263a5866d82f3be738a99ca1fe8f925dff250938.png"},{"name":"banana_leaf_color","uri":"textures/93a4de62a5a4a8602b4d6e87470003c248b18c7e710a04b6d73677497c1707ec.png"}],"accessors":[{"bufferView":0,"componentType":5126,"count":1153,"max":[0.3920219838619232,2.4104690551757812,0.23176516592502594],"min":[0.16817273199558258,1.8756924867630005,0.008040483109652996],"type":"VEC3"},{"bufferView":1,"componentType":5126,"count":1153,"type":"VEC3"},{"bufferView":2,"componentType":5126,"count":1153,"type":"VEC2"},{"bufferView":3,"componentType":5123,"count":2700,"type":"SCALAR"},{"bufferView":4,"componentType":5126,"count":103,"max":[1.0800000429153442,0.1395578533411026,1.0714727640151978],"min":[-0.9546661972999573,0.008464544080197811,-1.0111714601516724],"type":"VEC3"},{"bufferView":5,"componentType":5126,"count":103,"type":"VEC3"},{"bufferView":6,"componentType":5126,"count":103,"type":"VEC2"},{"bufferView":7,"componentType":5123,"count":360,"type":"SCALAR"},{"bufferView":8,"componentType":5126,"count":6441,"max":[2.7452523708343506,4.158894062042236,2.2974436283111572],"min":[-2.5024311542510986,0.7493347525596619,-2.598198413848877],"type":"VEC3"},{"bufferView":9,"componentType":5126,"count":6441,"type":"VEC3"},{"bufferView":10,"componentType":5126,"count":6441,"type":"VEC2"},{"bufferView":11,"componentType":5123,"count":28740,"type":"SCALAR"},{"bufferView":12,"componentType":5126,"count":22182,"max":[2.583465099334717,4.1594414710998535,2.260871648788452],"min":[-2.3689141273498535,0.7801332473754883,-2.491265296936035],"type":"VEC3"},{"bufferView":13,"componentType":5126,"count":22182,"type":"VEC3"},{"bufferView":14,"componentType":5126,"count":22182,"type":"VEC2"},{"bufferView":15,"componentType":5123,"count":52164,"type":"SCALAR"},{"bufferView":16,"componentType":5126,"count":616,"max":[0.42770230770111084,1.3675000667572021,0.23294898867607117],"min":[0.21821972727775574,0.9375,0.00925905629992485],"type":"VEC3"},{"bufferView":17,"componentType":5126,"count":616,"type":"VEC3"},{"bufferView":18,"componentType":5126,"count":616,"type":"VEC2"},{"bufferView":19,"componentType":5123,"count":3060,"type":"SCALAR"},{"bufferView":20,"componentType":5126,"count":93,"max":[0.4217802584171295,1.3416999578475952,0.23074094951152802],"min":[0.21229767799377441,0.9632999897003174,0.0070510134100914],"type":"VEC3"},{"bufferView":21,"componentType":5126,"count":93,"type":"VEC3"},{"bufferView":22,"componentType":5126,"count":93,"type":"VEC2"},{"bufferView":23,"componentType":5123,"count":324,"type":"SCALAR"},{"bufferView":24,"componentType":5126,"count":1261,"max":[0.7342294454574585,3.155426025390625,0.1799207180738449],"min":[-0.824335515499115,0,-0.6772692799568176],"type":"VEC3"},{"bufferView":25,"componentType":5126,"count":1261,"type":"VEC3"},{"bufferView":26,"componentType":5126,"count":1261,"type":"VEC2"},{"bufferView":27,"componentType":5123,"count":5904,"type":"SCALAR"},{"bufferView":28,"componentType":5126,"count":405,"max":[0.7487581968307495,2.579033374786377,0.19879116117954254],"min":[-0.816523551940918,0,-0.6717601418495178],"type":"VEC3"},{"bufferView":29,"componentType":5126,"count":405,"type":"VEC3"},{"bufferView":30,"componentType":5126,"count":405,"type":"VEC2"},{"bufferView":31,"componentType":5123,"count":1440,"type":"SCALAR"},{"bufferView":32,"componentType":5126,"count":7911,"max":[2.743868350982666,4.150321960449219,2.2958383560180664],"min":[-2.500882625579834,0.7081072330474854,-2.596658945083618],"type":"VEC3"},{"bufferView":33,"componentType":5126,"count":7911,"type":"VEC3"},{"bufferView":34,"componentType":5126,"count":7911,"type":"VEC2"},{"bufferView":35,"componentType":5123,"count":27216,"type":"SCALAR"},{"bufferView":36,"componentType":5126,"count":72,"max":[0.7953605651855469,4.66480016708374,0.00899442471563816],"min":[-0.6092578172683716,1.1139999628067017,-0.5201960802078247],"type":"VEC3"},{"bufferView":37,"componentType":5126,"count":72,"type":"VEC3"},{"bufferView":38,"componentType":5126,"count":72,"type":"VEC2"},{"bufferView":39,"componentType":5123,"count":252,"type":"SCALAR"},{"bufferView":40,"componentType":5126,"count":9291,"max":[0.46699315309524536,2.4055368900299072,0.3069758713245392],"min":[0.09301448613405228,1.691286325454712,-0.06699125468730927],"type":"VEC3"},{"bufferView":41,"componentType":5126,"count":9291,"type":"VEC3"},{"bufferView":42,"componentType":5126,"count":9291,"type":"VEC2"},{"bufferView":43,"componentType":5123,"count":45360,"type":"SCALAR"}],"bufferViews":[{"buffer":0,"byteLength":13836,"byteOffset":0,"target":34962},{"buffer":0,"byteLength":13836,"byteOffset":13836,"target":34962},{"buffer":0,"byteLength":9224,"byteOffset":27672,"target":34962},{"buffer":0,"byteLength":5400,"byteOffset":36896,"target":34963},{"buffer":0,"byteLength":1236,"byteOffset":42296,"target":34962},{"buffer":0,"byteLength":1236,"byteOffset":43532,"target":34962},{"buffer":0,"byteLength":824,"byteOffset":44768,"target":34962},{"buffer":0,"byteLength":720,"byteOffset":45592,"target":34963},{"buffer":0,"byteLength":77292,"byteOffset":46312,"target":34962},{"buffer":0,"byteLength":77292,"byteOffset":123604,"target":34962},{"buffer":0,"byteLength":51528,"byteOffset":200896,"target":34962},{"buffer":0,"byteLength":57480,"byteOffset":252424,"target":34963},{"buffer":0,"byteLength":266184,"byteOffset":309904,"target":34962},{"buffer":0,"byteLength":266184,"byteOffset":576088,"target":34962},{"buffer":0,"byteLength":177456,"byteOffset":842272,"target":34962},{"buffer":0,"byteLength":104328,"byteOffset":1019728,"target":34963},{"buffer":0,"byteLength":7392,"byteOffset":1124056,"target":34962},{"buffer":0,"byteLength":7392,"byteOffset":1131448,"target":34962},{"buffer":0,"byteLength":4928,"byteOffset":1138840,"target":34962},{"buffer":0,"byteLength":6120,"byteOffset":1143768,"target":34963},{"buffer":0,"byteLength":1116,"byteOffset":1149888,"target":34962},{"buffer":0,"byteLength":1116,"byteOffset":1151004,"target":34962},{"buffer":0,"byteLength":744,"byteOffset":1152120,"target":34962},{"buffer":0,"byteLength":648,"byteOffset":1152864,"target":34963},{"buffer":0,"byteLength":15132,"byteOffset":1153512,"target":34962},{"buffer":0,"byteLength":15132,"byteOffset":1168644,"target":34962},{"buffer":0,"byteLength":10088,"byteOffset":1183776,"target":34962},{"buffer":0,"byteLength":11808,"byteOffset":1193864,"target":34963},{"buffer":0,"byteLength":4860,"byteOffset":1205672,"target":34962},{"buffer":0,"byteLength":4860,"byteOffset":1210532,"target":34962},{"buffer":0,"byteLength":3240,"byteOffset":1215392,"target":34962},{"buffer":0,"byteLength":2880,"byteOffset":1218632,"target":34963},{"buffer":0,"byteLength":94932,"byteOffset":1221512,"target":34962},{"buffer":0,"byteLength":94932,"byteOffset":1316444,"target":34962},{"buffer":0,"byteLength":63288,"byteOffset":1411376,"target":34962},{"buffer":0,"byteLength":54432,"byteOffset":1474664,"target":34963},{"buffer":0,"byteLength":864,"byteOffset":1529096,"target":34962},{"buffer":0,"byteLength":864,"byteOffset":1529960,"target":34962},{"buffer":0,"byteLength":576,"byteOffset":1530824,"target":34962},{"buffer":0,"byteLength":504,"byteOffset":1531400,"target":34963},{"buffer":0,"byteLength":111492,"byteOffset":1531904,"target":34962},{"buffer":0,"byteLength":111492,"byteOffset":1643396,"target":34962},{"buffer":0,"byteLength":74328,"byteOffset":1754888,"target":34962},{"buffer":0,"byteLength":90720,"byteOffset":1829216,"target":34963}],"samplers":[{"magFilter":9729,"minFilter":9987}],"buffers":[{"uri":"KL_LS_Banana_Clump.bin","byteLength":1919936}]}