{"asset":{"generator":"Khronos glTF Blender I/O v5.2.40","version":"2.0"},"scene":0,"scenes":[{"name":"Scene","nodes":[0]}],"nodes":[{"mesh":0,"name":"TF3_KL_LS_Pandanus_Clump"}],"materials":[{"doubleSided":true,"name":"TF3_KL_Pandanus_Linear_Blade","normalTexture":{"index":0,"scale":0.27000001072883606},"pbrMetallicRoughness":{"baseColorTexture":{"index":1},"metallicFactor":0,"roughnessFactor":0.49000000953674316}},{"doubleSided":true,"name":"TF3_KL_Coconut_Leafscar_Bark","normalTexture":{"index":2,"scale":0.7200000286102295},"pbrMetallicRoughness":{"baseColorTexture":{"index":3},"metallicFactor":0,"roughnessFactor":0.9100000262260437}}],"meshes":[{"name":"Pandanus_Marginal_Teeth_Mesh","primitives":[{"attributes":{"POSITION":0,"NORMAL":1,"TEXCOORD_0":2},"indices":3,"material":0},{"attributes":{"POSITION":4,"NORMAL":5,"TEXCOORD_0":6},"indices":7,"material":1}]}],"textures":[{"sampler":0,"source":0},{"sampler":0,"source":1},{"sampler":0,"source":2},{"sampler":0,"source":3}],"images":[{"name":"palm_leaf_normal","uri":"textures/19a21337d4e9b08d842f77f3f08f4c609ee2a2ffe1e7f058d48ba838dbd66f2f.png"},{"name":"palm_leaf_color","uri":"textures/172f2d5c2651cda7c39a84a1c43ee4c5aa89113488497e782b536732fca1655f.png"},{"name":"palm_bark_normal","uri":"textures/953b3804972092f96ef1980b3c8eff36a098957b202defe0887f9e1bfc0acf68.png"},{"name":"palm_bark_color","uri":"textures/9726c7d20d4ca71f66a288d74af174f949a3f94624d523c0f73d300eb1aebbc2.png"}],"accessors":[{"bufferView":0,"componentType":5126,"count":19656,"max":[1.4920567274093628,2.4787139892578125,1.471063256263733],"min":[-1.303377628326416,0.1607421189546585,-1.2841176986694336],"type":"VEC3"},{"bufferView":1,"componentType":5126,"count":19656,"type":"VEC3"},{"bufferView":2,"componentType":5126,"count":19656,"type":"VEC2"},{"bufferView":3,"componentType":5123,"count":29484,"type":"SCALAR"},{"bufferView":4,"componentType":5126,"count":1093,"max":[0.6949630975723267,1.1790940761566162,0.4901160001754761],"min":[-0.6587957739830017,0,-0.6230407953262329],"type":"VEC3"},{"bufferView":5,"componentType":5126,"count":1093,"type":"VEC3"},{"bufferView":6,"componentType":5126,"count":1093,"type":"VEC2"},{"bufferView":7,"componentType":5123,"count":3348,"type":"SCALAR"}],"bufferViews":[{"buffer":0,"byteLength":235872,"byteOffset":0,"target":34962},{"buffer":0,"byteLength":235872,"byteOffset":235872,"target":34962},{"buffer":0,"byteLength":157248,"byteOffset":471744,"target":34962},{"buffer":0,"byteLength":58968,"byteOffset":628992,"target":34963},{"buffer":0,"byteLength":13116,"byteOffset":687960,"target":34962},{"buffer":0,"byteLength":13116,"byteOffset":701076,"target":34962},{"buffer":0,"byteLength":8744,"byteOffset":714192,"target":34962},{"buffer":0,"byteLength":6696,"byteOffset":722936,"target":34963}],"samplers":[{"magFilter":9729,"minFilter":9987}],"buffers":[{"uri":"KL_LS_Pandanus_Clump.bin","byteLength":729632}]}