{"asset":{"generator":"Khronos glTF Blender I/O v5.2.40","version":"2.0"},"scene":0,"scenes":[{"name":"Scene","nodes":[0]}],"nodes":[{"mesh":0,"name":"TF3_KL_LS_Country_Canoe"}],"materials":[{"doubleSided":true,"name":"TF3_KL_Coir_Fibre","normalTexture":{"index":0,"scale":0.7799999713897705},"pbrMetallicRoughness":{"baseColorTexture":{"index":1},"metallicFactor":0,"roughnessFactor":0.9399999976158142}},{"doubleSided":true,"name":"TF3_KL_Boat_Caulking","pbrMetallicRoughness":{"baseColorFactor":[0.04399999976158142,0.02800000086426735,0.017999999225139618,1],"metallicFactor":0,"roughnessFactor":0.8999999761581421}},{"doubleSided":true,"name":"TF3_KL_Boat_Worn_Gunwale","pbrMetallicRoughness":{"baseColorFactor":[0.2800000011920929,0.1599999964237213,0.07199999690055847,1],"metallicFactor":0,"roughnessFactor":0.7400000095367432}},{"doubleSided":true,"name":"TF3_KL_Weathered_Countryboat_Timber","normalTexture":{"index":2,"scale":0.7200000286102295},"pbrMetallicRoughness":{"baseColorTexture":{"index":3},"metallicFactor":0,"roughnessFactor":0.7099999785423279}}],"meshes":[{"name":"Canoe_Bow_Coir_Mooring_Line_Mesh","primitives":[{"attributes":{"POSITION":0,"NORMAL":1,"TEXCOORD_0":2},"indices":3,"material":0},{"attributes":{"POSITION":4,"NORMAL":5,"TEXCOORD_0":6},"indices":7,"material":1},{"attributes":{"POSITION":8,"NORMAL":9,"TEXCOORD_0":10},"indices":11,"material":2},{"attributes":{"POSITION":12,"NORMAL":13,"TEXCOORD_0":14},"indices":15,"material":3}]}],"textures":[{"sampler":0,"source":0},{"sampler":0,"source":1},{"sampler":0,"source":2},{"sampler":0,"source":3}],"images":[{"name":"coir_normal","uri":"textures/177ae93a2169204f4053c3385d3a67181127b602931f0079e43bfaa1c2b5f52a.png"},{"name":"coir_color","uri":"textures/4502b7608c886b4a95c039717823383bb39d8726518502d6c143cebd33e8d557.png"},{"name":"canoe_wood_normal","uri":"textures/b6215d0c685a20eeb47065db987a93bbfe925b3b48a2c99e2f23b7106679dfc0.png"},{"name":"canoe_wood_color","uri":"textures/ab2299cd45bfee66c5fa255b967b883a96e97947e55ff3b854270402d5f416c7.png"}],"accessors":[{"bufferView":0,"componentType":5126,"count":883,"max":[2.4102468490600586,0.6080204248428345,0.49061673879623413],"min":[1.767085313796997,0.041855134069919586,-0.17684471607208252],"type":"VEC3"},{"bufferView":1,"componentType":5126,"count":883,"type":"VEC3"},{"bufferView":2,"componentType":5126,"count":883,"type":"VEC2"},{"bufferView":3,"componentType":5123,"count":4416,"type":"SCALAR"},{"bufferView":4,"componentType":5126,"count":3511,"max":[2.902822732925415,0.5827886462211609,0.4739653766155243],"min":[-2.902822732925415,0.020502455532550812,-0.4739653766155243],"type":"VEC3"},{"bufferView":5,"componentType":5126,"count":3511,"type":"VEC3"},{"bufferView":6,"componentType":5126,"count":3511,"type":"VEC2"},{"bufferView":7,"componentType":5123,"count":16272,"type":"SCALAR"},{"bufferView":8,"componentType":5126,"count":3174,"max":[2.9155054092407227,0.6893633604049683,1.018736481666565],"min":[-2.9155054092407227,0.03183203935623169,-0.6458460688591003],"type":"VEC3"},{"bufferView":9,"componentType":5126,"count":3174,"type":"VEC3"},{"bufferView":10,"componentType":5126,"count":3174,"type":"VEC2"},{"bufferView":11,"componentType":5123,"count":12858,"type":"SCALAR"},{"bufferView":12,"componentType":5126,"count":6404,"max":[2.9000000953674316,0.6629999876022339,0.47999998927116394],"min":[-2.9000000953674316,0,-0.47999998927116394],"type":"VEC3"},{"bufferView":13,"componentType":5126,"count":6404,"type":"VEC3"},{"bufferView":14,"componentType":5126,"count":6404,"type":"VEC2"},{"bufferView":15,"componentType":5123,"count":18984,"type":"SCALAR"}],"bufferViews":[{"buffer":0,"byteLength":10596,"byteOffset":0,"target":34962},{"buffer":0,"byteLength":10596,"byteOffset":10596,"target":34962},{"buffer":0,"byteLength":7064,"byteOffset":21192,"target":34962},{"buffer":0,"byteLength":8832,"byteOffset":28256,"target":34963},{"buffer":0,"byteLength":42132,"byteOffset":37088,"target":34962},{"buffer":0,"byteLength":42132,"byteOffset":79220,"target":34962},{"buffer":0,"byteLength":28088,"byteOffset":121352,"target":34962},{"buffer":0,"byteLength":32544,"byteOffset":149440,"target":34963},{"buffer":0,"byteLength":38088,"byteOffset":181984,"target":34962},{"buffer":0,"byteLength":38088,"byteOffset":220072,"target":34962},{"buffer":0,"byteLength":25392,"byteOffset":258160,"target":34962},{"buffer":0,"byteLength":25716,"byteOffset":283552,"target":34963},{"buffer":0,"byteLength":76848,"byteOffset":309268,"target":34962},{"buffer":0,"byteLength":76848,"byteOffset":386116,"target":34962},{"buffer":0,"byteLength":51232,"byteOffset":462964,"target":34962},{"buffer":0,"byteLength":37968,"byteOffset":514196,"target":34963}],"samplers":[{"magFilter":9729,"minFilter":9987}],"buffers":[{"uri":"KL_LS_Country_Canoe.bin","byteLength":552164}]}