{"asset":{"generator":"Khronos glTF Blender I/O v5.2.40","version":"2.0"},"scene":0,"scenes":[{"name":"Scene","nodes":[0]}],"nodes":[{"mesh":0,"name":"TF3_KL_LS_Paddy_Green_4m"}],"materials":[{"doubleSided":true,"name":"TF3_KL_Wet_Kuttanad_Soil","normalTexture":{"index":0,"scale":0.8999999761581421},"pbrMetallicRoughness":{"baseColorTexture":{"index":1},"metallicFactor":0,"roughnessFactor":0.949999988079071}},{"doubleSided":true,"name":"TF3_KL_Backwater_Olive","pbrMetallicRoughness":{"baseColorFactor":[0.03500000014901161,0.0949999988079071,0.0729999989271164,1],"metallicFactor":0,"roughnessFactor":0.17000000178813934}},{"doubleSided":true,"name":"TF3_KL_Rice_Vegetative_Green","pbrMetallicRoughness":{"baseColorFactor":[0.20000000298023224,0.3700000047683716,0.03099999949336052,1],"metallicFactor":0,"roughnessFactor":0.6499999761581421}},{"doubleSided":true,"name":"TF3_KL_Rice_Leaf_Lime","pbrMetallicRoughness":{"baseColorFactor":[0.33000001311302185,0.44999998807907104,0.04600000008940697,1],"metallicFactor":0,"roughnessFactor":0.6200000047683716}}],"meshes":[{"name":"Cube","primitives":[{"attributes":{"POSITION":0,"NORMAL":1,"TEXCOORD_0":2},"indices":3,"material":0},{"attributes":{"POSITION":4,"NORMAL":5,"TEXCOORD_0":6},"indices":3,"material":1},{"attributes":{"POSITION":7,"NORMAL":8,"TEXCOORD_0":9},"indices":10,"material":2},{"attributes":{"POSITION":11,"NORMAL":12,"TEXCOORD_0":13},"indices":14,"material":3}]}],"textures":[{"sampler":0,"source":0},{"sampler":0,"source":1}],"images":[{"name":"soil_normal","uri":"textures/0b922d28f65dc4ded68fc168d35866a7c1f643b95301ab3186acc35cf346c102.png"},{"name":"soil_color","uri":"textures/32378aa580762ab4a435dcc1ecb20ed1416f4e798055df4f878936a5008d4300.png"}],"accessors":[{"bufferView":0,"componentType":5126,"count":24,"max":[2,0.05000000074505806,2],"min":[-2,0,-2],"type":"VEC3"},{"bufferView":1,"componentType":5126,"count":24,"type":"VEC3"},{"bufferView":2,"componentType":5126,"count":24,"type":"VEC2"},{"bufferView":3,"componentType":5123,"count":36,"type":"SCALAR"},{"bufferView":4,"componentType":5126,"count":24,"max":[1.997499942779541,0.05950000137090683,1.997499942779541],"min":[-1.997499942779541,0.054499998688697815,-1.997499942779541],"type":"VEC3"},{"bufferView":5,"componentType":5126,"count":24,"type":"VEC3"},{"bufferView":6,"componentType":5126,"count":24,"type":"VEC2"},{"bufferView":7,"componentType":5126,"count":26334,"max":[2.520512342453003,1.0059701204299927,2.5204479694366455],"min":[-2.618861436843872,0.05937971919775009,-2.500699520111084],"type":"VEC3"},{"bufferView":8,"componentType":5126,"count":26334,"type":"VEC3"},{"bufferView":9,"componentType":5126,"count":26334,"type":"VEC2"},{"bufferView":10,"componentType":5123,"count":87780,"type":"SCALAR"},{"bufferView":11,"componentType":5126,"count":10079,"max":[2.5240530967712402,1.0104334354400635,2.370589017868042],"min":[-2.3231351375579834,0.05936732888221741,-2.352696418762207],"type":"VEC3"},{"bufferView":12,"componentType":5126,"count":10079,"type":"VEC3"},{"bufferView":13,"componentType":5126,"count":10079,"type":"VEC2"},{"bufferView":14,"componentType":5123,"count":33600,"type":"SCALAR"}],"bufferViews":[{"buffer":0,"byteLength":288,"byteOffset":0,"target":34962},{"buffer":0,"byteLength":288,"byteOffset":288,"target":34962},{"buffer":0,"byteLength":192,"byteOffset":576,"target":34962},{"buffer":0,"byteLength":72,"byteOffset":768,"target":34963},{"buffer":0,"byteLength":288,"byteOffset":840,"target":34962},{"buffer":0,"byteLength":288,"byteOffset":1128,"target":34962},{"buffer":0,"byteLength":192,"byteOffset":1416,"target":34962},{"buffer":0,"byteLength":316008,"byteOffset":1608,"target":34962},{"buffer":0,"byteLength":316008,"byteOffset":317616,"target":34962},{"buffer":0,"byteLength":210672,"byteOffset":633624,"target":34962},{"buffer":0,"byteLength":175560,"byteOffset":844296,"target":34963},{"buffer":0,"byteLength":120948,"byteOffset":1019856,"target":34962},{"buffer":0,"byteLength":120948,"byteOffset":1140804,"target":34962},{"buffer":0,"byteLength":80632,"byteOffset":1261752,"target":34962},{"buffer":0,"byteLength":67200,"byteOffset":1342384,"target":34963}],"samplers":[{"magFilter":9729,"minFilter":9987}],"buffers":[{"uri":"KL_LS_Paddy_Green_4m.bin","byteLength":1409584}]}