{"asset":{"generator":"Khronos glTF Blender I/O v5.2.40","version":"2.0"},"scene":0,"scenes":[{"name":"Scene","nodes":[0]}],"nodes":[{"mesh":0,"name":"TF3_KL_LS_Coconut_Tall_A"}],"materials":[{"doubleSided":true,"name":"TF3_KL_Tender_Coconut_Green","pbrMetallicRoughness":{"baseColorFactor":[0.23499999940395355,0.36000001430511475,0.054999999701976776,1],"metallicFactor":0,"roughnessFactor":0.6200000047683716}},{"doubleSided":true,"name":"TF3_KL_Maturing_Coconut","pbrMetallicRoughness":{"baseColorFactor":[0.41999998688697815,0.3199999928474426,0.07000000029802322,1],"metallicFactor":0,"roughnessFactor":0.699999988079071}},{"doubleSided":true,"name":"TF3_KL_Petioles_Olive","pbrMetallicRoughness":{"baseColorFactor":[0.14000000059604645,0.20000000298023224,0.024000000208616257,1],"metallicFactor":0,"roughnessFactor":0.5799999833106995}},{"doubleSided":true,"name":"TF3_KL_Coconut_Scar_Rings","pbrMetallicRoughness":{"baseColorFactor":[0.18000000715255737,0.13500000536441803,0.07500000298023224,1],"metallicFactor":0,"roughnessFactor":0.949999988079071}},{"doubleSided":true,"name":"TF3_KL_Coconut_Frond","normalTexture":{"index":0,"scale":0.33000001311302185},"pbrMetallicRoughness":{"baseColorTexture":{"index":1},"metallicFactor":0,"roughnessFactor":0.47999998927116394}},{"doubleSided":true,"name":"TF3_KL_Coconut_Young_Lime","pbrMetallicRoughness":{"baseColorFactor":[0.12999999523162842,0.27000001072883606,0.029999999329447746,1],"metallicFactor":0,"roughnessFactor":0.47999998927116394}},{"doubleSided":true,"name":"TF3_KL_Coconut_Mature_Deep","pbrMetallicRoughness":{"baseColorFactor":[0.054999999701976776,0.1550000011920929,0.024000000208616257,1],"metallicFactor":0,"roughnessFactor":0.5400000214576721}},{"doubleSided":true,"name":"TF3_KL_Coconut_Old_Fawn","normalTexture":{"index":2,"scale":0.44999998807907104},"pbrMetallicRoughness":{"baseColorTexture":{"index":3},"metallicFactor":0,"roughnessFactor":0.8600000143051147}},{"doubleSided":true,"name":"TF3_KL_Coconut_Leafscar_Bark","normalTexture":{"index":4,"scale":0.7200000286102295},"pbrMetallicRoughness":{"baseColorTexture":{"index":5},"metallicFactor":0,"roughnessFactor":0.9100000262260437}}],"meshes":[{"name":"Coconut_Fruit_Clusters_Mesh","primitives":[{"attributes":{"POSITION":0,"NORMAL":1,"TEXCOORD_0":2},"indices":3,"material":0},{"attributes":{"POSITION":4,"NORMAL":5,"TEXCOORD_0":6},"indices":7,"material":1},{"attributes":{"POSITION":8,"NORMAL":9,"TEXCOORD_0":10},"indices":11,"material":2},{"attributes":{"POSITION":12,"NORMAL":13,"TEXCOORD_0":14},"indices":15,"material":3},{"attributes":{"POSITION":16,"NORMAL":17,"TEXCOORD_0":18},"indices":19,"material":4},{"attributes":{"POSITION":20,"NORMAL":21,"TEXCOORD_0":22},"indices":23,"material":5},{"attributes":{"POSITION":24,"NORMAL":25,"TEXCOORD_0":26},"indices":27,"material":6},{"attributes":{"POSITION":28,"NORMAL":29,"TEXCOORD_0":30},"indices":31,"material":7},{"attributes":{"POSITION":32,"NORMAL":33,"TEXCOORD_0":34},"indices":35,"material":8}]}],"textures":[{"sampler":0,"source":0},{"sampler":0,"source":1},{"sampler":0,"source":2},{"sampler":0,"source":3},{"sampler":0,"source":4},{"sampler":0,"source":5}],"images":[{"name":"palm_leaf_normal","uri":"textures/19a21337d4e9b08d842f77f3f08f4c609ee2a2ffe1e7f058d48ba838dbd66f2f.png"},{"name":"palm_leaf_color","uri":"textures/172f2d5c2651cda7c39a84a1c43ee4c5aa89113488497e782b536732fca1655f.png"},{"name":"dry_leaf_normal","uri":"textures/acc8763384432f4b145681dcbe939d8e99a371861f79270c8a650350e9128cdd.png"},{"name":"dry_leaf_color","uri":"textures/ae3af5890a00003c9094d5f6f171157e7ccedbac4a1b5d22f08ec9f6b5b9ad98.png"},{"name":"palm_bark_normal","uri":"textures/953b3804972092f96ef1980b3c8eff36a098957b202defe0887f9e1bfc0acf68.png"},{"name":"palm_bark_color","uri":"textures/9726c7d20d4ca71f66a288d74af174f949a3f94624d523c0f73d300eb1aebbc2.png"}],"accessors":[{"bufferView":0,"componentType":5126,"count":1026,"max":[1.5862743854522705,11.577858924865723,0.5752151012420654],"min":[0.3457798361778259,10.96785831451416,-0.6896531581878662],"type":"VEC3"},{"bufferView":1,"componentType":5126,"count":1026,"type":"VEC3"},{"bufferView":2,"componentType":5126,"count":1026,"type":"VEC2"},{"bufferView":3,"componentType":5123,"count":5040,"type":"SCALAR"},{"bufferView":4,"componentType":5126,"count":732,"max":[1.642261266708374,11.577857971191406,0.6405761241912842],"min":[0.5634541511535645,10.967859268188477,-0.517798662185669],"type":"VEC3"},{"bufferView":5,"componentType":5126,"count":732,"type":"VEC3"},{"bufferView":6,"componentType":5126,"count":732,"type":"VEC2"},{"bufferView":7,"componentType":5123,"count":3528,"type":"SCALAR"},{"bufferView":8,"componentType":5126,"count":6310,"max":[5.310900688171387,14.677511215209961,4.512368679046631],"min":[-3.155261278152466,8.45534610748291,-4.5283050537109375],"type":"VEC3"},{"bufferView":9,"componentType":5126,"count":6310,"type":"VEC3"},{"bufferView":10,"componentType":5126,"count":6310,"type":"VEC2"},{"bufferView":11,"componentType":5123,"count":29760,"type":"SCALAR"},{"bufferView":12,"componentType":5126,"count":7375,"max":[1.153393268585205,11.709843635559082,0.2984830439090729],"min":[-0.30261021852493286,0.08597149699926376,-0.41017043590545654],"type":"VEC3"},{"bufferView":13,"componentType":5126,"count":7375,"type":"VEC3"},{"bufferView":14,"componentType":5126,"count":7375,"type":"VEC2"},{"bufferView":15,"componentType":5123,"count":33984,"type":"SCALAR"},{"bufferView":16,"componentType":5126,"count":53172,"max":[5.259098529815674,14.7656831741333,4.482735633850098],"min":[-3.0893635749816895,8.592535018920898,-4.456206798553467],"type":"VEC3"},{"bufferView":17,"componentType":5126,"count":53172,"type":"VEC3"},{"bufferView":18,"componentType":5126,"count":53172,"type":"VEC2"},{"bufferView":19,"componentType":5123,"count":177240,"type":"SCALAR"},{"bufferView":20,"componentType":5126,"count":2322,"max":[4.5015106201171875,14.774604797363281,3.6034631729125977],"min":[-3.120051145553589,11.26087760925293,-3.707988977432251],"type":"VEC3"},{"bufferView":21,"componentType":5126,"count":2322,"type":"VEC3"},{"bufferView":22,"componentType":5126,"count":2322,"type":"VEC2"},{"bufferView":23,"componentType":5123,"count":7752,"type":"SCALAR"},{"bufferView":24,"componentType":5126,"count":4482,"max":[5.239777088165283,13.618480682373047,4.376813888549805],"min":[-2.791377067565918,8.864022254943848,-4.497130870819092],"type":"VEC3"},{"bufferView":25,"componentType":5126,"count":4482,"type":"VEC3"},{"bufferView":26,"componentType":5126,"count":4482,"type":"VEC2"},{"bufferView":27,"componentType":5123,"count":14940,"type":"SCALAR"},{"bufferView":28,"componentType":5126,"count":4608,"max":[4.9905686378479,11.61193561553955,1.709679365158081],"min":[-1.0439382791519165,8.491997718811035,-3.9087753295898438],"type":"VEC3"},{"bufferView":29,"componentType":5126,"count":4608,"type":"VEC3"},{"bufferView":30,"componentType":5126,"count":4608,"type":"VEC2"},{"bufferView":31,"componentType":5123,"count":15360,"type":"SCALAR"},{"bufferView":32,"componentType":5126,"count":3375,"max":[1.1644090414047241,11.840700149536133,0.5505281686782837],"min":[-0.5433995127677917,0,-0.5508216619491577],"type":"VEC3"},{"bufferView":33,"componentType":5126,"count":3375,"type":"VEC3"},{"bufferView":34,"componentType":5126,"count":3375,"type":"VEC2"},{"bufferView":35,"componentType":5123,"count":17820,"type":"SCALAR"}],"bufferViews":[{"buffer":0,"byteLength":12312,"byteOffset":0,"target":34962},{"buffer":0,"byteLength":12312,"byteOffset":12312,"target":34962},{"buffer":0,"byteLength":8208,"byteOffset":24624,"target":34962},{"buffer":0,"byteLength":10080,"byteOffset":32832,"target":34963},{"buffer":0,"byteLength":8784,"byteOffset":42912,"target":34962},{"buffer":0,"byteLength":8784,"byteOffset":51696,"target":34962},{"buffer":0,"byteLength":5856,"byteOffset":60480,"target":34962},{"buffer":0,"byteLength":7056,"byteOffset":66336,"target":34963},{"buffer":0,"byteLength":75720,"byteOffset":73392,"target":34962},{"buffer":0,"byteLength":75720,"byteOffset":149112,"target":34962},{"buffer":0,"byteLength":50480,"byteOffset":224832,"target":34962},{"buffer":0,"byteLength":59520,"byteOffset":275312,"target":34963},{"buffer":0,"byteLength":88500,"byteOffset":334832,"target":34962},{"buffer":0,"byteLength":88500,"byteOffset":423332,"target":34962},{"buffer":0,"byteLength":59000,"byteOffset":511832,"target":34962},{"buffer":0,"byteLength":67968,"byteOffset":570832,"target":34963},{"buffer":0,"byteLength":638064,"byteOffset":638800,"target":34962},{"buffer":0,"byteLength":638064,"byteOffset":1276864,"target":34962},{"buffer":0,"byteLength":425376,"byteOffset":1914928,"target":34962},{"buffer":0,"byteLength":354480,"byteOffset":2340304,"target":34963},{"buffer":0,"byteLength":27864,"byteOffset":2694784,"target":34962},{"buffer":0,"byteLength":27864,"byteOffset":2722648,"target":34962},{"buffer":0,"byteLength":18576,"byteOffset":2750512,"target":34962},{"buffer":0,"byteLength":15504,"byteOffset":2769088,"target":34963},{"buffer":0,"byteLength":53784,"byteOffset":2784592,"target":34962},{"buffer":0,"byteLength":53784,"byteOffset":2838376,"target":34962},{"buffer":0,"byteLength":35856,"byteOffset":2892160,"target":34962},{"buffer":0,"byteLength":29880,"byteOffset":2928016,"target":34963},{"buffer":0,"byteLength":55296,"byteOffset":2957896,"target":34962},{"buffer":0,"byteLength":55296,"byteOffset":3013192,"target":34962},{"buffer":0,"byteLength":36864,"byteOffset":3068488,"target":34962},{"buffer":0,"byteLength":30720,"byteOffset":3105352,"target":34963},{"buffer":0,"byteLength":40500,"byteOffset":3136072,"target":34962},{"buffer":0,"byteLength":40500,"byteOffset":3176572,"target":34962},{"buffer":0,"byteLength":27000,"byteOffset":3217072,"target":34962},{"buffer":0,"byteLength":35640,"byteOffset":3244072,"target":34963}],"samplers":[{"magFilter":9729,"minFilter":9987}],"buffers":[{"uri":"KL_LS_Coconut_Tall_A.bin","byteLength":3279712}]}