{"asset":{"generator":"Khronos glTF Blender I/O v5.2.40","version":"2.0"},"scene":0,"scenes":[{"name":"Scene","nodes":[0]}],"nodes":[{"mesh":0,"name":"TF3_KL_LS_Coconut_Leaning_B"}],"materials":[{"doubleSided":true,"name":"TF3_KL_Tender_Coconut_Green","pbrMetallicRoughness":{"baseColorFactor":[0.23499999940395355,0.36000001430511475,0.054999999701976776,1],"metallicFactor":0,"roughnessFactor":0.6200000047683716}},{"doubleSided":true,"name":"TF3_KL_Maturing_Coconut","pbrMetallicRoughness":{"baseColorFactor":[0.41999998688697815,0.3199999928474426,0.07000000029802322,1],"metallicFactor":0,"roughnessFactor":0.699999988079071}},{"doubleSided":true,"name":"TF3_KL_Petioles_Olive","pbrMetallicRoughness":{"baseColorFactor":[0.14000000059604645,0.20000000298023224,0.024000000208616257,1],"metallicFactor":0,"roughnessFactor":0.5799999833106995}},{"doubleSided":true,"name":"TF3_KL_Coconut_Scar_Rings","pbrMetallicRoughness":{"baseColorFactor":[0.18000000715255737,0.13500000536441803,0.07500000298023224,1],"metallicFactor":0,"roughnessFactor":0.949999988079071}},{"doubleSided":true,"name":"TF3_KL_Coconut_Frond","normalTexture":{"index":0,"scale":0.33000001311302185},"pbrMetallicRoughness":{"baseColorTexture":{"index":1},"metallicFactor":0,"roughnessFactor":0.47999998927116394}},{"doubleSided":true,"name":"TF3_KL_Coconut_Young_Lime","pbrMetallicRoughness":{"baseColorFactor":[0.12999999523162842,0.27000001072883606,0.029999999329447746,1],"metallicFactor":0,"roughnessFactor":0.47999998927116394}},{"doubleSided":true,"name":"TF3_KL_Coconut_Mature_Deep","pbrMetallicRoughness":{"baseColorFactor":[0.054999999701976776,0.1550000011920929,0.024000000208616257,1],"metallicFactor":0,"roughnessFactor":0.5400000214576721}},{"doubleSided":true,"name":"TF3_KL_Coconut_Old_Fawn","normalTexture":{"index":2,"scale":0.44999998807907104},"pbrMetallicRoughness":{"baseColorTexture":{"index":3},"metallicFactor":0,"roughnessFactor":0.8600000143051147}},{"doubleSided":true,"name":"TF3_KL_Coconut_Leafscar_Bark","normalTexture":{"index":4,"scale":0.7200000286102295},"pbrMetallicRoughness":{"baseColorTexture":{"index":5},"metallicFactor":0,"roughnessFactor":0.9100000262260437}}],"meshes":[{"name":"Coconut_Fruit_Clusters_Mesh","primitives":[{"attributes":{"POSITION":0,"NORMAL":1,"TEXCOORD_0":2},"indices":3,"material":0},{"attributes":{"POSITION":4,"NORMAL":5,"TEXCOORD_0":6},"indices":7,"material":1},{"attributes":{"POSITION":8,"NORMAL":9,"TEXCOORD_0":10},"indices":11,"material":2},{"attributes":{"POSITION":12,"NORMAL":13,"TEXCOORD_0":14},"indices":15,"material":3},{"attributes":{"POSITION":16,"NORMAL":17,"TEXCOORD_0":18},"indices":19,"material":4},{"attributes":{"POSITION":20,"NORMAL":21,"TEXCOORD_0":22},"indices":23,"material":5},{"attributes":{"POSITION":24,"NORMAL":25,"TEXCOORD_0":26},"indices":27,"material":6},{"attributes":{"POSITION":28,"NORMAL":29,"TEXCOORD_0":30},"indices":31,"material":7},{"attributes":{"POSITION":32,"NORMAL":33,"TEXCOORD_0":34},"indices":35,"material":8}]}],"textures":[{"sampler":0,"source":0},{"sampler":0,"source":1},{"sampler":0,"source":2},{"sampler":0,"source":3},{"sampler":0,"source":4},{"sampler":0,"source":5}],"images":[{"name":"palm_leaf_normal","uri":"textures/19a21337d4e9b08d842f77f3f08f4c609ee2a2ffe1e7f058d48ba838dbd66f2f.png"},{"name":"palm_leaf_color","uri":"textures/172f2d5c2651cda7c39a84a1c43ee4c5aa89113488497e782b536732fca1655f.png"},{"name":"dry_leaf_normal","uri":"textures/acc8763384432f4b145681dcbe939d8e99a371861f79270c8a650350e9128cdd.png"},{"name":"dry_leaf_color","uri":"textures/ae3af5890a00003c9094d5f6f171157e7ccedbac4a1b5d22f08ec9f6b5b9ad98.png"},{"name":"palm_bark_normal","uri":"textures/953b3804972092f96ef1980b3c8eff36a098957b202defe0887f9e1bfc0acf68.png"},{"name":"palm_bark_color","uri":"textures/9726c7d20d4ca71f66a288d74af174f949a3f94624d523c0f73d300eb1aebbc2.png"}],"accessors":[{"bufferView":0,"componentType":5126,"count":1125,"max":[3.656609058380127,8.5276460647583,0.5500771999359131],"min":[2.47454833984375,7.874847888946533,-0.6593647599220276],"type":"VEC3"},{"bufferView":1,"componentType":5126,"count":1125,"type":"VEC3"},{"bufferView":2,"componentType":5126,"count":1125,"type":"VEC2"},{"bufferView":3,"componentType":5123,"count":5544,"type":"SCALAR"},{"bufferView":4,"componentType":5126,"count":722,"max":[3.7140305042266846,8.5276460647583,0.6110736131668091],"min":[2.6824259757995605,7.942047119140625,-0.48914635181427],"type":"VEC3"},{"bufferView":5,"componentType":5126,"count":722,"type":"VEC3"},{"bufferView":6,"componentType":5126,"count":722,"type":"VEC2"},{"bufferView":7,"componentType":5123,"count":3528,"type":"SCALAR"},{"bufferView":8,"componentType":5126,"count":6123,"max":[7.182918071746826,11.599072456359863,4.226802349090576],"min":[-0.7920038104057312,5.255047798156738,-3.9982986450195312],"type":"VEC3"},{"bufferView":9,"componentType":5126,"count":6123,"type":"VEC3"},{"bufferView":10,"componentType":5126,"count":6123,"type":"VEC2"},{"bufferView":11,"componentType":5123,"count":28812,"type":"SCALAR"},{"bufferView":12,"componentType":5126,"count":5375,"max":[3.1960983276367188,8.660445213317871,0.26635777950286865],"min":[-0.2835044860839844,0.13929036259651184,-0.8620055317878723],"type":"VEC3"},{"bufferView":13,"componentType":5126,"count":5375,"type":"VEC3"},{"bufferView":14,"componentType":5126,"count":5375,"type":"VEC2"},{"bufferView":15,"componentType":5123,"count":24768,"type":"SCALAR"},{"bufferView":16,"componentType":5126,"count":53316,"max":[7.111675262451172,11.667231559753418,4.198160648345947],"min":[-0.7608088850975037,5.7470221519470215,-3.9602112770080566],"type":"VEC3"},{"bufferView":17,"componentType":5126,"count":53316,"type":"VEC3"},{"bufferView":18,"componentType":5126,"count":53316,"type":"VEC2"},{"bufferView":19,"componentType":5123,"count":177720,"type":"SCALAR"},{"bufferView":20,"componentType":5126,"count":1998,"max":[6.777590274810791,11.652629852294922,3.830385208129883],"min":[-0.6319618225097656,8.148015975952148,-3.63940167427063],"type":"VEC3"},{"bufferView":21,"componentType":5126,"count":1998,"type":"VEC3"},{"bufferView":22,"componentType":5126,"count":1998,"type":"VEC2"},{"bufferView":23,"componentType":5123,"count":6672,"type":"SCALAR"},{"bufferView":24,"componentType":5126,"count":4662,"max":[7.062780380249023,10.265229225158691,4.048415184020996],"min":[-0.6520586013793945,5.816642761230469,-3.8934686183929443],"type":"VEC3"},{"bufferView":25,"componentType":5126,"count":4662,"type":"VEC3"},{"bufferView":26,"componentType":5126,"count":4662,"type":"VEC2"},{"bufferView":27,"componentType":5123,"count":15540,"type":"SCALAR"},{"bufferView":28,"componentType":5126,"count":2304,"max":[7.23545503616333,8.515493392944336,1.8144278526306152],"min":[3.8113887310028076,5.302634239196777,-0.24119269847869873],"type":"VEC3"},{"bufferView":29,"componentType":5126,"count":2304,"type":"VEC3"},{"bufferView":30,"componentType":5126,"count":2304,"type":"VEC2"},{"bufferView":31,"componentType":5123,"count":7680,"type":"SCALAR"},{"bufferView":32,"componentType":5126,"count":3374,"max":[3.2412047386169434,8.85062313079834,0.5498692393302917],"min":[-0.5498102903366089,0,-0.8554069399833679],"type":"VEC3"},{"bufferView":33,"componentType":5126,"count":3374,"type":"VEC3"},{"bufferView":34,"componentType":5126,"count":3374,"type":"VEC2"},{"bufferView":35,"componentType":5123,"count":17820,"type":"SCALAR"}],"bufferViews":[{"buffer":0,"byteLength":13500,"byteOffset":0,"target":34962},{"buffer":0,"byteLength":13500,"byteOffset":13500,"target":34962},{"buffer":0,"byteLength":9000,"byteOffset":27000,"target":34962},{"buffer":0,"byteLength":11088,"byteOffset":36000,"target":34963},{"buffer":0,"byteLength":8664,"byteOffset":47088,"target":34962},{"buffer":0,"byteLength":8664,"byteOffset":55752,"target":34962},{"buffer":0,"byteLength":5776,"byteOffset":64416,"target":34962},{"buffer":0,"byteLength":7056,"byteOffset":70192,"target":34963},{"buffer":0,"byteLength":73476,"byteOffset":77248,"target":34962},{"buffer":0,"byteLength":73476,"byteOffset":150724,"target":34962},{"buffer":0,"byteLength":48984,"byteOffset":224200,"target":34962},{"buffer":0,"byteLength":57624,"byteOffset":273184,"target":34963},{"buffer":0,"byteLength":64500,"byteOffset":330808,"target":34962},{"buffer":0,"byteLength":64500,"byteOffset":395308,"target":34962},{"buffer":0,"byteLength":43000,"byteOffset":459808,"target":34962},{"buffer":0,"byteLength":49536,"byteOffset":502808,"target":34963},{"buffer":0,"byteLength":639792,"byteOffset":552344,"target":34962},{"buffer":0,"byteLength":639792,"byteOffset":1192136,"target":34962},{"buffer":0,"byteLength":426528,"byteOffset":1831928,"target":34962},{"buffer":0,"byteLength":355440,"byteOffset":2258456,"target":34963},{"buffer":0,"byteLength":23976,"byteOffset":2613896,"target":34962},{"buffer":0,"byteLength":23976,"byteOffset":2637872,"target":34962},{"buffer":0,"byteLength":15984,"byteOffset":2661848,"target":34962},{"buffer":0,"byteLength":13344,"byteOffset":2677832,"target":34963},{"buffer":0,"byteLength":55944,"byteOffset":2691176,"target":34962},{"buffer":0,"byteLength":55944,"byteOffset":2747120,"target":34962},{"buffer":0,"byteLength":37296,"byteOffset":2803064,"target":34962},{"buffer":0,"byteLength":31080,"byteOffset":2840360,"target":34963},{"buffer":0,"byteLength":27648,"byteOffset":2871440,"target":34962},{"buffer":0,"byteLength":27648,"byteOffset":2899088,"target":34962},{"buffer":0,"byteLength":18432,"byteOffset":2926736,"target":34962},{"buffer":0,"byteLength":15360,"byteOffset":2945168,"target":34963},{"buffer":0,"byteLength":40488,"byteOffset":2960528,"target":34962},{"buffer":0,"byteLength":40488,"byteOffset":3001016,"target":34962},{"buffer":0,"byteLength":26992,"byteOffset":3041504,"target":34962},{"buffer":0,"byteLength":35640,"byteOffset":3068496,"target":34963}],"samplers":[{"magFilter":9729,"minFilter":9987}],"buffers":[{"uri":"KL_LS_Coconut_Leaning_B.bin","byteLength":3104136}]}