{"asset":{"generator":"Khronos glTF Blender I/O v5.2.40","version":"2.0"},"scene":0,"scenes":[{"name":"Scene","nodes":[0]}],"nodes":[{"mesh":0,"name":"TF3_KL_LS_Coconut_Juvenile_C"}],"materials":[{"doubleSided":true,"name":"TF3_KL_Tender_Coconut_Green","pbrMetallicRoughness":{"baseColorFactor":[0.23499999940395355,0.36000001430511475,0.054999999701976776,1],"metallicFactor":0,"roughnessFactor":0.6200000047683716}},{"doubleSided":true,"name":"TF3_KL_Maturing_Coconut","pbrMetallicRoughness":{"baseColorFactor":[0.41999998688697815,0.3199999928474426,0.07000000029802322,1],"metallicFactor":0,"roughnessFactor":0.699999988079071}},{"doubleSided":true,"name":"TF3_KL_Petioles_Olive","pbrMetallicRoughness":{"baseColorFactor":[0.14000000059604645,0.20000000298023224,0.024000000208616257,1],"metallicFactor":0,"roughnessFactor":0.5799999833106995}},{"doubleSided":true,"name":"TF3_KL_Coconut_Scar_Rings","pbrMetallicRoughness":{"baseColorFactor":[0.18000000715255737,0.13500000536441803,0.07500000298023224,1],"metallicFactor":0,"roughnessFactor":0.949999988079071}},{"doubleSided":true,"name":"TF3_KL_Coconut_Frond","normalTexture":{"index":0,"scale":0.33000001311302185},"pbrMetallicRoughness":{"baseColorTexture":{"index":1},"metallicFactor":0,"roughnessFactor":0.47999998927116394}},{"doubleSided":true,"name":"TF3_KL_Coconut_Young_Lime","pbrMetallicRoughness":{"baseColorFactor":[0.12999999523162842,0.27000001072883606,0.029999999329447746,1],"metallicFactor":0,"roughnessFactor":0.47999998927116394}},{"doubleSided":true,"name":"TF3_KL_Coconut_Mature_Deep","pbrMetallicRoughness":{"baseColorFactor":[0.054999999701976776,0.1550000011920929,0.024000000208616257,1],"metallicFactor":0,"roughnessFactor":0.5400000214576721}},{"doubleSided":true,"name":"TF3_KL_Coconut_Leafscar_Bark","normalTexture":{"index":2,"scale":0.7200000286102295},"pbrMetallicRoughness":{"baseColorTexture":{"index":3},"metallicFactor":0,"roughnessFactor":0.9100000262260437}}],"meshes":[{"name":"Coconut_Fruit_Clusters_Mesh","primitives":[{"attributes":{"POSITION":0,"NORMAL":1,"TEXCOORD_0":2},"indices":3,"material":0},{"attributes":{"POSITION":4,"NORMAL":5,"TEXCOORD_0":6},"indices":7,"material":1},{"attributes":{"POSITION":8,"NORMAL":9,"TEXCOORD_0":10},"indices":11,"material":2},{"attributes":{"POSITION":12,"NORMAL":13,"TEXCOORD_0":14},"indices":15,"material":3},{"attributes":{"POSITION":16,"NORMAL":17,"TEXCOORD_0":18},"indices":19,"material":4},{"attributes":{"POSITION":20,"NORMAL":21,"TEXCOORD_0":22},"indices":23,"material":5},{"attributes":{"POSITION":24,"NORMAL":25,"TEXCOORD_0":26},"indices":27,"material":6},{"attributes":{"POSITION":28,"NORMAL":29,"TEXCOORD_0":30},"indices":31,"material":7}]}],"textures":[{"sampler":0,"source":0},{"sampler":0,"source":1},{"sampler":0,"source":2},{"sampler":0,"source":3}],"images":[{"name":"palm_leaf_normal","uri":"textures/19a21337d4e9b08d842f77f3f08f4c609ee2a2ffe1e7f058d48ba838dbd66f2f.png"},{"name":"palm_leaf_color","uri":"textures/172f2d5c2651cda7c39a84a1c43ee4c5aa89113488497e782b536732fca1655f.png"},{"name":"palm_bark_normal","uri":"textures/953b3804972092f96ef1980b3c8eff36a098957b202defe0887f9e1bfc0acf68.png"},{"name":"palm_bark_color","uri":"textures/9726c7d20d4ca71f66a288d74af174f949a3f94624d523c0f73d300eb1aebbc2.png"}],"accessors":[{"bufferView":0,"componentType":5126,"count":1306,"max":[0.4911572337150574,2.147268533706665,0.3911888003349304],"min":[-0.3254033029079437,1.691668152809143,-0.469421923160553],"type":"VEC3"},{"bufferView":1,"componentType":5126,"count":1306,"type":"VEC3"},{"bufferView":2,"componentType":5126,"count":1306,"type":"VEC2"},{"bufferView":3,"componentType":5123,"count":6048,"type":"SCALAR"},{"bufferView":4,"componentType":5126,"count":893,"max":[0.5572279095649719,2.147268295288086,0.42586880922317505],"min":[-0.17659512162208557,1.691668152809143,-0.30906814336776733],"type":"VEC3"},{"bufferView":5,"componentType":5126,"count":893,"type":"VEC3"},{"bufferView":6,"componentType":5126,"count":893,"type":"VEC2"},{"bufferView":7,"componentType":5123,"count":4032,"type":"SCALAR"},{"bufferView":8,"componentType":5126,"count":4322,"max":[2.6664204597473145,4.233266830444336,2.6846024990081787],"min":[-2.630115032196045,0.12324728816747665,-2.5877254009246826],"type":"VEC3"},{"bufferView":9,"componentType":5126,"count":4322,"type":"VEC3"},{"bufferView":10,"componentType":5126,"count":4322,"type":"VEC2"},{"bufferView":11,"componentType":5123,"count":19944,"type":"SCALAR"},{"bufferView":12,"componentType":5126,"count":1375,"max":[0.22319479286670685,2.2860453128814697,0.17004957795143127],"min":[-0.17222684621810913,0.08410313725471497,-0.17606833577156067],"type":"VEC3"},{"bufferView":13,"componentType":5126,"count":1375,"type":"VEC3"},{"bufferView":14,"componentType":5126,"count":1375,"type":"VEC2"},{"bufferView":15,"componentType":5123,"count":6336,"type":"SCALAR"},{"bufferView":16,"componentType":5126,"count":36738,"max":[2.7086946964263916,4.281884670257568,2.7187764644622803],"min":[-2.619471311569214,0.13150860369205475,-2.610945701599121],"type":"VEC3"},{"bufferView":17,"componentType":5126,"count":36738,"type":"VEC3"},{"bufferView":18,"componentType":5126,"count":36738,"type":"VEC2"},{"bufferView":19,"componentType":5123,"count":122460,"type":"SCALAR"},{"bufferView":20,"componentType":5126,"count":2232,"max":[2.4832687377929688,4.2498040199279785,2.4586079120635986],"min":[-2.5007638931274414,1.6156461238861084,-2.416538953781128],"type":"VEC3"},{"bufferView":21,"componentType":5126,"count":2232,"type":"VEC3"},{"bufferView":22,"componentType":5126,"count":2232,"type":"VEC2"},{"bufferView":23,"componentType":5123,"count":7452,"type":"SCALAR"},{"bufferView":24,"componentType":5126,"count":2574,"max":[2.574315071105957,3.0329761505126953,2.462618589401245],"min":[-2.596538782119751,0.20939475297927856,-2.2273178100585938],"type":"VEC3"},{"bufferView":25,"componentType":5126,"count":2574,"type":"VEC3"},{"bufferView":26,"componentType":5126,"count":2574,"type":"VEC2"},{"bufferView":27,"componentType":5123,"count":8580,"type":"SCALAR"},{"bufferView":28,"componentType":5126,"count":3375,"max":[0.5389736890792847,2.416152238845825,0.5501903295516968],"min":[-0.5422331690788269,0,-0.547483503818512],"type":"VEC3"},{"bufferView":29,"componentType":5126,"count":3375,"type":"VEC3"},{"bufferView":30,"componentType":5126,"count":3375,"type":"VEC2"},{"bufferView":31,"componentType":5123,"count":17820,"type":"SCALAR"}],"bufferViews":[{"buffer":0,"byteLength":15672,"byteOffset":0,"target":34962},{"buffer":0,"byteLength":15672,"byteOffset":15672,"target":34962},{"buffer":0,"byteLength":10448,"byteOffset":31344,"target":34962},{"buffer":0,"byteLength":12096,"byteOffset":41792,"target":34963},{"buffer":0,"byteLength":10716,"byteOffset":53888,"target":34962},{"buffer":0,"byteLength":10716,"byteOffset":64604,"target":34962},{"buffer":0,"byteLength":7144,"byteOffset":75320,"target":34962},{"buffer":0,"byteLength":8064,"byteOffset":82464,"target":34963},{"buffer":0,"byteLength":51864,"byteOffset":90528,"target":34962},{"buffer":0,"byteLength":51864,"byteOffset":142392,"target":34962},{"buffer":0,"byteLength":34576,"byteOffset":194256,"target":34962},{"buffer":0,"byteLength":39888,"byteOffset":228832,"target":34963},{"buffer":0,"byteLength":16500,"byteOffset":268720,"target":34962},{"buffer":0,"byteLength":16500,"byteOffset":285220,"target":34962},{"buffer":0,"byteLength":11000,"byteOffset":301720,"target":34962},{"buffer":0,"byteLength":12672,"byteOffset":312720,"target":34963},{"buffer":0,"byteLength":440856,"byteOffset":325392,"target":34962},{"buffer":0,"byteLength":440856,"byteOffset":766248,"target":34962},{"buffer":0,"byteLength":293904,"byteOffset":1207104,"target":34962},{"buffer":0,"byteLength":244920,"byteOffset":1501008,"target":34963},{"buffer":0,"byteLength":26784,"byteOffset":1745928,"target":34962},{"buffer":0,"byteLength":26784,"byteOffset":1772712,"target":34962},{"buffer":0,"byteLength":17856,"byteOffset":1799496,"target":34962},{"buffer":0,"byteLength":14904,"byteOffset":1817352,"target":34963},{"buffer":0,"byteLength":30888,"byteOffset":1832256,"target":34962},{"buffer":0,"byteLength":30888,"byteOffset":1863144,"target":34962},{"buffer":0,"byteLength":20592,"byteOffset":1894032,"target":34962},{"buffer":0,"byteLength":17160,"byteOffset":1914624,"target":34963},{"buffer":0,"byteLength":40500,"byteOffset":1931784,"target":34962},{"buffer":0,"byteLength":40500,"byteOffset":1972284,"target":34962},{"buffer":0,"byteLength":27000,"byteOffset":2012784,"target":34962},{"buffer":0,"byteLength":35640,"byteOffset":2039784,"target":34963}],"samplers":[{"magFilter":9729,"minFilter":9987}],"buffers":[{"uri":"KL_LS_Coconut_Juvenile_C.bin","byteLength":2075424}]}