{"asset":{"generator":"Khronos glTF Blender I/O v5.2.40","version":"2.0"},"scene":0,"scenes":[{"name":"Scene","nodes":[0]}],"nodes":[{"mesh":0,"name":"TF3_KL_LS_Coconut_Tall_A_LOD1"}],"materials":[{"doubleSided":true,"name":"TF3_KL_Tender_Coconut_Green","pbrMetallicRoughness":{"baseColorFactor":[0.23499999940395355,0.36000001430511475,0.054999999701976776,1],"metallicFactor":0,"roughnessFactor":0.6200000047683716}},{"doubleSided":true,"name":"TF3_KL_Maturing_Coconut","pbrMetallicRoughness":{"baseColorFactor":[0.41999998688697815,0.3199999928474426,0.07000000029802322,1],"metallicFactor":0,"roughnessFactor":0.699999988079071}},{"doubleSided":true,"name":"TF3_KL_Petioles_Olive","pbrMetallicRoughness":{"baseColorFactor":[0.14000000059604645,0.20000000298023224,0.024000000208616257,1],"metallicFactor":0,"roughnessFactor":0.5799999833106995}},{"doubleSided":true,"name":"TF3_KL_Coconut_Scar_Rings","pbrMetallicRoughness":{"baseColorFactor":[0.18000000715255737,0.13500000536441803,0.07500000298023224,1],"metallicFactor":0,"roughnessFactor":0.949999988079071}},{"doubleSided":true,"name":"TF3_KL_Coconut_Frond","normalTexture":{"index":0,"scale":0.33000001311302185},"pbrMetallicRoughness":{"baseColorTexture":{"index":1},"metallicFactor":0,"roughnessFactor":0.47999998927116394}},{"doubleSided":true,"name":"TF3_KL_Coconut_Young_Lime","pbrMetallicRoughness":{"baseColorFactor":[0.12999999523162842,0.27000001072883606,0.029999999329447746,1],"metallicFactor":0,"roughnessFactor":0.47999998927116394}},{"doubleSided":true,"name":"TF3_KL_Coconut_Mature_Deep","pbrMetallicRoughness":{"baseColorFactor":[0.054999999701976776,0.1550000011920929,0.024000000208616257,1],"metallicFactor":0,"roughnessFactor":0.5400000214576721}},{"doubleSided":true,"name":"TF3_KL_Coconut_Old_Fawn","normalTexture":{"index":2,"scale":0.44999998807907104},"pbrMetallicRoughness":{"baseColorTexture":{"index":3},"metallicFactor":0,"roughnessFactor":0.8600000143051147}},{"doubleSided":true,"name":"TF3_KL_Coconut_Leafscar_Bark","normalTexture":{"index":4,"scale":0.7200000286102295},"pbrMetallicRoughness":{"baseColorTexture":{"index":5},"metallicFactor":0,"roughnessFactor":0.9100000262260437}}],"meshes":[{"name":"Coconut_Fruit_Clusters_Mesh","primitives":[{"attributes":{"POSITION":0,"NORMAL":1,"TEXCOORD_0":2},"indices":3,"material":0},{"attributes":{"POSITION":4,"NORMAL":5,"TEXCOORD_0":6},"indices":7,"material":1},{"attributes":{"POSITION":8,"NORMAL":9,"TEXCOORD_0":10},"indices":11,"material":2},{"attributes":{"POSITION":12,"NORMAL":13,"TEXCOORD_0":14},"indices":15,"material":3},{"attributes":{"POSITION":16,"NORMAL":17,"TEXCOORD_0":18},"indices":19,"material":4},{"attributes":{"POSITION":20,"NORMAL":21,"TEXCOORD_0":22},"indices":23,"material":5},{"attributes":{"POSITION":24,"NORMAL":25,"TEXCOORD_0":26},"indices":27,"material":6},{"attributes":{"POSITION":28,"NORMAL":29,"TEXCOORD_0":30},"indices":31,"material":7},{"attributes":{"POSITION":32,"NORMAL":33,"TEXCOORD_0":34},"indices":35,"material":8}]}],"textures":[{"sampler":0,"source":0},{"sampler":0,"source":1},{"sampler":0,"source":2},{"sampler":0,"source":3},{"sampler":0,"source":4},{"sampler":0,"source":5}],"images":[{"name":"palm_leaf_normal","uri":"textures/19a21337d4e9b08d842f77f3f08f4c609ee2a2ffe1e7f058d48ba838dbd66f2f.png"},{"name":"palm_leaf_color","uri":"textures/172f2d5c2651cda7c39a84a1c43ee4c5aa89113488497e782b536732fca1655f.png"},{"name":"dry_leaf_normal","uri":"textures/acc8763384432f4b145681dcbe939d8e99a371861f79270c8a650350e9128cdd.png"},{"name":"dry_leaf_color","uri":"textures/ae3af5890a00003c9094d5f6f171157e7ccedbac4a1b5d22f08ec9f6b5b9ad98.png"},{"name":"palm_bark_normal","uri":"textures/953b3804972092f96ef1980b3c8eff36a098957b202defe0887f9e1bfc0acf68.png"},{"name":"palm_bark_color","uri":"textures/9726c7d20d4ca71f66a288d74af174f949a3f94624d523c0f73d300eb1aebbc2.png"}],"accessors":[{"bufferView":0,"componentType":5126,"count":422,"max":[1.5868529081344604,11.577469825744629,0.5737555623054504],"min":[0.34520143270492554,10.96824836730957,-0.6881936192512512],"type":"VEC3"},{"bufferView":1,"componentType":5126,"count":422,"type":"VEC3"},{"bufferView":2,"componentType":5126,"count":422,"type":"VEC2"},{"bufferView":3,"componentType":5123,"count":1926,"type":"SCALAR"},{"bufferView":4,"componentType":5126,"count":291,"max":[1.642839789390564,11.577468872070312,0.639116644859314],"min":[0.5628757476806641,10.968254089355469,-0.516339123249054],"type":"VEC3"},{"bufferView":5,"componentType":5126,"count":291,"type":"VEC3"},{"bufferView":6,"componentType":5126,"count":291,"type":"VEC2"},{"bufferView":7,"componentType":5123,"count":1326,"type":"SCALAR"},{"bufferView":8,"componentType":5126,"count":2546,"max":[5.31096076965332,14.677461624145508,4.5123162269592285],"min":[-3.1520512104034424,8.457254409790039,-4.528166770935059],"type":"VEC3"},{"bufferView":9,"componentType":5126,"count":2546,"type":"VEC3"},{"bufferView":10,"componentType":5126,"count":2546,"type":"VEC2"},{"bufferView":11,"componentType":5123,"count":11286,"type":"SCALAR"},{"bufferView":12,"componentType":5126,"count":3235,"max":[1.1546261310577393,11.70980453491211,0.29598259925842285],"min":[-0.30261021852493286,0.08911469578742981,-0.4088435471057892],"type":"VEC3"},{"bufferView":13,"componentType":5126,"count":3235,"type":"VEC3"},{"bufferView":14,"componentType":5126,"count":3235,"type":"VEC2"},{"bufferView":15,"componentType":5123,"count":12912,"type":"SCALAR"},{"bufferView":16,"componentType":5126,"count":25380,"max":[5.254435062408447,14.745973587036133,4.482514381408691],"min":[-3.0888853073120117,8.592373847961426,-4.454117298126221],"type":"VEC3"},{"bufferView":17,"componentType":5126,"count":25380,"type":"VEC3"},{"bufferView":18,"componentType":5126,"count":25380,"type":"VEC2"},{"bufferView":19,"componentType":5123,"count":67038,"type":"SCALAR"},{"bufferView":20,"componentType":5126,"count":1183,"max":[4.498276710510254,14.74880313873291,3.6029419898986816],"min":[-3.1128947734832764,11.260734558105469,-3.7077431678771973],"type":"VEC3"},{"bufferView":21,"componentType":5126,"count":1183,"type":"VEC3"},{"bufferView":22,"componentType":5126,"count":1183,"type":"VEC2"},{"bufferView":23,"componentType":5123,"count":3198,"type":"SCALAR"},{"bufferView":24,"componentType":5126,"count":2194,"max":[5.242161750793457,13.619593620300293,4.376576900482178],"min":[-2.791086435317993,8.863877296447754,-4.492406845092773],"type":"VEC3"},{"bufferView":25,"componentType":5126,"count":2194,"type":"VEC3"},{"bufferView":26,"componentType":5126,"count":2194,"type":"VEC2"},{"bufferView":27,"componentType":5123,"count":5817,"type":"SCALAR"},{"bufferView":28,"componentType":5126,"count":2200,"max":[4.990265369415283,11.620793342590332,1.7093579769134521],"min":[-1.0435943603515625,8.491854667663574,-3.9085023403167725],"type":"VEC3"},{"bufferView":29,"componentType":5126,"count":2200,"type":"VEC3"},{"bufferView":30,"componentType":5126,"count":2200,"type":"VEC2"},{"bufferView":31,"componentType":5123,"count":5832,"type":"SCALAR"},{"bufferView":32,"componentType":5126,"count":1352,"max":[1.167102575302124,11.84028148651123,0.5500754714012146],"min":[-0.5425600409507751,0.00026889145374298096,-0.5504522919654846],"type":"VEC3"},{"bufferView":33,"componentType":5126,"count":1352,"type":"VEC3"},{"bufferView":34,"componentType":5126,"count":1352,"type":"VEC2"},{"bufferView":35,"componentType":5123,"count":6768,"type":"SCALAR"}],"bufferViews":[{"buffer":0,"byteLength":5064,"byteOffset":0,"target":34962},{"buffer":0,"byteLength":5064,"byteOffset":5064,"target":34962},{"buffer":0,"byteLength":3376,"byteOffset":10128,"target":34962},{"buffer":0,"byteLength":3852,"byteOffset":13504,"target":34963},{"buffer":0,"byteLength":3492,"byteOffset":17356,"target":34962},{"buffer":0,"byteLength":3492,"byteOffset":20848,"target":34962},{"buffer":0,"byteLength":2328,"byteOffset":24340,"target":34962},{"buffer":0,"byteLength":2652,"byteOffset":26668,"target":34963},{"buffer":0,"byteLength":30552,"byteOffset":29320,"target":34962},{"buffer":0,"byteLength":30552,"byteOffset":59872,"target":34962},{"buffer":0,"byteLength":20368,"byteOffset":90424,"target":34962},{"buffer":0,"byteLength":22572,"byteOffset":110792,"target":34963},{"buffer":0,"byteLength":38820,"byteOffset":133364,"target":34962},{"buffer":0,"byteLength":38820,"byteOffset":172184,"target":34962},{"buffer":0,"byteLength":25880,"byteOffset":211004,"target":34962},{"buffer":0,"byteLength":25824,"byteOffset":236884,"target":34963},{"buffer":0,"byteLength":304560,"byteOffset":262708,"target":34962},{"buffer":0,"byteLength":304560,"byteOffset":567268,"target":34962},{"buffer":0,"byteLength":203040,"byteOffset":871828,"target":34962},{"buffer":0,"byteLength":134076,"byteOffset":1074868,"target":34963},{"buffer":0,"byteLength":14196,"byteOffset":1208944,"target":34962},{"buffer":0,"byteLength":14196,"byteOffset":1223140,"target":34962},{"buffer":0,"byteLength":9464,"byteOffset":1237336,"target":34962},{"buffer":0,"byteLength":6396,"byteOffset":1246800,"target":34963},{"buffer":0,"byteLength":26328,"byteOffset":1253196,"target":34962},{"buffer":0,"byteLength":26328,"byteOffset":1279524,"target":34962},{"buffer":0,"byteLength":17552,"byteOffset":1305852,"target":34962},{"buffer":0,"byteLength":11634,"byteOffset":1323404,"target":34963},{"buffer":0,"byteLength":26400,"byteOffset":1335040,"target":34962},{"buffer":0,"byteLength":26400,"byteOffset":1361440,"target":34962},{"buffer":0,"byteLength":17600,"byteOffset":1387840,"target":34962},{"buffer":0,"byteLength":11664,"byteOffset":1405440,"target":34963},{"buffer":0,"byteLength":16224,"byteOffset":1417104,"target":34962},{"buffer":0,"byteLength":16224,"byteOffset":1433328,"target":34962},{"buffer":0,"byteLength":10816,"byteOffset":1449552,"target":34962},{"buffer":0,"byteLength":13536,"byteOffset":1460368,"target":34963}],"samplers":[{"magFilter":9729,"minFilter":9987}],"buffers":[{"uri":"KL_LS_Coconut_Tall_A_LOD1.bin","byteLength":1473904}]}