{"asset":{"generator":"Khronos glTF Blender I/O v5.2.40","version":"2.0"},"scene":0,"scenes":[{"name":"Scene","nodes":[0]}],"nodes":[{"mesh":0,"name":"TF3_KR_R04"}],"materials":[{"doubleSided":true,"name":"TF3_KR_faded_ink","pbrMetallicRoughness":{"baseColorFactor":[0.07828831672668457,0.08353512734174728,0.059253521263599396,1],"metallicFactor":0,"roughnessFactor":0.8999999761581421}},{"doubleSided":true,"name":"TF3_KR_dark_concrete","normalTexture":{"index":0,"scale":0.3499999940395355},"pbrMetallicRoughness":{"baseColorTexture":{"index":1},"metallicFactor":0,"metallicRoughnessTexture":{"index":2}}},{"alphaMode":"BLEND","doubleSided":true,"name":"TF3_KR_damp_algae_decal","pbrMetallicRoughness":{"baseColorTexture":{"index":3},"metallicFactor":0,"roughnessFactor":0.9599999785423279}},{"doubleSided":true,"name":"TF3_KR_black","pbrMetallicRoughness":{"baseColorFactor":[0.006571403704583645,0.00854038167744875,0.00854038167744875,1],"metallicFactor":0,"roughnessFactor":0.75}},{"doubleSided":true,"name":"TF3_KR_concrete","normalTexture":{"index":4,"scale":0.3499999940395355},"pbrMetallicRoughness":{"baseColorTexture":{"index":5},"metallicFactor":0,"metallicRoughnessTexture":{"index":6}}}],"meshes":[{"name":"Cast_batch_letters","primitives":[{"attributes":{"POSITION":0,"NORMAL":1,"TEXCOORD_0":2},"indices":3,"material":0},{"attributes":{"POSITION":4,"NORMAL":5,"TEXCOORD_0":6},"indices":7,"material":1},{"attributes":{"POSITION":8,"NORMAL":9,"TEXCOORD_0":10},"indices":11,"material":2},{"attributes":{"POSITION":12,"NORMAL":13,"TEXCOORD_0":14},"indices":15,"material":3},{"attributes":{"POSITION":16,"NORMAL":17,"TEXCOORD_0":18},"indices":19,"material":4}]}],"textures":[{"sampler":0,"source":0},{"sampler":0,"source":1},{"sampler":0,"source":2},{"sampler":0,"source":3},{"sampler":0,"source":4},{"sampler":0,"source":5},{"sampler":0,"source":6}],"images":[{"name":"dark_concrete_normal","uri":"textures/1e4ef6c16e52b936423e2036986053e2bd12e8a5f64bb06b30bdd08326c6e134.png"},{"name":"dark_concrete_basecolor","uri":"textures/41b39ba9836f2acc67e1420bd202eb42268a09ca4ba2daeced0eb27bff1f2aa5.png"},{"name":"dark_concrete_roughness","uri":"textures/f57777001a1b4e80f430f9fe20f179b4f87b4053179fefd808709eb6a0b4632a.png"},{"name":"damp_algae_decal","uri":"textures/7ed59975d2664d85f01eabac4a248689a813926850a0f680800abb776e035c04.png"},{"name":"concrete_normal","uri":"textures/fda994eebbe1b57f4711f092127f1bc19eebbed0bb391de64c586c0351ad1bc4.png"},{"name":"concrete_basecolor","uri":"textures/27390e807f59507730b42163a65dc5350d378c311f527bfa459a9f77edf0a26f.png"},{"name":"concrete_roughness","uri":"textures/c4f806cac11f661fc81e5735b02240e44cde46af6cdd1325033feae899d8bff6.png"}],"accessors":[{"bufferView":0,"componentType":5126,"count":1190,"max":[-0.8863677382469177,0.20376534759998322,0.23340000212192535],"min":[-0.9335469007492065,0.18701910972595215,0.23259998857975006],"type":"VEC3"},{"bufferView":1,"componentType":5126,"count":1190,"type":"VEC3"},{"bufferView":2,"componentType":5126,"count":1190,"type":"VEC2"},{"bufferView":3,"componentType":5123,"count":5664,"type":"SCALAR"},{"bufferView":4,"componentType":5126,"count":216,"max":[1.2000000476837158,0.06999999284744263,0.23000000417232513],"min":[-1.2000000476837158,-1.4901161193847656e-08,-0.23000000417232513],"type":"VEC3"},{"bufferView":5,"componentType":5126,"count":216,"type":"VEC3"},{"bufferView":6,"componentType":5126,"count":216,"type":"VEC2"},{"bufferView":7,"componentType":5123,"count":324,"type":"SCALAR"},{"bufferView":8,"componentType":5126,"count":12,"max":[1.0199999809265137,0.1599999964237213,0.23199999332427979],"min":[-0.949999988079071,0.06999999284744263,0.23199999332427979],"type":"VEC3"},{"bufferView":9,"componentType":5126,"count":12,"type":"VEC3"},{"bufferView":10,"componentType":5126,"count":12,"type":"VEC2"},{"bufferView":11,"componentType":5123,"count":18,"type":"SCALAR"},{"bufferView":12,"componentType":5126,"count":1437,"max":[1.2100317478179932,0.34200000762939453,0.10500001907348633],"min":[-1.2100317478179932,0.11108533293008804,-0.0950000137090683],"type":"VEC3"},{"bufferView":13,"componentType":5126,"count":1437,"type":"VEC3"},{"bufferView":14,"componentType":5126,"count":1437,"type":"VEC2"},{"bufferView":15,"componentType":5123,"count":2376,"type":"SCALAR"},{"bufferView":16,"componentType":5126,"count":1298,"max":[1.2000000476837158,0.3400000035762787,0.8997990489006042],"min":[-1.2000000476837158,0,-0.23749999701976776],"type":"VEC3"},{"bufferView":17,"componentType":5126,"count":1298,"type":"VEC3"},{"bufferView":18,"componentType":5126,"count":1298,"type":"VEC2"},{"bufferView":19,"componentType":5123,"count":1944,"type":"SCALAR"}],"bufferViews":[{"buffer":0,"byteLength":14280,"byteOffset":0,"target":34962},{"buffer":0,"byteLength":14280,"byteOffset":14280,"target":34962},{"buffer":0,"byteLength":9520,"byteOffset":28560,"target":34962},{"buffer":0,"byteLength":11328,"byteOffset":38080,"target":34963},{"buffer":0,"byteLength":2592,"byteOffset":49408,"target":34962},{"buffer":0,"byteLength":2592,"byteOffset":52000,"target":34962},{"buffer":0,"byteLength":1728,"byteOffset":54592,"target":34962},{"buffer":0,"byteLength":648,"byteOffset":56320,"target":34963},{"buffer":0,"byteLength":144,"byteOffset":56968,"target":34962},{"buffer":0,"byteLength":144,"byteOffset":57112,"target":34962},{"buffer":0,"byteLength":96,"byteOffset":57256,"target":34962},{"buffer":0,"byteLength":36,"byteOffset":57352,"target":34963},{"buffer":0,"byteLength":17244,"byteOffset":57388,"target":34962},{"buffer":0,"byteLength":17244,"byteOffset":74632,"target":34962},{"buffer":0,"byteLength":11496,"byteOffset":91876,"target":34962},{"buffer":0,"byteLength":4752,"byteOffset":103372,"target":34963},{"buffer":0,"byteLength":15576,"byteOffset":108124,"target":34962},{"buffer":0,"byteLength":15576,"byteOffset":123700,"target":34962},{"buffer":0,"byteLength":10384,"byteOffset":139276,"target":34962},{"buffer":0,"byteLength":3888,"byteOffset":149660,"target":34963}],"samplers":[{"magFilter":9729,"minFilter":9987}],"buffers":[{"uri":"KR_R04.bin","byteLength":153548}]}