{"asset":{"generator":"Khronos glTF Blender I/O v5.2.40","version":"2.0"},"scene":0,"scenes":[{"name":"Scene","nodes":[0]}],"nodes":[{"mesh":0,"name":"TF3_KR_R07"}],"materials":[{"doubleSided":true,"name":"TF3_KR_zinc","normalTexture":{"index":0,"scale":0.3499999940395355},"pbrMetallicRoughness":{"baseColorTexture":{"index":1},"metallicFactor":0.75,"metallicRoughnessTexture":{"index":2}}},{"doubleSided":true,"name":"TF3_KR_dark_concrete","normalTexture":{"index":3,"scale":0.3499999940395355},"pbrMetallicRoughness":{"baseColorTexture":{"index":4},"metallicFactor":0,"metallicRoughnessTexture":{"index":5}}},{"doubleSided":true,"name":"TF3_KR_whitewash","normalTexture":{"index":6,"scale":0.3499999940395355},"pbrMetallicRoughness":{"baseColorTexture":{"index":7},"metallicFactor":0,"metallicRoughnessTexture":{"index":8}}},{"alphaMode":"BLEND","doubleSided":true,"name":"TF3_KR_damp_algae_decal","pbrMetallicRoughness":{"baseColorTexture":{"index":9},"metallicFactor":0,"roughnessFactor":0.9599999785423279}}],"meshes":[{"name":"Binding_wire_curve","primitives":[{"attributes":{"POSITION":0,"NORMAL":1,"TEXCOORD_0":2},"indices":3,"material":0},{"attributes":{"POSITION":4,"NORMAL":5,"TEXCOORD_0":6},"indices":7,"material":1},{"attributes":{"POSITION":8,"NORMAL":9,"TEXCOORD_0":10},"indices":11,"material":2},{"attributes":{"POSITION":12,"NORMAL":13,"TEXCOORD_0":14},"indices":15,"material":3}]}],"textures":[{"sampler":0,"source":0},{"sampler":0,"source":1},{"sampler":0,"source":2},{"sampler":0,"source":3},{"sampler":0,"source":4},{"sampler":0,"source":5},{"sampler":0,"source":6},{"sampler":0,"source":7},{"sampler":0,"source":8},{"sampler":0,"source":9}],"images":[{"name":"zinc_normal","uri":"textures/ab099086dd0d1714963937448c90fdf272c849888f0c6174db21238e7c8e1251.png"},{"name":"zinc_basecolor","uri":"textures/4a866830366d3a37fd614bf492e0622d5f27e6b62f9b5d5389a995a24d5785d5.png"},{"name":"zinc_roughness","uri":"textures/7fc926275eba659e1df112c5d14334a6ce890b06cb2c6a0d5e16f9337e3c6d6b.png"},{"name":"dark_concrete_normal","uri":"textures/1e4ef6c16e52b936423e2036986053e2bd12e8a5f64bb06b30bdd08326c6e134.png"},{"name":"dark_concrete_basecolor","uri":"textures/41b39ba9836f2acc67e1420bd202eb42268a09ca4ba2daeced0eb27bff1f2aa5.png"},{"name":"dark_concrete_roughness","uri":"textures/f57777001a1b4e80f430f9fe20f179b4f87b4053179fefd808709eb6a0b4632a.png"},{"name":"whitewash_normal","uri":"textures/1aa02bdcaeebed0d1fb0a8255cd218ec61ebf7b2de2ad824a5fef4d821dd8419.png"},{"name":"whitewash_basecolor","uri":"textures/fd4bdf85a3bfbfb818561220f30f732592135d574a5dbde25387a0f0c09f109a.png"},{"name":"whitewash_roughness","uri":"textures/925e589e666f9615f86ee2b03be77b47c651df035b468cd4fdc9271eb53d6fee.png"},{"name":"damp_algae_decal","uri":"textures/7ed59975d2664d85f01eabac4a248689a813926850a0f680800abb776e035c04.png"}],"accessors":[{"bufferView":0,"componentType":5126,"count":8260,"max":[1.592307686805725,1.5824905633926392,0.12456542998552322],"min":[-1.5922983884811401,0.2943117320537567,-0.08000002801418304],"type":"VEC3"},{"bufferView":1,"componentType":5126,"count":8260,"type":"VEC3"},{"bufferView":2,"componentType":5126,"count":8260,"type":"VEC2"},{"bufferView":3,"componentType":5123,"count":38040,"type":"SCALAR"},{"bufferView":4,"componentType":5126,"count":648,"max":[1.659999966621399,0.1599999964237213,0.1599999964237213],"min":[-1.659999966621399,0,-0.16500000655651093],"type":"VEC3"},{"bufferView":5,"componentType":5126,"count":648,"type":"VEC3"},{"bufferView":6,"componentType":5126,"count":648,"type":"VEC2"},{"bufferView":7,"componentType":5123,"count":972,"type":"SCALAR"},{"bufferView":8,"componentType":5126,"count":774,"max":[1.5849615335464478,1.6399999856948853,0.07000000029802322],"min":[-1.5849615335464478,0,-0.08250004053115845],"type":"VEC3"},{"bufferView":9,"componentType":5126,"count":774,"type":"VEC3"},{"bufferView":10,"componentType":5126,"count":774,"type":"VEC2"},{"bufferView":11,"componentType":5123,"count":1116,"type":"SCALAR"},{"bufferView":12,"componentType":5126,"count":8,"max":[1.5809999704360962,0.3100000023841858,0.07100000232458115],"min":[-1.5809999704360962,0.1599999964237213,0.07100000232458115],"type":"VEC3"},{"bufferView":13,"componentType":5126,"count":8,"type":"VEC3"},{"bufferView":14,"componentType":5126,"count":8,"type":"VEC2"},{"bufferView":15,"componentType":5123,"count":12,"type":"SCALAR"}],"bufferViews":[{"buffer":0,"byteLength":99120,"byteOffset":0,"target":34962},{"buffer":0,"byteLength":99120,"byteOffset":99120,"target":34962},{"buffer":0,"byteLength":66080,"byteOffset":198240,"target":34962},{"buffer":0,"byteLength":76080,"byteOffset":264320,"target":34963},{"buffer":0,"byteLength":7776,"byteOffset":340400,"target":34962},{"buffer":0,"byteLength":7776,"byteOffset":348176,"target":34962},{"buffer":0,"byteLength":5184,"byteOffset":355952,"target":34962},{"buffer":0,"byteLength":1944,"byteOffset":361136,"target":34963},{"buffer":0,"byteLength":9288,"byteOffset":363080,"target":34962},{"buffer":0,"byteLength":9288,"byteOffset":372368,"target":34962},{"buffer":0,"byteLength":6192,"byteOffset":381656,"target":34962},{"buffer":0,"byteLength":2232,"byteOffset":387848,"target":34963},{"buffer":0,"byteLength":96,"byteOffset":390080,"target":34962},{"buffer":0,"byteLength":96,"byteOffset":390176,"target":34962},{"buffer":0,"byteLength":64,"byteOffset":390272,"target":34962},{"buffer":0,"byteLength":24,"byteOffset":390336,"target":34963}],"samplers":[{"magFilter":9729,"minFilter":9987}],"buffers":[{"uri":"KR_R07.bin","byteLength":390360}]}