{"asset":{"generator":"Khronos glTF Blender I/O v5.2.40","version":"2.0"},"scene":0,"scenes":[{"name":"Scene","nodes":[0]}],"nodes":[{"mesh":0,"name":"TF3_KR_R06"}],"materials":[{"alphaMode":"BLEND","doubleSided":true,"name":"TF3_KR_damp_algae_decal","pbrMetallicRoughness":{"baseColorTexture":{"index":0},"metallicFactor":0,"roughnessFactor":0.9599999785423279}},{"doubleSided":true,"name":"TF3_KR_concrete","normalTexture":{"index":1,"scale":0.3499999940395355},"pbrMetallicRoughness":{"baseColorTexture":{"index":2},"metallicFactor":0,"metallicRoughnessTexture":{"index":3}}},{"doubleSided":true,"name":"TF3_KR_dark_concrete","normalTexture":{"index":4,"scale":0.3499999940395355},"pbrMetallicRoughness":{"baseColorTexture":{"index":5},"metallicFactor":0,"metallicRoughnessTexture":{"index":6}}},{"doubleSided":true,"name":"TF3_KR_whitewash","normalTexture":{"index":7,"scale":0.3499999940395355},"pbrMetallicRoughness":{"baseColorTexture":{"index":8},"metallicFactor":0,"metallicRoughnessTexture":{"index":9}}},{"doubleSided":true,"name":"TF3_KR_hole","pbrMetallicRoughness":{"baseColorFactor":[0.01960664801299572,0.027211781591176987,0.01960664801299572,1],"metallicFactor":0,"roughnessFactor":0.9399999976158142}},{"doubleSided":true,"name":"TF3_KR_black","pbrMetallicRoughness":{"baseColorFactor":[0.006571403704583645,0.00854038167744875,0.00854038167744875,1],"metallicFactor":0,"roughnessFactor":0.75}},{"doubleSided":true,"name":"TF3_KR_laterite","normalTexture":{"index":10,"scale":0.3499999940395355},"pbrMetallicRoughness":{"baseColorTexture":{"index":11},"metallicFactor":0,"metallicRoughnessTexture":{"index":12}}}],"meshes":[{"name":"Algae_jamb_mesh","primitives":[{"attributes":{"POSITION":0,"NORMAL":1,"TEXCOORD_0":2},"indices":3,"material":0},{"attributes":{"POSITION":4,"NORMAL":5,"TEXCOORD_0":6},"indices":7,"material":1},{"attributes":{"POSITION":8,"NORMAL":9,"TEXCOORD_0":10},"indices":11,"material":2},{"attributes":{"POSITION":12,"NORMAL":13,"TEXCOORD_0":14},"indices":15,"material":3},{"attributes":{"POSITION":16,"NORMAL":17,"TEXCOORD_0":18},"indices":19,"material":4},{"attributes":{"POSITION":20,"NORMAL":21,"TEXCOORD_0":22},"indices":23,"material":5},{"attributes":{"POSITION":24,"NORMAL":25,"TEXCOORD_0":26},"indices":27,"material":6}]}],"textures":[{"sampler":0,"source":0},{"sampler":0,"source":1},{"sampler":0,"source":2},{"sampler":0,"source":3},{"sampler":0,"source":4},{"sampler":0,"source":5},{"sampler":0,"source":6},{"sampler":0,"source":7},{"sampler":0,"source":8},{"sampler":0,"source":9},{"sampler":0,"source":10},{"sampler":0,"source":11},{"sampler":0,"source":12}],"images":[{"name":"damp_algae_decal","uri":"textures/7ed59975d2664d85f01eabac4a248689a813926850a0f680800abb776e035c04.png"},{"name":"concrete_normal","uri":"textures/fda994eebbe1b57f4711f092127f1bc19eebbed0bb391de64c586c0351ad1bc4.png"},{"name":"concrete_basecolor","uri":"textures/27390e807f59507730b42163a65dc5350d378c311f527bfa459a9f77edf0a26f.png"},{"name":"concrete_roughness","uri":"textures/c4f806cac11f661fc81e5735b02240e44cde46af6cdd1325033feae899d8bff6.png"},{"name":"dark_concrete_normal","uri":"textures/1e4ef6c16e52b936423e2036986053e2bd12e8a5f64bb06b30bdd08326c6e134.png"},{"name":"dark_concrete_basecolor","uri":"textures/41b39ba9836f2acc67e1420bd202eb42268a09ca4ba2daeced0eb27bff1f2aa5.png"},{"name":"dark_concrete_roughness","uri":"textures/f57777001a1b4e80f430f9fe20f179b4f87b4053179fefd808709eb6a0b4632a.png"},{"name":"whitewash_normal","uri":"textures/1aa02bdcaeebed0d1fb0a8255cd218ec61ebf7b2de2ad824a5fef4d821dd8419.png"},{"name":"whitewash_basecolor","uri":"textures/fd4bdf85a3bfbfb818561220f30f732592135d574a5dbde25387a0f0c09f109a.png"},{"name":"whitewash_roughness","uri":"textures/925e589e666f9615f86ee2b03be77b47c651df035b468cd4fdc9271eb53d6fee.png"},{"name":"laterite_normal","uri":"textures/b49e542d796a05b08b3e57146cee2c2a20a5427009ecc5303a6532afdacca096.png"},{"name":"laterite_basecolor","uri":"textures/57b7cbf41dd1a82952c3d29f466cb9e8ae7bb8b6a86b7eeaeeeccdb879c0e329.png"},{"name":"laterite_roughness","uri":"textures/1290af61ef72b09a3c821ff8ac7307ece220e87362eb3c732fe22d0febb80d1c.png"}],"accessors":[{"bufferView":0,"componentType":5126,"count":12,"max":[1.059999942779541,1.399999976158142,0.4189999997615814],"min":[-1.059999942779541,0.17000000178813934,0.4090000092983246],"type":"VEC3"},{"bufferView":1,"componentType":5126,"count":12,"type":"VEC3"},{"bufferView":2,"componentType":5126,"count":12,"type":"VEC2"},{"bufferView":3,"componentType":5123,"count":18,"type":"SCALAR"},{"bufferView":4,"componentType":5126,"count":2422,"max":[1.8887085914611816,1.8949999809265137,1.4798038005828857],"min":[-1.8887085914611816,0.030000030994415283,-0.9700000286102295],"type":"VEC3"},{"bufferView":5,"componentType":5126,"count":2422,"type":"VEC3"},{"bufferView":6,"componentType":5126,"count":2422,"type":"VEC2"},{"bufferView":7,"componentType":5123,"count":3564,"type":"SCALAR"},{"bufferView":8,"componentType":5126,"count":658,"max":[1.850000023841858,0.20000000298023224,1.840000033378601],"min":[-1.850000023841858,0,-0.8500000238418579],"type":"VEC3"},{"bufferView":9,"componentType":5126,"count":658,"type":"VEC3"},{"bufferView":10,"componentType":5126,"count":658,"type":"VEC2"},{"bufferView":11,"componentType":5123,"count":972,"type":"SCALAR"},{"bufferView":12,"componentType":5126,"count":222,"max":[0.1850000023841858,1.6700000762939453,0.4270000159740448],"min":[-0.1850000023841858,1.4900000095367432,0.41499999165534973],"type":"VEC3"},{"bufferView":13,"componentType":5126,"count":222,"type":"VEC3"},{"bufferView":14,"componentType":5126,"count":222,"type":"VEC2"},{"bufferView":15,"componentType":5123,"count":324,"type":"SCALAR"},{"bufferView":16,"componentType":5126,"count":272,"max":[0.875,1.2350000143051147,0.4230000078678131],"min":[-0.875,0.48500001430511475,0.41599997878074646],"type":"VEC3"},{"bufferView":17,"componentType":5126,"count":272,"type":"VEC3"},{"bufferView":18,"componentType":5126,"count":272,"type":"VEC2"},{"bufferView":19,"componentType":5123,"count":720,"type":"SCALAR"},{"bufferView":20,"componentType":5126,"count":1468,"max":[0.07671719044446945,1.6024603843688965,0.430400013923645],"min":[-0.07680008560419083,1.5551081895828247,0.4296000003814697],"type":"VEC3"},{"bufferView":21,"componentType":5126,"count":1468,"type":"VEC3"},{"bufferView":22,"componentType":5126,"count":1468,"type":"VEC2"},{"bufferView":23,"componentType":5123,"count":7080,"type":"SCALAR"},{"bufferView":24,"componentType":5126,"count":3944,"max":[1.6572134494781494,0.2051723599433899,1.4812091588974],"min":[-1.6587371826171875,0.055065594613552094,0.47826850414276123],"type":"VEC3"},{"bufferView":25,"componentType":5126,"count":3944,"type":"VEC3"},{"bufferView":26,"componentType":5126,"count":3944,"type":"VEC2"},{"bufferView":27,"componentType":5123,"count":5832,"type":"SCALAR"}],"bufferViews":[{"buffer":0,"byteLength":144,"byteOffset":0,"target":34962},{"buffer":0,"byteLength":144,"byteOffset":144,"target":34962},{"buffer":0,"byteLength":96,"byteOffset":288,"target":34962},{"buffer":0,"byteLength":36,"byteOffset":384,"target":34963},{"buffer":0,"byteLength":29064,"byteOffset":420,"target":34962},{"buffer":0,"byteLength":29064,"byteOffset":29484,"target":34962},{"buffer":0,"byteLength":19376,"byteOffset":58548,"target":34962},{"buffer":0,"byteLength":7128,"byteOffset":77924,"target":34963},{"buffer":0,"byteLength":7896,"byteOffset":85052,"target":34962},{"buffer":0,"byteLength":7896,"byteOffset":92948,"target":34962},{"buffer":0,"byteLength":5264,"byteOffset":100844,"target":34962},{"buffer":0,"byteLength":1944,"byteOffset":106108,"target":34963},{"buffer":0,"byteLength":2664,"byteOffset":108052,"target":34962},{"buffer":0,"byteLength":2664,"byteOffset":110716,"target":34962},{"buffer":0,"byteLength":1776,"byteOffset":113380,"target":34962},{"buffer":0,"byteLength":648,"byteOffset":115156,"target":34963},{"buffer":0,"byteLength":3264,"byteOffset":115804,"target":34962},{"buffer":0,"byteLength":3264,"byteOffset":119068,"target":34962},{"buffer":0,"byteLength":2176,"byteOffset":122332,"target":34962},{"buffer":0,"byteLength":1440,"byteOffset":124508,"target":34963},{"buffer":0,"byteLength":17616,"byteOffset":125948,"target":34962},{"buffer":0,"byteLength":17616,"byteOffset":143564,"target":34962},{"buffer":0,"byteLength":11744,"byteOffset":161180,"target":34962},{"buffer":0,"byteLength":14160,"byteOffset":172924,"target":34963},{"buffer":0,"byteLength":47328,"byteOffset":187084,"target":34962},{"buffer":0,"byteLength":47328,"byteOffset":234412,"target":34962},{"buffer":0,"byteLength":31552,"byteOffset":281740,"target":34962},{"buffer":0,"byteLength":11664,"byteOffset":313292,"target":34963}],"samplers":[{"magFilter":9729,"minFilter":9987}],"buffers":[{"uri":"KR_R06.bin","byteLength":324956}]}