{"asset":{"generator":"Khronos glTF Blender I/O v5.2.40","version":"2.0"},"scene":0,"scenes":[{"name":"Scene","nodes":[0]}],"nodes":[{"mesh":0,"name":"TF3_KR_R13"}],"materials":[{"doubleSided":true,"name":"TF3_KR_cream_plaster","normalTexture":{"index":0,"scale":0.3499999940395355},"pbrMetallicRoughness":{"baseColorTexture":{"index":1},"metallicFactor":0,"metallicRoughnessTexture":{"index":2}}},{"doubleSided":true,"name":"TF3_KR_zinc","normalTexture":{"index":3,"scale":0.3499999940395355},"pbrMetallicRoughness":{"baseColorTexture":{"index":4},"metallicFactor":0.6800000071525574,"metallicRoughnessTexture":{"index":5}}},{"doubleSided":true,"name":"TF3_KR_slate_green","normalTexture":{"index":6,"scale":0.3499999940395355},"pbrMetallicRoughness":{"baseColorTexture":{"index":7},"metallicFactor":0,"metallicRoughnessTexture":{"index":8}}},{"doubleSided":true,"name":"TF3_KR_black","pbrMetallicRoughness":{"baseColorFactor":[0.006571403704583645,0.00854038167744875,0.00854038167744875,1],"metallicFactor":0,"roughnessFactor":0.75}},{"doubleSided":true,"name":"TF3_KR_aged_wood","normalTexture":{"index":9,"scale":0.3499999940395355},"pbrMetallicRoughness":{"baseColorTexture":{"index":10},"metallicFactor":0,"metallicRoughnessTexture":{"index":11}}},{"doubleSided":true,"name":"TF3_KR_oxide","normalTexture":{"index":12,"scale":0.3499999940395355},"pbrMetallicRoughness":{"baseColorTexture":{"index":13},"metallicFactor":0,"metallicRoughnessTexture":{"index":14}}},{"doubleSided":true,"name":"TF3_KR_bolts","pbrMetallicRoughness":{"baseColorFactor":[0.10653922706842422,0.1259673833847046,0.11928018927574158,1],"metallicFactor":0.800000011920929,"roughnessFactor":0.36000001430511475}},{"doubleSided":true,"name":"TF3_KR_concrete","normalTexture":{"index":15,"scale":0.3499999940395355},"pbrMetallicRoughness":{"baseColorTexture":{"index":16},"metallicFactor":0,"metallicRoughnessTexture":{"index":17}}},{"doubleSided":true,"name":"TF3_KR_laterite","normalTexture":{"index":18,"scale":0.3499999940395355},"pbrMetallicRoughness":{"baseColorTexture":{"index":19},"metallicFactor":0,"metallicRoughnessTexture":{"index":20}}},{"doubleSided":true,"name":"TF3_KR_dull_brass","pbrMetallicRoughness":{"baseColorFactor":[0.11280478537082672,0.07828831672668457,0.017389101907610893,1],"metallicFactor":0.550000011920929,"roughnessFactor":0.47999998927116394}},{"doubleSided":true,"name":"TF3_KR_dark_concrete","normalTexture":{"index":21,"scale":0.3499999940395355},"pbrMetallicRoughness":{"baseColorTexture":{"index":22},"metallicFactor":0,"metallicRoughnessTexture":{"index":23}}},{"alphaMode":"BLEND","doubleSided":true,"name":"TF3_KR_damp_algae_decal","pbrMetallicRoughness":{"baseColorTexture":{"index":24},"metallicFactor":0,"roughnessFactor":0.9599999785423279}},{"doubleSided":true,"name":"TF3_KR_ochre_paint","normalTexture":{"index":25,"scale":0.3499999940395355},"pbrMetallicRoughness":{"baseColorTexture":{"index":26},"metallicFactor":0,"metallicRoughnessTexture":{"index":27}}}],"meshes":[{"name":"Front_wall_with_door_opening_mesh","primitives":[{"attributes":{"POSITION":0,"NORMAL":1,"TEXCOORD_0":2},"indices":3,"material":0},{"attributes":{"POSITION":4,"NORMAL":5,"TEXCOORD_0":6},"indices":7,"material":1},{"attributes":{"POSITION":8,"NORMAL":9,"TEXCOORD_0":10},"indices":11,"material":2},{"attributes":{"POSITION":12,"NORMAL":13,"TEXCOORD_0":14},"indices":15,"material":3},{"attributes":{"POSITION":16,"NORMAL":17,"TEXCOORD_0":18},"indices":19,"material":4},{"attributes":{"POSITION":20,"NORMAL":21,"TEXCOORD_0":22},"indices":23,"material":5},{"attributes":{"POSITION":24,"NORMAL":25,"TEXCOORD_0":26},"indices":27,"material":6},{"attributes":{"POSITION":28,"NORMAL":29,"TEXCOORD_0":30},"indices":31,"material":7},{"attributes":{"POSITION":32,"NORMAL":33,"TEXCOORD_0":34},"indices":35,"material":8},{"attributes":{"POSITION":36,"NORMAL":37,"TEXCOORD_0":38},"indices":39,"material":9},{"attributes":{"POSITION":40,"NORMAL":41,"TEXCOORD_0":42},"indices":39,"material":10},{"attributes":{"POSITION":43,"NORMAL":44,"TEXCOORD_0":45},"indices":46,"material":11},{"attributes":{"POSITION":47,"NORMAL":48,"TEXCOORD_0":49},"indices":50,"material":12}]}],"textures":[{"sampler":0,"source":0},{"sampler":0,"source":1},{"sampler":0,"source":2},{"sampler":0,"source":3},{"sampler":0,"source":4},{"sampler":0,"source":5},{"sampler":0,"source":6},{"sampler":0,"source":7},{"sampler":0,"source":8},{"sampler":0,"source":9},{"sampler":0,"source":10},{"sampler":0,"source":11},{"sampler":0,"source":12},{"sampler":0,"source":13},{"sampler":0,"source":14},{"sampler":0,"source":15},{"sampler":0,"source":16},{"sampler":0,"source":17},{"sampler":0,"source":18},{"sampler":0,"source":19},{"sampler":0,"source":20},{"sampler":0,"source":21},{"sampler":0,"source":22},{"sampler":0,"source":23},{"sampler":0,"source":24},{"sampler":0,"source":25},{"sampler":0,"source":26},{"sampler":0,"source":27}],"images":[{"name":"cream_plaster_normal","uri":"textures/474a91f7f2975c951827bf0ad6fc6c3b062dee31812c915a69e721564a1135b0.png"},{"name":"cream_plaster_basecolor","uri":"textures/1da51a4a0677724f8527a81f7b7eea2467227a1c1c001058c00157c0d25ce953.png"},{"name":"cream_plaster_roughness","uri":"textures/6aab5936e9c8c40392defed8bee0c984a8036774d89466f80a915fc06e8eef19.png"},{"name":"zinc_normal","uri":"textures/ab099086dd0d1714963937448c90fdf272c849888f0c6174db21238e7c8e1251.png"},{"name":"zinc_basecolor","uri":"textures/4a866830366d3a37fd614bf492e0622d5f27e6b62f9b5d5389a995a24d5785d5.png"},{"name":"zinc_roughness","uri":"textures/7fc926275eba659e1df112c5d14334a6ce890b06cb2c6a0d5e16f9337e3c6d6b.png"},{"name":"slate_green_normal","uri":"textures/4845d6951626235fca00fb9d3e36f9b07afb1c856a35ff18ed0c37af65f0e53c.png"},{"name":"slate_green_basecolor","uri":"textures/362e6b73728a5a258aa39b94b5a10092eceb18fc3ea27acad9734259637000f3.png"},{"name":"slate_green_roughness","uri":"textures/2c8e30ab08a8122f9aacad98c8f62f3c78dc77b222ec1f9f700fca9185638d36.png"},{"name":"aged_wood_normal","uri":"textures/32baf58b404fea48a92099b7359f6bc4853a084a5c0ad6a09e5af9ca9fd0d2b3.png"},{"name":"aged_wood_basecolor","uri":"textures/15b5dc58aba2278c641d4bdd2efccfaf03a366558458fdc1b1298590022af6a4.png"},{"name":"aged_wood_roughness","uri":"textures/c3d84fcee1238a7f89f3f2346910aebfaa05e4ccf200b4166ab457d22c8e0852.png"},{"name":"oxide_normal","uri":"textures/23e83a75bde3ee9d177c5ac544f2e52664b4e02d7bece4a8c28ee529a551215a.png"},{"name":"oxide_basecolor","uri":"textures/48ce253f3e7355d35ff07c7382029a2c69f00f0d2735591bc147f6248e976811.png"},{"name":"oxide_roughness","uri":"textures/7fe013e5e049ccf839c05657fe070cedae7c212491da7fbbf29b0a2d32156d49.png"},{"name":"concrete_normal","uri":"textures/fda994eebbe1b57f4711f092127f1bc19eebbed0bb391de64c586c0351ad1bc4.png"},{"name":"concrete_basecolor","uri":"textures/27390e807f59507730b42163a65dc5350d378c311f527bfa459a9f77edf0a26f.png"},{"name":"concrete_roughness","uri":"textures/c4f806cac11f661fc81e5735b02240e44cde46af6cdd1325033feae899d8bff6.png"},{"name":"laterite_normal","uri":"textures/b49e542d796a05b08b3e57146cee2c2a20a5427009ecc5303a6532afdacca096.png"},{"name":"laterite_basecolor","uri":"textures/57b7cbf41dd1a82952c3d29f466cb9e8ae7bb8b6a86b7eeaeeeccdb879c0e329.png"},{"name":"laterite_roughness","uri":"textures/1290af61ef72b09a3c821ff8ac7307ece220e87362eb3c732fe22d0febb80d1c.png"},{"name":"dark_concrete_normal","uri":"textures/1e4ef6c16e52b936423e2036986053e2bd12e8a5f64bb06b30bdd08326c6e134.png"},{"name":"dark_concrete_basecolor","uri":"textures/41b39ba9836f2acc67e1420bd202eb42268a09ca4ba2daeced0eb27bff1f2aa5.png"},{"name":"dark_concrete_roughness","uri":"textures/f57777001a1b4e80f430f9fe20f179b4f87b4053179fefd808709eb6a0b4632a.png"},{"name":"damp_algae_decal","uri":"textures/7ed59975d2664d85f01eabac4a248689a813926850a0f680800abb776e035c04.png"},{"name":"ochre_paint_normal","uri":"textures/1af15fed7780c1064a5b6528b4d38ca8687234aa6cba05322e506cec43de9d63.png"},{"name":"ochre_paint_basecolor","uri":"textures/1eeb031c3f9b7c13f6151f8db170f6beeeb6ba9872a1dfca3e87e5ad0916ddb1.png"},{"name":"ochre_paint_roughness","uri":"textures/1d7670affe0ae7a454f96aa5906b4329996f4069fa4233a926fa63422bbd08d2.png"}],"accessors":[{"bufferView":0,"componentType":5126,"count":2567,"max":[1.2540000677108765,2.9498300552368164,1.1720000505447388],"min":[-1.2540000677108765,0.25,-1.1399999856948853],"type":"VEC3"},{"bufferView":1,"componentType":5126,"count":2567,"type":"VEC3"},{"bufferView":2,"componentType":5126,"count":2567,"type":"VEC2"},{"bufferView":3,"componentType":5123,"count":3828,"type":"SCALAR"},{"bufferView":4,"componentType":5126,"count":5332,"max":[1.5929828882217407,3.0305685997009277,1.5850000381469727],"min":[-1.5929828882217407,0.13765494525432587,-1.5850000381469727],"type":"VEC3"},{"bufferView":5,"componentType":5126,"count":5332,"type":"VEC3"},{"bufferView":6,"componentType":5126,"count":5332,"type":"VEC2"},{"bufferView":7,"componentType":5123,"count":28428,"type":"SCALAR"},{"bufferView":8,"componentType":5126,"count":5602,"max":[1.2964999675750732,2.665564775466919,1.1875],"min":[-0.4580000042915344,0.3020000457763672,-1.1742143630981445],"type":"VEC3"},{"bufferView":9,"componentType":5126,"count":5602,"type":"VEC3"},{"bufferView":10,"componentType":5126,"count":5602,"type":"VEC2"},{"bufferView":11,"componentType":5123,"count":7776,"type":"SCALAR"},{"bufferView":12,"componentType":5126,"count":6466,"max":[1.603535771369934,2.6649999618530273,1.3860000371932983],"min":[-1.603535771369934,0.5714999437332153,-1.446000099182129],"type":"VEC3"},{"bufferView":13,"componentType":5126,"count":6466,"type":"VEC3"},{"bufferView":14,"componentType":5126,"count":6466,"type":"VEC2"},{"bufferView":15,"componentType":5123,"count":23700,"type":"SCALAR"},{"bufferView":16,"componentType":5126,"count":5728,"max":[1.5566376447677612,2.985351085662842,1.6000001430511475],"min":[-1.5566376447677612,0.25,-1.6000001430511475],"type":"VEC3"},{"bufferView":17,"componentType":5126,"count":5728,"type":"VEC3"},{"bufferView":18,"componentType":5126,"count":5728,"type":"VEC2"},{"bufferView":19,"componentType":5123,"count":8100,"type":"SCALAR"},{"bufferView":20,"componentType":5126,"count":112,"max":[-0.4339999854564667,1.7699999809265137,1.221000075340271],"min":[-0.4560000002384186,0.5,1.1990000009536743],"type":"VEC3"},{"bufferView":21,"componentType":5126,"count":112,"type":"VEC3"},{"bufferView":22,"componentType":5126,"count":112,"type":"VEC2"},{"bufferView":23,"componentType":5123,"count":264,"type":"SCALAR"},{"bufferView":24,"componentType":5126,"count":5091,"max":[1.1701499223709106,2.786865234375,1.4101499319076538],"min":[-1.1701499223709106,0.5812999606132507,-1.4181499481201172],"type":"VEC3"},{"bufferView":25,"componentType":5126,"count":5091,"type":"VEC3"},{"bufferView":26,"componentType":5126,"count":5091,"type":"VEC2"},{"bufferView":27,"componentType":5123,"count":12432,"type":"SCALAR"},{"bufferView":28,"componentType":5126,"count":1084,"max":[1.3869999647140503,1.1619999408721924,1.7899999618530273],"min":[-1.3450000286102295,0,-1.2450000047683716],"type":"VEC3"},{"bufferView":29,"componentType":5126,"count":1084,"type":"VEC3"},{"bufferView":30,"componentType":5126,"count":1084,"type":"VEC2"},{"bufferView":31,"componentType":5123,"count":1620,"type":"SCALAR"},{"bufferView":32,"componentType":5126,"count":6940,"max":[1.2545000314712524,0.5789818167686462,1.165000081062317],"min":[-1.2545000314712524,0.25075411796569824,-1.0549999475479126],"type":"VEC3"},{"bufferView":33,"componentType":5126,"count":6940,"type":"VEC3"},{"bufferView":34,"componentType":5126,"count":6940,"type":"VEC2"},{"bufferView":35,"componentType":5123,"count":10368,"type":"SCALAR"},{"bufferView":36,"componentType":5126,"count":216,"max":[0.31584998965263367,1.0925999879837036,1.2457499504089355],"min":[0.2641499936580658,1.0354000329971313,1.218250036239624],"type":"VEC3"},{"bufferView":37,"componentType":5126,"count":216,"type":"VEC3"},{"bufferView":38,"componentType":5126,"count":216,"type":"VEC2"},{"bufferView":39,"componentType":5123,"count":324,"type":"SCALAR"},{"bufferView":40,"componentType":5126,"count":216,"max":[1.2200000286102295,0.2750000059604645,1.1200000047683716],"min":[-1.2200000286102295,0.1850000023841858,-1.1200000047683716],"type":"VEC3"},{"bufferView":41,"componentType":5126,"count":216,"type":"VEC3"},{"bufferView":42,"componentType":5126,"count":216,"type":"VEC2"},{"bufferView":43,"componentType":5126,"count":8,"max":[1.2100000381469727,0.4000000059604645,1.1510000228881836],"min":[-1.2100000381469727,0.25999999046325684,1.1510000228881836],"type":"VEC3"},{"bufferView":44,"componentType":5126,"count":8,"type":"VEC3"},{"bufferView":45,"componentType":5126,"count":8,"type":"VEC2"},{"bufferView":46,"componentType":5123,"count":12,"type":"SCALAR"},{"bufferView":47,"componentType":5126,"count":232,"max":[0.5149999856948853,2.4019999504089355,1.193000078201294],"min":[-0.5149999856948853,2.1700000762939453,1.180999994277954],"type":"VEC3"},{"bufferView":48,"componentType":5126,"count":232,"type":"VEC3"},{"bufferView":49,"componentType":5126,"count":232,"type":"VEC2"},{"bufferView":50,"componentType":5123,"count":324,"type":"SCALAR"}],"bufferViews":[{"buffer":0,"byteLength":30804,"byteOffset":0,"target":34962},{"buffer":0,"byteLength":30804,"byteOffset":30804,"target":34962},{"buffer":0,"byteLength":20536,"byteOffset":61608,"target":34962},{"buffer":0,"byteLength":7656,"byteOffset":82144,"target":34963},{"buffer":0,"byteLength":63984,"byteOffset":89800,"target":34962},{"buffer":0,"byteLength":63984,"byteOffset":153784,"target":34962},{"buffer":0,"byteLength":42656,"byteOffset":217768,"target":34962},{"buffer":0,"byteLength":56856,"byteOffset":260424,"target":34963},{"buffer":0,"byteLength":67224,"byteOffset":317280,"target":34962},{"buffer":0,"byteLength":67224,"byteOffset":384504,"target":34962},{"buffer":0,"byteLength":44816,"byteOffset":451728,"target":34962},{"buffer":0,"byteLength":15552,"byteOffset":496544,"target":34963},{"buffer":0,"byteLength":77592,"byteOffset":512096,"target":34962},{"buffer":0,"byteLength":77592,"byteOffset":589688,"target":34962},{"buffer":0,"byteLength":51728,"byteOffset":667280,"target":34962},{"buffer":0,"byteLength":47400,"byteOffset":719008,"target":34963},{"buffer":0,"byteLength":68736,"byteOffset":766408,"target":34962},{"buffer":0,"byteLength":68736,"byteOffset":835144,"target":34962},{"buffer":0,"byteLength":45824,"byteOffset":903880,"target":34962},{"buffer":0,"byteLength":16200,"byteOffset":949704,"target":34963},{"buffer":0,"byteLength":1344,"byteOffset":965904,"target":34962},{"buffer":0,"byteLength":1344,"byteOffset":967248,"target":34962},{"buffer":0,"byteLength":896,"byteOffset":968592,"target":34962},{"buffer":0,"byteLength":528,"byteOffset":969488,"target":34963},{"buffer":0,"byteLength":61092,"byteOffset":970016,"target":34962},{"buffer":0,"byteLength":61092,"byteOffset":1031108,"target":34962},{"buffer":0,"byteLength":40728,"byteOffset":1092200,"target":34962},{"buffer":0,"byteLength":24864,"byteOffset":1132928,"target":34963},{"buffer":0,"byteLength":13008,"byteOffset":1157792,"target":34962},{"buffer":0,"byteLength":13008,"byteOffset":1170800,"target":34962},{"buffer":0,"byteLength":8672,"byteOffset":1183808,"target":34962},{"buffer":0,"byteLength":3240,"byteOffset":1192480,"target":34963},{"buffer":0,"byteLength":83280,"byteOffset":1195720,"target":34962},{"buffer":0,"byteLength":83280,"byteOffset":1279000,"target":34962},{"buffer":0,"byteLength":55520,"byteOffset":1362280,"target":34962},{"buffer":0,"byteLength":20736,"byteOffset":1417800,"target":34963},{"buffer":0,"byteLength":2592,"byteOffset":1438536,"target":34962},{"buffer":0,"byteLength":2592,"byteOffset":1441128,"target":34962},{"buffer":0,"byteLength":1728,"byteOffset":1443720,"target":34962},{"buffer":0,"byteLength":648,"byteOffset":1445448,"target":34963},{"buffer":0,"byteLength":2592,"byteOffset":1446096,"target":34962},{"buffer":0,"byteLength":2592,"byteOffset":1448688,"target":34962},{"buffer":0,"byteLength":1728,"byteOffset":1451280,"target":34962},{"buffer":0,"byteLength":96,"byteOffset":1453008,"target":34962},{"buffer":0,"byteLength":96,"byteOffset":1453104,"target":34962},{"buffer":0,"byteLength":64,"byteOffset":1453200,"target":34962},{"buffer":0,"byteLength":24,"byteOffset":1453264,"target":34963},{"buffer":0,"byteLength":2784,"byteOffset":1453288,"target":34962},{"buffer":0,"byteLength":2784,"byteOffset":1456072,"target":34962},{"buffer":0,"byteLength":1856,"byteOffset":1458856,"target":34962},{"buffer":0,"byteLength":648,"byteOffset":1460712,"target":34963}],"samplers":[{"magFilter":9729,"minFilter":9987}],"buffers":[{"uri":"KR_R13.bin","byteLength":1461360}]}