{"asset":{"generator":"Khronos glTF Blender I/O v5.2.40","version":"2.0"},"scene":0,"scenes":[{"name":"Scene","nodes":[0]}],"nodes":[{"mesh":0,"name":"TF3_KR_R14"}],"materials":[{"doubleSided":true,"name":"TF3_KR_barrier_black","pbrMetallicRoughness":{"baseColorFactor":[0.005422868765890598,0.006571403704583645,0.005866865627467632,1],"metallicFactor":0.10000000149011612,"roughnessFactor":0.6399999856948853}},{"doubleSided":true,"name":"TF3_KR_zinc","normalTexture":{"index":0,"scale":0.3499999940395355},"pbrMetallicRoughness":{"baseColorTexture":{"index":1},"metallicFactor":0.6600000262260437,"metallicRoughnessTexture":{"index":2}}},{"doubleSided":true,"name":"TF3_KR_concrete","normalTexture":{"index":3,"scale":0.3499999940395355},"pbrMetallicRoughness":{"baseColorTexture":{"index":4},"metallicFactor":0,"metallicRoughnessTexture":{"index":5}}},{"doubleSided":true,"name":"TF3_KR_barrier_yellow","pbrMetallicRoughness":{"baseColorFactor":[0.7484140992164612,0.38005632162094116,0.010022825561463833,1],"metallicFactor":0.05000000074505806,"roughnessFactor":0.6299999952316284}},{"doubleSided":true,"name":"TF3_KR_bolts","pbrMetallicRoughness":{"baseColorFactor":[0.10653922706842422,0.1259673833847046,0.11928018927574158,1],"metallicFactor":0.800000011920929,"roughnessFactor":0.36000001430511475}},{"alphaMode":"BLEND","doubleSided":true,"name":"TF3_KR_damp_algae_decal","pbrMetallicRoughness":{"baseColorTexture":{"index":6},"metallicFactor":0,"roughnessFactor":0.9599999785423279}},{"doubleSided":true,"name":"TF3_KR_reflective_red","pbrMetallicRoughness":{"baseColorFactor":[0.868899405002594,0.004400849808007479,0.001934984466060996,1],"metallicFactor":0,"roughnessFactor":0.2800000011920929}},{"doubleSided":true,"name":"TF3_KR_disc_red","pbrMetallicRoughness":{"baseColorFactor":[0.47699978947639465,0.006571403704583645,0.0035010159481316805,1],"metallicFactor":0,"roughnessFactor":0.5799999833106995}},{"doubleSided":true,"name":"TF3_KR_sign_white","pbrMetallicRoughness":{"baseColorFactor":[0.7677687406539917,0.7677687406539917,0.6382831931114197,1],"metallicFactor":0,"roughnessFactor":0.7699999809265137}},{"doubleSided":true,"name":"TF3_KR_silver_paint","normalTexture":{"index":7,"scale":0.3499999940395355},"pbrMetallicRoughness":{"baseColorTexture":{"index":8},"metallicFactor":0.18000000715255737,"metallicRoughnessTexture":{"index":9}}},{"doubleSided":true,"name":"TF3_KR_label_cream","pbrMetallicRoughness":{"baseColorFactor":[0.5704815983772278,0.47699978947639465,0.19599418342113495,1],"metallicFactor":0,"roughnessFactor":0.8199999928474426}}],"meshes":[{"name":"Armored_lock_conduit_curve","primitives":[{"attributes":{"POSITION":0,"NORMAL":1,"TEXCOORD_0":2},"indices":3,"material":0},{"attributes":{"POSITION":4,"NORMAL":5,"TEXCOORD_0":6},"indices":7,"material":1},{"attributes":{"POSITION":8,"NORMAL":9,"TEXCOORD_0":10},"indices":11,"material":2},{"attributes":{"POSITION":12,"NORMAL":13,"TEXCOORD_0":14},"indices":15,"material":3},{"attributes":{"POSITION":16,"NORMAL":17,"TEXCOORD_0":18},"indices":19,"material":4},{"attributes":{"POSITION":20,"NORMAL":21,"TEXCOORD_0":22},"indices":23,"material":5},{"attributes":{"POSITION":24,"NORMAL":25,"TEXCOORD_0":26},"indices":27,"material":6},{"attributes":{"POSITION":28,"NORMAL":29,"TEXCOORD_0":30},"indices":31,"material":7},{"attributes":{"POSITION":32,"NORMAL":33,"TEXCOORD_0":34},"indices":35,"material":8},{"attributes":{"POSITION":36,"NORMAL":37,"TEXCOORD_0":38},"indices":39,"material":9},{"attributes":{"POSITION":40,"NORMAL":41,"TEXCOORD_0":42},"indices":43,"material":10}]}],"textures":[{"sampler":0,"source":0},{"sampler":0,"source":1},{"sampler":0,"source":2},{"sampler":0,"source":3},{"sampler":0,"source":4},{"sampler":0,"source":5},{"sampler":0,"source":6},{"sampler":0,"source":7},{"sampler":0,"source":8},{"sampler":0,"source":9}],"images":[{"name":"zinc_normal","uri":"textures/ab099086dd0d1714963937448c90fdf272c849888f0c6174db21238e7c8e1251.png"},{"name":"zinc_basecolor","uri":"textures/4a866830366d3a37fd614bf492e0622d5f27e6b62f9b5d5389a995a24d5785d5.png"},{"name":"zinc_roughness","uri":"textures/7fc926275eba659e1df112c5d14334a6ce890b06cb2c6a0d5e16f9337e3c6d6b.png"},{"name":"concrete_normal","uri":"textures/fda994eebbe1b57f4711f092127f1bc19eebbed0bb391de64c586c0351ad1bc4.png"},{"name":"concrete_basecolor","uri":"textures/27390e807f59507730b42163a65dc5350d378c311f527bfa459a9f77edf0a26f.png"},{"name":"concrete_roughness","uri":"textures/c4f806cac11f661fc81e5735b02240e44cde46af6cdd1325033feae899d8bff6.png"},{"name":"damp_algae_decal","uri":"textures/7ed59975d2664d85f01eabac4a248689a813926850a0f680800abb776e035c04.png"},{"name":"silver_paint_normal","uri":"textures/23b9f1e8259a2f03881e23dbcdad24a478013930518fcb6233f6ead187773d5e.png"},{"name":"silver_paint_basecolor","uri":"textures/8df0e12597a3f7523f07f3f7049f528337e4462f93f275d6b9a59fc75f5827a5.png"},{"name":"silver_paint_roughness","uri":"textures/5b3fac8f165499e8d58f34d30d593200c4a626aa5dc6706518b040b4267505b7.png"}],"accessors":[{"bufferView":0,"componentType":5126,"count":6759,"max":[5.785999774932861,1.2300000190734863,0.7459999918937683],"min":[-0.8300000429153442,0.01199768204241991,-0.48604071140289307],"type":"VEC3"},{"bufferView":1,"componentType":5126,"count":6759,"type":"VEC3"},{"bufferView":2,"componentType":5126,"count":6759,"type":"VEC2"},{"bufferView":3,"componentType":5123,"count":14826,"type":"SCALAR"},{"bufferView":4,"componentType":5126,"count":1898,"max":[5.534999847412109,1.2350000143051147,0.5900000929832458],"min":[-0.6720000505447388,0.1300000101327896,-0.28000009059906006],"type":"VEC3"},{"bufferView":5,"componentType":5126,"count":1898,"type":"VEC3"},{"bufferView":6,"componentType":5126,"count":1898,"type":"VEC2"},{"bufferView":7,"componentType":5123,"count":2952,"type":"SCALAR"},{"bufferView":8,"componentType":5126,"count":872,"max":[5.84499979019165,0.18000000715255737,0.8050000071525574],"min":[-0.6450000405311584,0,-0.32499998807907104],"type":"VEC3"},{"bufferView":9,"componentType":5126,"count":872,"type":"VEC3"},{"bufferView":10,"componentType":5126,"count":872,"type":"VEC2"},{"bufferView":11,"componentType":5123,"count":1296,"type":"SCALAR"},{"bufferView":12,"componentType":5126,"count":2288,"max":[5.785999774932861,1.1799999475479126,0.7459999918937683],"min":[-0.5860000252723694,0.16999998688697815,-0.1850000023841858],"type":"VEC3"},{"bufferView":13,"componentType":5126,"count":2288,"type":"VEC3"},{"bufferView":14,"componentType":5126,"count":2288,"type":"VEC2"},{"bufferView":15,"componentType":5123,"count":3366,"type":"SCALAR"},{"bufferView":16,"componentType":5126,"count":2400,"max":[5.495950222015381,1.2522499561309814,0.5891000032424927],"min":[-0.6861000061035156,0.17000000178813934,-0.1967500001192093],"type":"VEC3"},{"bufferView":17,"componentType":5126,"count":2400,"type":"VEC3"},{"bufferView":18,"componentType":5126,"count":2400,"type":"VEC2"},{"bufferView":19,"componentType":5123,"count":5760,"type":"SCALAR"},{"bufferView":20,"componentType":5126,"count":4,"max":[0.3700000047683716,0.06800000369548798,0.32600000500679016],"min":[-0.3700000047683716,0,0.32600000500679016],"type":"VEC3"},{"bufferView":21,"componentType":5126,"count":4,"type":"VEC3"},{"bufferView":22,"componentType":5126,"count":4,"type":"VEC2"},{"bufferView":23,"componentType":5123,"count":6,"type":"SCALAR"},{"bufferView":24,"componentType":5126,"count":100,"max":[2.7230000495910645,1.1979999542236328,0.08100000768899918],"min":[2.677000045776367,1.1519999504089355,0.07800000160932541],"type":"VEC3"},{"bufferView":25,"componentType":5126,"count":100,"type":"VEC3"},{"bufferView":26,"componentType":5126,"count":100,"type":"VEC2"},{"bufferView":27,"componentType":5123,"count":276,"type":"SCALAR"},{"bufferView":28,"componentType":5126,"count":196,"max":[3,1.334999918937683,0.06500008702278137],"min":[2.4000000953674316,0.7350000143051147,0.06099991127848625],"type":"VEC3"},{"bufferView":29,"componentType":5126,"count":196,"type":"VEC3"},{"bufferView":30,"componentType":5126,"count":196,"type":"VEC2"},{"bufferView":31,"componentType":5123,"count":564,"type":"SCALAR"},{"bufferView":32,"componentType":5126,"count":1711,"max":[2.8018929958343506,1.0239269733428955,0.06940000504255295],"min":[2.6002774238586426,0.9648521542549133,0.06859999150037766],"type":"VEC3"},{"bufferView":33,"componentType":5126,"count":1711,"type":"VEC3"},{"bufferView":34,"componentType":5126,"count":1711,"type":"VEC2"},{"bufferView":35,"componentType":5123,"count":8328,"type":"SCALAR"},{"bufferView":36,"componentType":5126,"count":672,"max":[5.525000095367432,1.0325000286102295,-0.16249999403953552],"min":[5.174999713897705,0.5850000381469727,-0.41749998927116394],"type":"VEC3"},{"bufferView":37,"componentType":5126,"count":672,"type":"VEC3"},{"bufferView":38,"componentType":5126,"count":672,"type":"VEC2"},{"bufferView":39,"componentType":5123,"count":972,"type":"SCALAR"},{"bufferView":40,"componentType":5126,"count":222,"max":[0.025000005960464478,0.76500004529953,0.22049999237060547],"min":[-0.1550000011920929,0.6949999928474426,0.21549999713897705],"type":"VEC3"},{"bufferView":41,"componentType":5126,"count":222,"type":"VEC3"},{"bufferView":42,"componentType":5126,"count":222,"type":"VEC2"},{"bufferView":43,"componentType":5123,"count":324,"type":"SCALAR"}],"bufferViews":[{"buffer":0,"byteLength":81108,"byteOffset":0,"target":34962},{"buffer":0,"byteLength":81108,"byteOffset":81108,"target":34962},{"buffer":0,"byteLength":54072,"byteOffset":162216,"target":34962},{"buffer":0,"byteLength":29652,"byteOffset":216288,"target":34963},{"buffer":0,"byteLength":22776,"byteOffset":245940,"target":34962},{"buffer":0,"byteLength":22776,"byteOffset":268716,"target":34962},{"buffer":0,"byteLength":15184,"byteOffset":291492,"target":34962},{"buffer":0,"byteLength":5904,"byteOffset":306676,"target":34963},{"buffer":0,"byteLength":10464,"byteOffset":312580,"target":34962},{"buffer":0,"byteLength":10464,"byteOffset":323044,"target":34962},{"buffer":0,"byteLength":6976,"byteOffset":333508,"target":34962},{"buffer":0,"byteLength":2592,"byteOffset":340484,"target":34963},{"buffer":0,"byteLength":27456,"byteOffset":343076,"target":34962},{"buffer":0,"byteLength":27456,"byteOffset":370532,"target":34962},{"buffer":0,"byteLength":18304,"byteOffset":397988,"target":34962},{"buffer":0,"byteLength":6732,"byteOffset":416292,"target":34963},{"buffer":0,"byteLength":28800,"byteOffset":423024,"target":34962},{"buffer":0,"byteLength":28800,"byteOffset":451824,"target":34962},{"buffer":0,"byteLength":19200,"byteOffset":480624,"target":34962},{"buffer":0,"byteLength":11520,"byteOffset":499824,"target":34963},{"buffer":0,"byteLength":48,"byteOffset":511344,"target":34962},{"buffer":0,"byteLength":48,"byteOffset":511392,"target":34962},{"buffer":0,"byteLength":32,"byteOffset":511440,"target":34962},{"buffer":0,"byteLength":12,"byteOffset":511472,"target":34963},{"buffer":0,"byteLength":1200,"byteOffset":511484,"target":34962},{"buffer":0,"byteLength":1200,"byteOffset":512684,"target":34962},{"buffer":0,"byteLength":800,"byteOffset":513884,"target":34962},{"buffer":0,"byteLength":552,"byteOffset":514684,"target":34963},{"buffer":0,"byteLength":2352,"byteOffset":515236,"target":34962},{"buffer":0,"byteLength":2352,"byteOffset":517588,"target":34962},{"buffer":0,"byteLength":1568,"byteOffset":519940,"target":34962},{"buffer":0,"byteLength":1128,"byteOffset":521508,"target":34963},{"buffer":0,"byteLength":20532,"byteOffset":522636,"target":34962},{"buffer":0,"byteLength":20532,"byteOffset":543168,"target":34962},{"buffer":0,"byteLength":13688,"byteOffset":563700,"target":34962},{"buffer":0,"byteLength":16656,"byteOffset":577388,"target":34963},{"buffer":0,"byteLength":8064,"byteOffset":594044,"target":34962},{"buffer":0,"byteLength":8064,"byteOffset":602108,"target":34962},{"buffer":0,"byteLength":5376,"byteOffset":610172,"target":34962},{"buffer":0,"byteLength":1944,"byteOffset":615548,"target":34963},{"buffer":0,"byteLength":2664,"byteOffset":617492,"target":34962},{"buffer":0,"byteLength":2664,"byteOffset":620156,"target":34962},{"buffer":0,"byteLength":1776,"byteOffset":622820,"target":34962},{"buffer":0,"byteLength":648,"byteOffset":624596,"target":34963}],"samplers":[{"magFilter":9729,"minFilter":9987}],"buffers":[{"uri":"KR_R14.bin","byteLength":625244}]}