{"asset":{"generator":"Khronos glTF Blender I/O v5.2.40","version":"2.0"},"scene":0,"scenes":[{"name":"Scene","nodes":[0]}],"nodes":[{"mesh":0,"name":"TF3_KR_R10"}],"materials":[{"alphaMode":"BLEND","doubleSided":true,"name":"TF3_KR_damp_algae_decal","pbrMetallicRoughness":{"baseColorTexture":{"index":0},"metallicFactor":0,"roughnessFactor":0.9599999785423279}},{"doubleSided":true,"name":"TF3_KR_whitewash","normalTexture":{"index":1,"scale":0.3499999940395355},"pbrMetallicRoughness":{"baseColorTexture":{"index":2},"metallicFactor":0,"metallicRoughnessTexture":{"index":3}}},{"doubleSided":true,"name":"TF3_KR_black","pbrMetallicRoughness":{"baseColorFactor":[0.005422868765890598,0.005981059744954109,0.005422868765890598,1],"metallicFactor":0,"roughnessFactor":0.8600000143051147}}],"meshes":[{"name":"Boundary_soil_tide_mesh","primitives":[{"attributes":{"POSITION":0,"NORMAL":1,"TEXCOORD_0":2},"indices":3,"material":0},{"attributes":{"POSITION":4,"NORMAL":5,"TEXCOORD_0":6},"indices":7,"material":1},{"attributes":{"POSITION":8,"NORMAL":9,"TEXCOORD_0":10},"indices":11,"material":2}]}],"textures":[{"sampler":0,"source":0},{"sampler":0,"source":1},{"sampler":0,"source":2},{"sampler":0,"source":3}],"images":[{"name":"damp_algae_decal","uri":"textures/7ed59975d2664d85f01eabac4a248689a813926850a0f680800abb776e035c04.png"},{"name":"whitewash_normal","uri":"textures/1aa02bdcaeebed0d1fb0a8255cd218ec61ebf7b2de2ad824a5fef4d821dd8419.png"},{"name":"whitewash_basecolor","uri":"textures/fd4bdf85a3bfbfb818561220f30f732592135d574a5dbde25387a0f0c09f109a.png"},{"name":"whitewash_roughness","uri":"textures/925e589e666f9615f86ee2b03be77b47c651df035b468cd4fdc9271eb53d6fee.png"}],"accessors":[{"bufferView":0,"componentType":5126,"count":4,"max":[0.07000000029802322,0.10000000149011612,0.07699999958276749],"min":[-0.07000000029802322,0,0.07699999958276749],"type":"VEC3"},{"bufferView":1,"componentType":5126,"count":4,"type":"VEC3"},{"bufferView":2,"componentType":5126,"count":4,"type":"VEC2"},{"bufferView":3,"componentType":5123,"count":6,"type":"SCALAR"},{"bufferView":4,"componentType":5126,"count":260,"max":[0.07500000298023224,0.5,0.07500000298023224],"min":[-0.07500000298023224,0,-0.07500000298023224],"type":"VEC3"},{"bufferView":5,"componentType":5126,"count":260,"type":"VEC3"},{"bufferView":6,"componentType":5126,"count":260,"type":"VEC2"},{"bufferView":7,"componentType":5123,"count":396,"type":"SCALAR"},{"bufferView":8,"componentType":5126,"count":1268,"max":[0.019072873517870903,0.39495834708213806,0.0764000192284584],"min":[-0.015317423269152641,0.25992298126220703,0.07559997588396072],"type":"VEC3"},{"bufferView":9,"componentType":5126,"count":1268,"type":"VEC3"},{"bufferView":10,"componentType":5126,"count":1268,"type":"VEC2"},{"bufferView":11,"componentType":5123,"count":6252,"type":"SCALAR"}],"bufferViews":[{"buffer":0,"byteLength":48,"byteOffset":0,"target":34962},{"buffer":0,"byteLength":48,"byteOffset":48,"target":34962},{"buffer":0,"byteLength":32,"byteOffset":96,"target":34962},{"buffer":0,"byteLength":12,"byteOffset":128,"target":34963},{"buffer":0,"byteLength":3120,"byteOffset":140,"target":34962},{"buffer":0,"byteLength":3120,"byteOffset":3260,"target":34962},{"buffer":0,"byteLength":2080,"byteOffset":6380,"target":34962},{"buffer":0,"byteLength":792,"byteOffset":8460,"target":34963},{"buffer":0,"byteLength":15216,"byteOffset":9252,"target":34962},{"buffer":0,"byteLength":15216,"byteOffset":24468,"target":34962},{"buffer":0,"byteLength":10144,"byteOffset":39684,"target":34962},{"buffer":0,"byteLength":12504,"byteOffset":49828,"target":34963}],"samplers":[{"magFilter":9729,"minFilter":9987}],"buffers":[{"uri":"KR_R10.bin","byteLength":62332}]}