{"asset":{"generator":"Khronos glTF Blender I/O v5.2.40","version":"2.0"},"scene":0,"scenes":[{"name":"Scene","nodes":[0]}],"nodes":[{"mesh":0,"name":"TF3_KR_R12"}],"materials":[{"doubleSided":true,"name":"TF3_KR_forged_steel","pbrMetallicRoughness":{"baseColorFactor":[0.036306485533714294,0.043233636766672134,0.036306485533714294,1],"metallicFactor":0.699999988079071,"roughnessFactor":0.5699999928474426}},{"doubleSided":true,"name":"TF3_KR_oxide","normalTexture":{"index":0,"scale":0.3499999940395355},"pbrMetallicRoughness":{"baseColorTexture":{"index":1},"metallicFactor":0,"metallicRoughnessTexture":{"index":2}}},{"doubleSided":true,"name":"TF3_KR_bolts","pbrMetallicRoughness":{"baseColorFactor":[0.10653922706842422,0.1259673833847046,0.11928018927574158,1],"metallicFactor":0.800000011920929,"roughnessFactor":0.36000001430511475}},{"doubleSided":true,"name":"TF3_KR_label_cream","pbrMetallicRoughness":{"baseColorFactor":[0.5704815983772278,0.47699978947639465,0.19599418342113495,1],"metallicFactor":0,"roughnessFactor":0.8199999928474426}},{"doubleSided":true,"name":"TF3_KR_ochre_paint","normalTexture":{"index":3,"scale":0.3499999940395355},"pbrMetallicRoughness":{"baseColorTexture":{"index":4},"metallicFactor":0,"metallicRoughnessTexture":{"index":5}}},{"doubleSided":true,"name":"TF3_KR_black","pbrMetallicRoughness":{"baseColorFactor":[0.005981059744954109,0.007194409146904945,0.006571403704583645,1],"metallicFactor":0,"roughnessFactor":0.699999988079071}},{"doubleSided":true,"name":"TF3_KR_dull_brass","pbrMetallicRoughness":{"baseColorFactor":[0.11280478537082672,0.07828831672668457,0.017389101907610893,1],"metallicFactor":0.550000011920929,"roughnessFactor":0.47999998927116394}},{"doubleSided":true,"name":"TF3_KR_aged_wood","normalTexture":{"index":6,"scale":0.3499999940395355},"pbrMetallicRoughness":{"baseColorTexture":{"index":7},"metallicFactor":0,"metallicRoughnessTexture":{"index":8}}}],"meshes":[{"name":"Ballast_shovel_blade_mesh","primitives":[{"attributes":{"POSITION":0,"NORMAL":1,"TEXCOORD_0":2},"indices":3,"material":0},{"attributes":{"POSITION":4,"NORMAL":5,"TEXCOORD_0":6},"indices":7,"material":1},{"attributes":{"POSITION":8,"NORMAL":9,"TEXCOORD_0":10},"indices":11,"material":2},{"attributes":{"POSITION":12,"NORMAL":13,"TEXCOORD_0":14},"indices":15,"material":3},{"attributes":{"POSITION":16,"NORMAL":17,"TEXCOORD_0":18},"indices":19,"material":4},{"attributes":{"POSITION":20,"NORMAL":21,"TEXCOORD_0":22},"indices":23,"material":5},{"attributes":{"POSITION":24,"NORMAL":25,"TEXCOORD_0":26},"indices":27,"material":6},{"attributes":{"POSITION":28,"NORMAL":29,"TEXCOORD_0":30},"indices":31,"material":7}]}],"textures":[{"sampler":0,"source":0},{"sampler":0,"source":1},{"sampler":0,"source":2},{"sampler":0,"source":3},{"sampler":0,"source":4},{"sampler":0,"source":5},{"sampler":0,"source":6},{"sampler":0,"source":7},{"sampler":0,"source":8}],"images":[{"name":"oxide_normal","uri":"textures/23e83a75bde3ee9d177c5ac544f2e52664b4e02d7bece4a8c28ee529a551215a.png"},{"name":"oxide_basecolor","uri":"textures/48ce253f3e7355d35ff07c7382029a2c69f00f0d2735591bc147f6248e976811.png"},{"name":"oxide_roughness","uri":"textures/7fe013e5e049ccf839c05657fe070cedae7c212491da7fbbf29b0a2d32156d49.png"},{"name":"ochre_paint_normal","uri":"textures/1af15fed7780c1064a5b6528b4d38ca8687234aa6cba05322e506cec43de9d63.png"},{"name":"ochre_paint_basecolor","uri":"textures/1eeb031c3f9b7c13f6151f8db170f6beeeb6ba9872a1dfca3e87e5ad0916ddb1.png"},{"name":"ochre_paint_roughness","uri":"textures/1d7670affe0ae7a454f96aa5906b4329996f4069fa4233a926fa63422bbd08d2.png"},{"name":"aged_wood_normal","uri":"textures/32baf58b404fea48a92099b7359f6bc4853a084a5c0ad6a09e5af9ca9fd0d2b3.png"},{"name":"aged_wood_basecolor","uri":"textures/15b5dc58aba2278c641d4bdd2efccfaf03a366558458fdc1b1298590022af6a4.png"},{"name":"aged_wood_roughness","uri":"textures/c3d84fcee1238a7f89f3f2346910aebfaa05e4ccf200b4166ab457d22c8e0852.png"}],"accessors":[{"bufferView":0,"componentType":5126,"count":2942,"max":[1.8063640594482422,0.44600000977516174,0.8525000810623169],"min":[-0.6792039275169373,-5.587935447692871e-09,0.06844139099121094],"type":"VEC3"},{"bufferView":1,"componentType":5126,"count":2942,"type":"VEC3"},{"bufferView":2,"componentType":5126,"count":2942,"type":"VEC2"},{"bufferView":3,"componentType":5123,"count":4956,"type":"SCALAR"},{"bufferView":4,"componentType":5126,"count":498,"max":[1.723332405090332,0.41883817315101624,0.8405001759529114],"min":[0.8322558403015137,0.03252030164003372,0.8395000100135803],"type":"VEC3"},{"bufferView":5,"componentType":5126,"count":498,"type":"VEC3"},{"bufferView":6,"componentType":5126,"count":498,"type":"VEC2"},{"bufferView":7,"componentType":5123,"count":720,"type":"SCALAR"},{"bufferView":8,"componentType":5126,"count":491,"max":[1.6063556671142578,1.0516000986099243,0.8732000589370728],"min":[-0.6615999937057495,0.32050633430480957,-0.1250000298023224],"type":"VEC3"},{"bufferView":9,"componentType":5126,"count":491,"type":"VEC3"},{"bufferView":10,"componentType":5126,"count":491,"type":"VEC2"},{"bufferView":11,"componentType":5123,"count":1392,"type":"SCALAR"},{"bufferView":12,"componentType":5126,"count":968,"max":[1.365562081336975,0.25412124395370483,0.8404001593589783],"min":[1.1402478218078613,0.20818151533603668,0.8396000862121582],"type":"VEC3"},{"bufferView":13,"componentType":5126,"count":968,"type":"VEC3"},{"bufferView":14,"componentType":5126,"count":968,"type":"VEC2"},{"bufferView":15,"componentType":5123,"count":4356,"type":"SCALAR"},{"bufferView":16,"componentType":5126,"count":432,"max":[1.7750000953674316,0.4725000262260437,0.8500000238418579],"min":[0.7250000238418579,0.01999998651444912,0.4100000262260437],"type":"VEC3"},{"bufferView":17,"componentType":5126,"count":432,"type":"VEC3"},{"bufferView":18,"componentType":5126,"count":432,"type":"VEC2"},{"bufferView":19,"componentType":5123,"count":648,"type":"SCALAR"},{"bufferView":20,"componentType":5126,"count":56,"max":[1.5936000347137451,0.2971999943256378,0.8820001482963562],"min":[1.5864002704620361,0.28999999165534973,0.8812000155448914],"type":"VEC3"},{"bufferView":21,"componentType":5126,"count":56,"type":"VEC3"},{"bufferView":22,"componentType":5126,"count":56,"type":"VEC2"},{"bufferView":23,"componentType":5123,"count":132,"type":"SCALAR"},{"bufferView":24,"componentType":5126,"count":218,"max":[1.6088001728057861,0.3208000063896179,0.8800000548362732],"min":[1.5712001323699951,0.2791999876499176,0.85999995470047],"type":"VEC3"},{"bufferView":25,"componentType":5126,"count":218,"type":"VEC3"},{"bufferView":26,"componentType":5126,"count":218,"type":"VEC2"},{"bufferView":27,"componentType":5123,"count":324,"type":"SCALAR"},{"bufferView":28,"componentType":5126,"count":1546,"max":[0.8399999141693115,1.3685733079910278,0.3450000286102295],"min":[-0.8399999737739563,-1.862645149230957e-09,-0.3450000286102295],"type":"VEC3"},{"bufferView":29,"componentType":5126,"count":1546,"type":"VEC3"},{"bufferView":30,"componentType":5126,"count":1546,"type":"VEC2"},{"bufferView":31,"componentType":5123,"count":2664,"type":"SCALAR"}],"bufferViews":[{"buffer":0,"byteLength":35304,"byteOffset":0,"target":34962},{"buffer":0,"byteLength":35304,"byteOffset":35304,"target":34962},{"buffer":0,"byteLength":23536,"byteOffset":70608,"target":34962},{"buffer":0,"byteLength":9912,"byteOffset":94144,"target":34963},{"buffer":0,"byteLength":5976,"byteOffset":104056,"target":34962},{"buffer":0,"byteLength":5976,"byteOffset":110032,"target":34962},{"buffer":0,"byteLength":3984,"byteOffset":116008,"target":34962},{"buffer":0,"byteLength":1440,"byteOffset":119992,"target":34963},{"buffer":0,"byteLength":5892,"byteOffset":121432,"target":34962},{"buffer":0,"byteLength":5892,"byteOffset":127324,"target":34962},{"buffer":0,"byteLength":3928,"byteOffset":133216,"target":34962},{"buffer":0,"byteLength":2784,"byteOffset":137144,"target":34963},{"buffer":0,"byteLength":11616,"byteOffset":139928,"target":34962},{"buffer":0,"byteLength":11616,"byteOffset":151544,"target":34962},{"buffer":0,"byteLength":7744,"byteOffset":163160,"target":34962},{"buffer":0,"byteLength":8712,"byteOffset":170904,"target":34963},{"buffer":0,"byteLength":5184,"byteOffset":179616,"target":34962},{"buffer":0,"byteLength":5184,"byteOffset":184800,"target":34962},{"buffer":0,"byteLength":3456,"byteOffset":189984,"target":34962},{"buffer":0,"byteLength":1296,"byteOffset":193440,"target":34963},{"buffer":0,"byteLength":672,"byteOffset":194736,"target":34962},{"buffer":0,"byteLength":672,"byteOffset":195408,"target":34962},{"buffer":0,"byteLength":448,"byteOffset":196080,"target":34962},{"buffer":0,"byteLength":264,"byteOffset":196528,"target":34963},{"buffer":0,"byteLength":2616,"byteOffset":196792,"target":34962},{"buffer":0,"byteLength":2616,"byteOffset":199408,"target":34962},{"buffer":0,"byteLength":1744,"byteOffset":202024,"target":34962},{"buffer":0,"byteLength":648,"byteOffset":203768,"target":34963},{"buffer":0,"byteLength":18552,"byteOffset":204416,"target":34962},{"buffer":0,"byteLength":18552,"byteOffset":222968,"target":34962},{"buffer":0,"byteLength":12368,"byteOffset":241520,"target":34962},{"buffer":0,"byteLength":5328,"byteOffset":253888,"target":34963}],"samplers":[{"magFilter":9729,"minFilter":9987}],"buffers":[{"uri":"KR_R12.bin","byteLength":259216}]}