{"asset":{"generator":"Khronos glTF Blender I/O v5.2.40","version":"2.0"},"scene":0,"scenes":[{"name":"Scene","nodes":[0]}],"nodes":[{"mesh":0,"name":"TF3_KR_R11"}],"materials":[{"doubleSided":true,"name":"TF3_KR_oxide","normalTexture":{"index":0,"scale":0.3499999940395355},"pbrMetallicRoughness":{"baseColorTexture":{"index":1},"metallicFactor":0,"metallicRoughnessTexture":{"index":2}}},{"doubleSided":true,"name":"TF3_KR_aged_wood","normalTexture":{"index":3,"scale":0.3499999940395355},"pbrMetallicRoughness":{"baseColorTexture":{"index":4},"metallicFactor":0,"metallicRoughnessTexture":{"index":5}}},{"doubleSided":true,"name":"TF3_KR_concrete","normalTexture":{"index":6,"scale":0.3499999940395355},"pbrMetallicRoughness":{"baseColorTexture":{"index":7},"metallicFactor":0,"metallicRoughnessTexture":{"index":8}}},{"doubleSided":true,"name":"TF3_KR_dark_concrete","normalTexture":{"index":9,"scale":0.3499999940395355},"pbrMetallicRoughness":{"baseColorTexture":{"index":10},"metallicFactor":0,"metallicRoughnessTexture":{"index":11}}},{"doubleSided":true,"name":"TF3_KR_black","pbrMetallicRoughness":{"baseColorFactor":[0.006571403704583645,0.00854038167744875,0.00854038167744875,1],"metallicFactor":0,"roughnessFactor":0.75}},{"doubleSided":true,"name":"TF3_KR_faded_ink","pbrMetallicRoughness":{"baseColorFactor":[0.07828831672668457,0.08353512734174728,0.059253521263599396,1],"metallicFactor":0,"roughnessFactor":0.8999999761581421}}],"meshes":[{"name":"Cast_in_shoulder_mesh","primitives":[{"attributes":{"POSITION":0,"NORMAL":1,"TEXCOORD_0":2},"indices":3,"material":0},{"attributes":{"POSITION":4,"NORMAL":5,"TEXCOORD_0":6},"indices":7,"material":1},{"attributes":{"POSITION":8,"NORMAL":9,"TEXCOORD_0":10},"indices":11,"material":2},{"attributes":{"POSITION":12,"NORMAL":13,"TEXCOORD_0":14},"indices":15,"material":3},{"attributes":{"POSITION":16,"NORMAL":17,"TEXCOORD_0":18},"indices":19,"material":4},{"attributes":{"POSITION":20,"NORMAL":21,"TEXCOORD_0":22},"indices":23,"material":5}]}],"textures":[{"sampler":0,"source":0},{"sampler":0,"source":1},{"sampler":0,"source":2},{"sampler":0,"source":3},{"sampler":0,"source":4},{"sampler":0,"source":5},{"sampler":0,"source":6},{"sampler":0,"source":7},{"sampler":0,"source":8},{"sampler":0,"source":9},{"sampler":0,"source":10},{"sampler":0,"source":11}],"images":[{"name":"oxide_normal","uri":"textures/23e83a75bde3ee9d177c5ac544f2e52664b4e02d7bece4a8c28ee529a551215a.png"},{"name":"oxide_basecolor","uri":"textures/48ce253f3e7355d35ff07c7382029a2c69f00f0d2735591bc147f6248e976811.png"},{"name":"oxide_roughness","uri":"textures/7fe013e5e049ccf839c05657fe070cedae7c212491da7fbbf29b0a2d32156d49.png"},{"name":"aged_wood_normal","uri":"textures/32baf58b404fea48a92099b7359f6bc4853a084a5c0ad6a09e5af9ca9fd0d2b3.png"},{"name":"aged_wood_basecolor","uri":"textures/15b5dc58aba2278c641d4bdd2efccfaf03a366558458fdc1b1298590022af6a4.png"},{"name":"aged_wood_roughness","uri":"textures/c3d84fcee1238a7f89f3f2346910aebfaa05e4ccf200b4166ab457d22c8e0852.png"},{"name":"concrete_normal","uri":"textures/fda994eebbe1b57f4711f092127f1bc19eebbed0bb391de64c586c0351ad1bc4.png"},{"name":"concrete_basecolor","uri":"textures/27390e807f59507730b42163a65dc5350d378c311f527bfa459a9f77edf0a26f.png"},{"name":"concrete_roughness","uri":"textures/c4f806cac11f661fc81e5735b02240e44cde46af6cdd1325033feae899d8bff6.png"},{"name":"dark_concrete_normal","uri":"textures/1e4ef6c16e52b936423e2036986053e2bd12e8a5f64bb06b30bdd08326c6e134.png"},{"name":"dark_concrete_basecolor","uri":"textures/41b39ba9836f2acc67e1420bd202eb42268a09ca4ba2daeced0eb27bff1f2aa5.png"},{"name":"dark_concrete_roughness","uri":"textures/f57777001a1b4e80f430f9fe20f179b4f87b4053179fefd808709eb6a0b4632a.png"}],"accessors":[{"bufferView":0,"componentType":5126,"count":10432,"max":[1.0211966037750244,0.9129999876022339,0.6775000095367432],"min":[-1.021194338798523,0.3330000042915344,-0.6775000095367432],"type":"VEC3"},{"bufferView":1,"componentType":5126,"count":10432,"type":"VEC3"},{"bufferView":2,"componentType":5126,"count":10432,"type":"VEC2"},{"bufferView":3,"componentType":5123,"count":15552,"type":"SCALAR"},{"bufferView":4,"componentType":5126,"count":1298,"max":[1.2199997901916504,0.6549999713897705,0.8149999976158142],"min":[-1.21999990940094,0,-0.815000057220459],"type":"VEC3"},{"bufferView":5,"componentType":5126,"count":1298,"type":"VEC3"},{"bufferView":6,"componentType":5126,"count":1298,"type":"VEC2"},{"bufferView":7,"componentType":5123,"count":1944,"type":"SCALAR"},{"bufferView":8,"componentType":5126,"count":6888,"max":[1.3886964321136475,0.8760000467300415,0.7664567828178406],"min":[-1.3886942863464355,0.12000000476837158,-0.7664568424224854],"type":"VEC3"},{"bufferView":9,"componentType":5126,"count":6888,"type":"VEC3"},{"bufferView":10,"componentType":5126,"count":6888,"type":"VEC2"},{"bufferView":11,"componentType":5123,"count":9936,"type":"SCALAR"},{"bufferView":12,"componentType":5126,"count":5296,"max":[0.9736965894699097,0.8774999380111694,0.7325000166893005],"min":[-0.9736942648887634,0.33250001072883606,-0.7324999570846558],"type":"VEC3"},{"bufferView":13,"componentType":5126,"count":5296,"type":"VEC3"},{"bufferView":14,"componentType":5126,"count":5296,"type":"VEC2"},{"bufferView":15,"componentType":5123,"count":7776,"type":"SCALAR"},{"bufferView":16,"componentType":5126,"count":10808,"max":[1.0126965045928955,0.9099999666213989,0.6800000071525574],"min":[-1.012694239616394,0.35600000619888306,-0.5520000457763672],"type":"VEC3"},{"bufferView":17,"componentType":5126,"count":10808,"type":"VEC3"},{"bufferView":18,"componentType":5126,"count":10808,"type":"VEC2"},{"bufferView":19,"componentType":5123,"count":15552,"type":"SCALAR"},{"bufferView":20,"componentType":5126,"count":2463,"max":[0.09152078628540039,0.771761417388916,0.7103999853134155],"min":[0.007828891277313232,0.75311279296875,0.7095999717712402],"type":"VEC3"},{"bufferView":21,"componentType":5126,"count":2463,"type":"VEC3"},{"bufferView":22,"componentType":5126,"count":2463,"type":"VEC2"},{"bufferView":23,"componentType":5123,"count":11124,"type":"SCALAR"}],"bufferViews":[{"buffer":0,"byteLength":125184,"byteOffset":0,"target":34962},{"buffer":0,"byteLength":125184,"byteOffset":125184,"target":34962},{"buffer":0,"byteLength":83456,"byteOffset":250368,"target":34962},{"buffer":0,"byteLength":31104,"byteOffset":333824,"target":34963},{"buffer":0,"byteLength":15576,"byteOffset":364928,"target":34962},{"buffer":0,"byteLength":15576,"byteOffset":380504,"target":34962},{"buffer":0,"byteLength":10384,"byteOffset":396080,"target":34962},{"buffer":0,"byteLength":3888,"byteOffset":406464,"target":34963},{"buffer":0,"byteLength":82656,"byteOffset":410352,"target":34962},{"buffer":0,"byteLength":82656,"byteOffset":493008,"target":34962},{"buffer":0,"byteLength":55104,"byteOffset":575664,"target":34962},{"buffer":0,"byteLength":19872,"byteOffset":630768,"target":34963},{"buffer":0,"byteLength":63552,"byteOffset":650640,"target":34962},{"buffer":0,"byteLength":63552,"byteOffset":714192,"target":34962},{"buffer":0,"byteLength":42368,"byteOffset":777744,"target":34962},{"buffer":0,"byteLength":15552,"byteOffset":820112,"target":34963},{"buffer":0,"byteLength":129696,"byteOffset":835664,"target":34962},{"buffer":0,"byteLength":129696,"byteOffset":965360,"target":34962},{"buffer":0,"byteLength":86464,"byteOffset":1095056,"target":34962},{"buffer":0,"byteLength":31104,"byteOffset":1181520,"target":34963},{"buffer":0,"byteLength":29556,"byteOffset":1212624,"target":34962},{"buffer":0,"byteLength":29556,"byteOffset":1242180,"target":34962},{"buffer":0,"byteLength":19704,"byteOffset":1271736,"target":34962},{"buffer":0,"byteLength":22248,"byteOffset":1291440,"target":34963}],"samplers":[{"magFilter":9729,"minFilter":9987}],"buffers":[{"uri":"KR_R11.bin","byteLength":1313688}]}