{"asset":{"generator":"Khronos glTF Blender I/O v5.2.40","version":"2.0"},"scene":0,"scenes":[{"name":"Scene","nodes":[0]}],"nodes":[{"mesh":0,"name":"TF3_KR_R08"}],"materials":[{"doubleSided":true,"name":"TF3_KR_black","pbrMetallicRoughness":{"baseColorFactor":[0.005422868765890598,0.005981059744954109,0.005422868765890598,1],"metallicFactor":0,"roughnessFactor":0.8600000143051147}},{"alphaMode":"BLEND","doubleSided":true,"name":"TF3_KR_damp_algae_decal","pbrMetallicRoughness":{"baseColorTexture":{"index":0},"metallicFactor":0,"roughnessFactor":0.9599999785423279}},{"doubleSided":true,"name":"TF3_KR_whitewash","normalTexture":{"index":1,"scale":0.3499999940395355},"pbrMetallicRoughness":{"baseColorTexture":{"index":2},"metallicFactor":0,"metallicRoughnessTexture":{"index":3}}}],"meshes":[{"name":"Fictitious_km_214_letters","primitives":[{"attributes":{"POSITION":0,"NORMAL":1,"TEXCOORD_0":2},"indices":3,"material":0},{"attributes":{"POSITION":4,"NORMAL":5,"TEXCOORD_0":6},"indices":7,"material":1},{"attributes":{"POSITION":8,"NORMAL":9,"TEXCOORD_0":10},"indices":11,"material":2}]}],"textures":[{"sampler":0,"source":0},{"sampler":0,"source":1},{"sampler":0,"source":2},{"sampler":0,"source":3}],"images":[{"name":"damp_algae_decal","uri":"textures/7ed59975d2664d85f01eabac4a248689a813926850a0f680800abb776e035c04.png"},{"name":"whitewash_normal","uri":"textures/1aa02bdcaeebed0d1fb0a8255cd218ec61ebf7b2de2ad824a5fef4d821dd8419.png"},{"name":"whitewash_basecolor","uri":"textures/fd4bdf85a3bfbfb818561220f30f732592135d574a5dbde25387a0f0c09f109a.png"},{"name":"whitewash_roughness","uri":"textures/925e589e666f9615f86ee2b03be77b47c651df035b468cd4fdc9271eb53d6fee.png"}],"accessors":[{"bufferView":0,"componentType":5126,"count":2417,"max":[0.11297600716352463,0.5278505682945251,0.03340001404285431],"min":[-0.1129760593175888,0.2318277806043625,-0.03340001404285431],"type":"VEC3"},{"bufferView":1,"componentType":5126,"count":2417,"type":"VEC3"},{"bufferView":2,"componentType":5126,"count":2417,"type":"VEC2"},{"bufferView":3,"componentType":5123,"count":11424,"type":"SCALAR"},{"bufferView":4,"componentType":5126,"count":4,"max":[0.24400000274181366,0.0910000205039978,0.033500004559755325],"min":[-0.24400000274181366,0.0010000169277191162,0.03350000083446503],"type":"VEC3"},{"bufferView":5,"componentType":5126,"count":4,"type":"VEC3"},{"bufferView":6,"componentType":5126,"count":4,"type":"VEC2"},{"bufferView":7,"componentType":5123,"count":6,"type":"SCALAR"},{"bufferView":8,"componentType":5126,"count":326,"max":[0.25,0.699999988079071,0.03200000151991844],"min":[-0.25,0,-0.03200000524520874],"type":"VEC3"},{"bufferView":9,"componentType":5126,"count":326,"type":"VEC3"},{"bufferView":10,"componentType":5126,"count":326,"type":"VEC2"},{"bufferView":11,"componentType":5123,"count":492,"type":"SCALAR"}],"bufferViews":[{"buffer":0,"byteLength":29004,"byteOffset":0,"target":34962},{"buffer":0,"byteLength":29004,"byteOffset":29004,"target":34962},{"buffer":0,"byteLength":19336,"byteOffset":58008,"target":34962},{"buffer":0,"byteLength":22848,"byteOffset":77344,"target":34963},{"buffer":0,"byteLength":48,"byteOffset":100192,"target":34962},{"buffer":0,"byteLength":48,"byteOffset":100240,"target":34962},{"buffer":0,"byteLength":32,"byteOffset":100288,"target":34962},{"buffer":0,"byteLength":12,"byteOffset":100320,"target":34963},{"buffer":0,"byteLength":3912,"byteOffset":100332,"target":34962},{"buffer":0,"byteLength":3912,"byteOffset":104244,"target":34962},{"buffer":0,"byteLength":2608,"byteOffset":108156,"target":34962},{"buffer":0,"byteLength":984,"byteOffset":110764,"target":34963}],"samplers":[{"magFilter":9729,"minFilter":9987}],"buffers":[{"uri":"KR_R08.bin","byteLength":111748}]}