{"asset":{"generator":"Khronos glTF Blender I/O v5.2.40","version":"2.0"},"scene":0,"scenes":[{"name":"Scene","nodes":[0]}],"nodes":[{"mesh":0,"name":"TF3_KR_R05"}],"materials":[{"doubleSided":true,"name":"TF3_KR_dark_concrete","normalTexture":{"index":0,"scale":0.3499999940395355},"pbrMetallicRoughness":{"baseColorTexture":{"index":1},"metallicFactor":0,"metallicRoughnessTexture":{"index":2}}},{"doubleSided":true,"name":"TF3_KR_silt","pbrMetallicRoughness":{"baseColorFactor":[0.0889815241098404,0.07828831672668457,0.036306485533714294,1],"metallicFactor":0,"roughnessFactor":0.949999988079071}},{"doubleSided":true,"name":"TF3_KR_zinc","normalTexture":{"index":3,"scale":0.3499999940395355},"pbrMetallicRoughness":{"baseColorTexture":{"index":4},"metallicFactor":0.6800000071525574,"metallicRoughnessTexture":{"index":5}}},{"doubleSided":true,"name":"TF3_KR_bolts","pbrMetallicRoughness":{"baseColorFactor":[0.10653922706842422,0.1259673833847046,0.11928018927574158,1],"metallicFactor":0.800000011920929,"roughnessFactor":0.36000001430511475}},{"doubleSided":true,"name":"TF3_KR_concrete","normalTexture":{"index":6,"scale":0.3499999940395355},"pbrMetallicRoughness":{"baseColorTexture":{"index":7},"metallicFactor":0,"metallicRoughnessTexture":{"index":8}}}],"meshes":[{"name":"Cast_joint_front_mesh","primitives":[{"attributes":{"POSITION":0,"NORMAL":1,"TEXCOORD_0":2},"indices":3,"material":0},{"attributes":{"POSITION":4,"NORMAL":5,"TEXCOORD_0":6},"indices":7,"material":1},{"attributes":{"POSITION":8,"NORMAL":9,"TEXCOORD_0":10},"indices":11,"material":2},{"attributes":{"POSITION":12,"NORMAL":13,"TEXCOORD_0":14},"indices":15,"material":3},{"attributes":{"POSITION":16,"NORMAL":17,"TEXCOORD_0":18},"indices":19,"material":4}]}],"textures":[{"sampler":0,"source":0},{"sampler":0,"source":1},{"sampler":0,"source":2},{"sampler":0,"source":3},{"sampler":0,"source":4},{"sampler":0,"source":5},{"sampler":0,"source":6},{"sampler":0,"source":7},{"sampler":0,"source":8}],"images":[{"name":"dark_concrete_normal","uri":"textures/1e4ef6c16e52b936423e2036986053e2bd12e8a5f64bb06b30bdd08326c6e134.png"},{"name":"dark_concrete_basecolor","uri":"textures/41b39ba9836f2acc67e1420bd202eb42268a09ca4ba2daeced0eb27bff1f2aa5.png"},{"name":"dark_concrete_roughness","uri":"textures/f57777001a1b4e80f430f9fe20f179b4f87b4053179fefd808709eb6a0b4632a.png"},{"name":"zinc_normal","uri":"textures/ab099086dd0d1714963937448c90fdf272c849888f0c6174db21238e7c8e1251.png"},{"name":"zinc_basecolor","uri":"textures/4a866830366d3a37fd614bf492e0622d5f27e6b62f9b5d5389a995a24d5785d5.png"},{"name":"zinc_roughness","uri":"textures/7fc926275eba659e1df112c5d14334a6ce890b06cb2c6a0d5e16f9337e3c6d6b.png"},{"name":"concrete_normal","uri":"textures/fda994eebbe1b57f4711f092127f1bc19eebbed0bb391de64c586c0351ad1bc4.png"},{"name":"concrete_basecolor","uri":"textures/27390e807f59507730b42163a65dc5350d378c311f527bfa459a9f77edf0a26f.png"},{"name":"concrete_roughness","uri":"textures/c4f806cac11f661fc81e5735b02240e44cde46af6cdd1325033feae899d8bff6.png"}],"accessors":[{"bufferView":0,"componentType":5126,"count":916,"max":[0.6000000238418579,0.12650001049041748,1.4800000190734863],"min":[-0.6000000238418579,0.0004999972879886627,-1.4800000190734863],"type":"VEC3"},{"bufferView":1,"componentType":5126,"count":916,"type":"VEC3"},{"bufferView":2,"componentType":5126,"count":916,"type":"VEC2"},{"bufferView":3,"componentType":5123,"count":1296,"type":"SCALAR"},{"bufferView":4,"componentType":5126,"count":1200,"max":[0.22472183406352997,0.15506723523139954,1.3967139720916748],"min":[-0.23783260583877563,0.11293277889490128,-1.3735556602478027],"type":"VEC3"},{"bufferView":5,"componentType":5126,"count":1200,"type":"VEC3"},{"bufferView":6,"componentType":5126,"count":1200,"type":"VEC2"},{"bufferView":7,"componentType":5123,"count":1200,"type":"SCALAR"},{"bufferView":8,"componentType":5126,"count":3776,"max":[0.48250001668930054,0.5670000314712524,0.3199999928474426],"min":[-0.48250001668930054,0.534000039100647,-0.31999993324279785],"type":"VEC3"},{"bufferView":9,"componentType":5126,"count":3776,"type":"VEC3"},{"bufferView":10,"componentType":5126,"count":3776,"type":"VEC2"},{"bufferView":11,"componentType":5123,"count":5508,"type":"SCALAR"},{"bufferView":12,"componentType":5126,"count":400,"max":[0.491599977016449,0.5759999752044678,0.3116000294685364],"min":[-0.491599977016449,0.5640000104904175,-0.3115999698638916],"type":"VEC3"},{"bufferView":13,"componentType":5126,"count":400,"type":"VEC3"},{"bufferView":14,"componentType":5126,"count":400,"type":"VEC2"},{"bufferView":15,"componentType":5123,"count":960,"type":"SCALAR"},{"bufferView":16,"componentType":5126,"count":432,"max":[0.6000000238418579,0.5299999713897705,1.5],"min":[-0.6000000238418579,0,-1.5],"type":"VEC3"},{"bufferView":17,"componentType":5126,"count":432,"type":"VEC3"},{"bufferView":18,"componentType":5126,"count":432,"type":"VEC2"},{"bufferView":19,"componentType":5123,"count":660,"type":"SCALAR"}],"bufferViews":[{"buffer":0,"byteLength":10992,"byteOffset":0,"target":34962},{"buffer":0,"byteLength":10992,"byteOffset":10992,"target":34962},{"buffer":0,"byteLength":7328,"byteOffset":21984,"target":34962},{"buffer":0,"byteLength":2592,"byteOffset":29312,"target":34963},{"buffer":0,"byteLength":14400,"byteOffset":31904,"target":34962},{"buffer":0,"byteLength":14400,"byteOffset":46304,"target":34962},{"buffer":0,"byteLength":9600,"byteOffset":60704,"target":34962},{"buffer":0,"byteLength":2400,"byteOffset":70304,"target":34963},{"buffer":0,"byteLength":45312,"byteOffset":72704,"target":34962},{"buffer":0,"byteLength":45312,"byteOffset":118016,"target":34962},{"buffer":0,"byteLength":30208,"byteOffset":163328,"target":34962},{"buffer":0,"byteLength":11016,"byteOffset":193536,"target":34963},{"buffer":0,"byteLength":4800,"byteOffset":204552,"target":34962},{"buffer":0,"byteLength":4800,"byteOffset":209352,"target":34962},{"buffer":0,"byteLength":3200,"byteOffset":214152,"target":34962},{"buffer":0,"byteLength":1920,"byteOffset":217352,"target":34963},{"buffer":0,"byteLength":5184,"byteOffset":219272,"target":34962},{"buffer":0,"byteLength":5184,"byteOffset":224456,"target":34962},{"buffer":0,"byteLength":3456,"byteOffset":229640,"target":34962},{"buffer":0,"byteLength":1320,"byteOffset":233096,"target":34963}],"samplers":[{"magFilter":9729,"minFilter":9987}],"buffers":[{"uri":"KR_R05.bin","byteLength":234416}]}