{"asset":{"generator":"Khronos glTF Blender I/O v5.2.40","version":"2.0"},"scene":0,"scenes":[{"name":"Scene","nodes":[0]}],"nodes":[{"mesh":0,"name":"TF3_KR_R02"}],"materials":[{"doubleSided":true,"name":"TF3_KR_bolts","pbrMetallicRoughness":{"baseColorFactor":[0.10653922706842422,0.1259673833847046,0.11928018927574158,1],"metallicFactor":0.800000011920929,"roughnessFactor":0.36000001430511475}},{"doubleSided":true,"name":"TF3_KR_silver_paint","normalTexture":{"index":0,"scale":0.3499999940395355},"pbrMetallicRoughness":{"baseColorTexture":{"index":1},"metallicFactor":0.18000000715255737,"metallicRoughnessTexture":{"index":2}}},{"doubleSided":true,"name":"TF3_KR_black","pbrMetallicRoughness":{"baseColorFactor":[0.006571403704583645,0.00854038167744875,0.00854038167744875,1],"metallicFactor":0,"roughnessFactor":0.75}},{"doubleSided":true,"name":"TF3_KR_concrete","normalTexture":{"index":3,"scale":0.3499999940395355},"pbrMetallicRoughness":{"baseColorTexture":{"index":4},"metallicFactor":0,"metallicRoughnessTexture":{"index":5}}},{"doubleSided":true,"name":"TF3_KR_copper","pbrMetallicRoughness":{"baseColorFactor":[0.1259673833847046,0.03968190774321556,0.010022825561463833,1],"metallicFactor":0.699999988079071,"roughnessFactor":0.5}},{"doubleSided":true,"name":"TF3_KR_label_cream","pbrMetallicRoughness":{"baseColorFactor":[0.5704815983772278,0.47699978947639465,0.19599418342113495,1],"metallicFactor":0,"roughnessFactor":0.8199999928474426}},{"doubleSided":true,"name":"TF3_KR_zinc","normalTexture":{"index":6,"scale":0.3499999940395355},"pbrMetallicRoughness":{"baseColorTexture":{"index":7},"metallicFactor":0.7200000286102295,"metallicRoughnessTexture":{"index":8}}},{"doubleSided":true,"name":"TF3_KR_oxide","normalTexture":{"index":9,"scale":0.3499999940395355},"pbrMetallicRoughness":{"baseColorTexture":{"index":10},"metallicFactor":0,"metallicRoughnessTexture":{"index":11}}},{"doubleSided":true,"name":"TF3_KR_dull_brass","pbrMetallicRoughness":{"baseColorFactor":[0.11280478537082672,0.07828831672668457,0.017389101907610893,1],"metallicFactor":0.550000011920929,"roughnessFactor":0.47999998927116394}},{"alphaMode":"BLEND","doubleSided":true,"name":"TF3_KR_damp_algae_decal","pbrMetallicRoughness":{"baseColorTexture":{"index":12},"metallicFactor":0,"roughnessFactor":0.9599999785423279}}],"meshes":[{"name":"Anchor_mesh","primitives":[{"attributes":{"POSITION":0,"NORMAL":1,"TEXCOORD_0":2},"indices":3,"material":0},{"attributes":{"POSITION":4,"NORMAL":5,"TEXCOORD_0":6},"indices":7,"material":1},{"attributes":{"POSITION":8,"NORMAL":9,"TEXCOORD_0":10},"indices":11,"material":2},{"attributes":{"POSITION":12,"NORMAL":13,"TEXCOORD_0":14},"indices":15,"material":3},{"attributes":{"POSITION":16,"NORMAL":17,"TEXCOORD_0":18},"indices":19,"material":4},{"attributes":{"POSITION":20,"NORMAL":21,"TEXCOORD_0":22},"indices":23,"material":5},{"attributes":{"POSITION":24,"NORMAL":25,"TEXCOORD_0":26},"indices":27,"material":6},{"attributes":{"POSITION":28,"NORMAL":29,"TEXCOORD_0":30},"indices":31,"material":7},{"attributes":{"POSITION":32,"NORMAL":33,"TEXCOORD_0":34},"indices":35,"material":8},{"attributes":{"POSITION":36,"NORMAL":37,"TEXCOORD_0":38},"indices":39,"material":9}]}],"textures":[{"sampler":0,"source":0},{"sampler":0,"source":1},{"sampler":0,"source":2},{"sampler":0,"source":3},{"sampler":0,"source":4},{"sampler":0,"source":5},{"sampler":0,"source":6},{"sampler":0,"source":7},{"sampler":0,"source":8},{"sampler":0,"source":9},{"sampler":0,"source":10},{"sampler":0,"source":11},{"sampler":0,"source":12}],"images":[{"name":"silver_paint_normal","uri":"textures/23b9f1e8259a2f03881e23dbcdad24a478013930518fcb6233f6ead187773d5e.png"},{"name":"silver_paint_basecolor","uri":"textures/8df0e12597a3f7523f07f3f7049f528337e4462f93f275d6b9a59fc75f5827a5.png"},{"name":"silver_paint_roughness","uri":"textures/5b3fac8f165499e8d58f34d30d593200c4a626aa5dc6706518b040b4267505b7.png"},{"name":"concrete_normal","uri":"textures/fda994eebbe1b57f4711f092127f1bc19eebbed0bb391de64c586c0351ad1bc4.png"},{"name":"concrete_basecolor","uri":"textures/27390e807f59507730b42163a65dc5350d378c311f527bfa459a9f77edf0a26f.png"},{"name":"concrete_roughness","uri":"textures/c4f806cac11f661fc81e5735b02240e44cde46af6cdd1325033feae899d8bff6.png"},{"name":"zinc_normal","uri":"textures/ab099086dd0d1714963937448c90fdf272c849888f0c6174db21238e7c8e1251.png"},{"name":"zinc_basecolor","uri":"textures/4a866830366d3a37fd614bf492e0622d5f27e6b62f9b5d5389a995a24d5785d5.png"},{"name":"zinc_roughness","uri":"textures/7fc926275eba659e1df112c5d14334a6ce890b06cb2c6a0d5e16f9337e3c6d6b.png"},{"name":"oxide_normal","uri":"textures/23e83a75bde3ee9d177c5ac544f2e52664b4e02d7bece4a8c28ee529a551215a.png"},{"name":"oxide_basecolor","uri":"textures/48ce253f3e7355d35ff07c7382029a2c69f00f0d2735591bc147f6248e976811.png"},{"name":"oxide_roughness","uri":"textures/7fe013e5e049ccf839c05657fe070cedae7c212491da7fbbf29b0a2d32156d49.png"},{"name":"damp_algae_decal","uri":"textures/7ed59975d2664d85f01eabac4a248689a813926850a0f680800abb776e035c04.png"}],"accessors":[{"bufferView":0,"componentType":5126,"count":1191,"max":[0.26660001277923584,1.0058000087738037,0.35600000619888306],"min":[-0.26455003023147583,0.3100000023841858,-0.15884999930858612],"type":"VEC3"},{"bufferView":1,"componentType":5126,"count":1191,"type":"VEC3"},{"bufferView":2,"componentType":5126,"count":1191,"type":"VEC2"},{"bufferView":3,"componentType":5123,"count":3072,"type":"SCALAR"},{"bufferView":4,"componentType":5126,"count":2150,"max":[0.3799999952316284,1.3650000095367432,0.36149999499320984],"min":[-0.3799999952316284,0.3099999725818634,-0.32350003719329834],"type":"VEC3"},{"bufferView":5,"componentType":5126,"count":2150,"type":"VEC3"},{"bufferView":6,"componentType":5126,"count":2150,"type":"VEC2"},{"bufferView":7,"componentType":5123,"count":3084,"type":"SCALAR"},{"bufferView":8,"componentType":5126,"count":6399,"max":[0.3253999948501587,1.1656999588012695,0.3670000433921814],"min":[-0.2680000066757202,0.06000000238418579,-0.22100000083446503],"type":"VEC3"},{"bufferView":9,"componentType":5126,"count":6399,"type":"VEC3"},{"bufferView":10,"componentType":5126,"count":6399,"type":"VEC2"},{"bufferView":11,"componentType":5123,"count":25956,"type":"SCALAR"},{"bufferView":12,"componentType":5126,"count":432,"max":[0.4350000023841858,0.2670000195503235,0.4050000309944153],"min":[-0.4350000023841858,0,-0.4050000309944153],"type":"VEC3"},{"bufferView":13,"componentType":5126,"count":432,"type":"VEC3"},{"bufferView":14,"componentType":5126,"count":432,"type":"VEC2"},{"bufferView":15,"componentType":5123,"count":648,"type":"SCALAR"},{"bufferView":16,"componentType":5126,"count":21,"max":[0.37899988889694214,0.3183591365814209,-0.006544888019561768],"min":[0.25298449397087097,0.025000005960464478,-0.08347301185131073],"type":"VEC3"},{"bufferView":17,"componentType":5126,"count":21,"type":"VEC3"},{"bufferView":18,"componentType":5126,"count":21,"type":"VEC2"},{"bufferView":19,"componentType":5123,"count":72,"type":"SCALAR"},{"bufferView":20,"componentType":5126,"count":630,"max":[0.3229999542236328,0.9993000030517578,0.3345000147819519],"min":[-0.1940000057220459,0.6448000073432922,-0.14499999582767487],"type":"VEC3"},{"bufferView":21,"componentType":5126,"count":630,"type":"VEC3"},{"bufferView":22,"componentType":5126,"count":630,"type":"VEC2"},{"bufferView":23,"componentType":5123,"count":1212,"type":"SCALAR"},{"bufferView":24,"componentType":5126,"count":1658,"max":[0.3799999952316284,1.2725000381469727,0.3675000071525574],"min":[-0.3799999952316284,0.32499998807907104,0.2994999885559082],"type":"VEC3"},{"bufferView":25,"componentType":5126,"count":1658,"type":"VEC3"},{"bufferView":26,"componentType":5126,"count":1658,"type":"VEC2"},{"bufferView":27,"componentType":5123,"count":2736,"type":"SCALAR"},{"bufferView":28,"componentType":5126,"count":1056,"max":[0.2831999659538269,1.1631267070770264,0.3215000033378601],"min":[-0.2832000255584717,0.26100000739097595,-0.19500000774860382],"type":"VEC3"},{"bufferView":29,"componentType":5126,"count":1056,"type":"VEC3"},{"bufferView":30,"componentType":5126,"count":1056,"type":"VEC2"},{"bufferView":31,"componentType":5123,"count":1584,"type":"SCALAR"},{"bufferView":32,"componentType":5126,"count":216,"max":[0.19249999523162842,0.5789999961853027,0.3644999861717224],"min":[0.14550000429153442,0.5269999504089355,0.3395000100135803],"type":"VEC3"},{"bufferView":33,"componentType":5126,"count":216,"type":"VEC3"},{"bufferView":34,"componentType":5126,"count":216,"type":"VEC2"},{"bufferView":35,"componentType":5123,"count":324,"type":"SCALAR"},{"bufferView":36,"componentType":5126,"count":4,"max":[0.4300000071525574,0.0949999988079071,0.406000018119812],"min":[-0.4300000071525574,0.014999985694885254,0.406000018119812],"type":"VEC3"},{"bufferView":37,"componentType":5126,"count":4,"type":"VEC3"},{"bufferView":38,"componentType":5126,"count":4,"type":"VEC2"},{"bufferView":39,"componentType":5123,"count":6,"type":"SCALAR"}],"bufferViews":[{"buffer":0,"byteLength":14292,"byteOffset":0,"target":34962},{"buffer":0,"byteLength":14292,"byteOffset":14292,"target":34962},{"buffer":0,"byteLength":9528,"byteOffset":28584,"target":34962},{"buffer":0,"byteLength":6144,"byteOffset":38112,"target":34963},{"buffer":0,"byteLength":25800,"byteOffset":44256,"target":34962},{"buffer":0,"byteLength":25800,"byteOffset":70056,"target":34962},{"buffer":0,"byteLength":17200,"byteOffset":95856,"target":34962},{"buffer":0,"byteLength":6168,"byteOffset":113056,"target":34963},{"buffer":0,"byteLength":76788,"byteOffset":119224,"target":34962},{"buffer":0,"byteLength":76788,"byteOffset":196012,"target":34962},{"buffer":0,"byteLength":51192,"byteOffset":272800,"target":34962},{"buffer":0,"byteLength":51912,"byteOffset":323992,"target":34963},{"buffer":0,"byteLength":5184,"byteOffset":375904,"target":34962},{"buffer":0,"byteLength":5184,"byteOffset":381088,"target":34962},{"buffer":0,"byteLength":3456,"byteOffset":386272,"target":34962},{"buffer":0,"byteLength":1296,"byteOffset":389728,"target":34963},{"buffer":0,"byteLength":252,"byteOffset":391024,"target":34962},{"buffer":0,"byteLength":252,"byteOffset":391276,"target":34962},{"buffer":0,"byteLength":168,"byteOffset":391528,"target":34962},{"buffer":0,"byteLength":144,"byteOffset":391696,"target":34963},{"buffer":0,"byteLength":7560,"byteOffset":391840,"target":34962},{"buffer":0,"byteLength":7560,"byteOffset":399400,"target":34962},{"buffer":0,"byteLength":5040,"byteOffset":406960,"target":34962},{"buffer":0,"byteLength":2424,"byteOffset":412000,"target":34963},{"buffer":0,"byteLength":19896,"byteOffset":414424,"target":34962},{"buffer":0,"byteLength":19896,"byteOffset":434320,"target":34962},{"buffer":0,"byteLength":13264,"byteOffset":454216,"target":34962},{"buffer":0,"byteLength":5472,"byteOffset":467480,"target":34963},{"buffer":0,"byteLength":12672,"byteOffset":472952,"target":34962},{"buffer":0,"byteLength":12672,"byteOffset":485624,"target":34962},{"buffer":0,"byteLength":8448,"byteOffset":498296,"target":34962},{"buffer":0,"byteLength":3168,"byteOffset":506744,"target":34963},{"buffer":0,"byteLength":2592,"byteOffset":509912,"target":34962},{"buffer":0,"byteLength":2592,"byteOffset":512504,"target":34962},{"buffer":0,"byteLength":1728,"byteOffset":515096,"target":34962},{"buffer":0,"byteLength":648,"byteOffset":516824,"target":34963},{"buffer":0,"byteLength":48,"byteOffset":517472,"target":34962},{"buffer":0,"byteLength":48,"byteOffset":517520,"target":34962},{"buffer":0,"byteLength":32,"byteOffset":517568,"target":34962},{"buffer":0,"byteLength":12,"byteOffset":517600,"target":34963}],"samplers":[{"magFilter":9729,"minFilter":9987}],"buffers":[{"uri":"KR_R02.bin","byteLength":517612}]}