{"asset":{"generator":"Khronos glTF Blender I/O v5.2.40","version":"2.0"},"scene":0,"scenes":[{"name":"Scene","nodes":[0]}],"nodes":[{"mesh":0,"name":"TF3_KR_U03"}],"materials":[{"doubleSided":true,"name":"TF3_KR_zinc","normalTexture":{"index":0,"scale":0.3499999940395355},"pbrMetallicRoughness":{"baseColorTexture":{"index":1},"metallicFactor":0.7200000286102295,"metallicRoughnessTexture":{"index":2}}},{"doubleSided":true,"name":"TF3_KR_faded_utility_ink","pbrMetallicRoughness":{"baseColorFactor":[0.021980946883559227,0.0300741046667099,0.02451501414179802,1],"metallicFactor":0,"roughnessFactor":0.8500000238418579}},{"doubleSided":true,"name":"TF3_KR_pole_number_yellow","pbrMetallicRoughness":{"baseColorFactor":[0.5542217493057251,0.3931231200695038,0.06372379511594772,1],"metallicFactor":0,"roughnessFactor":0.8700000047683716}},{"doubleSided":true,"name":"TF3_KR_bolts","pbrMetallicRoughness":{"baseColorFactor":[0.10653922706842422,0.1259673833847046,0.11928018927574158,1],"metallicFactor":0.800000011920929,"roughnessFactor":0.36000001430511475}},{"doubleSided":true,"emissiveFactor":[0.012000000104308128,0.012599999085068703,0.009599999524652958],"name":"TF3_KR_opal_diffuser","pbrMetallicRoughness":{"baseColorFactor":[0.5542217493057251,0.5870163440704346,0.4479884207248688,1],"metallicFactor":0,"roughnessFactor":0.2800000011920929}},{"doubleSided":true,"name":"TF3_KR_silver_paint","normalTexture":{"index":3,"scale":0.3499999940395355},"pbrMetallicRoughness":{"baseColorTexture":{"index":4},"metallicFactor":0.25,"metallicRoughnessTexture":{"index":5}}},{"doubleSided":true,"name":"TF3_KR_cable_jacket","pbrMetallicRoughness":{"baseColorFactor":[0.007194409146904945,0.009264310821890831,0.010022825561463833,1],"metallicFactor":0,"roughnessFactor":0.8500000238418579}},{"doubleSided":true,"name":"TF3_KR_utility_steel","pbrMetallicRoughness":{"baseColorFactor":[0.0300741046667099,0.03968190774321556,0.03968190774321556,1],"metallicFactor":0.6000000238418579,"roughnessFactor":0.5799999833106995}},{"alphaMode":"BLEND","doubleSided":true,"name":"TF3_KR_damp_algae_decal","pbrMetallicRoughness":{"baseColorTexture":{"index":6},"metallicFactor":0,"roughnessFactor":0.9599999785423279}},{"doubleSided":true,"name":"TF3_KR_concrete","normalTexture":{"index":7,"scale":0.3499999940395355},"pbrMetallicRoughness":{"baseColorTexture":{"index":8},"metallicFactor":0,"metallicRoughnessTexture":{"index":9}}}],"meshes":[{"name":"Feed_cable_clip_curve","primitives":[{"attributes":{"POSITION":0,"NORMAL":1,"TEXCOORD_0":2},"indices":3,"material":0},{"attributes":{"POSITION":4,"NORMAL":5,"TEXCOORD_0":6},"indices":7,"material":1},{"attributes":{"POSITION":8,"NORMAL":9,"TEXCOORD_0":10},"indices":11,"material":2},{"attributes":{"POSITION":12,"NORMAL":13,"TEXCOORD_0":14},"indices":15,"material":3},{"attributes":{"POSITION":16,"NORMAL":17,"TEXCOORD_0":18},"indices":19,"material":4},{"attributes":{"POSITION":20,"NORMAL":21,"TEXCOORD_0":22},"indices":23,"material":5},{"attributes":{"POSITION":24,"NORMAL":25,"TEXCOORD_0":26},"indices":27,"material":6},{"attributes":{"POSITION":28,"NORMAL":29,"TEXCOORD_0":30},"indices":31,"material":7},{"attributes":{"POSITION":32,"NORMAL":33,"TEXCOORD_0":34},"indices":35,"material":8},{"attributes":{"POSITION":36,"NORMAL":37,"TEXCOORD_0":38},"indices":39,"material":9}]}],"textures":[{"sampler":0,"source":0},{"sampler":0,"source":1},{"sampler":0,"source":2},{"sampler":0,"source":3},{"sampler":0,"source":4},{"sampler":0,"source":5},{"sampler":0,"source":6},{"sampler":0,"source":7},{"sampler":0,"source":8},{"sampler":0,"source":9}],"images":[{"name":"zinc_normal","uri":"textures/ab099086dd0d1714963937448c90fdf272c849888f0c6174db21238e7c8e1251.png"},{"name":"zinc_basecolor","uri":"textures/4a866830366d3a37fd614bf492e0622d5f27e6b62f9b5d5389a995a24d5785d5.png"},{"name":"zinc_roughness","uri":"textures/7fc926275eba659e1df112c5d14334a6ce890b06cb2c6a0d5e16f9337e3c6d6b.png"},{"name":"silver_paint_normal","uri":"textures/23b9f1e8259a2f03881e23dbcdad24a478013930518fcb6233f6ead187773d5e.png"},{"name":"silver_paint_basecolor","uri":"textures/8df0e12597a3f7523f07f3f7049f528337e4462f93f275d6b9a59fc75f5827a5.png"},{"name":"silver_paint_roughness","uri":"textures/5b3fac8f165499e8d58f34d30d593200c4a626aa5dc6706518b040b4267505b7.png"},{"name":"damp_algae_decal","uri":"textures/7ed59975d2664d85f01eabac4a248689a813926850a0f680800abb776e035c04.png"},{"name":"concrete_normal","uri":"textures/fda994eebbe1b57f4711f092127f1bc19eebbed0bb391de64c586c0351ad1bc4.png"},{"name":"concrete_basecolor","uri":"textures/27390e807f59507730b42163a65dc5350d378c311f527bfa459a9f77edf0a26f.png"},{"name":"concrete_roughness","uri":"textures/c4f806cac11f661fc81e5735b02240e44cde46af6cdd1325033feae899d8bff6.png"}],"accessors":[{"bufferView":0,"componentType":5126,"count":1641,"max":[1.4160000085830688,7.069968223571777,0.23999999463558197],"min":[-0.10305767506361008,0.41783493757247925,-0.08100003004074097],"type":"VEC3"},{"bufferView":1,"componentType":5126,"count":1641,"type":"VEC3"},{"bufferView":2,"componentType":5126,"count":1641,"type":"VEC2"},{"bufferView":3,"componentType":5123,"count":4332,"type":"SCALAR"},{"bufferView":4,"componentType":5126,"count":2783,"max":[1.1310795545578003,7.065268516540527,0.23040001094341278],"min":[-0.05492181330919266,1.005800485610962,0.05559999868273735],"type":"VEC3"},{"bufferView":5,"componentType":5126,"count":2783,"type":"VEC3"},{"bufferView":6,"componentType":5126,"count":2783,"type":"VEC2"},{"bufferView":7,"componentType":5123,"count":13080,"type":"SCALAR"},{"bufferView":8,"componentType":5126,"count":24,"max":[0.10199999809265137,1.1349999904632568,0.055299997329711914],"min":[-0.10199999809265137,0.9049999713897705,0.053300000727176666],"type":"VEC3"},{"bufferView":9,"componentType":5126,"count":24,"type":"VEC3"},{"bufferView":10,"componentType":5126,"count":24,"type":"VEC2"},{"bufferView":11,"componentType":5123,"count":36,"type":"SCALAR"},{"bufferView":12,"componentType":5126,"count":800,"max":[0.11155767738819122,6.834500312805176,0.07450000196695328],"min":[-0.11155767738819122,6.5355000495910645,-0.07450000196695328],"type":"VEC3"},{"bufferView":13,"componentType":5126,"count":800,"type":"VEC3"},{"bufferView":14,"componentType":5126,"count":800,"type":"VEC2"},{"bufferView":15,"componentType":5123,"count":1920,"type":"SCALAR"},{"bufferView":16,"componentType":5126,"count":220,"max":[1.3224999904632568,6.994499683380127,0.18700000643730164],"min":[0.8475000262260437,6.983500003814697,0.016999997198581696],"type":"VEC3"},{"bufferView":17,"componentType":5126,"count":220,"type":"VEC3"},{"bufferView":18,"componentType":5126,"count":220,"type":"VEC2"},{"bufferView":19,"componentType":5123,"count":324,"type":"SCALAR"},{"bufferView":20,"componentType":5126,"count":1826,"max":[1.476119041442871,7.111000061035156,0.22699999809265137],"min":[0.7799999713897705,7,-0.023000000044703484],"type":"VEC3"},{"bufferView":21,"componentType":5126,"count":1826,"type":"VEC3"},{"bufferView":22,"componentType":5126,"count":1826,"type":"VEC2"},{"bufferView":23,"componentType":5123,"count":2616,"type":"SCALAR"},{"bufferView":24,"componentType":5126,"count":872,"max":[1.3450000286102295,7.049000263214111,0.2125425487756729],"min":[0.03916410356760025,-7.699152774875984e-05,-0.0005000010132789612],"type":"VEC3"},{"bufferView":25,"componentType":5126,"count":872,"type":"VEC3"},{"bufferView":26,"componentType":5126,"count":872,"type":"VEC2"},{"bufferView":27,"componentType":5123,"count":3312,"type":"SCALAR"},{"bufferView":28,"componentType":5126,"count":912,"max":[0.11255766451358795,6.8520002365112305,0.06199999898672104],"min":[-0.11255766451358795,6.51800012588501,-0.06199999898672104],"type":"VEC3"},{"bufferView":29,"componentType":5126,"count":912,"type":"VEC3"},{"bufferView":30,"componentType":5126,"count":912,"type":"VEC2"},{"bufferView":31,"componentType":5123,"count":1296,"type":"SCALAR"},{"bufferView":32,"componentType":5126,"count":4,"max":[0.13484999537467957,0.2199999988079071,0.05350000038743019],"min":[-0.13484999537467957,0,0.05350000038743019],"type":"VEC3"},{"bufferView":33,"componentType":5126,"count":4,"type":"VEC3"},{"bufferView":34,"componentType":5126,"count":4,"type":"VEC2"},{"bufferView":35,"componentType":5123,"count":6,"type":"SCALAR"},{"bufferView":36,"componentType":5126,"count":222,"max":[0.14078330993652344,7.5,0.05249999836087227],"min":[-0.14078330993652344,0,-0.05249999836087227],"type":"VEC3"},{"bufferView":37,"componentType":5126,"count":222,"type":"VEC3"},{"bufferView":38,"componentType":5126,"count":222,"type":"VEC2"},{"bufferView":39,"componentType":5123,"count":324,"type":"SCALAR"}],"bufferViews":[{"buffer":0,"byteLength":19692,"byteOffset":0,"target":34962},{"buffer":0,"byteLength":19692,"byteOffset":19692,"target":34962},{"buffer":0,"byteLength":13128,"byteOffset":39384,"target":34962},{"buffer":0,"byteLength":8664,"byteOffset":52512,"target":34963},{"buffer":0,"byteLength":33396,"byteOffset":61176,"target":34962},{"buffer":0,"byteLength":33396,"byteOffset":94572,"target":34962},{"buffer":0,"byteLength":22264,"byteOffset":127968,"target":34962},{"buffer":0,"byteLength":26160,"byteOffset":150232,"target":34963},{"buffer":0,"byteLength":288,"byteOffset":176392,"target":34962},{"buffer":0,"byteLength":288,"byteOffset":176680,"target":34962},{"buffer":0,"byteLength":192,"byteOffset":176968,"target":34962},{"buffer":0,"byteLength":72,"byteOffset":177160,"target":34963},{"buffer":0,"byteLength":9600,"byteOffset":177232,"target":34962},{"buffer":0,"byteLength":9600,"byteOffset":186832,"target":34962},{"buffer":0,"byteLength":6400,"byteOffset":196432,"target":34962},{"buffer":0,"byteLength":3840,"byteOffset":202832,"target":34963},{"buffer":0,"byteLength":2640,"byteOffset":206672,"target":34962},{"buffer":0,"byteLength":2640,"byteOffset":209312,"target":34962},{"buffer":0,"byteLength":1760,"byteOffset":211952,"target":34962},{"buffer":0,"byteLength":648,"byteOffset":213712,"target":34963},{"buffer":0,"byteLength":21912,"byteOffset":214360,"target":34962},{"buffer":0,"byteLength":21912,"byteOffset":236272,"target":34962},{"buffer":0,"byteLength":14608,"byteOffset":258184,"target":34962},{"buffer":0,"byteLength":5232,"byteOffset":272792,"target":34963},{"buffer":0,"byteLength":10464,"byteOffset":278024,"target":34962},{"buffer":0,"byteLength":10464,"byteOffset":288488,"target":34962},{"buffer":0,"byteLength":6976,"byteOffset":298952,"target":34962},{"buffer":0,"byteLength":6624,"byteOffset":305928,"target":34963},{"buffer":0,"byteLength":10944,"byteOffset":312552,"target":34962},{"buffer":0,"byteLength":10944,"byteOffset":323496,"target":34962},{"buffer":0,"byteLength":7296,"byteOffset":334440,"target":34962},{"buffer":0,"byteLength":2592,"byteOffset":341736,"target":34963},{"buffer":0,"byteLength":48,"byteOffset":344328,"target":34962},{"buffer":0,"byteLength":48,"byteOffset":344376,"target":34962},{"buffer":0,"byteLength":32,"byteOffset":344424,"target":34962},{"buffer":0,"byteLength":12,"byteOffset":344456,"target":34963},{"buffer":0,"byteLength":2664,"byteOffset":344468,"target":34962},{"buffer":0,"byteLength":2664,"byteOffset":347132,"target":34962},{"buffer":0,"byteLength":1776,"byteOffset":349796,"target":34962},{"buffer":0,"byteLength":648,"byteOffset":351572,"target":34963}],"samplers":[{"magFilter":9729,"minFilter":9987}],"buffers":[{"uri":"KR_U03.bin","byteLength":352220}]}