{"asset":{"generator":"Khronos glTF Blender I/O v5.2.40","version":"2.0"},"scene":0,"scenes":[{"name":"Scene","nodes":[0]}],"nodes":[{"mesh":0,"name":"TF3_KR_U02"}],"materials":[{"doubleSided":true,"name":"TF3_KR_bolts","pbrMetallicRoughness":{"baseColorFactor":[0.10653922706842422,0.1259673833847046,0.11928018927574158,1],"metallicFactor":0.800000011920929,"roughnessFactor":0.36000001430511475}},{"doubleSided":true,"name":"TF3_KR_zinc","normalTexture":{"index":0,"scale":0.3499999940395355},"pbrMetallicRoughness":{"baseColorTexture":{"index":1},"metallicFactor":0.7200000286102295,"metallicRoughnessTexture":{"index":2}}},{"doubleSided":true,"name":"TF3_KR_oxide","normalTexture":{"index":3,"scale":0.3499999940395355},"pbrMetallicRoughness":{"baseColorTexture":{"index":4},"metallicFactor":0,"metallicRoughnessTexture":{"index":5}}},{"doubleSided":true,"name":"TF3_KR_faded_utility_ink","pbrMetallicRoughness":{"baseColorFactor":[0.021980946883559227,0.0300741046667099,0.02451501414179802,1],"metallicFactor":0,"roughnessFactor":0.8500000238418579}},{"doubleSided":true,"name":"TF3_KR_pole_number_yellow","pbrMetallicRoughness":{"baseColorFactor":[0.5542217493057251,0.3931231200695038,0.06372379511594772,1],"metallicFactor":0,"roughnessFactor":0.8700000047683716}},{"doubleSided":true,"name":"TF3_KR_safety_cream","pbrMetallicRoughness":{"baseColorFactor":[0.6559306979179382,0.6038273572921753,0.34239163994789124,1],"metallicFactor":0,"roughnessFactor":0.7799999713897705}},{"doubleSided":true,"name":"TF3_KR_nameplate_ink","pbrMetallicRoughness":{"baseColorFactor":[0.0134117491543293,0.01960664801299572,0.01960664801299572,1],"metallicFactor":0,"roughnessFactor":0.7200000286102295}},{"doubleSided":true,"name":"TF3_KR_silver_paint","normalTexture":{"index":6,"scale":0.3499999940395355},"pbrMetallicRoughness":{"baseColorTexture":{"index":7},"metallicFactor":0.2199999988079071,"metallicRoughnessTexture":{"index":8}}},{"doubleSided":true,"name":"TF3_KR_weathered_aluminium","pbrMetallicRoughness":{"baseColorFactor":[0.1259673833847046,0.15487249195575714,0.15487249195575714,1],"metallicFactor":0.800000011920929,"roughnessFactor":0.5}},{"doubleSided":true,"name":"TF3_KR_glazed_brown_porcelain","pbrMetallicRoughness":{"baseColorFactor":[0.036306485533714294,0.010816383175551891,0.004694424569606781,1],"metallicFactor":0.029999999329447746,"roughnessFactor":0.23000000417232513}},{"doubleSided":true,"name":"TF3_KR_utility_steel","pbrMetallicRoughness":{"baseColorFactor":[0.0300741046667099,0.03968190774321556,0.03968190774321556,1],"metallicFactor":0.6000000238418579,"roughnessFactor":0.5799999833106995}},{"doubleSided":true,"name":"TF3_KR_gauge_dark_glass","pbrMetallicRoughness":{"baseColorFactor":[0.021980946883559227,0.03310476616024971,0.02451501414179802,1],"metallicFactor":0.11999999731779099,"roughnessFactor":0.1899999976158142}},{"alphaMode":"BLEND","doubleSided":true,"name":"TF3_KR_damp_algae_decal","pbrMetallicRoughness":{"baseColorTexture":{"index":9},"metallicFactor":0,"roughnessFactor":0.9599999785423279}},{"doubleSided":true,"name":"TF3_KR_conduit_dark","pbrMetallicRoughness":{"baseColorFactor":[0.027211781591176987,0.036306485533714294,0.036306485533714294,1],"metallicFactor":0.1599999964237213,"roughnessFactor":0.699999988079071}},{"doubleSided":true,"name":"TF3_KR_cable_jacket","pbrMetallicRoughness":{"baseColorFactor":[0.007194409146904945,0.009264310821890831,0.010022825561463833,1],"metallicFactor":0,"roughnessFactor":0.8500000238418579}},{"doubleSided":true,"name":"TF3_KR_concrete","normalTexture":{"index":10,"scale":0.3499999940395355},"pbrMetallicRoughness":{"baseColorTexture":{"index":11},"metallicFactor":0,"metallicRoughnessTexture":{"index":12}}},{"doubleSided":true,"name":"TF3_KR_nameplate_silver","pbrMetallicRoughness":{"baseColorFactor":[0.3546920716762543,0.3931231200695038,0.3546920716762543,1],"metallicFactor":0.3799999952316284,"roughnessFactor":0.6200000047683716}},{"doubleSided":true,"name":"TF3_KR_warning_red","pbrMetallicRoughness":{"baseColorFactor":[0.17064493894577026,0.006571403704583645,0.0035010159481316805,1],"metallicFactor":0,"roughnessFactor":0.699999988079071}},{"doubleSided":true,"name":"TF3_KR_warning_ink","pbrMetallicRoughness":{"baseColorFactor":[0.007194409146904945,0.010022825561463833,0.00854038167744875,1],"metallicFactor":0,"roughnessFactor":0.75}}],"meshes":[{"name":"Bushing_terminal_nut_mesh","primitives":[{"attributes":{"POSITION":0,"NORMAL":1,"TEXCOORD_0":2},"indices":3,"material":0},{"attributes":{"POSITION":4,"NORMAL":5,"TEXCOORD_0":6},"indices":7,"material":1},{"attributes":{"POSITION":8,"NORMAL":9,"TEXCOORD_0":10},"indices":11,"material":2},{"attributes":{"POSITION":12,"NORMAL":13,"TEXCOORD_0":14},"indices":15,"material":3},{"attributes":{"POSITION":16,"NORMAL":17,"TEXCOORD_0":18},"indices":19,"material":4},{"attributes":{"POSITION":20,"NORMAL":21,"TEXCOORD_0":22},"indices":23,"material":5},{"attributes":{"POSITION":24,"NORMAL":25,"TEXCOORD_0":26},"indices":27,"material":6},{"attributes":{"POSITION":28,"NORMAL":29,"TEXCOORD_0":30},"indices":31,"material":7},{"attributes":{"POSITION":32,"NORMAL":33,"TEXCOORD_0":34},"indices":35,"material":8},{"attributes":{"POSITION":36,"NORMAL":37,"TEXCOORD_0":38},"indices":39,"material":9},{"attributes":{"POSITION":40,"NORMAL":41,"TEXCOORD_0":42},"indices":43,"material":10},{"attributes":{"POSITION":44,"NORMAL":45,"TEXCOORD_0":46},"indices":47,"material":11},{"attributes":{"POSITION":48,"NORMAL":49,"TEXCOORD_0":50},"indices":51,"material":12},{"attributes":{"POSITION":52,"NORMAL":53,"TEXCOORD_0":54},"indices":55,"material":13},{"attributes":{"POSITION":56,"NORMAL":57,"TEXCOORD_0":58},"indices":59,"material":14},{"attributes":{"POSITION":60,"NORMAL":61,"TEXCOORD_0":62},"indices":63,"material":15},{"attributes":{"POSITION":64,"NORMAL":65,"TEXCOORD_0":66},"indices":67,"material":16},{"attributes":{"POSITION":68,"NORMAL":69,"TEXCOORD_0":70},"indices":71,"material":17},{"attributes":{"POSITION":72,"NORMAL":73,"TEXCOORD_0":74},"indices":75,"material":18}]}],"textures":[{"sampler":0,"source":0},{"sampler":0,"source":1},{"sampler":0,"source":2},{"sampler":0,"source":3},{"sampler":0,"source":4},{"sampler":0,"source":5},{"sampler":0,"source":6},{"sampler":0,"source":7},{"sampler":0,"source":8},{"sampler":0,"source":9},{"sampler":0,"source":10},{"sampler":0,"source":11},{"sampler":0,"source":12}],"images":[{"name":"zinc_normal","uri":"textures/ab099086dd0d1714963937448c90fdf272c849888f0c6174db21238e7c8e1251.png"},{"name":"zinc_basecolor","uri":"textures/4a866830366d3a37fd614bf492e0622d5f27e6b62f9b5d5389a995a24d5785d5.png"},{"name":"zinc_roughness","uri":"textures/7fc926275eba659e1df112c5d14334a6ce890b06cb2c6a0d5e16f9337e3c6d6b.png"},{"name":"oxide_normal","uri":"textures/23e83a75bde3ee9d177c5ac544f2e52664b4e02d7bece4a8c28ee529a551215a.png"},{"name":"oxide_basecolor","uri":"textures/48ce253f3e7355d35ff07c7382029a2c69f00f0d2735591bc147f6248e976811.png"},{"name":"oxide_roughness","uri":"textures/7fe013e5e049ccf839c05657fe070cedae7c212491da7fbbf29b0a2d32156d49.png"},{"name":"silver_paint_normal","uri":"textures/23b9f1e8259a2f03881e23dbcdad24a478013930518fcb6233f6ead187773d5e.png"},{"name":"silver_paint_basecolor","uri":"textures/8df0e12597a3f7523f07f3f7049f528337e4462f93f275d6b9a59fc75f5827a5.png"},{"name":"silver_paint_roughness","uri":"textures/5b3fac8f165499e8d58f34d30d593200c4a626aa5dc6706518b040b4267505b7.png"},{"name":"damp_algae_decal","uri":"textures/7ed59975d2664d85f01eabac4a248689a813926850a0f680800abb776e035c04.png"},{"name":"concrete_normal","uri":"textures/fda994eebbe1b57f4711f092127f1bc19eebbed0bb391de64c586c0351ad1bc4.png"},{"name":"concrete_basecolor","uri":"textures/27390e807f59507730b42163a65dc5350d378c311f527bfa459a9f77edf0a26f.png"},{"name":"concrete_roughness","uri":"textures/c4f806cac11f661fc81e5735b02240e44cde46af6cdd1325033feae899d8bff6.png"}],"accessors":[{"bufferView":0,"componentType":5126,"count":6400,"max":[1.27079176902771,7.076000213623047,0.36750006675720215],"min":[-1.27079176902771,1.2055001258850098,-0.36160001158714294],"type":"VEC3"},{"bufferView":1,"componentType":5126,"count":6400,"type":"VEC3"},{"bufferView":2,"componentType":5126,"count":6400,"type":"VEC2"},{"bufferView":3,"componentType":5123,"count":15360,"type":"SCALAR"},{"bufferView":4,"componentType":5126,"count":5076,"max":[1.2622917890548706,7.0920000076293945,0.4574732780456543],"min":[-1.2622917890548706,0.3259999752044678,-0.25123000144958496],"type":"VEC3"},{"bufferView":5,"componentType":5126,"count":5076,"type":"VEC3"},{"bufferView":6,"componentType":5126,"count":5076,"type":"VEC2"},{"bufferView":7,"componentType":5123,"count":13476,"type":"SCALAR"},{"bufferView":8,"componentType":5126,"count":68,"max":[0.21500006318092346,3.078000068664551,0.41300004720687866],"min":[0.125,3.064000129699707,0.39899998903274536],"type":"VEC3"},{"bufferView":9,"componentType":5126,"count":68,"type":"VEC3"},{"bufferView":10,"componentType":5126,"count":68,"type":"VEC2"},{"bufferView":11,"componentType":5123,"count":180,"type":"SCALAR"},{"bufferView":12,"componentType":5126,"count":3437,"max":[1.1549218893051147,1.03623628616333,0.05640001595020294],"min":[-1.1549217700958252,1.005220651626587,-0.05640001595020294],"type":"VEC3"},{"bufferView":13,"componentType":5126,"count":3437,"type":"VEC3"},{"bufferView":14,"componentType":5126,"count":3437,"type":"VEC2"},{"bufferView":15,"componentType":5123,"count":16812,"type":"SCALAR"},{"bufferView":16,"componentType":5126,"count":48,"max":[1.2020000219345093,1.1349999904632568,0.05529998242855072],"min":[-1.2020000219345093,0.9049999713897705,-0.05530001223087311],"type":"VEC3"},{"bufferView":17,"componentType":5126,"count":48,"type":"VEC3"},{"bufferView":18,"componentType":5126,"count":48,"type":"VEC2"},{"bufferView":19,"componentType":5123,"count":72,"type":"SCALAR"},{"bufferView":20,"componentType":5126,"count":260,"max":[0.1615000069141388,3.6589999198913574,0.37050002813339233],"min":[-1.2400000095367432,1.619999885559082,0.06699998676776886],"type":"VEC3"},{"bufferView":21,"componentType":5126,"count":260,"type":"VEC3"},{"bufferView":22,"componentType":5126,"count":260,"type":"VEC2"},{"bufferView":23,"componentType":5123,"count":384,"type":"SCALAR"},{"bufferView":24,"componentType":5126,"count":4662,"max":[0.05954241752624512,3.4487462043762207,0.35740000009536743],"min":[-0.058613091707229614,3.359422445297241,0.35659998655319214],"type":"VEC3"},{"bufferView":25,"componentType":5126,"count":4662,"type":"VEC3"},{"bufferView":26,"componentType":5126,"count":4662,"type":"VEC2"},{"bufferView":27,"componentType":5123,"count":21468,"type":"SCALAR"},{"bufferView":28,"componentType":5126,"count":9402,"max":[0.627500057220459,4.000794410705566,0.4650000333786011],"min":[-0.627500057220459,2.809999942779541,-0.4650000333786011],"type":"VEC3"},{"bufferView":29,"componentType":5126,"count":9402,"type":"VEC3"},{"bufferView":30,"componentType":5126,"count":9402,"type":"VEC2"},{"bufferView":31,"componentType":5123,"count":15060,"type":"SCALAR"},{"bufferView":32,"componentType":5126,"count":1134,"max":[0.7849999666213989,7.114721775054932,0.26307421922683716],"min":[-0.7740000486373901,4.334874153137207,-0.30115216970443726],"type":"VEC3"},{"bufferView":33,"componentType":5126,"count":1134,"type":"VEC3"},{"bufferView":34,"componentType":5126,"count":1134,"type":"VEC2"},{"bufferView":35,"componentType":5123,"count":5508,"type":"SCALAR"},{"bufferView":36,"componentType":5126,"count":14960,"max":[0.8029998540878296,7.0279998779296875,0.26200002431869507],"min":[-0.8029999732971191,3.9019999504089355,-0.2720000147819519],"type":"VEC3"},{"bufferView":37,"componentType":5126,"count":14960,"type":"VEC3"},{"bufferView":38,"componentType":5126,"count":14960,"type":"VEC2"},{"bufferView":39,"componentType":5123,"count":49080,"type":"SCALAR"},{"bufferView":40,"componentType":5126,"count":5956,"max":[1.375,6.710000038146973,0.4300000071525574],"min":[-1.3750001192092896,1.1699998378753662,-0.4300000071525574],"type":"VEC3"},{"bufferView":41,"componentType":5126,"count":5956,"type":"VEC3"},{"bufferView":42,"componentType":5126,"count":5956,"type":"VEC2"},{"bufferView":43,"componentType":5123,"count":8424,"type":"SCALAR"},{"bufferView":44,"componentType":5126,"count":132,"max":[0.18299993872642517,3.6689999103546143,0.36900007724761963],"min":[0.13699999451637268,3.622999906539917,0.36600005626678467],"type":"VEC3"},{"bufferView":45,"componentType":5126,"count":132,"type":"VEC3"},{"bufferView":46,"componentType":5126,"count":132,"type":"VEC2"},{"bufferView":47,"componentType":5123,"count":372,"type":"SCALAR"},{"bufferView":48,"componentType":5126,"count":8,"max":[1.2348500490188599,0.2199997901916504,0.053500011563301086],"min":[-1.2348500490188599,0,0.0534999817609787],"type":"VEC3"},{"bufferView":49,"componentType":5126,"count":8,"type":"VEC3"},{"bufferView":50,"componentType":5126,"count":8,"type":"VEC2"},{"bufferView":51,"componentType":5123,"count":12,"type":"SCALAR"},{"bufferView":52,"componentType":5126,"count":100,"max":[1.1480001211166382,2.3499999046325684,0.24800001084804535],"min":[1.0520001649856567,0,0.15199999511241913],"type":"VEC3"},{"bufferView":53,"componentType":5126,"count":100,"type":"VEC3"},{"bufferView":54,"componentType":5126,"count":100,"type":"VEC2"},{"bufferView":55,"componentType":5123,"count":276,"type":"SCALAR"},{"bufferView":56,"componentType":5126,"count":1324,"max":[1.1325173377990723,4.261885643005371,0.6969621777534485],"min":[-0.5270000100135803,2.348710060119629,-0.375],"type":"VEC3"},{"bufferView":57,"componentType":5126,"count":1324,"type":"VEC3"},{"bufferView":58,"componentType":5126,"count":1324,"type":"VEC2"},{"bufferView":59,"componentType":5123,"count":6084,"type":"SCALAR"},{"bufferView":60,"componentType":5126,"count":450,"max":[1.2407833337783813,7.5,0.05249999463558197],"min":[-1.2407833337783813,0,-0.052500009536743164],"type":"VEC3"},{"bufferView":61,"componentType":5126,"count":450,"type":"VEC3"},{"bufferView":62,"componentType":5126,"count":450,"type":"VEC2"},{"bufferView":63,"componentType":5123,"count":648,"type":"SCALAR"},{"bufferView":64,"componentType":5126,"count":224,"max":[0.15000000596046448,3.4850001335144043,0.35500001907348633],"min":[-0.15000000596046448,3.315000057220459,0.3410000205039978],"type":"VEC3"},{"bufferView":65,"componentType":5126,"count":224,"type":"VEC3"},{"bufferView":66,"componentType":5126,"count":224,"type":"VEC2"},{"bufferView":67,"componentType":5123,"count":324,"type":"SCALAR"},{"bufferView":68,"componentType":5126,"count":2049,"max":[-1.0480856895446777,1.8858110904693604,0.07799999415874481],"min":[-1.1502987146377563,1.7319998741149902,0.07660000026226044],"type":"VEC3"},{"bufferView":69,"componentType":5126,"count":2049,"type":"VEC3"},{"bufferView":70,"componentType":5126,"count":2049,"type":"VEC2"},{"bufferView":71,"componentType":5123,"count":9780,"type":"SCALAR"},{"bufferView":72,"componentType":5126,"count":36,"max":[-1.0800000429153442,1.7860000133514404,0.07999999821186066],"min":[-1.1180000305175781,1.7150001525878906,0.07899998128414154],"type":"VEC3"},{"bufferView":73,"componentType":5126,"count":36,"type":"VEC3"},{"bufferView":74,"componentType":5126,"count":36,"type":"VEC2"},{"bufferView":75,"componentType":5123,"count":60,"type":"SCALAR"}],"bufferViews":[{"buffer":0,"byteLength":76800,"byteOffset":0,"target":34962},{"buffer":0,"byteLength":76800,"byteOffset":76800,"target":34962},{"buffer":0,"byteLength":51200,"byteOffset":153600,"target":34962},{"buffer":0,"byteLength":30720,"byteOffset":204800,"target":34963},{"buffer":0,"byteLength":60912,"byteOffset":235520,"target":34962},{"buffer":0,"byteLength":60912,"byteOffset":296432,"target":34962},{"buffer":0,"byteLength":40608,"byteOffset":357344,"target":34962},{"buffer":0,"byteLength":26952,"byteOffset":397952,"target":34963},{"buffer":0,"byteLength":816,"byteOffset":424904,"target":34962},{"buffer":0,"byteLength":816,"byteOffset":425720,"target":34962},{"buffer":0,"byteLength":544,"byteOffset":426536,"target":34962},{"buffer":0,"byteLength":360,"byteOffset":427080,"target":34963},{"buffer":0,"byteLength":41244,"byteOffset":427440,"target":34962},{"buffer":0,"byteLength":41244,"byteOffset":468684,"target":34962},{"buffer":0,"byteLength":27496,"byteOffset":509928,"target":34962},{"buffer":0,"byteLength":33624,"byteOffset":537424,"target":34963},{"buffer":0,"byteLength":576,"byteOffset":571048,"target":34962},{"buffer":0,"byteLength":576,"byteOffset":571624,"target":34962},{"buffer":0,"byteLength":384,"byteOffset":572200,"target":34962},{"buffer":0,"byteLength":144,"byteOffset":572584,"target":34963},{"buffer":0,"byteLength":3120,"byteOffset":572728,"target":34962},{"buffer":0,"byteLength":3120,"byteOffset":575848,"target":34962},{"buffer":0,"byteLength":2080,"byteOffset":578968,"target":34962},{"buffer":0,"byteLength":768,"byteOffset":581048,"target":34963},{"buffer":0,"byteLength":55944,"byteOffset":581816,"target":34962},{"buffer":0,"byteLength":55944,"byteOffset":637760,"target":34962},{"buffer":0,"byteLength":37296,"byteOffset":693704,"target":34962},{"buffer":0,"byteLength":42936,"byteOffset":731000,"target":34963},{"buffer":0,"byteLength":112824,"byteOffset":773936,"target":34962},{"buffer":0,"byteLength":112824,"byteOffset":886760,"target":34962},{"buffer":0,"byteLength":75216,"byteOffset":999584,"target":34962},{"buffer":0,"byteLength":30120,"byteOffset":1074800,"target":34963},{"buffer":0,"byteLength":13608,"byteOffset":1104920,"target":34962},{"buffer":0,"byteLength":13608,"byteOffset":1118528,"target":34962},{"buffer":0,"byteLength":9072,"byteOffset":1132136,"target":34962},{"buffer":0,"byteLength":11016,"byteOffset":1141208,"target":34963},{"buffer":0,"byteLength":179520,"byteOffset":1152224,"target":34962},{"buffer":0,"byteLength":179520,"byteOffset":1331744,"target":34962},{"buffer":0,"byteLength":119680,"byteOffset":1511264,"target":34962},{"buffer":0,"byteLength":98160,"byteOffset":1630944,"target":34963},{"buffer":0,"byteLength":71472,"byteOffset":1729104,"target":34962},{"buffer":0,"byteLength":71472,"byteOffset":1800576,"target":34962},{"buffer":0,"byteLength":47648,"byteOffset":1872048,"target":34962},{"buffer":0,"byteLength":16848,"byteOffset":1919696,"target":34963},{"buffer":0,"byteLength":1584,"byteOffset":1936544,"target":34962},{"buffer":0,"byteLength":1584,"byteOffset":1938128,"target":34962},{"buffer":0,"byteLength":1056,"byteOffset":1939712,"target":34962},{"buffer":0,"byteLength":744,"byteOffset":1940768,"target":34963},{"buffer":0,"byteLength":96,"byteOffset":1941512,"target":34962},{"buffer":0,"byteLength":96,"byteOffset":1941608,"target":34962},{"buffer":0,"byteLength":64,"byteOffset":1941704,"target":34962},{"buffer":0,"byteLength":24,"byteOffset":1941768,"target":34963},{"buffer":0,"byteLength":1200,"byteOffset":1941792,"target":34962},{"buffer":0,"byteLength":1200,"byteOffset":1942992,"target":34962},{"buffer":0,"byteLength":800,"byteOffset":1944192,"target":34962},{"buffer":0,"byteLength":552,"byteOffset":1944992,"target":34963},{"buffer":0,"byteLength":15888,"byteOffset":1945544,"target":34962},{"buffer":0,"byteLength":15888,"byteOffset":1961432,"target":34962},{"buffer":0,"byteLength":10592,"byteOffset":1977320,"target":34962},{"buffer":0,"byteLength":12168,"byteOffset":1987912,"target":34963},{"buffer":0,"byteLength":5400,"byteOffset":2000080,"target":34962},{"buffer":0,"byteLength":5400,"byteOffset":2005480,"target":34962},{"buffer":0,"byteLength":3600,"byteOffset":2010880,"target":34962},{"buffer":0,"byteLength":1296,"byteOffset":2014480,"target":34963},{"buffer":0,"byteLength":2688,"byteOffset":2015776,"target":34962},{"buffer":0,"byteLength":2688,"byteOffset":2018464,"target":34962},{"buffer":0,"byteLength":1792,"byteOffset":2021152,"target":34962},{"buffer":0,"byteLength":648,"byteOffset":2022944,"target":34963},{"buffer":0,"byteLength":24588,"byteOffset":2023592,"target":34962},{"buffer":0,"byteLength":24588,"byteOffset":2048180,"target":34962},{"buffer":0,"byteLength":16392,"byteOffset":2072768,"target":34962},{"buffer":0,"byteLength":19560,"byteOffset":2089160,"target":34963},{"buffer":0,"byteLength":432,"byteOffset":2108720,"target":34962},{"buffer":0,"byteLength":432,"byteOffset":2109152,"target":34962},{"buffer":0,"byteLength":288,"byteOffset":2109584,"target":34962},{"buffer":0,"byteLength":120,"byteOffset":2109872,"target":34963}],"samplers":[{"magFilter":9729,"minFilter":9987}],"buffers":[{"uri":"KR_U02.bin","byteLength":2109992}]}