{"asset":{"generator":"Khronos glTF Blender I/O v5.2.40","version":"2.0"},"scene":0,"scenes":[{"name":"Scene","nodes":[0]}],"nodes":[{"mesh":0,"name":"TF3_KR_U01"}],"materials":[{"doubleSided":true,"name":"TF3_KR_bolts","pbrMetallicRoughness":{"baseColorFactor":[0.10653922706842422,0.1259673833847046,0.11928018927574158,1],"metallicFactor":0.800000011920929,"roughnessFactor":0.36000001430511475}},{"doubleSided":true,"name":"TF3_KR_zinc","normalTexture":{"index":0,"scale":0.3499999940395355},"pbrMetallicRoughness":{"baseColorTexture":{"index":1},"metallicFactor":0.7200000286102295,"metallicRoughnessTexture":{"index":2}}},{"doubleSided":true,"name":"TF3_KR_faded_utility_ink","pbrMetallicRoughness":{"baseColorFactor":[0.021980946883559227,0.0300741046667099,0.02451501414179802,1],"metallicFactor":0,"roughnessFactor":0.8500000238418579}},{"doubleSided":true,"name":"TF3_KR_pole_number_yellow","pbrMetallicRoughness":{"baseColorFactor":[0.5542217493057251,0.3931231200695038,0.06372379511594772,1],"metallicFactor":0,"roughnessFactor":0.8700000047683716}},{"doubleSided":true,"name":"TF3_KR_utility_steel","pbrMetallicRoughness":{"baseColorFactor":[0.0300741046667099,0.03968190774321556,0.03968190774321556,1],"metallicFactor":0.6000000238418579,"roughnessFactor":0.5799999833106995}},{"doubleSided":true,"name":"TF3_KR_weathered_aluminium","pbrMetallicRoughness":{"baseColorFactor":[0.1259673833847046,0.15487249195575714,0.15487249195575714,1],"metallicFactor":0.800000011920929,"roughnessFactor":0.5}},{"doubleSided":true,"name":"TF3_KR_glazed_brown_porcelain","pbrMetallicRoughness":{"baseColorFactor":[0.036306485533714294,0.010816383175551891,0.004694424569606781,1],"metallicFactor":0.029999999329447746,"roughnessFactor":0.23000000417232513}},{"alphaMode":"BLEND","doubleSided":true,"name":"TF3_KR_damp_algae_decal","pbrMetallicRoughness":{"baseColorTexture":{"index":3},"metallicFactor":0,"roughnessFactor":0.9599999785423279}},{"doubleSided":true,"name":"TF3_KR_cable_jacket","pbrMetallicRoughness":{"baseColorFactor":[0.007194409146904945,0.009264310821890831,0.010022825561463833,1],"metallicFactor":0,"roughnessFactor":0.8500000238418579}},{"doubleSided":true,"name":"TF3_KR_concrete","normalTexture":{"index":4,"scale":0.3499999940395355},"pbrMetallicRoughness":{"baseColorTexture":{"index":5},"metallicFactor":0,"metallicRoughnessTexture":{"index":6}}},{"doubleSided":true,"name":"TF3_KR_dull_copper","pbrMetallicRoughness":{"baseColorFactor":[0.06372379511594772,0.021980946883559227,0.009264310821890831,1],"metallicFactor":0.5,"roughnessFactor":0.800000011920929}}],"meshes":[{"name":"Clamp_nut_mesh","primitives":[{"attributes":{"POSITION":0,"NORMAL":1,"TEXCOORD_0":2},"indices":3,"material":0},{"attributes":{"POSITION":4,"NORMAL":5,"TEXCOORD_0":6},"indices":7,"material":1},{"attributes":{"POSITION":8,"NORMAL":9,"TEXCOORD_0":10},"indices":11,"material":2},{"attributes":{"POSITION":12,"NORMAL":13,"TEXCOORD_0":14},"indices":15,"material":3},{"attributes":{"POSITION":16,"NORMAL":17,"TEXCOORD_0":18},"indices":19,"material":4},{"attributes":{"POSITION":20,"NORMAL":21,"TEXCOORD_0":22},"indices":23,"material":5},{"attributes":{"POSITION":24,"NORMAL":25,"TEXCOORD_0":26},"indices":27,"material":6},{"attributes":{"POSITION":28,"NORMAL":29,"TEXCOORD_0":30},"indices":31,"material":7},{"attributes":{"POSITION":32,"NORMAL":33,"TEXCOORD_0":34},"indices":35,"material":8},{"attributes":{"POSITION":36,"NORMAL":37,"TEXCOORD_0":38},"indices":39,"material":9},{"attributes":{"POSITION":40,"NORMAL":41,"TEXCOORD_0":42},"indices":43,"material":10}]}],"textures":[{"sampler":0,"source":0},{"sampler":0,"source":1},{"sampler":0,"source":2},{"sampler":0,"source":3},{"sampler":0,"source":4},{"sampler":0,"source":5},{"sampler":0,"source":6}],"images":[{"name":"zinc_normal","uri":"textures/ab099086dd0d1714963937448c90fdf272c849888f0c6174db21238e7c8e1251.png"},{"name":"zinc_basecolor","uri":"textures/4a866830366d3a37fd614bf492e0622d5f27e6b62f9b5d5389a995a24d5785d5.png"},{"name":"zinc_roughness","uri":"textures/7fc926275eba659e1df112c5d14334a6ce890b06cb2c6a0d5e16f9337e3c6d6b.png"},{"name":"damp_algae_decal","uri":"textures/7ed59975d2664d85f01eabac4a248689a813926850a0f680800abb776e035c04.png"},{"name":"concrete_normal","uri":"textures/fda994eebbe1b57f4711f092127f1bc19eebbed0bb391de64c586c0351ad1bc4.png"},{"name":"concrete_basecolor","uri":"textures/27390e807f59507730b42163a65dc5350d378c311f527bfa459a9f77edf0a26f.png"},{"name":"concrete_roughness","uri":"textures/c4f806cac11f661fc81e5735b02240e44cde46af6cdd1325033feae899d8bff6.png"}],"accessors":[{"bufferView":0,"componentType":5126,"count":1100,"max":[0.4209499955177307,7.386000156402588,0.11600000411272049],"min":[-0.12522706389427185,0.5113000869750977,-0.07450002431869507],"type":"VEC3"},{"bufferView":1,"componentType":5126,"count":1100,"type":"VEC3"},{"bufferView":2,"componentType":5126,"count":1100,"type":"VEC2"},{"bufferView":3,"componentType":5123,"count":2640,"type":"SCALAR"},{"bufferView":4,"componentType":5126,"count":1685,"max":[0.4350000023841858,7.388000011444092,0.12200003117322922],"min":[-0.4350000023841858,0.5060000419616699,-0.08100003004074097],"type":"VEC3"},{"bufferView":5,"componentType":5126,"count":1685,"type":"VEC3"},{"bufferView":6,"componentType":5126,"count":1685,"type":"VEC2"},{"bufferView":7,"componentType":5123,"count":4548,"type":"SCALAR"},{"bufferView":8,"componentType":5126,"count":2210,"max":[0.05602000653743744,1.03623628616333,0.05640001222491264],"min":[-0.05492180585861206,1.0052204132080078,0.05560000240802765],"type":"VEC3"},{"bufferView":9,"componentType":5126,"count":2210,"type":"VEC3"},{"bufferView":10,"componentType":5126,"count":2210,"type":"VEC2"},{"bufferView":11,"componentType":5123,"count":10872,"type":"SCALAR"},{"bufferView":12,"componentType":5126,"count":24,"max":[0.10200001299381256,1.135000228881836,0.05530000478029251],"min":[-0.10199999064207077,0.9049997329711914,0.053300004452466965],"type":"VEC3"},{"bufferView":13,"componentType":5126,"count":24,"type":"VEC3"},{"bufferView":14,"componentType":5126,"count":24,"type":"VEC2"},{"bufferView":15,"componentType":5123,"count":36,"type":"SCALAR"},{"bufferView":16,"componentType":5126,"count":1834,"max":[0.550000011920929,7.237500190734863,0.10300000011920929],"min":[-0.550000011920929,5.288000106811523,-0.06200002133846283],"type":"VEC3"},{"bufferView":17,"componentType":5126,"count":1834,"type":"VEC3"},{"bufferView":18,"componentType":5126,"count":1834,"type":"VEC2"},{"bufferView":19,"componentType":5123,"count":2592,"type":"SCALAR"},{"bufferView":20,"componentType":5126,"count":812,"max":[0.45499998331069946,7.340196132659912,0.27306926250457764],"min":[-0.44099998474121094,7.2988057136535645,-0.10713852941989899],"type":"VEC3"},{"bufferView":21,"componentType":5126,"count":812,"type":"VEC3"},{"bufferView":22,"componentType":5126,"count":812,"type":"VEC2"},{"bufferView":23,"componentType":5123,"count":3888,"type":"SCALAR"},{"bufferView":24,"componentType":5126,"count":3576,"max":[0.45899999141693115,7.3979997634887695,0.14800000190734863],"min":[-0.4699999690055847,7.243000030517578,0.017999999225139618],"type":"VEC3"},{"bufferView":25,"componentType":5126,"count":3576,"type":"VEC3"},{"bufferView":26,"componentType":5126,"count":3576,"type":"VEC2"},{"bufferView":27,"componentType":5123,"count":11712,"type":"SCALAR"},{"bufferView":28,"componentType":5126,"count":4,"max":[0.13485001027584076,0.2200002670288086,0.05350000411272049],"min":[-0.13484999537467957,0,0.05350000038743019],"type":"VEC3"},{"bufferView":29,"componentType":5126,"count":4,"type":"VEC3"},{"bufferView":30,"componentType":5126,"count":4,"type":"VEC2"},{"bufferView":31,"componentType":5123,"count":6,"type":"SCALAR"},{"bufferView":32,"componentType":5126,"count":287,"max":[0.32279425859451294,5.338719367980957,0.09900001436471939],"min":[0.18720577657222748,5.111205101013184,0.08099999278783798],"type":"VEC3"},{"bufferView":33,"componentType":5126,"count":287,"type":"VEC3"},{"bufferView":34,"componentType":5126,"count":287,"type":"VEC2"},{"bufferView":35,"componentType":5123,"count":1440,"type":"SCALAR"},{"bufferView":36,"componentType":5126,"count":222,"max":[0.14078332483768463,7.5,0.05250000208616257],"min":[-0.14078330993652344,0,-0.052500009536743164],"type":"VEC3"},{"bufferView":37,"componentType":5126,"count":222,"type":"VEC3"},{"bufferView":38,"componentType":5126,"count":222,"type":"VEC2"},{"bufferView":39,"componentType":5123,"count":324,"type":"SCALAR"},{"bufferView":40,"componentType":5126,"count":21,"max":[0.04882065951824188,0.5000109672546387,0.07847607135772705],"min":[-0.003999993205070496,0.03381633758544922,0.06253591179847717],"type":"VEC3"},{"bufferView":41,"componentType":5126,"count":21,"type":"VEC3"},{"bufferView":42,"componentType":5126,"count":21,"type":"VEC2"},{"bufferView":43,"componentType":5123,"count":72,"type":"SCALAR"}],"bufferViews":[{"buffer":0,"byteLength":13200,"byteOffset":0,"target":34962},{"buffer":0,"byteLength":13200,"byteOffset":13200,"target":34962},{"buffer":0,"byteLength":8800,"byteOffset":26400,"target":34962},{"buffer":0,"byteLength":5280,"byteOffset":35200,"target":34963},{"buffer":0,"byteLength":20220,"byteOffset":40480,"target":34962},{"buffer":0,"byteLength":20220,"byteOffset":60700,"target":34962},{"buffer":0,"byteLength":13480,"byteOffset":80920,"target":34962},{"buffer":0,"byteLength":9096,"byteOffset":94400,"target":34963},{"buffer":0,"byteLength":26520,"byteOffset":103496,"target":34962},{"buffer":0,"byteLength":26520,"byteOffset":130016,"target":34962},{"buffer":0,"byteLength":17680,"byteOffset":156536,"target":34962},{"buffer":0,"byteLength":21744,"byteOffset":174216,"target":34963},{"buffer":0,"byteLength":288,"byteOffset":195960,"target":34962},{"buffer":0,"byteLength":288,"byteOffset":196248,"target":34962},{"buffer":0,"byteLength":192,"byteOffset":196536,"target":34962},{"buffer":0,"byteLength":72,"byteOffset":196728,"target":34963},{"buffer":0,"byteLength":22008,"byteOffset":196800,"target":34962},{"buffer":0,"byteLength":22008,"byteOffset":218808,"target":34962},{"buffer":0,"byteLength":14672,"byteOffset":240816,"target":34962},{"buffer":0,"byteLength":5184,"byteOffset":255488,"target":34963},{"buffer":0,"byteLength":9744,"byteOffset":260672,"target":34962},{"buffer":0,"byteLength":9744,"byteOffset":270416,"target":34962},{"buffer":0,"byteLength":6496,"byteOffset":280160,"target":34962},{"buffer":0,"byteLength":7776,"byteOffset":286656,"target":34963},{"buffer":0,"byteLength":42912,"byteOffset":294432,"target":34962},{"buffer":0,"byteLength":42912,"byteOffset":337344,"target":34962},{"buffer":0,"byteLength":28608,"byteOffset":380256,"target":34962},{"buffer":0,"byteLength":23424,"byteOffset":408864,"target":34963},{"buffer":0,"byteLength":48,"byteOffset":432288,"target":34962},{"buffer":0,"byteLength":48,"byteOffset":432336,"target":34962},{"buffer":0,"byteLength":32,"byteOffset":432384,"target":34962},{"buffer":0,"byteLength":12,"byteOffset":432416,"target":34963},{"buffer":0,"byteLength":3444,"byteOffset":432428,"target":34962},{"buffer":0,"byteLength":3444,"byteOffset":435872,"target":34962},{"buffer":0,"byteLength":2296,"byteOffset":439316,"target":34962},{"buffer":0,"byteLength":2880,"byteOffset":441612,"target":34963},{"buffer":0,"byteLength":2664,"byteOffset":444492,"target":34962},{"buffer":0,"byteLength":2664,"byteOffset":447156,"target":34962},{"buffer":0,"byteLength":1776,"byteOffset":449820,"target":34962},{"buffer":0,"byteLength":648,"byteOffset":451596,"target":34963},{"buffer":0,"byteLength":252,"byteOffset":452244,"target":34962},{"buffer":0,"byteLength":252,"byteOffset":452496,"target":34962},{"buffer":0,"byteLength":168,"byteOffset":452748,"target":34962},{"buffer":0,"byteLength":144,"byteOffset":452916,"target":34963}],"samplers":[{"magFilter":9729,"minFilter":9987}],"buffers":[{"uri":"KR_U01.bin","byteLength":453060}]}